ISO-10303-21;
HEADER;
/* Generated by software containing ST-Developer
 * from STEP Tools, Inc. (www.steptools.com) 
 */
/* OPTION: using custom renumber hook */

FILE_DESCRIPTION(
/* description */ ('STEP AP242 Edition 2',
'CAx-IF Rec.Pracs.---Representation and Presentation of Product Manufa
cturing Information (PMI)---4.0---2014-10-13',
'CAx-IF Rec.Pracs.---3D Tessellated Geometry---0.4---2014-09-14','2;1',
'CAx-IF Rec.Pracs.---User Defined Attributes---1.5---2016-08-15'),
/* implementation_level */ '2;1');

FILE_NAME(
/* name */ 
'Capacitor_THT-CP_Radial_D8.0mm_P3.50mm_special_position - Capacitor_T
HT-CP_Radial_D8.0mm_P3.50mm_special_position',
/* time_stamp */ '2026-07-26T16:01:53Z',
/* author */ (''),
/* organization */ (''),
/* preprocessor_version */ 'ST-DEVELOPER v20',
/* originating_system */ 'ONSHAPE BY PTC INC, 1.218',
/* authorisation */ '  ');

FILE_SCHEMA (('AP242_MANAGED_MODEL_BASED_3D_ENGINEERING_MIM_LF { 1 0 10303 442 3 1 4 }'));
ENDSEC;

DATA;
#10=SHAPE_REPRESENTATION_RELATIONSHIP('','',#135,#11);
#11=ADVANCED_BREP_SHAPE_REPRESENTATION('',(#133),#311);
#12=(
BOUNDED_SURFACE()
B_SPLINE_SURFACE(3,3,((#241,#242,#243,#244),(#245,#246,#247,#248),(#249,
#250,#251,#252),(#253,#254,#255,#256),(#257,#258,#259,#260),(#261,#262,
#263,#264),(#265,#266,#267,#268),(#269,#270,#271,#272),(#273,#274,#275,
#276),(#277,#278,#279,#280),(#281,#282,#283,#284)),.SURF_OF_REVOLUTION.,
 .T.,.F.,.F.)
B_SPLINE_SURFACE_WITH_KNOTS((1,1,1,1,1,1,1,1,1,1,1,1,1,1,1),(4,4),(-0.375,
-0.25,-0.125,0.,0.125,0.25,0.375,0.5,0.625,0.75,0.875,1.,1.125,1.25,1.375),
(0.,1.),.UNSPECIFIED.)
GEOMETRIC_REPRESENTATION_ITEM()
RATIONAL_B_SPLINE_SURFACE(((1.,0.800125073324943,0.800125073324943,1.),
(1.,0.800125073324943,0.800125073324943,1.),(1.,0.800125073324943,0.800125073324943,
1.),(1.,0.800125073324943,0.800125073324943,1.),(1.,0.800125073324943,0.800125073324943,
1.),(1.,0.800125073324943,0.800125073324943,1.),(1.,0.800125073324943,0.800125073324943,
1.),(1.,0.800125073324943,0.800125073324943,1.),(1.,0.800125073324943,0.800125073324943,
1.),(1.,0.800125073324943,0.800125073324943,1.),(1.,0.800125073324943,0.800125073324943,
1.)))
REPRESENTATION_ITEM('')
SURFACE()
);
#13=B_SPLINE_SURFACE_WITH_KNOTS('',3,1,((#215,#216),(#217,#218),(#219,#220),
(#221,#222),(#223,#224),(#225,#226),(#227,#228),(#229,#230),(#231,#232),
(#233,#234),(#235,#236)),.SURF_OF_LINEAR_EXTRUSION.,.T.,.F.,.F.,(1,1,1,
1,1,1,1,1,1,1,1,1,1,1,1),(2,2),(-0.375,-0.25,-0.125,0.,0.125,0.25,0.375,
0.5,0.625,0.75,0.875,1.,1.125,1.25,1.375),(0.,1.),.UNSPECIFIED.);
#14=B_SPLINE_SURFACE_WITH_KNOTS('',3,1,((#287,#288),(#289,#290),(#291,#292),
(#293,#294),(#295,#296),(#297,#298),(#299,#300),(#301,#302),(#303,#304),
(#305,#306),(#307,#308)),.SURF_OF_LINEAR_EXTRUSION.,.T.,.F.,.F.,(1,1,1,
1,1,1,1,1,1,1,1,1,1,1,1),(2,2),(-0.375,-0.25,-0.125,0.,0.125,0.25,0.375,
0.5,0.625,0.75,0.875,1.,1.125,1.25,1.375),(0.,1.),.UNSPECIFIED.);
#15=TOROIDAL_SURFACE('',#146,0.002,0.0004);
#16=PLANE('',#140);
#17=PLANE('',#141);
#18=PLANE('',#150);
#19=PLANE('',#154);
#20=ORIENTED_EDGE('',*,*,#40,.F.);
#21=ORIENTED_EDGE('',*,*,#41,.T.);
#22=ORIENTED_EDGE('',*,*,#40,.T.);
#23=ORIENTED_EDGE('',*,*,#42,.F.);
#24=ORIENTED_EDGE('',*,*,#43,.T.);
#25=ORIENTED_EDGE('',*,*,#41,.F.);
#26=ORIENTED_EDGE('',*,*,#43,.F.);
#27=ORIENTED_EDGE('',*,*,#44,.T.);
#28=ORIENTED_EDGE('',*,*,#44,.F.);
#29=ORIENTED_EDGE('',*,*,#45,.T.);
#30=ORIENTED_EDGE('',*,*,#45,.F.);
#31=ORIENTED_EDGE('',*,*,#46,.T.);
#32=ORIENTED_EDGE('',*,*,#46,.F.);
#33=ORIENTED_EDGE('',*,*,#47,.F.);
#34=ORIENTED_EDGE('',*,*,#48,.T.);
#35=ORIENTED_EDGE('',*,*,#48,.F.);
#36=ORIENTED_EDGE('',*,*,#49,.T.);
#37=ORIENTED_EDGE('',*,*,#49,.F.);
#38=ORIENTED_EDGE('',*,*,#42,.T.);
#39=ORIENTED_EDGE('',*,*,#47,.T.);
#40=EDGE_CURVE('',#50,#50,#60,.T.);
#41=EDGE_CURVE('',#51,#51,#61,.T.);
#42=EDGE_CURVE('',#52,#52,#62,.T.);
#43=EDGE_CURVE('',#53,#53,#63,.T.);
#44=EDGE_CURVE('',#54,#54,#64,.T.);
#45=EDGE_CURVE('',#55,#55,#65,.T.);
#46=EDGE_CURVE('',#56,#56,#66,.T.);
#47=EDGE_CURVE('',#57,#57,#67,.T.);
#48=EDGE_CURVE('',#58,#58,#68,.T.);
#49=EDGE_CURVE('',#59,#59,#69,.T.);
#50=VERTEX_POINT('',#196);
#51=VERTEX_POINT('',#198);
#52=VERTEX_POINT('',#202);
#53=VERTEX_POINT('',#204);
#54=VERTEX_POINT('',#207);
#55=VERTEX_POINT('',#210);
#56=VERTEX_POINT('',#213);
#57=VERTEX_POINT('',#238);
#58=VERTEX_POINT('',#240);
#59=VERTEX_POINT('',#286);
#60=CIRCLE('',#138,0.004);
#61=CIRCLE('',#139,0.004);
#62=CIRCLE('',#142,0.0004);
#63=CIRCLE('',#143,0.0004);
#64=CIRCLE('',#145,0.0004);
#65=CIRCLE('',#147,0.0004);
#66=CIRCLE('',#149,0.0004);
#67=CIRCLE('',#151,0.0004);
#68=CIRCLE('',#152,0.0004);
#69=CIRCLE('',#153,0.0004);
#70=EDGE_LOOP('',(#20));
#71=EDGE_LOOP('',(#21));
#72=EDGE_LOOP('',(#22));
#73=EDGE_LOOP('',(#23));
#74=EDGE_LOOP('',(#24));
#75=EDGE_LOOP('',(#25));
#76=EDGE_LOOP('',(#26));
#77=EDGE_LOOP('',(#27));
#78=EDGE_LOOP('',(#28));
#79=EDGE_LOOP('',(#29));
#80=EDGE_LOOP('',(#30));
#81=EDGE_LOOP('',(#31));
#82=EDGE_LOOP('',(#32));
#83=EDGE_LOOP('',(#33));
#84=EDGE_LOOP('',(#34));
#85=EDGE_LOOP('',(#35));
#86=EDGE_LOOP('',(#36));
#87=EDGE_LOOP('',(#37));
#88=EDGE_LOOP('',(#38));
#89=EDGE_LOOP('',(#39));
#90=FACE_BOUND('',#70,.T.);
#91=FACE_BOUND('',#71,.T.);
#92=FACE_BOUND('',#72,.T.);
#93=FACE_BOUND('',#73,.T.);
#94=FACE_BOUND('',#74,.T.);
#95=FACE_BOUND('',#75,.T.);
#96=FACE_BOUND('',#76,.T.);
#97=FACE_BOUND('',#77,.T.);
#98=FACE_BOUND('',#78,.T.);
#99=FACE_BOUND('',#79,.T.);
#100=FACE_BOUND('',#80,.T.);
#101=FACE_BOUND('',#81,.T.);
#102=FACE_BOUND('',#82,.T.);
#103=FACE_BOUND('',#83,.T.);
#104=FACE_BOUND('',#84,.T.);
#105=FACE_BOUND('',#85,.T.);
#106=FACE_BOUND('',#86,.T.);
#107=FACE_BOUND('',#87,.T.);
#108=FACE_BOUND('',#88,.T.);
#109=FACE_BOUND('',#89,.T.);
#110=CYLINDRICAL_SURFACE('',#137,0.004);
#111=CYLINDRICAL_SURFACE('',#144,0.0004);
#112=CYLINDRICAL_SURFACE('',#148,0.0004);
#113=ADVANCED_FACE('',(#90,#91),#110,.T.);
#114=ADVANCED_FACE('',(#92),#16,.T.);
#115=ADVANCED_FACE('',(#93,#94,#95),#17,.F.);
#116=ADVANCED_FACE('',(#96,#97),#111,.T.);
#117=ADVANCED_FACE('',(#98,#99),#15,.T.);
#118=ADVANCED_FACE('',(#100,#101),#112,.T.);
#119=ADVANCED_FACE('',(#102),#18,.F.);
#120=ADVANCED_FACE('',(#103,#104),#13,.T.);
#121=ADVANCED_FACE('',(#105,#106),#12,.F.);
#122=ADVANCED_FACE('',(#107,#108),#14,.T.);
#123=ADVANCED_FACE('',(#109),#19,.F.);
#124=CLOSED_SHELL('',(#113,#114,#115,#116,#117,#118,#119,#120,#121,#122,
#123));
#125=STYLED_ITEM('',(#126),#133);
#126=PRESENTATION_STYLE_ASSIGNMENT((#127));
#127=SURFACE_STYLE_USAGE(.BOTH.,#128);
#128=SURFACE_SIDE_STYLE('',(#129));
#129=SURFACE_STYLE_FILL_AREA(#130);
#130=FILL_AREA_STYLE('',(#131));
#131=FILL_AREA_STYLE_COLOUR('',#132);
#132=COLOUR_RGB('',0.615686274509804,0.811764705882353,0.929411764705882);
#133=MANIFOLD_SOLID_BREP(
'Capacitor_THT:CP_Radial_D8.0mm_P3.50mm_special_position',#124);
#134=SHAPE_DEFINITION_REPRESENTATION(#316,#135);
#135=SHAPE_REPRESENTATION(
'Capacitor_THT:CP_Radial_D8.0mm_P3.50mm_special_position',(#136),#311);
#136=AXIS2_PLACEMENT_3D('',#193,#155,#156);
#137=AXIS2_PLACEMENT_3D('',#194,#157,#158);
#138=AXIS2_PLACEMENT_3D('',#195,#159,#160);
#139=AXIS2_PLACEMENT_3D('',#197,#161,#162);
#140=AXIS2_PLACEMENT_3D('',#199,#163,#164);
#141=AXIS2_PLACEMENT_3D('',#200,#165,#166);
#142=AXIS2_PLACEMENT_3D('',#201,#167,#168);
#143=AXIS2_PLACEMENT_3D('',#203,#169,#170);
#144=AXIS2_PLACEMENT_3D('',#205,#171,#172);
#145=AXIS2_PLACEMENT_3D('',#206,#173,#174);
#146=AXIS2_PLACEMENT_3D('',#208,#175,#176);
#147=AXIS2_PLACEMENT_3D('',#209,#177,#178);
#148=AXIS2_PLACEMENT_3D('',#211,#179,#180);
#149=AXIS2_PLACEMENT_3D('',#212,#181,#182);
#150=AXIS2_PLACEMENT_3D('',#214,#183,#184);
#151=AXIS2_PLACEMENT_3D('',#237,#185,#186);
#152=AXIS2_PLACEMENT_3D('',#239,#187,#188);
#153=AXIS2_PLACEMENT_3D('',#285,#189,#190);
#154=AXIS2_PLACEMENT_3D('',#309,#191,#192);
#155=DIRECTION('',(0.,0.,1.));
#156=DIRECTION('',(1.,0.,0.));
#157=DIRECTION('',(0.,1.,0.));
#158=DIRECTION('',(0.,0.,1.));
#159=DIRECTION('',(0.,-1.,0.));
#160=DIRECTION('',(0.,0.,-1.));
#161=DIRECTION('',(0.,-1.,0.));
#162=DIRECTION('',(0.,0.,-1.));
#163=DIRECTION('',(0.,-1.,0.));
#164=DIRECTION('',(1.,0.,0.));
#165=DIRECTION('',(0.,-1.,0.));
#166=DIRECTION('',(1.,0.,0.));
#167=DIRECTION('',(0.,1.,0.));
#168=DIRECTION('',(0.,0.,-1.));
#169=DIRECTION('',(-3.25260651745651E-16,-1.,0.));
#170=DIRECTION('',(1.,-3.25260651745651E-16,3.25260651745651E-16));
#171=DIRECTION('',(-3.25260651745651E-16,-1.,0.));
#172=DIRECTION('',(1.,-3.25260651745651E-16,0.));
#173=DIRECTION('',(-3.25260651745651E-16,-1.,-2.16840434497101E-16));
#174=DIRECTION('',(1.,-3.25260651745651E-16,3.25260651745651E-16));
#175=DIRECTION('',(1.,-3.25260651745651E-16,0.));
#176=DIRECTION('',(3.25260651745651E-16,1.,0.));
#177=DIRECTION('',(0.,0.,1.));
#178=DIRECTION('',(1.,0.,0.));
#179=DIRECTION('',(0.,0.,1.));
#180=DIRECTION('',(1.,0.,0.));
#181=DIRECTION('',(0.,0.,1.));
#182=DIRECTION('',(1.,0.,0.));
#183=DIRECTION('',(0.,0.,1.));
#184=DIRECTION('',(1.,0.,0.));
#185=DIRECTION('',(-0.127920236968237,0.0166404930344391,-0.991644849210422));
#186=DIRECTION('',(-0.12899803500224,-0.991644849210422,0.));
#187=DIRECTION('',(-0.127920236968237,0.0166404930344391,-0.991644849210422));
#188=DIRECTION('',(-0.12899803500224,-0.991644849210422,0.));
#189=DIRECTION('',(0.,1.,0.));
#190=DIRECTION('',(0.,0.,-1.));
#191=DIRECTION('',(0.127920236968237,-0.0166404930344391,0.991644849210422));
#192=DIRECTION('',(0.983359506965561,-0.127920236968237,-0.12899803500224));
#193=CARTESIAN_POINT('',(0.,0.,0.));
#194=CARTESIAN_POINT('',(0.,-0.012,2.4492935982947E-19));
#195=CARTESIAN_POINT('',(0.,-0.012,2.4492935982947E-19));
#196=CARTESIAN_POINT('',(0.,-0.012,-0.004));
#197=CARTESIAN_POINT('',(0.,0.,2.4492935982947E-19));
#198=CARTESIAN_POINT('',(0.,0.,-0.004));
#199=CARTESIAN_POINT('',(0.,-0.012,0.));
#200=CARTESIAN_POINT('',(0.,0.,0.));
#201=CARTESIAN_POINT('',(-0.00175,0.,2.44929359829471E-20));
#202=CARTESIAN_POINT('',(-0.00175,2.71050543121376E-20,-0.0004));
#203=CARTESIAN_POINT('',(0.00175,0.,-8.67361737988404E-19));
#204=CARTESIAN_POINT('',(0.00215,-1.3010426069826E-19,-7.37257477290143E-19));
#205=CARTESIAN_POINT('',(0.00175,0.002,-8.67361737988404E-19));
#206=CARTESIAN_POINT('',(0.00175,0.002,-1.7347234759768E-18));
#207=CARTESIAN_POINT('',(0.00215,0.002,-1.60461921527854E-18));
#208=CARTESIAN_POINT('',(0.00175,0.002,-0.002));
#209=CARTESIAN_POINT('',(0.00175,0.004,-0.002));
#210=CARTESIAN_POINT('',(0.00215,0.004,-0.002));
#211=CARTESIAN_POINT('',(0.00175,0.004,-0.006));
#212=CARTESIAN_POINT('',(0.00175,0.004,-0.006));
#213=CARTESIAN_POINT('',(0.00215,0.004,-0.006));
#214=CARTESIAN_POINT('',(0.00324569689676749,-0.00931384251308438,-0.006));
#215=CARTESIAN_POINT('',(-0.00115279232877109,0.00217100698825258,-0.00169803381462418));
#216=CARTESIAN_POINT('',(-0.00115279232877109,0.00217100698825258,-0.00585047306153564));
#217=CARTESIAN_POINT('',(-0.00147940399720129,0.00208066400344647,-0.00169803381462446));
#218=CARTESIAN_POINT('',(-0.00147940399720129,0.00208066400344647,-0.00585047306153593));
#219=CARTESIAN_POINT('',(-0.00177165049419876,0.00225140586330184,-0.00169803381462438));
#220=CARTESIAN_POINT('',(-0.00177165049419876,0.00225140586330184,-0.00585047306153585));
#221=CARTESIAN_POINT('',(-0.00185744488859196,0.00257721378792384,-0.00169803381462442));
#222=CARTESIAN_POINT('',(-0.00185744488859196,0.00257721378792384,-0.00585047306153588));
#223=CARTESIAN_POINT('',(-0.00169122567266765,0.00287076788496521,-0.00169803381462437));
#224=CARTESIAN_POINT('',(-0.00169122567266765,0.00287076788496521,-0.00585047306153584));
#225=CARTESIAN_POINT('',(-0.00136491265748295,0.00296088333553177,-0.00169803381462451));
#226=CARTESIAN_POINT('',(-0.00136491265748295,0.00296088333553177,-0.00585047306153598));
#227=CARTESIAN_POINT('',(-0.00107286453732061,0.00279077626063569,-0.00169803381462398));
#228=CARTESIAN_POINT('',(-0.00107286453732061,0.00279077626063569,-0.00585047306153544));
#229=CARTESIAN_POINT('',(-0.000986623276735889,0.00246453956728813,-0.00169803381462456));
#230=CARTESIAN_POINT('',(-0.000986623276735889,0.00246453956728813,-0.00585047306153603));
#231=CARTESIAN_POINT('',(-0.00115279232877109,0.00217100698825258,-0.00169803381462418));
#232=CARTESIAN_POINT('',(-0.00115279232877109,0.00217100698825258,-0.00585047306153564));
#233=CARTESIAN_POINT('',(-0.00147940399720129,0.00208066400344647,-0.00169803381462446));
#234=CARTESIAN_POINT('',(-0.00147940399720129,0.00208066400344647,-0.00585047306153593));
#235=CARTESIAN_POINT('',(-0.00177165049419876,0.00225140586330184,-0.00169803381462438));
#236=CARTESIAN_POINT('',(-0.00177165049419876,0.00225140586330184,-0.00585047306153585));
#237=CARTESIAN_POINT('',(-0.00142207725462827,0.00252083608390755,-0.00577425343874608));
#238=CARTESIAN_POINT('',(-0.00147367646862917,0.00212417814422338,-0.00577425343874608));
#239=CARTESIAN_POINT('',(-0.00142207725462827,0.00252083608390755,-0.00177425343874608));
#240=CARTESIAN_POINT('',(-0.00147367646862917,0.00212417814422338,-0.00177425343874608));
#241=CARTESIAN_POINT('',(-0.00123448690376701,0.0021179480971529,-0.00182102521631775));
#242=CARTESIAN_POINT('',(-0.00124822096608567,0.00201237042570394,-0.000854549153123915));
#243=CARTESIAN_POINT('',(-0.00134684915057106,0.00125418731748669,-0.000253847808409129));
#244=CARTESIAN_POINT('',(-0.00147123155379686,0.000298024151984722,-0.000379116593858817));
#245=CARTESIAN_POINT('',(-0.00147487687559091,0.0021149502720271,-0.0017897332893221));
#246=CARTESIAN_POINT('',(-0.00149101219950959,0.00199091341476783,-0.000843472555771717));
#247=CARTESIAN_POINT('',(-0.00158945990000395,0.00123411773869303,-0.000270215875533363));
#248=CARTESIAN_POINT('',(-0.00171118829632107,0.000298356684593078,-0.000413702159392918));
#249=CARTESIAN_POINT('',(-0.00170642168726931,0.0021799477268184,-0.0017591090952992));
#250=CARTESIAN_POINT('',(-0.00172490703268552,0.00203784558109548,-0.000792274351387901));
#251=CARTESIAN_POINT('',(-0.00182689504096863,0.00125383454485432,-0.000217618549131657));
#252=CARTESIAN_POINT('',(-0.00195123117508668,0.00029802706323835,-0.00037971954754856));
#253=CARTESIAN_POINT('',(-0.00189374069822017,0.00258492158119517,-0.00173182356614009));
#254=CARTESIAN_POINT('',(-0.00191431986462143,0.00242672363374195,-0.000540468111846015));
#255=CARTESIAN_POINT('',(-0.00203845213959226,0.00147248327579034,0.000179805744899727));
#256=CARTESIAN_POINT('',(-0.00219170473505925,0.000294386672068213,-2.89604881191464E-6));
#257=CARTESIAN_POINT('',(-0.00160912492566874,0.00292789580590644,-0.00176645415799953));
#258=CARTESIAN_POINT('',(-0.00162704662995749,0.00279012653099689,-0.000350936674040142));
#259=CARTESIAN_POINT('',(-0.00176996334781831,0.00169148477935872,0.00054100077965364));
#260=CARTESIAN_POINT('',(-0.00195217867374199,0.000290743369644448,0.000374530403614473));
#261=CARTESIAN_POINT('',(-0.00136873495384484,0.00293089363103223,-0.00179774608499518));
#262=CARTESIAN_POINT('',(-0.00138425539653357,0.002811583541933,-0.000362013271392342));
#263=CARTESIAN_POINT('',(-0.00152735259838543,0.00171155435815238,0.000557368846777873));
#264=CARTESIAN_POINT('',(-0.00171222193121778,0.000290410837036093,0.000409115969148574));
#265=CARTESIAN_POINT('',(-0.00113719014216645,0.00286589617624094,-0.00182837027901807));
#266=CARTESIAN_POINT('',(-0.00115036056335764,0.00276465137560535,-0.000413211475776155));
#267=CARTESIAN_POINT('',(-0.00128991745742074,0.00169183755199109,0.000504771520376167));
#268=CARTESIAN_POINT('',(-0.00147217905245217,0.00029074045839082,0.000375133357304215));
#269=CARTESIAN_POINT('',(-0.000949871131215583,0.00246092232186417,-0.00185565580817718));
#270=CARTESIAN_POINT('',(-0.000960947731421731,0.00237577332295887,-0.000665017715318043));
#271=CARTESIAN_POINT('',(-0.00107836035879712,0.00147318882105507,0.000107347226344783));
#272=CARTESIAN_POINT('',(-0.0012317054924796,0.000294380849560958,-1.69014143242864E-6));
#273=CARTESIAN_POINT('',(-0.00123448690376701,0.0021179480971529,-0.00182102521631775));
#274=CARTESIAN_POINT('',(-0.00124822096608567,0.00201237042570394,-0.000854549153123915));
#275=CARTESIAN_POINT('',(-0.00134684915057106,0.00125418731748669,-0.000253847808409129));
#276=CARTESIAN_POINT('',(-0.00147123155379686,0.000298024151984722,-0.000379116593858817));
#277=CARTESIAN_POINT('',(-0.00147487687559091,0.0021149502720271,-0.0017897332893221));
#278=CARTESIAN_POINT('',(-0.00149101219950959,0.00199091341476783,-0.000843472555771717));
#279=CARTESIAN_POINT('',(-0.00158945990000395,0.00123411773869303,-0.000270215875533363));
#280=CARTESIAN_POINT('',(-0.00171118829632107,0.000298356684593078,-0.000413702159392918));
#281=CARTESIAN_POINT('',(-0.00170642168726931,0.0021799477268184,-0.0017591090952992));
#282=CARTESIAN_POINT('',(-0.00172490703268552,0.00203784558109548,-0.000792274351387901));
#283=CARTESIAN_POINT('',(-0.00182689504096863,0.00125383454485432,-0.000217618549131657));
#284=CARTESIAN_POINT('',(-0.00195123117508668,0.00029802706323835,-0.00037971954754856));
#285=CARTESIAN_POINT('',(-0.00170919418744302,0.000313685970792297,2.44929359829471E-20));
#286=CARTESIAN_POINT('',(-0.00170919418744302,0.000313685970792296,-0.0004));
#287=CARTESIAN_POINT('',(-0.00201176675607533,0.000407619665704127,-0.000312167805727839));
#288=CARTESIAN_POINT('',(-0.00206653469604301,-1.3397178233684E-5,-0.000312167805727839));
#289=CARTESIAN_POINT('',(-0.00170214809873496,0.000367342949267769,-0.000443890381282449));
#290=CARTESIAN_POINT('',(-0.00175691603870265,-5.36738946700424E-5,-0.000443890381282449));
#291=CARTESIAN_POINT('',(-0.001392919590893,0.000327116985395753,-0.000312270669142364));
#292=CARTESIAN_POINT('',(-0.00144768753086069,-9.3899858542058E-5,-0.000312270669142364));
#293=CARTESIAN_POINT('',(-0.00126687802681599,0.000310720879362914,-2.53171104711016E-7));
#294=CARTESIAN_POINT('',(-0.00132164596678368,-0.000110295964574898,-2.53171104711016E-7));
#295=CARTESIAN_POINT('',(-0.00139278442800464,0.000327099402743047,0.000312292907324106));
#296=CARTESIAN_POINT('',(-0.00144755236797232,-9.3917441194764E-5,0.000312292907324106));
#297=CARTESIAN_POINT('',(-0.00170213652041714,0.000367341443103239,0.000443743471172626));
#298=CARTESIAN_POINT('',(-0.00175690446038482,-5.36754008345728E-5,0.000443743471172626));
#299=CARTESIAN_POINT('',(-0.00201108474877703,0.000407530946843517,0.000312733047349652));
#300=CARTESIAN_POINT('',(-0.00206585268874472,-1.3485897094294E-5,0.000312733047349652));
#301=CARTESIAN_POINT('',(-0.00213762232233879,0.000423991576226956,3.41603694267023E-7));
#302=CARTESIAN_POINT('',(-0.00219239026230648,2.97473228914451E-6,3.41603694267023E-7));
#303=CARTESIAN_POINT('',(-0.00201176675607533,0.000407619665704127,-0.000312167805727839));
#304=CARTESIAN_POINT('',(-0.00206653469604301,-1.3397178233684E-5,-0.000312167805727839));
#305=CARTESIAN_POINT('',(-0.00170214809873496,0.000367342949267769,-0.000443890381282449));
#306=CARTESIAN_POINT('',(-0.00175691603870265,-5.36738946700424E-5,-0.000443890381282449));
#307=CARTESIAN_POINT('',(-0.001392919590893,0.000327116985395753,-0.000312270669142364));
#308=CARTESIAN_POINT('',(-0.00144768753086069,-9.3899858542058E-5,-0.000312270669142364));
#309=CARTESIAN_POINT('',(0.000298801882561461,0.00229697566921314,-0.006));
#310=MECHANICAL_DESIGN_GEOMETRIC_PRESENTATION_REPRESENTATION('',(#125),
#311);
#311=(
GEOMETRIC_REPRESENTATION_CONTEXT(3)
GLOBAL_UNCERTAINTY_ASSIGNED_CONTEXT((#312))
GLOBAL_UNIT_ASSIGNED_CONTEXT((#315,#314,#313))
REPRESENTATION_CONTEXT(
'Capacitor_THT:CP_Radial_D8.0mm_P3.50mm_special_position',
'TOP_LEVEL_ASSEMBLY_PART')
);
#312=UNCERTAINTY_MEASURE_WITH_UNIT(LENGTH_MEASURE(2.E-5),#315,
'DISTANCE_ACCURACY_VALUE','Maximum Tolerance applied to model');
#313=(
NAMED_UNIT(*)
SI_UNIT($,.STERADIAN.)
SOLID_ANGLE_UNIT()
);
#314=(
NAMED_UNIT(*)
PLANE_ANGLE_UNIT()
SI_UNIT($,.RADIAN.)
);
#315=(
LENGTH_UNIT()
NAMED_UNIT(*)
SI_UNIT($,.METRE.)
);
#316=PRODUCT_DEFINITION_SHAPE('','',#317);
#317=PRODUCT_DEFINITION('','',#319,#318);
#318=PRODUCT_DEFINITION_CONTEXT('',#325,'design');
#319=PRODUCT_DEFINITION_FORMATION_WITH_SPECIFIED_SOURCE('','',#321,
 .NOT_KNOWN.);
#320=PRODUCT_RELATED_PRODUCT_CATEGORY('','',(#321));
#321=PRODUCT('Capacitor_THT:CP_Radial_D8.0mm_P3.50mm_special_position',
'Capacitor_THT:CP_Radial_D8.0mm_P3.50mm_special_position',
'Capacitor_THT:CP_Radial_D8.0mm_P3.50mm_special_position',(#323));
#322=PRODUCT_CATEGORY('','');
#323=PRODUCT_CONTEXT('',#325,'mechanical');
#324=APPLICATION_PROTOCOL_DEFINITION('international standard',
'ap242_managed_model_based_3d_engineering',2020,#325);
#325=APPLICATION_CONTEXT('managed model based 3d engineering');
ENDSEC;
END-ISO-10303-21;
