ISO-10303-21;
HEADER;
FILE_DESCRIPTION(('FreeCAD Model'),'2;1');
FILE_NAME('Open CASCADE Shape Model','2025-02-22T17:30:16',(''),(''),
  'Open CASCADE STEP processor 7.6','FreeCAD','Unknown');
FILE_SCHEMA(('AUTOMOTIVE_DESIGN { 1 0 10303 214 1 1 1 1 }'));
ENDSEC;
DATA;
#1 = APPLICATION_PROTOCOL_DEFINITION('international standard',
  'automotive_design',2000,#2);
#2 = APPLICATION_CONTEXT(
  'core data for automotive mechanical design processes');
#3 = SHAPE_DEFINITION_REPRESENTATION(#4,#10);
#4 = PRODUCT_DEFINITION_SHAPE('','',#5);
#5 = PRODUCT_DEFINITION('design','',#6,#9);
#6 = PRODUCT_DEFINITION_FORMATION('','',#7);
#7 = PRODUCT('Body','Body','',(#8));
#8 = PRODUCT_CONTEXT('',#2,'mechanical');
#9 = PRODUCT_DEFINITION_CONTEXT('part definition',#2,'design');
#10 = ADVANCED_BREP_SHAPE_REPRESENTATION('',(#11,#15),#1509);
#11 = AXIS2_PLACEMENT_3D('',#12,#13,#14);
#12 = CARTESIAN_POINT('',(0.,0.,0.));
#13 = DIRECTION('',(0.,0.,1.));
#14 = DIRECTION('',(1.,0.,-0.));
#15 = MANIFOLD_SOLID_BREP('',#16);
#16 = CLOSED_SHELL('',(#17,#57,#88,#112,#136,#153,#199,#230,#254,#278,
    #343,#394,#418,#442,#507,#538,#562,#586,#603,#654,#687,#712,#737,
    #754,#778,#802,#819,#850,#874,#898,#915,#927,#973,#1006,#1031,#1056,
    #1073,#1104,#1128,#1152,#1169,#1181,#1214,#1239,#1264,#1281,#1312,
    #1336,#1360,#1377,#1389,#1420,#1444,#1468,#1485,#1497));
#17 = ADVANCED_FACE('',(#18),#52,.F.);
#18 = FACE_BOUND('',#19,.F.);
#19 = EDGE_LOOP('',(#20,#30,#38,#46));
#20 = ORIENTED_EDGE('',*,*,#21,.T.);
#21 = EDGE_CURVE('',#22,#24,#26,.T.);
#22 = VERTEX_POINT('',#23);
#23 = CARTESIAN_POINT('',(0.6,1.33226762955E-16,0.6));
#24 = VERTEX_POINT('',#25);
#25 = CARTESIAN_POINT('',(0.6,-1.33226762955E-16,-0.6));
#26 = LINE('',#27,#28);
#27 = CARTESIAN_POINT('',(0.6,1.33226762955E-16,0.6));
#28 = VECTOR('',#29,1.);
#29 = DIRECTION('',(0.,-2.22044604925E-16,-1.));
#30 = ORIENTED_EDGE('',*,*,#31,.T.);
#31 = EDGE_CURVE('',#24,#32,#34,.T.);
#32 = VERTEX_POINT('',#33);
#33 = CARTESIAN_POINT('',(-0.6,-1.33226762955E-16,-0.6));
#34 = LINE('',#35,#36);
#35 = CARTESIAN_POINT('',(0.6,-1.33226762955E-16,-0.6));
#36 = VECTOR('',#37,1.);
#37 = DIRECTION('',(-1.,0.,0.));
#38 = ORIENTED_EDGE('',*,*,#39,.T.);
#39 = EDGE_CURVE('',#32,#40,#42,.T.);
#40 = VERTEX_POINT('',#41);
#41 = CARTESIAN_POINT('',(-0.6,1.33226762955E-16,0.6));
#42 = LINE('',#43,#44);
#43 = CARTESIAN_POINT('',(-0.6,-1.33226762955E-16,-0.6));
#44 = VECTOR('',#45,1.);
#45 = DIRECTION('',(0.,2.22044604925E-16,1.));
#46 = ORIENTED_EDGE('',*,*,#47,.T.);
#47 = EDGE_CURVE('',#40,#22,#48,.T.);
#48 = LINE('',#49,#50);
#49 = CARTESIAN_POINT('',(-0.6,1.33226762955E-16,0.6));
#50 = VECTOR('',#51,1.);
#51 = DIRECTION('',(1.,0.,0.));
#52 = PLANE('',#53);
#53 = AXIS2_PLACEMENT_3D('',#54,#55,#56);
#54 = CARTESIAN_POINT('',(0.,5.135813185033E-33,2.312964634636E-17));
#55 = DIRECTION('',(0.,1.,-2.22044604925E-16));
#56 = DIRECTION('',(0.,-2.22044604925E-16,-1.));
#57 = ADVANCED_FACE('',(#58),#83,.T.);
#58 = FACE_BOUND('',#59,.T.);
#59 = EDGE_LOOP('',(#60,#68,#69,#77));
#60 = ORIENTED_EDGE('',*,*,#61,.F.);
#61 = EDGE_CURVE('',#22,#62,#64,.T.);
#62 = VERTEX_POINT('',#63);
#63 = CARTESIAN_POINT('',(0.6,2.5,0.6));
#64 = LINE('',#65,#66);
#65 = CARTESIAN_POINT('',(0.6,1.33226762955E-16,0.6));
#66 = VECTOR('',#67,1.);
#67 = DIRECTION('',(2.22044604925E-16,1.,-2.22044604925E-16));
#68 = ORIENTED_EDGE('',*,*,#21,.T.);
#69 = ORIENTED_EDGE('',*,*,#70,.T.);
#70 = EDGE_CURVE('',#24,#71,#73,.T.);
#71 = VERTEX_POINT('',#72);
#72 = CARTESIAN_POINT('',(0.6,2.5,-0.6));
#73 = LINE('',#74,#75);
#74 = CARTESIAN_POINT('',(0.6,-1.33226762955E-16,-0.6));
#75 = VECTOR('',#76,1.);
#76 = DIRECTION('',(2.22044604925E-16,1.,-2.22044604925E-16));
#77 = ORIENTED_EDGE('',*,*,#78,.T.);
#78 = EDGE_CURVE('',#71,#62,#79,.T.);
#79 = LINE('',#80,#81);
#80 = CARTESIAN_POINT('',(0.6,2.5,0.3));
#81 = VECTOR('',#82,1.);
#82 = DIRECTION('',(-1.119118149272E-31,-2.819614030794E-16,1.));
#83 = PLANE('',#84);
#84 = AXIS2_PLACEMENT_3D('',#85,#86,#87);
#85 = CARTESIAN_POINT('',(0.6,1.33226762955E-16,0.6));
#86 = DIRECTION('',(1.,-2.22044604925E-16,4.930380657631E-32));
#87 = DIRECTION('',(0.,-2.22044604925E-16,-1.));
#88 = ADVANCED_FACE('',(#89),#107,.T.);
#89 = FACE_BOUND('',#90,.T.);
#90 = EDGE_LOOP('',(#91,#92,#93,#101));
#91 = ORIENTED_EDGE('',*,*,#70,.F.);
#92 = ORIENTED_EDGE('',*,*,#31,.T.);
#93 = ORIENTED_EDGE('',*,*,#94,.T.);
#94 = EDGE_CURVE('',#32,#95,#97,.T.);
#95 = VERTEX_POINT('',#96);
#96 = CARTESIAN_POINT('',(-0.6,2.5,-0.6));
#97 = LINE('',#98,#99);
#98 = CARTESIAN_POINT('',(-0.6,-1.33226762955E-16,-0.6));
#99 = VECTOR('',#100,1.);
#100 = DIRECTION('',(0.,1.,-2.22044604925E-16));
#101 = ORIENTED_EDGE('',*,*,#102,.T.);
#102 = EDGE_CURVE('',#95,#71,#103,.T.);
#103 = LINE('',#104,#105);
#104 = CARTESIAN_POINT('',(0.3,2.5,-0.6));
#105 = VECTOR('',#106,1.);
#106 = DIRECTION('',(1.,0.,0.));
#107 = PLANE('',#108);
#108 = AXIS2_PLACEMENT_3D('',#109,#110,#111);
#109 = CARTESIAN_POINT('',(0.6,-1.33226762955E-16,-0.6));
#110 = DIRECTION('',(0.,-2.22044604925E-16,-1.));
#111 = DIRECTION('',(-1.,0.,0.));
#112 = ADVANCED_FACE('',(#113),#131,.T.);
#113 = FACE_BOUND('',#114,.T.);
#114 = EDGE_LOOP('',(#115,#116,#117,#125));
#115 = ORIENTED_EDGE('',*,*,#94,.F.);
#116 = ORIENTED_EDGE('',*,*,#39,.T.);
#117 = ORIENTED_EDGE('',*,*,#118,.T.);
#118 = EDGE_CURVE('',#40,#119,#121,.T.);
#119 = VERTEX_POINT('',#120);
#120 = CARTESIAN_POINT('',(-0.6,2.5,0.6));
#121 = LINE('',#122,#123);
#122 = CARTESIAN_POINT('',(-0.6,1.33226762955E-16,0.6));
#123 = VECTOR('',#124,1.);
#124 = DIRECTION('',(2.22044604925E-16,1.,-2.22044604925E-16));
#125 = ORIENTED_EDGE('',*,*,#126,.T.);
#126 = EDGE_CURVE('',#119,#95,#127,.T.);
#127 = LINE('',#128,#129);
#128 = CARTESIAN_POINT('',(-0.6,2.5,-0.3));
#129 = VECTOR('',#130,1.);
#130 = DIRECTION('',(1.119118149272E-31,2.819614030794E-16,-1.));
#131 = PLANE('',#132);
#132 = AXIS2_PLACEMENT_3D('',#133,#134,#135);
#133 = CARTESIAN_POINT('',(-0.6,-1.33226762955E-16,-0.6));
#134 = DIRECTION('',(-1.,2.22044604925E-16,-4.930380657631E-32));
#135 = DIRECTION('',(0.,2.22044604925E-16,1.));
#136 = ADVANCED_FACE('',(#137),#148,.T.);
#137 = FACE_BOUND('',#138,.T.);
#138 = EDGE_LOOP('',(#139,#140,#141,#142));
#139 = ORIENTED_EDGE('',*,*,#118,.F.);
#140 = ORIENTED_EDGE('',*,*,#47,.T.);
#141 = ORIENTED_EDGE('',*,*,#61,.T.);
#142 = ORIENTED_EDGE('',*,*,#143,.T.);
#143 = EDGE_CURVE('',#62,#119,#144,.T.);
#144 = LINE('',#145,#146);
#145 = CARTESIAN_POINT('',(-0.3,2.5,0.6));
#146 = VECTOR('',#147,1.);
#147 = DIRECTION('',(-1.,0.,0.));
#148 = PLANE('',#149);
#149 = AXIS2_PLACEMENT_3D('',#150,#151,#152);
#150 = CARTESIAN_POINT('',(-0.6,1.33226762955E-16,0.6));
#151 = DIRECTION('',(0.,2.22044604925E-16,1.));
#152 = DIRECTION('',(1.,0.,0.));
#153 = ADVANCED_FACE('',(#154,#188),#194,.F.);
#154 = FACE_BOUND('',#155,.F.);
#155 = EDGE_LOOP('',(#156,#166,#174,#182));
#156 = ORIENTED_EDGE('',*,*,#157,.F.);
#157 = EDGE_CURVE('',#158,#160,#162,.T.);
#158 = VERTEX_POINT('',#159);
#159 = CARTESIAN_POINT('',(-2.54,2.5,3.15));
#160 = VERTEX_POINT('',#161);
#161 = CARTESIAN_POINT('',(-2.54,2.5,-3.15));
#162 = LINE('',#163,#164);
#163 = CARTESIAN_POINT('',(-2.54,2.5,3.15));
#164 = VECTOR('',#165,1.);
#165 = DIRECTION('',(0.,2.22044604925E-16,-1.));
#166 = ORIENTED_EDGE('',*,*,#167,.F.);
#167 = EDGE_CURVE('',#168,#158,#170,.T.);
#168 = VERTEX_POINT('',#169);
#169 = CARTESIAN_POINT('',(2.54,2.5,3.15));
#170 = LINE('',#171,#172);
#171 = CARTESIAN_POINT('',(2.54,2.5,3.15));
#172 = VECTOR('',#173,1.);
#173 = DIRECTION('',(-1.,0.,0.));
#174 = ORIENTED_EDGE('',*,*,#175,.F.);
#175 = EDGE_CURVE('',#176,#168,#178,.T.);
#176 = VERTEX_POINT('',#177);
#177 = CARTESIAN_POINT('',(2.54,2.5,-3.15));
#178 = LINE('',#179,#180);
#179 = CARTESIAN_POINT('',(2.54,2.5,-3.15));
#180 = VECTOR('',#181,1.);
#181 = DIRECTION('',(0.,-2.22044604925E-16,1.));
#182 = ORIENTED_EDGE('',*,*,#183,.F.);
#183 = EDGE_CURVE('',#160,#176,#184,.T.);
#184 = LINE('',#185,#186);
#185 = CARTESIAN_POINT('',(-2.54,2.5,-3.15));
#186 = VECTOR('',#187,1.);
#187 = DIRECTION('',(1.,0.,0.));
#188 = FACE_BOUND('',#189,.F.);
#189 = EDGE_LOOP('',(#190,#191,#192,#193));
#190 = ORIENTED_EDGE('',*,*,#102,.T.);
#191 = ORIENTED_EDGE('',*,*,#78,.T.);
#192 = ORIENTED_EDGE('',*,*,#143,.T.);
#193 = ORIENTED_EDGE('',*,*,#126,.T.);
#194 = PLANE('',#195);
#195 = AXIS2_PLACEMENT_3D('',#196,#197,#198);
#196 = CARTESIAN_POINT('',(0.,2.5,4.440892098501E-16));
#197 = DIRECTION('',(0.,1.,2.819614030794E-16));
#198 = DIRECTION('',(0.,-2.819614030794E-16,1.));
#199 = ADVANCED_FACE('',(#200),#225,.F.);
#200 = FACE_BOUND('',#201,.F.);
#201 = EDGE_LOOP('',(#202,#210,#211,#219));
#202 = ORIENTED_EDGE('',*,*,#203,.T.);
#203 = EDGE_CURVE('',#204,#158,#206,.T.);
#204 = VERTEX_POINT('',#205);
#205 = CARTESIAN_POINT('',(-2.54,5.,3.15));
#206 = LINE('',#207,#208);
#207 = CARTESIAN_POINT('',(-2.54,5.,3.15));
#208 = VECTOR('',#209,1.);
#209 = DIRECTION('',(0.,-1.,4.930380657631E-32));
#210 = ORIENTED_EDGE('',*,*,#157,.T.);
#211 = ORIENTED_EDGE('',*,*,#212,.F.);
#212 = EDGE_CURVE('',#213,#160,#215,.T.);
#213 = VERTEX_POINT('',#214);
#214 = CARTESIAN_POINT('',(-2.54,5.,-3.15));
#215 = LINE('',#216,#217);
#216 = CARTESIAN_POINT('',(-2.54,5.,-3.15));
#217 = VECTOR('',#218,1.);
#218 = DIRECTION('',(0.,-1.,4.930380657631E-32));
#219 = ORIENTED_EDGE('',*,*,#220,.F.);
#220 = EDGE_CURVE('',#204,#213,#221,.T.);
#221 = LINE('',#222,#223);
#222 = CARTESIAN_POINT('',(-2.54,5.,3.15));
#223 = VECTOR('',#224,1.);
#224 = DIRECTION('',(0.,2.22044604925E-16,-1.));
#225 = PLANE('',#226);
#226 = AXIS2_PLACEMENT_3D('',#227,#228,#229);
#227 = CARTESIAN_POINT('',(-2.54,5.,3.15));
#228 = DIRECTION('',(1.,0.,0.));
#229 = DIRECTION('',(0.,2.22044604925E-16,-1.));
#230 = ADVANCED_FACE('',(#231),#249,.F.);
#231 = FACE_BOUND('',#232,.F.);
#232 = EDGE_LOOP('',(#233,#241,#242,#243));
#233 = ORIENTED_EDGE('',*,*,#234,.T.);
#234 = EDGE_CURVE('',#235,#168,#237,.T.);
#235 = VERTEX_POINT('',#236);
#236 = CARTESIAN_POINT('',(2.54,5.,3.15));
#237 = LINE('',#238,#239);
#238 = CARTESIAN_POINT('',(2.54,5.,3.15));
#239 = VECTOR('',#240,1.);
#240 = DIRECTION('',(0.,-1.,4.930380657631E-32));
#241 = ORIENTED_EDGE('',*,*,#167,.T.);
#242 = ORIENTED_EDGE('',*,*,#203,.F.);
#243 = ORIENTED_EDGE('',*,*,#244,.F.);
#244 = EDGE_CURVE('',#235,#204,#245,.T.);
#245 = LINE('',#246,#247);
#246 = CARTESIAN_POINT('',(2.54,5.,3.15));
#247 = VECTOR('',#248,1.);
#248 = DIRECTION('',(-1.,0.,0.));
#249 = PLANE('',#250);
#250 = AXIS2_PLACEMENT_3D('',#251,#252,#253);
#251 = CARTESIAN_POINT('',(2.54,5.,3.15));
#252 = DIRECTION('',(0.,-4.930380657631E-32,-1.));
#253 = DIRECTION('',(-1.,0.,0.));
#254 = ADVANCED_FACE('',(#255),#273,.F.);
#255 = FACE_BOUND('',#256,.F.);
#256 = EDGE_LOOP('',(#257,#258,#259,#267));
#257 = ORIENTED_EDGE('',*,*,#212,.T.);
#258 = ORIENTED_EDGE('',*,*,#183,.T.);
#259 = ORIENTED_EDGE('',*,*,#260,.F.);
#260 = EDGE_CURVE('',#261,#176,#263,.T.);
#261 = VERTEX_POINT('',#262);
#262 = CARTESIAN_POINT('',(2.54,5.,-3.15));
#263 = LINE('',#264,#265);
#264 = CARTESIAN_POINT('',(2.54,5.,-3.15));
#265 = VECTOR('',#266,1.);
#266 = DIRECTION('',(0.,-1.,4.930380657631E-32));
#267 = ORIENTED_EDGE('',*,*,#268,.F.);
#268 = EDGE_CURVE('',#213,#261,#269,.T.);
#269 = LINE('',#270,#271);
#270 = CARTESIAN_POINT('',(-2.54,5.,-3.15));
#271 = VECTOR('',#272,1.);
#272 = DIRECTION('',(1.,0.,0.));
#273 = PLANE('',#274);
#274 = AXIS2_PLACEMENT_3D('',#275,#276,#277);
#275 = CARTESIAN_POINT('',(-2.54,5.,-3.15));
#276 = DIRECTION('',(0.,4.930380657631E-32,1.));
#277 = DIRECTION('',(1.,0.,0.));
#278 = ADVANCED_FACE('',(#279,#304),#338,.F.);
#279 = FACE_BOUND('',#280,.F.);
#280 = EDGE_LOOP('',(#281,#282,#290,#298));
#281 = ORIENTED_EDGE('',*,*,#175,.T.);
#282 = ORIENTED_EDGE('',*,*,#283,.F.);
#283 = EDGE_CURVE('',#284,#168,#286,.T.);
#284 = VERTEX_POINT('',#285);
#285 = CARTESIAN_POINT('',(7.62,2.5,3.15));
#286 = LINE('',#287,#288);
#287 = CARTESIAN_POINT('',(7.62,2.5,3.15));
#288 = VECTOR('',#289,1.);
#289 = DIRECTION('',(-1.,0.,0.));
#290 = ORIENTED_EDGE('',*,*,#291,.F.);
#291 = EDGE_CURVE('',#292,#284,#294,.T.);
#292 = VERTEX_POINT('',#293);
#293 = CARTESIAN_POINT('',(7.62,2.5,-3.15));
#294 = LINE('',#295,#296);
#295 = CARTESIAN_POINT('',(7.62,2.5,-3.15));
#296 = VECTOR('',#297,1.);
#297 = DIRECTION('',(0.,-2.22044604925E-16,1.));
#298 = ORIENTED_EDGE('',*,*,#299,.F.);
#299 = EDGE_CURVE('',#176,#292,#300,.T.);
#300 = LINE('',#301,#302);
#301 = CARTESIAN_POINT('',(2.54,2.5,-3.15));
#302 = VECTOR('',#303,1.);
#303 = DIRECTION('',(1.,0.,0.));
#304 = FACE_BOUND('',#305,.F.);
#305 = EDGE_LOOP('',(#306,#316,#324,#332));
#306 = ORIENTED_EDGE('',*,*,#307,.F.);
#307 = EDGE_CURVE('',#308,#310,#312,.T.);
#308 = VERTEX_POINT('',#309);
#309 = CARTESIAN_POINT('',(5.68,2.5,0.6));
#310 = VERTEX_POINT('',#311);
#311 = CARTESIAN_POINT('',(5.68,2.5,-0.6));
#312 = LINE('',#313,#314);
#313 = CARTESIAN_POINT('',(5.68,2.5,0.3));
#314 = VECTOR('',#315,1.);
#315 = DIRECTION('',(1.119118149272E-31,2.819614030794E-16,-1.));
#316 = ORIENTED_EDGE('',*,*,#317,.F.);
#317 = EDGE_CURVE('',#318,#308,#320,.T.);
#318 = VERTEX_POINT('',#319);
#319 = CARTESIAN_POINT('',(4.48,2.5,0.6));
#320 = LINE('',#321,#322);
#321 = CARTESIAN_POINT('',(4.78,2.5,0.6));
#322 = VECTOR('',#323,1.);
#323 = DIRECTION('',(1.,0.,0.));
#324 = ORIENTED_EDGE('',*,*,#325,.F.);
#325 = EDGE_CURVE('',#326,#318,#328,.T.);
#326 = VERTEX_POINT('',#327);
#327 = CARTESIAN_POINT('',(4.48,2.5,-0.6));
#328 = LINE('',#329,#330);
#329 = CARTESIAN_POINT('',(4.48,2.5,-0.3));
#330 = VECTOR('',#331,1.);
#331 = DIRECTION('',(-1.119118149272E-31,-2.819614030794E-16,1.));
#332 = ORIENTED_EDGE('',*,*,#333,.F.);
#333 = EDGE_CURVE('',#310,#326,#334,.T.);
#334 = LINE('',#335,#336);
#335 = CARTESIAN_POINT('',(5.38,2.5,-0.6));
#336 = VECTOR('',#337,1.);
#337 = DIRECTION('',(-1.,0.,0.));
#338 = PLANE('',#339);
#339 = AXIS2_PLACEMENT_3D('',#340,#341,#342);
#340 = CARTESIAN_POINT('',(5.08,2.5,4.440892098501E-16));
#341 = DIRECTION('',(0.,1.,2.819614030794E-16));
#342 = DIRECTION('',(0.,-2.819614030794E-16,1.));
#343 = ADVANCED_FACE('',(#344,#355),#389,.T.);
#344 = FACE_BOUND('',#345,.T.);
#345 = EDGE_LOOP('',(#346,#347,#348,#354));
#346 = ORIENTED_EDGE('',*,*,#220,.F.);
#347 = ORIENTED_EDGE('',*,*,#244,.F.);
#348 = ORIENTED_EDGE('',*,*,#349,.F.);
#349 = EDGE_CURVE('',#261,#235,#350,.T.);
#350 = LINE('',#351,#352);
#351 = CARTESIAN_POINT('',(2.54,5.,-3.15));
#352 = VECTOR('',#353,1.);
#353 = DIRECTION('',(0.,-2.22044604925E-16,1.));
#354 = ORIENTED_EDGE('',*,*,#268,.F.);
#355 = FACE_BOUND('',#356,.T.);
#356 = EDGE_LOOP('',(#357,#367,#375,#383));
#357 = ORIENTED_EDGE('',*,*,#358,.F.);
#358 = EDGE_CURVE('',#359,#361,#363,.T.);
#359 = VERTEX_POINT('',#360);
#360 = CARTESIAN_POINT('',(0.6,5.,0.539607805437));
#361 = VERTEX_POINT('',#362);
#362 = CARTESIAN_POINT('',(0.6,5.,-0.751668522645));
#363 = LINE('',#364,#365);
#364 = CARTESIAN_POINT('',(0.6,5.,-0.21966991411));
#365 = VECTOR('',#366,1.);
#366 = DIRECTION('',(2.22044604925E-16,2.819614030794E-16,-1.));
#367 = ORIENTED_EDGE('',*,*,#368,.T.);
#368 = EDGE_CURVE('',#359,#369,#371,.T.);
#369 = VERTEX_POINT('',#370);
#370 = CARTESIAN_POINT('',(-0.6,5.,0.539607805437));
#371 = LINE('',#372,#373);
#372 = CARTESIAN_POINT('',(-0.6,5.,0.539607805437));
#373 = VECTOR('',#374,1.);
#374 = DIRECTION('',(-1.,2.22044604925E-16,-2.22044604925E-16));
#375 = ORIENTED_EDGE('',*,*,#376,.F.);
#376 = EDGE_CURVE('',#377,#369,#379,.T.);
#377 = VERTEX_POINT('',#378);
#378 = CARTESIAN_POINT('',(-0.6,5.,-0.751668522645));
#379 = LINE('',#380,#381);
#380 = CARTESIAN_POINT('',(-0.6,5.,-0.21966991411));
#381 = VECTOR('',#382,1.);
#382 = DIRECTION('',(-2.22044604925E-16,-2.819614030794E-16,1.));
#383 = ORIENTED_EDGE('',*,*,#384,.F.);
#384 = EDGE_CURVE('',#361,#377,#385,.T.);
#385 = LINE('',#386,#387);
#386 = CARTESIAN_POINT('',(0.6,5.,-0.751668522645));
#387 = VECTOR('',#388,1.);
#388 = DIRECTION('',(-1.,2.22044604925E-16,-2.22044604925E-16));
#389 = PLANE('',#390);
#390 = AXIS2_PLACEMENT_3D('',#391,#392,#393);
#391 = CARTESIAN_POINT('',(0.,5.,1.560946256063E-16));
#392 = DIRECTION('',(0.,1.,2.819614030794E-16));
#393 = DIRECTION('',(0.,-2.819614030794E-16,1.));
#394 = ADVANCED_FACE('',(#395),#413,.F.);
#395 = FACE_BOUND('',#396,.F.);
#396 = EDGE_LOOP('',(#397,#405,#406,#407));
#397 = ORIENTED_EDGE('',*,*,#398,.T.);
#398 = EDGE_CURVE('',#399,#284,#401,.T.);
#399 = VERTEX_POINT('',#400);
#400 = CARTESIAN_POINT('',(7.62,5.,3.15));
#401 = LINE('',#402,#403);
#402 = CARTESIAN_POINT('',(7.62,5.,3.15));
#403 = VECTOR('',#404,1.);
#404 = DIRECTION('',(0.,-1.,0.));
#405 = ORIENTED_EDGE('',*,*,#283,.T.);
#406 = ORIENTED_EDGE('',*,*,#234,.F.);
#407 = ORIENTED_EDGE('',*,*,#408,.F.);
#408 = EDGE_CURVE('',#399,#235,#409,.T.);
#409 = LINE('',#410,#411);
#410 = CARTESIAN_POINT('',(7.62,5.,3.15));
#411 = VECTOR('',#412,1.);
#412 = DIRECTION('',(-1.,0.,0.));
#413 = PLANE('',#414);
#414 = AXIS2_PLACEMENT_3D('',#415,#416,#417);
#415 = CARTESIAN_POINT('',(7.62,5.,3.15));
#416 = DIRECTION('',(0.,0.,-1.));
#417 = DIRECTION('',(-1.,-0.,0.));
#418 = ADVANCED_FACE('',(#419),#437,.F.);
#419 = FACE_BOUND('',#420,.F.);
#420 = EDGE_LOOP('',(#421,#422,#423,#431));
#421 = ORIENTED_EDGE('',*,*,#260,.T.);
#422 = ORIENTED_EDGE('',*,*,#299,.T.);
#423 = ORIENTED_EDGE('',*,*,#424,.F.);
#424 = EDGE_CURVE('',#425,#292,#427,.T.);
#425 = VERTEX_POINT('',#426);
#426 = CARTESIAN_POINT('',(7.62,5.,-3.15));
#427 = LINE('',#428,#429);
#428 = CARTESIAN_POINT('',(7.62,5.,-3.15));
#429 = VECTOR('',#430,1.);
#430 = DIRECTION('',(0.,-1.,0.));
#431 = ORIENTED_EDGE('',*,*,#432,.F.);
#432 = EDGE_CURVE('',#261,#425,#433,.T.);
#433 = LINE('',#434,#435);
#434 = CARTESIAN_POINT('',(2.54,5.,-3.15));
#435 = VECTOR('',#436,1.);
#436 = DIRECTION('',(1.,0.,0.));
#437 = PLANE('',#438);
#438 = AXIS2_PLACEMENT_3D('',#439,#440,#441);
#439 = CARTESIAN_POINT('',(2.54,5.,-3.15));
#440 = DIRECTION('',(0.,0.,1.));
#441 = DIRECTION('',(1.,0.,0.));
#442 = ADVANCED_FACE('',(#443,#468),#502,.F.);
#443 = FACE_BOUND('',#444,.F.);
#444 = EDGE_LOOP('',(#445,#446,#454,#462));
#445 = ORIENTED_EDGE('',*,*,#291,.T.);
#446 = ORIENTED_EDGE('',*,*,#447,.F.);
#447 = EDGE_CURVE('',#448,#284,#450,.T.);
#448 = VERTEX_POINT('',#449);
#449 = CARTESIAN_POINT('',(12.7,2.5,3.15));
#450 = LINE('',#451,#452);
#451 = CARTESIAN_POINT('',(12.7,2.5,3.15));
#452 = VECTOR('',#453,1.);
#453 = DIRECTION('',(-1.,0.,0.));
#454 = ORIENTED_EDGE('',*,*,#455,.F.);
#455 = EDGE_CURVE('',#456,#448,#458,.T.);
#456 = VERTEX_POINT('',#457);
#457 = CARTESIAN_POINT('',(12.7,2.5,-3.15));
#458 = LINE('',#459,#460);
#459 = CARTESIAN_POINT('',(12.7,2.5,-3.15));
#460 = VECTOR('',#461,1.);
#461 = DIRECTION('',(0.,-2.22044604925E-16,1.));
#462 = ORIENTED_EDGE('',*,*,#463,.F.);
#463 = EDGE_CURVE('',#292,#456,#464,.T.);
#464 = LINE('',#465,#466);
#465 = CARTESIAN_POINT('',(7.62,2.5,-3.15));
#466 = VECTOR('',#467,1.);
#467 = DIRECTION('',(1.,0.,0.));
#468 = FACE_BOUND('',#469,.F.);
#469 = EDGE_LOOP('',(#470,#480,#488,#496));
#470 = ORIENTED_EDGE('',*,*,#471,.F.);
#471 = EDGE_CURVE('',#472,#474,#476,.T.);
#472 = VERTEX_POINT('',#473);
#473 = CARTESIAN_POINT('',(10.76,2.5,0.6));
#474 = VERTEX_POINT('',#475);
#475 = CARTESIAN_POINT('',(10.76,2.5,-0.6));
#476 = LINE('',#477,#478);
#477 = CARTESIAN_POINT('',(10.76,2.5,0.3));
#478 = VECTOR('',#479,1.);
#479 = DIRECTION('',(1.119118149272E-31,2.819614030794E-16,-1.));
#480 = ORIENTED_EDGE('',*,*,#481,.F.);
#481 = EDGE_CURVE('',#482,#472,#484,.T.);
#482 = VERTEX_POINT('',#483);
#483 = CARTESIAN_POINT('',(9.56,2.5,0.6));
#484 = LINE('',#485,#486);
#485 = CARTESIAN_POINT('',(9.86,2.5,0.6));
#486 = VECTOR('',#487,1.);
#487 = DIRECTION('',(1.,0.,0.));
#488 = ORIENTED_EDGE('',*,*,#489,.F.);
#489 = EDGE_CURVE('',#490,#482,#492,.T.);
#490 = VERTEX_POINT('',#491);
#491 = CARTESIAN_POINT('',(9.56,2.5,-0.6));
#492 = LINE('',#493,#494);
#493 = CARTESIAN_POINT('',(9.56,2.5,-0.3));
#494 = VECTOR('',#495,1.);
#495 = DIRECTION('',(-1.119118149272E-31,-2.819614030794E-16,1.));
#496 = ORIENTED_EDGE('',*,*,#497,.F.);
#497 = EDGE_CURVE('',#474,#490,#498,.T.);
#498 = LINE('',#499,#500);
#499 = CARTESIAN_POINT('',(10.46,2.5,-0.6));
#500 = VECTOR('',#501,1.);
#501 = DIRECTION('',(-1.,0.,0.));
#502 = PLANE('',#503);
#503 = AXIS2_PLACEMENT_3D('',#504,#505,#506);
#504 = CARTESIAN_POINT('',(10.16,2.5,4.440892098501E-16));
#505 = DIRECTION('',(0.,1.,2.819614030794E-16));
#506 = DIRECTION('',(0.,-2.819614030794E-16,1.));
#507 = ADVANCED_FACE('',(#508),#533,.T.);
#508 = FACE_BOUND('',#509,.T.);
#509 = EDGE_LOOP('',(#510,#518,#526,#532));
#510 = ORIENTED_EDGE('',*,*,#511,.F.);
#511 = EDGE_CURVE('',#512,#308,#514,.T.);
#512 = VERTEX_POINT('',#513);
#513 = CARTESIAN_POINT('',(5.68,1.33226762955E-16,0.6));
#514 = LINE('',#515,#516);
#515 = CARTESIAN_POINT('',(5.68,1.33226762955E-16,0.6));
#516 = VECTOR('',#517,1.);
#517 = DIRECTION('',(2.22044604925E-16,1.,-2.22044604925E-16));
#518 = ORIENTED_EDGE('',*,*,#519,.T.);
#519 = EDGE_CURVE('',#512,#520,#522,.T.);
#520 = VERTEX_POINT('',#521);
#521 = CARTESIAN_POINT('',(5.68,-1.33226762955E-16,-0.6));
#522 = LINE('',#523,#524);
#523 = CARTESIAN_POINT('',(5.68,1.33226762955E-16,0.6));
#524 = VECTOR('',#525,1.);
#525 = DIRECTION('',(0.,-2.22044604925E-16,-1.));
#526 = ORIENTED_EDGE('',*,*,#527,.T.);
#527 = EDGE_CURVE('',#520,#310,#528,.T.);
#528 = LINE('',#529,#530);
#529 = CARTESIAN_POINT('',(5.68,-1.33226762955E-16,-0.6));
#530 = VECTOR('',#531,1.);
#531 = DIRECTION('',(2.22044604925E-16,1.,-2.22044604925E-16));
#532 = ORIENTED_EDGE('',*,*,#307,.F.);
#533 = PLANE('',#534);
#534 = AXIS2_PLACEMENT_3D('',#535,#536,#537);
#535 = CARTESIAN_POINT('',(5.68,1.33226762955E-16,0.6));
#536 = DIRECTION('',(1.,-2.22044604925E-16,4.930380657631E-32));
#537 = DIRECTION('',(0.,-2.22044604925E-16,-1.));
#538 = ADVANCED_FACE('',(#539),#557,.T.);
#539 = FACE_BOUND('',#540,.T.);
#540 = EDGE_LOOP('',(#541,#542,#550,#556));
#541 = ORIENTED_EDGE('',*,*,#527,.F.);
#542 = ORIENTED_EDGE('',*,*,#543,.T.);
#543 = EDGE_CURVE('',#520,#544,#546,.T.);
#544 = VERTEX_POINT('',#545);
#545 = CARTESIAN_POINT('',(4.48,-1.33226762955E-16,-0.6));
#546 = LINE('',#547,#548);
#547 = CARTESIAN_POINT('',(5.68,-1.33226762955E-16,-0.6));
#548 = VECTOR('',#549,1.);
#549 = DIRECTION('',(-1.,-0.,0.));
#550 = ORIENTED_EDGE('',*,*,#551,.T.);
#551 = EDGE_CURVE('',#544,#326,#552,.T.);
#552 = LINE('',#553,#554);
#553 = CARTESIAN_POINT('',(4.48,-1.33226762955E-16,-0.6));
#554 = VECTOR('',#555,1.);
#555 = DIRECTION('',(0.,1.,-2.22044604925E-16));
#556 = ORIENTED_EDGE('',*,*,#333,.F.);
#557 = PLANE('',#558);
#558 = AXIS2_PLACEMENT_3D('',#559,#560,#561);
#559 = CARTESIAN_POINT('',(5.68,-1.33226762955E-16,-0.6));
#560 = DIRECTION('',(0.,-2.22044604925E-16,-1.));
#561 = DIRECTION('',(-1.,-0.,0.));
#562 = ADVANCED_FACE('',(#563),#581,.T.);
#563 = FACE_BOUND('',#564,.T.);
#564 = EDGE_LOOP('',(#565,#566,#574,#580));
#565 = ORIENTED_EDGE('',*,*,#551,.F.);
#566 = ORIENTED_EDGE('',*,*,#567,.T.);
#567 = EDGE_CURVE('',#544,#568,#570,.T.);
#568 = VERTEX_POINT('',#569);
#569 = CARTESIAN_POINT('',(4.48,1.33226762955E-16,0.6));
#570 = LINE('',#571,#572);
#571 = CARTESIAN_POINT('',(4.48,-1.33226762955E-16,-0.6));
#572 = VECTOR('',#573,1.);
#573 = DIRECTION('',(0.,2.22044604925E-16,1.));
#574 = ORIENTED_EDGE('',*,*,#575,.T.);
#575 = EDGE_CURVE('',#568,#318,#576,.T.);
#576 = LINE('',#577,#578);
#577 = CARTESIAN_POINT('',(4.48,1.33226762955E-16,0.6));
#578 = VECTOR('',#579,1.);
#579 = DIRECTION('',(2.22044604925E-16,1.,-2.22044604925E-16));
#580 = ORIENTED_EDGE('',*,*,#325,.F.);
#581 = PLANE('',#582);
#582 = AXIS2_PLACEMENT_3D('',#583,#584,#585);
#583 = CARTESIAN_POINT('',(4.48,-1.33226762955E-16,-0.6));
#584 = DIRECTION('',(-1.,2.22044604925E-16,-4.930380657631E-32));
#585 = DIRECTION('',(0.,2.22044604925E-16,1.));
#586 = ADVANCED_FACE('',(#587),#598,.T.);
#587 = FACE_BOUND('',#588,.T.);
#588 = EDGE_LOOP('',(#589,#590,#596,#597));
#589 = ORIENTED_EDGE('',*,*,#575,.F.);
#590 = ORIENTED_EDGE('',*,*,#591,.T.);
#591 = EDGE_CURVE('',#568,#512,#592,.T.);
#592 = LINE('',#593,#594);
#593 = CARTESIAN_POINT('',(4.48,1.33226762955E-16,0.6));
#594 = VECTOR('',#595,1.);
#595 = DIRECTION('',(1.,0.,0.));
#596 = ORIENTED_EDGE('',*,*,#511,.T.);
#597 = ORIENTED_EDGE('',*,*,#317,.F.);
#598 = PLANE('',#599);
#599 = AXIS2_PLACEMENT_3D('',#600,#601,#602);
#600 = CARTESIAN_POINT('',(4.48,1.33226762955E-16,0.6));
#601 = DIRECTION('',(0.,2.22044604925E-16,1.));
#602 = DIRECTION('',(1.,0.,0.));
#603 = ADVANCED_FACE('',(#604,#615),#649,.T.);
#604 = FACE_BOUND('',#605,.T.);
#605 = EDGE_LOOP('',(#606,#607,#608,#614));
#606 = ORIENTED_EDGE('',*,*,#349,.T.);
#607 = ORIENTED_EDGE('',*,*,#408,.F.);
#608 = ORIENTED_EDGE('',*,*,#609,.F.);
#609 = EDGE_CURVE('',#425,#399,#610,.T.);
#610 = LINE('',#611,#612);
#611 = CARTESIAN_POINT('',(7.62,5.,-3.15));
#612 = VECTOR('',#613,1.);
#613 = DIRECTION('',(0.,-2.22044604925E-16,1.));
#614 = ORIENTED_EDGE('',*,*,#432,.F.);
#615 = FACE_BOUND('',#616,.T.);
#616 = EDGE_LOOP('',(#617,#627,#635,#643));
#617 = ORIENTED_EDGE('',*,*,#618,.F.);
#618 = EDGE_CURVE('',#619,#621,#623,.T.);
#619 = VERTEX_POINT('',#620);
#620 = CARTESIAN_POINT('',(5.68,5.,-0.751668522645));
#621 = VERTEX_POINT('',#622);
#622 = CARTESIAN_POINT('',(4.48,5.,-0.751668522645));
#623 = LINE('',#624,#625);
#624 = CARTESIAN_POINT('',(5.68,5.,-0.751668522645));
#625 = VECTOR('',#626,1.);
#626 = DIRECTION('',(-1.,2.22044604925E-16,-2.22044604925E-16));
#627 = ORIENTED_EDGE('',*,*,#628,.T.);
#628 = EDGE_CURVE('',#619,#629,#631,.T.);
#629 = VERTEX_POINT('',#630);
#630 = CARTESIAN_POINT('',(5.68,5.,0.539607805437));
#631 = LINE('',#632,#633);
#632 = CARTESIAN_POINT('',(5.68,5.,-0.21966991411));
#633 = VECTOR('',#634,1.);
#634 = DIRECTION('',(-2.22044604925E-16,-2.819614030794E-16,1.));
#635 = ORIENTED_EDGE('',*,*,#636,.T.);
#636 = EDGE_CURVE('',#629,#637,#639,.T.);
#637 = VERTEX_POINT('',#638);
#638 = CARTESIAN_POINT('',(4.48,5.,0.539607805437));
#639 = LINE('',#640,#641);
#640 = CARTESIAN_POINT('',(4.48,5.,0.539607805437));
#641 = VECTOR('',#642,1.);
#642 = DIRECTION('',(-1.,2.22044604925E-16,-2.22044604925E-16));
#643 = ORIENTED_EDGE('',*,*,#644,.T.);
#644 = EDGE_CURVE('',#637,#621,#645,.T.);
#645 = LINE('',#646,#647);
#646 = CARTESIAN_POINT('',(4.48,5.,-0.21966991411));
#647 = VECTOR('',#648,1.);
#648 = DIRECTION('',(2.22044604925E-16,2.819614030794E-16,-1.));
#649 = PLANE('',#650);
#650 = AXIS2_PLACEMENT_3D('',#651,#652,#653);
#651 = CARTESIAN_POINT('',(5.08,5.,1.560946256063E-16));
#652 = DIRECTION('',(0.,1.,2.819614030794E-16));
#653 = DIRECTION('',(0.,-2.819614030794E-16,1.));
#654 = ADVANCED_FACE('',(#655),#682,.F.);
#655 = FACE_BOUND('',#656,.F.);
#656 = EDGE_LOOP('',(#657,#658,#667,#675));
#657 = ORIENTED_EDGE('',*,*,#358,.F.);
#658 = ORIENTED_EDGE('',*,*,#659,.T.);
#659 = EDGE_CURVE('',#359,#660,#662,.T.);
#660 = VERTEX_POINT('',#661);
#661 = CARTESIAN_POINT('',(0.6,6.6,-1.5));
#662 = CIRCLE('',#663,2.1);
#663 = AXIS2_PLACEMENT_3D('',#664,#665,#666);
#664 = CARTESIAN_POINT('',(0.6,4.5,-1.5));
#665 = DIRECTION('',(-1.,2.22044604925E-16,-2.22044604925E-16));
#666 = DIRECTION('',(2.22044604925E-16,1.,-3.066330258489E-16));
#667 = ORIENTED_EDGE('',*,*,#668,.T.);
#668 = EDGE_CURVE('',#660,#669,#671,.T.);
#669 = VERTEX_POINT('',#670);
#670 = CARTESIAN_POINT('',(0.6,5.4,-1.5));
#671 = LINE('',#672,#673);
#672 = CARTESIAN_POINT('',(0.6,6.6,-1.5));
#673 = VECTOR('',#674,1.);
#674 = DIRECTION('',(-2.22044604925E-16,-1.,1.68525052194E-14));
#675 = ORIENTED_EDGE('',*,*,#676,.F.);
#676 = EDGE_CURVE('',#361,#669,#677,.T.);
#677 = CIRCLE('',#678,0.9);
#678 = AXIS2_PLACEMENT_3D('',#679,#680,#681);
#679 = CARTESIAN_POINT('',(0.6,4.5,-1.5));
#680 = DIRECTION('',(-1.,2.22044604925E-16,-2.22044604925E-16));
#681 = DIRECTION('',(2.22044604925E-16,1.,-5.181040781584E-16));
#682 = PLANE('',#683);
#683 = AXIS2_PLACEMENT_3D('',#684,#685,#686);
#684 = CARTESIAN_POINT('',(0.6,5.56066017178,-0.43933982822));
#685 = DIRECTION('',(-1.,2.22044604925E-16,-2.22044604925E-16));
#686 = DIRECTION('',(3.140184917368E-16,0.707106781187,-0.707106781187)
  );
#687 = ADVANCED_FACE('',(#688),#707,.F.);
#688 = FACE_BOUND('',#689,.F.);
#689 = EDGE_LOOP('',(#690,#691,#692,#700));
#690 = ORIENTED_EDGE('',*,*,#384,.F.);
#691 = ORIENTED_EDGE('',*,*,#676,.T.);
#692 = ORIENTED_EDGE('',*,*,#693,.T.);
#693 = EDGE_CURVE('',#669,#694,#696,.T.);
#694 = VERTEX_POINT('',#695);
#695 = CARTESIAN_POINT('',(-0.6,5.4,-1.5));
#696 = LINE('',#697,#698);
#697 = CARTESIAN_POINT('',(0.6,5.4,-1.5));
#698 = VECTOR('',#699,1.);
#699 = DIRECTION('',(-1.,2.22044604925E-16,-2.22044604925E-16));
#700 = ORIENTED_EDGE('',*,*,#701,.F.);
#701 = EDGE_CURVE('',#377,#694,#702,.T.);
#702 = CIRCLE('',#703,0.9);
#703 = AXIS2_PLACEMENT_3D('',#704,#705,#706);
#704 = CARTESIAN_POINT('',(-0.6,4.5,-1.5));
#705 = DIRECTION('',(-1.,2.22044604925E-16,-2.22044604925E-16));
#706 = DIRECTION('',(2.22044604925E-16,1.,-5.181040781584E-16));
#707 = CYLINDRICAL_SURFACE('',#708,0.9);
#708 = AXIS2_PLACEMENT_3D('',#709,#710,#711);
#709 = CARTESIAN_POINT('',(0.6,4.5,-1.5));
#710 = DIRECTION('',(-1.,2.22044604925E-16,-2.22044604925E-16));
#711 = DIRECTION('',(2.22044604925E-16,1.,-5.181040781584E-16));
#712 = ADVANCED_FACE('',(#713),#732,.F.);
#713 = FACE_BOUND('',#714,.F.);
#714 = EDGE_LOOP('',(#715,#716,#717,#725));
#715 = ORIENTED_EDGE('',*,*,#376,.F.);
#716 = ORIENTED_EDGE('',*,*,#701,.T.);
#717 = ORIENTED_EDGE('',*,*,#718,.T.);
#718 = EDGE_CURVE('',#694,#719,#721,.T.);
#719 = VERTEX_POINT('',#720);
#720 = CARTESIAN_POINT('',(-0.6,6.6,-1.5));
#721 = LINE('',#722,#723);
#722 = CARTESIAN_POINT('',(-0.6,5.4,-1.5));
#723 = VECTOR('',#724,1.);
#724 = DIRECTION('',(2.22044604925E-16,1.,-1.68525052194E-14));
#725 = ORIENTED_EDGE('',*,*,#726,.F.);
#726 = EDGE_CURVE('',#369,#719,#727,.T.);
#727 = CIRCLE('',#728,2.1);
#728 = AXIS2_PLACEMENT_3D('',#729,#730,#731);
#729 = CARTESIAN_POINT('',(-0.6,4.5,-1.5));
#730 = DIRECTION('',(-1.,2.22044604925E-16,-2.22044604925E-16));
#731 = DIRECTION('',(2.22044604925E-16,1.,-9.51619735393E-17));
#732 = PLANE('',#733);
#733 = AXIS2_PLACEMENT_3D('',#734,#735,#736);
#734 = CARTESIAN_POINT('',(-0.6,5.56066017178,-0.43933982822));
#735 = DIRECTION('',(1.,-2.22044604925E-16,2.22044604925E-16));
#736 = DIRECTION('',(3.140184917368E-16,0.707106781187,-0.707106781187)
  );
#737 = ADVANCED_FACE('',(#738),#749,.T.);
#738 = FACE_BOUND('',#739,.T.);
#739 = EDGE_LOOP('',(#740,#741,#742,#743));
#740 = ORIENTED_EDGE('',*,*,#726,.F.);
#741 = ORIENTED_EDGE('',*,*,#368,.F.);
#742 = ORIENTED_EDGE('',*,*,#659,.T.);
#743 = ORIENTED_EDGE('',*,*,#744,.T.);
#744 = EDGE_CURVE('',#660,#719,#745,.T.);
#745 = LINE('',#746,#747);
#746 = CARTESIAN_POINT('',(-0.6,6.6,-1.5));
#747 = VECTOR('',#748,1.);
#748 = DIRECTION('',(-1.,2.22044604925E-16,-2.22044604925E-16));
#749 = CYLINDRICAL_SURFACE('',#750,2.1);
#750 = AXIS2_PLACEMENT_3D('',#751,#752,#753);
#751 = CARTESIAN_POINT('',(-0.6,4.5,-1.5));
#752 = DIRECTION('',(-1.,2.22044604925E-16,-2.22044604925E-16));
#753 = DIRECTION('',(2.22044604925E-16,1.,-9.51619735393E-17));
#754 = ADVANCED_FACE('',(#755),#773,.F.);
#755 = FACE_BOUND('',#756,.F.);
#756 = EDGE_LOOP('',(#757,#765,#766,#767));
#757 = ORIENTED_EDGE('',*,*,#758,.T.);
#758 = EDGE_CURVE('',#759,#448,#761,.T.);
#759 = VERTEX_POINT('',#760);
#760 = CARTESIAN_POINT('',(12.7,5.,3.15));
#761 = LINE('',#762,#763);
#762 = CARTESIAN_POINT('',(12.7,5.,3.15));
#763 = VECTOR('',#764,1.);
#764 = DIRECTION('',(0.,-1.,0.));
#765 = ORIENTED_EDGE('',*,*,#447,.T.);
#766 = ORIENTED_EDGE('',*,*,#398,.F.);
#767 = ORIENTED_EDGE('',*,*,#768,.F.);
#768 = EDGE_CURVE('',#759,#399,#769,.T.);
#769 = LINE('',#770,#771);
#770 = CARTESIAN_POINT('',(12.7,5.,3.15));
#771 = VECTOR('',#772,1.);
#772 = DIRECTION('',(-1.,0.,0.));
#773 = PLANE('',#774);
#774 = AXIS2_PLACEMENT_3D('',#775,#776,#777);
#775 = CARTESIAN_POINT('',(12.7,5.,3.15));
#776 = DIRECTION('',(0.,0.,-1.));
#777 = DIRECTION('',(-1.,-0.,0.));
#778 = ADVANCED_FACE('',(#779),#797,.F.);
#779 = FACE_BOUND('',#780,.F.);
#780 = EDGE_LOOP('',(#781,#782,#783,#791));
#781 = ORIENTED_EDGE('',*,*,#424,.T.);
#782 = ORIENTED_EDGE('',*,*,#463,.T.);
#783 = ORIENTED_EDGE('',*,*,#784,.F.);
#784 = EDGE_CURVE('',#785,#456,#787,.T.);
#785 = VERTEX_POINT('',#786);
#786 = CARTESIAN_POINT('',(12.7,5.,-3.15));
#787 = LINE('',#788,#789);
#788 = CARTESIAN_POINT('',(12.7,5.,-3.15));
#789 = VECTOR('',#790,1.);
#790 = DIRECTION('',(0.,-1.,0.));
#791 = ORIENTED_EDGE('',*,*,#792,.F.);
#792 = EDGE_CURVE('',#425,#785,#793,.T.);
#793 = LINE('',#794,#795);
#794 = CARTESIAN_POINT('',(7.62,5.,-3.15));
#795 = VECTOR('',#796,1.);
#796 = DIRECTION('',(1.,0.,0.));
#797 = PLANE('',#798);
#798 = AXIS2_PLACEMENT_3D('',#799,#800,#801);
#799 = CARTESIAN_POINT('',(7.62,5.,-3.15));
#800 = DIRECTION('',(0.,0.,1.));
#801 = DIRECTION('',(1.,0.,0.));
#802 = ADVANCED_FACE('',(#803),#814,.F.);
#803 = FACE_BOUND('',#804,.F.);
#804 = EDGE_LOOP('',(#805,#806,#807,#808));
#805 = ORIENTED_EDGE('',*,*,#784,.T.);
#806 = ORIENTED_EDGE('',*,*,#455,.T.);
#807 = ORIENTED_EDGE('',*,*,#758,.F.);
#808 = ORIENTED_EDGE('',*,*,#809,.F.);
#809 = EDGE_CURVE('',#785,#759,#810,.T.);
#810 = LINE('',#811,#812);
#811 = CARTESIAN_POINT('',(12.7,5.,-3.15));
#812 = VECTOR('',#813,1.);
#813 = DIRECTION('',(0.,-2.22044604925E-16,1.));
#814 = PLANE('',#815);
#815 = AXIS2_PLACEMENT_3D('',#816,#817,#818);
#816 = CARTESIAN_POINT('',(12.7,5.,-3.15));
#817 = DIRECTION('',(-1.,-0.,0.));
#818 = DIRECTION('',(0.,-2.22044604925E-16,1.));
#819 = ADVANCED_FACE('',(#820),#845,.T.);
#820 = FACE_BOUND('',#821,.T.);
#821 = EDGE_LOOP('',(#822,#830,#838,#844));
#822 = ORIENTED_EDGE('',*,*,#823,.F.);
#823 = EDGE_CURVE('',#824,#472,#826,.T.);
#824 = VERTEX_POINT('',#825);
#825 = CARTESIAN_POINT('',(10.76,1.33226762955E-16,0.6));
#826 = LINE('',#827,#828);
#827 = CARTESIAN_POINT('',(10.76,1.33226762955E-16,0.6));
#828 = VECTOR('',#829,1.);
#829 = DIRECTION('',(2.22044604925E-16,1.,-2.22044604925E-16));
#830 = ORIENTED_EDGE('',*,*,#831,.T.);
#831 = EDGE_CURVE('',#824,#832,#834,.T.);
#832 = VERTEX_POINT('',#833);
#833 = CARTESIAN_POINT('',(10.76,-1.33226762955E-16,-0.6));
#834 = LINE('',#835,#836);
#835 = CARTESIAN_POINT('',(10.76,1.33226762955E-16,0.6));
#836 = VECTOR('',#837,1.);
#837 = DIRECTION('',(0.,-2.22044604925E-16,-1.));
#838 = ORIENTED_EDGE('',*,*,#839,.T.);
#839 = EDGE_CURVE('',#832,#474,#840,.T.);
#840 = LINE('',#841,#842);
#841 = CARTESIAN_POINT('',(10.76,-1.33226762955E-16,-0.6));
#842 = VECTOR('',#843,1.);
#843 = DIRECTION('',(2.22044604925E-16,1.,-2.22044604925E-16));
#844 = ORIENTED_EDGE('',*,*,#471,.F.);
#845 = PLANE('',#846);
#846 = AXIS2_PLACEMENT_3D('',#847,#848,#849);
#847 = CARTESIAN_POINT('',(10.76,1.33226762955E-16,0.6));
#848 = DIRECTION('',(1.,-2.22044604925E-16,4.930380657631E-32));
#849 = DIRECTION('',(0.,-2.22044604925E-16,-1.));
#850 = ADVANCED_FACE('',(#851),#869,.T.);
#851 = FACE_BOUND('',#852,.T.);
#852 = EDGE_LOOP('',(#853,#854,#862,#868));
#853 = ORIENTED_EDGE('',*,*,#839,.F.);
#854 = ORIENTED_EDGE('',*,*,#855,.T.);
#855 = EDGE_CURVE('',#832,#856,#858,.T.);
#856 = VERTEX_POINT('',#857);
#857 = CARTESIAN_POINT('',(9.56,-1.33226762955E-16,-0.6));
#858 = LINE('',#859,#860);
#859 = CARTESIAN_POINT('',(10.76,-1.33226762955E-16,-0.6));
#860 = VECTOR('',#861,1.);
#861 = DIRECTION('',(-1.,-0.,0.));
#862 = ORIENTED_EDGE('',*,*,#863,.T.);
#863 = EDGE_CURVE('',#856,#490,#864,.T.);
#864 = LINE('',#865,#866);
#865 = CARTESIAN_POINT('',(9.56,-1.33226762955E-16,-0.6));
#866 = VECTOR('',#867,1.);
#867 = DIRECTION('',(0.,1.,-2.22044604925E-16));
#868 = ORIENTED_EDGE('',*,*,#497,.F.);
#869 = PLANE('',#870);
#870 = AXIS2_PLACEMENT_3D('',#871,#872,#873);
#871 = CARTESIAN_POINT('',(10.76,-1.33226762955E-16,-0.6));
#872 = DIRECTION('',(0.,-2.22044604925E-16,-1.));
#873 = DIRECTION('',(-1.,-0.,0.));
#874 = ADVANCED_FACE('',(#875),#893,.T.);
#875 = FACE_BOUND('',#876,.T.);
#876 = EDGE_LOOP('',(#877,#878,#886,#892));
#877 = ORIENTED_EDGE('',*,*,#863,.F.);
#878 = ORIENTED_EDGE('',*,*,#879,.T.);
#879 = EDGE_CURVE('',#856,#880,#882,.T.);
#880 = VERTEX_POINT('',#881);
#881 = CARTESIAN_POINT('',(9.56,1.33226762955E-16,0.6));
#882 = LINE('',#883,#884);
#883 = CARTESIAN_POINT('',(9.56,-1.33226762955E-16,-0.6));
#884 = VECTOR('',#885,1.);
#885 = DIRECTION('',(0.,2.22044604925E-16,1.));
#886 = ORIENTED_EDGE('',*,*,#887,.T.);
#887 = EDGE_CURVE('',#880,#482,#888,.T.);
#888 = LINE('',#889,#890);
#889 = CARTESIAN_POINT('',(9.56,1.33226762955E-16,0.6));
#890 = VECTOR('',#891,1.);
#891 = DIRECTION('',(2.22044604925E-16,1.,-2.22044604925E-16));
#892 = ORIENTED_EDGE('',*,*,#489,.F.);
#893 = PLANE('',#894);
#894 = AXIS2_PLACEMENT_3D('',#895,#896,#897);
#895 = CARTESIAN_POINT('',(9.56,-1.33226762955E-16,-0.6));
#896 = DIRECTION('',(-1.,2.22044604925E-16,-4.930380657631E-32));
#897 = DIRECTION('',(0.,2.22044604925E-16,1.));
#898 = ADVANCED_FACE('',(#899),#910,.T.);
#899 = FACE_BOUND('',#900,.T.);
#900 = EDGE_LOOP('',(#901,#902,#908,#909));
#901 = ORIENTED_EDGE('',*,*,#887,.F.);
#902 = ORIENTED_EDGE('',*,*,#903,.T.);
#903 = EDGE_CURVE('',#880,#824,#904,.T.);
#904 = LINE('',#905,#906);
#905 = CARTESIAN_POINT('',(9.56,1.33226762955E-16,0.6));
#906 = VECTOR('',#907,1.);
#907 = DIRECTION('',(1.,0.,0.));
#908 = ORIENTED_EDGE('',*,*,#823,.T.);
#909 = ORIENTED_EDGE('',*,*,#481,.F.);
#910 = PLANE('',#911);
#911 = AXIS2_PLACEMENT_3D('',#912,#913,#914);
#912 = CARTESIAN_POINT('',(9.56,1.33226762955E-16,0.6));
#913 = DIRECTION('',(0.,2.22044604925E-16,1.));
#914 = DIRECTION('',(1.,0.,0.));
#915 = ADVANCED_FACE('',(#916),#922,.F.);
#916 = FACE_BOUND('',#917,.F.);
#917 = EDGE_LOOP('',(#918,#919,#920,#921));
#918 = ORIENTED_EDGE('',*,*,#519,.T.);
#919 = ORIENTED_EDGE('',*,*,#543,.T.);
#920 = ORIENTED_EDGE('',*,*,#567,.T.);
#921 = ORIENTED_EDGE('',*,*,#591,.T.);
#922 = PLANE('',#923);
#923 = AXIS2_PLACEMENT_3D('',#924,#925,#926);
#924 = CARTESIAN_POINT('',(5.08,5.135813185033E-33,2.312964634636E-17));
#925 = DIRECTION('',(0.,1.,-2.22044604925E-16));
#926 = DIRECTION('',(0.,-2.22044604925E-16,-1.));
#927 = ADVANCED_FACE('',(#928,#934),#968,.T.);
#928 = FACE_BOUND('',#929,.T.);
#929 = EDGE_LOOP('',(#930,#931,#932,#933));
#930 = ORIENTED_EDGE('',*,*,#609,.T.);
#931 = ORIENTED_EDGE('',*,*,#768,.F.);
#932 = ORIENTED_EDGE('',*,*,#809,.F.);
#933 = ORIENTED_EDGE('',*,*,#792,.F.);
#934 = FACE_BOUND('',#935,.T.);
#935 = EDGE_LOOP('',(#936,#946,#954,#962));
#936 = ORIENTED_EDGE('',*,*,#937,.F.);
#937 = EDGE_CURVE('',#938,#940,#942,.T.);
#938 = VERTEX_POINT('',#939);
#939 = CARTESIAN_POINT('',(10.76,5.,-0.751668522645));
#940 = VERTEX_POINT('',#941);
#941 = CARTESIAN_POINT('',(9.56,5.,-0.751668522645));
#942 = LINE('',#943,#944);
#943 = CARTESIAN_POINT('',(10.76,5.,-0.751668522645));
#944 = VECTOR('',#945,1.);
#945 = DIRECTION('',(-1.,2.22044604925E-16,-2.22044604925E-16));
#946 = ORIENTED_EDGE('',*,*,#947,.T.);
#947 = EDGE_CURVE('',#938,#948,#950,.T.);
#948 = VERTEX_POINT('',#949);
#949 = CARTESIAN_POINT('',(10.76,5.,0.539607805437));
#950 = LINE('',#951,#952);
#951 = CARTESIAN_POINT('',(10.76,5.,-0.21966991411));
#952 = VECTOR('',#953,1.);
#953 = DIRECTION('',(-2.22044604925E-16,-2.819614030794E-16,1.));
#954 = ORIENTED_EDGE('',*,*,#955,.T.);
#955 = EDGE_CURVE('',#948,#956,#958,.T.);
#956 = VERTEX_POINT('',#957);
#957 = CARTESIAN_POINT('',(9.56,5.,0.539607805437));
#958 = LINE('',#959,#960);
#959 = CARTESIAN_POINT('',(9.56,5.,0.539607805437));
#960 = VECTOR('',#961,1.);
#961 = DIRECTION('',(-1.,2.22044604925E-16,-2.22044604925E-16));
#962 = ORIENTED_EDGE('',*,*,#963,.T.);
#963 = EDGE_CURVE('',#956,#940,#964,.T.);
#964 = LINE('',#965,#966);
#965 = CARTESIAN_POINT('',(9.56,5.,-0.21966991411));
#966 = VECTOR('',#967,1.);
#967 = DIRECTION('',(2.22044604925E-16,2.819614030794E-16,-1.));
#968 = PLANE('',#969);
#969 = AXIS2_PLACEMENT_3D('',#970,#971,#972);
#970 = CARTESIAN_POINT('',(10.16,5.,1.560946256063E-16));
#971 = DIRECTION('',(0.,1.,2.819614030794E-16));
#972 = DIRECTION('',(0.,-2.819614030794E-16,1.));
#973 = ADVANCED_FACE('',(#974),#1001,.F.);
#974 = FACE_BOUND('',#975,.F.);
#975 = EDGE_LOOP('',(#976,#977,#986,#994));
#976 = ORIENTED_EDGE('',*,*,#618,.F.);
#977 = ORIENTED_EDGE('',*,*,#978,.T.);
#978 = EDGE_CURVE('',#619,#979,#981,.T.);
#979 = VERTEX_POINT('',#980);
#980 = CARTESIAN_POINT('',(5.68,5.4,-1.5));
#981 = CIRCLE('',#982,0.9);
#982 = AXIS2_PLACEMENT_3D('',#983,#984,#985);
#983 = CARTESIAN_POINT('',(5.68,4.5,-1.5));
#984 = DIRECTION('',(-1.,2.22044604925E-16,-2.22044604925E-16));
#985 = DIRECTION('',(2.22044604925E-16,1.,-5.181040781584E-16));
#986 = ORIENTED_EDGE('',*,*,#987,.T.);
#987 = EDGE_CURVE('',#979,#988,#990,.T.);
#988 = VERTEX_POINT('',#989);
#989 = CARTESIAN_POINT('',(4.48,5.4,-1.5));
#990 = LINE('',#991,#992);
#991 = CARTESIAN_POINT('',(5.68,5.4,-1.5));
#992 = VECTOR('',#993,1.);
#993 = DIRECTION('',(-1.,2.22044604925E-16,-2.22044604925E-16));
#994 = ORIENTED_EDGE('',*,*,#995,.F.);
#995 = EDGE_CURVE('',#621,#988,#996,.T.);
#996 = CIRCLE('',#997,0.9);
#997 = AXIS2_PLACEMENT_3D('',#998,#999,#1000);
#998 = CARTESIAN_POINT('',(4.48,4.5,-1.5));
#999 = DIRECTION('',(-1.,2.22044604925E-16,-2.22044604925E-16));
#1000 = DIRECTION('',(2.22044604925E-16,1.,-5.181040781584E-16));
#1001 = CYLINDRICAL_SURFACE('',#1002,0.9);
#1002 = AXIS2_PLACEMENT_3D('',#1003,#1004,#1005);
#1003 = CARTESIAN_POINT('',(5.68,4.5,-1.5));
#1004 = DIRECTION('',(-1.,2.22044604925E-16,-2.22044604925E-16));
#1005 = DIRECTION('',(2.22044604925E-16,1.,-5.181040781584E-16));
#1006 = ADVANCED_FACE('',(#1007),#1026,.F.);
#1007 = FACE_BOUND('',#1008,.F.);
#1008 = EDGE_LOOP('',(#1009,#1010,#1011,#1019));
#1009 = ORIENTED_EDGE('',*,*,#644,.T.);
#1010 = ORIENTED_EDGE('',*,*,#995,.T.);
#1011 = ORIENTED_EDGE('',*,*,#1012,.T.);
#1012 = EDGE_CURVE('',#988,#1013,#1015,.T.);
#1013 = VERTEX_POINT('',#1014);
#1014 = CARTESIAN_POINT('',(4.48,6.6,-1.5));
#1015 = LINE('',#1016,#1017);
#1016 = CARTESIAN_POINT('',(4.48,5.4,-1.5));
#1017 = VECTOR('',#1018,1.);
#1018 = DIRECTION('',(2.22044604925E-16,1.,-1.68525052194E-14));
#1019 = ORIENTED_EDGE('',*,*,#1020,.F.);
#1020 = EDGE_CURVE('',#637,#1013,#1021,.T.);
#1021 = CIRCLE('',#1022,2.1);
#1022 = AXIS2_PLACEMENT_3D('',#1023,#1024,#1025);
#1023 = CARTESIAN_POINT('',(4.48,4.5,-1.5));
#1024 = DIRECTION('',(-1.,2.22044604925E-16,-2.22044604925E-16));
#1025 = DIRECTION('',(2.22044604925E-16,1.,-9.51619735393E-17));
#1026 = PLANE('',#1027);
#1027 = AXIS2_PLACEMENT_3D('',#1028,#1029,#1030);
#1028 = CARTESIAN_POINT('',(4.48,5.56066017178,-0.43933982822));
#1029 = DIRECTION('',(1.,-2.22044604925E-16,2.22044604925E-16));
#1030 = DIRECTION('',(3.140184917368E-16,0.707106781187,-0.707106781187)
  );
#1031 = ADVANCED_FACE('',(#1032),#1051,.T.);
#1032 = FACE_BOUND('',#1033,.T.);
#1033 = EDGE_LOOP('',(#1034,#1035,#1036,#1045));
#1034 = ORIENTED_EDGE('',*,*,#1020,.F.);
#1035 = ORIENTED_EDGE('',*,*,#636,.F.);
#1036 = ORIENTED_EDGE('',*,*,#1037,.T.);
#1037 = EDGE_CURVE('',#629,#1038,#1040,.T.);
#1038 = VERTEX_POINT('',#1039);
#1039 = CARTESIAN_POINT('',(5.68,6.6,-1.5));
#1040 = CIRCLE('',#1041,2.1);
#1041 = AXIS2_PLACEMENT_3D('',#1042,#1043,#1044);
#1042 = CARTESIAN_POINT('',(5.68,4.5,-1.5));
#1043 = DIRECTION('',(-1.,2.22044604925E-16,-2.22044604925E-16));
#1044 = DIRECTION('',(2.22044604925E-16,1.,-3.066330258489E-16));
#1045 = ORIENTED_EDGE('',*,*,#1046,.T.);
#1046 = EDGE_CURVE('',#1038,#1013,#1047,.T.);
#1047 = LINE('',#1048,#1049);
#1048 = CARTESIAN_POINT('',(4.48,6.6,-1.5));
#1049 = VECTOR('',#1050,1.);
#1050 = DIRECTION('',(-1.,2.22044604925E-16,-2.22044604925E-16));
#1051 = CYLINDRICAL_SURFACE('',#1052,2.1);
#1052 = AXIS2_PLACEMENT_3D('',#1053,#1054,#1055);
#1053 = CARTESIAN_POINT('',(4.48,4.5,-1.5));
#1054 = DIRECTION('',(-1.,2.22044604925E-16,-2.22044604925E-16));
#1055 = DIRECTION('',(2.22044604925E-16,1.,-9.51619735393E-17));
#1056 = ADVANCED_FACE('',(#1057),#1068,.F.);
#1057 = FACE_BOUND('',#1058,.F.);
#1058 = EDGE_LOOP('',(#1059,#1060,#1061,#1067));
#1059 = ORIENTED_EDGE('',*,*,#628,.T.);
#1060 = ORIENTED_EDGE('',*,*,#1037,.T.);
#1061 = ORIENTED_EDGE('',*,*,#1062,.T.);
#1062 = EDGE_CURVE('',#1038,#979,#1063,.T.);
#1063 = LINE('',#1064,#1065);
#1064 = CARTESIAN_POINT('',(5.68,6.6,-1.5));
#1065 = VECTOR('',#1066,1.);
#1066 = DIRECTION('',(-2.22044604925E-16,-1.,1.68525052194E-14));
#1067 = ORIENTED_EDGE('',*,*,#978,.F.);
#1068 = PLANE('',#1069);
#1069 = AXIS2_PLACEMENT_3D('',#1070,#1071,#1072);
#1070 = CARTESIAN_POINT('',(5.68,5.56066017178,-0.43933982822));
#1071 = DIRECTION('',(-1.,2.22044604925E-16,-2.22044604925E-16));
#1072 = DIRECTION('',(3.140184917368E-16,0.707106781187,-0.707106781187)
  );
#1073 = ADVANCED_FACE('',(#1074),#1099,.T.);
#1074 = FACE_BOUND('',#1075,.T.);
#1075 = EDGE_LOOP('',(#1076,#1084,#1085,#1093));
#1076 = ORIENTED_EDGE('',*,*,#1077,.F.);
#1077 = EDGE_CURVE('',#660,#1078,#1080,.T.);
#1078 = VERTEX_POINT('',#1079);
#1079 = CARTESIAN_POINT('',(0.6,6.6,-22.));
#1080 = LINE('',#1081,#1082);
#1081 = CARTESIAN_POINT('',(0.6,6.6,-1.5));
#1082 = VECTOR('',#1083,1.);
#1083 = DIRECTION('',(2.22044604925E-16,-1.68525052194E-14,-1.));
#1084 = ORIENTED_EDGE('',*,*,#668,.T.);
#1085 = ORIENTED_EDGE('',*,*,#1086,.T.);
#1086 = EDGE_CURVE('',#669,#1087,#1089,.T.);
#1087 = VERTEX_POINT('',#1088);
#1088 = CARTESIAN_POINT('',(0.6,5.4,-22.));
#1089 = LINE('',#1090,#1091);
#1090 = CARTESIAN_POINT('',(0.6,5.4,-1.5));
#1091 = VECTOR('',#1092,1.);
#1092 = DIRECTION('',(2.22044604925E-16,-1.68525052194E-14,-1.));
#1093 = ORIENTED_EDGE('',*,*,#1094,.F.);
#1094 = EDGE_CURVE('',#1078,#1087,#1095,.T.);
#1095 = LINE('',#1096,#1097);
#1096 = CARTESIAN_POINT('',(0.6,6.6,-22.));
#1097 = VECTOR('',#1098,1.);
#1098 = DIRECTION('',(-2.22044604925E-16,-1.,1.68525052194E-14));
#1099 = PLANE('',#1100);
#1100 = AXIS2_PLACEMENT_3D('',#1101,#1102,#1103);
#1101 = CARTESIAN_POINT('',(0.6,6.6,-1.5));
#1102 = DIRECTION('',(1.,-2.22044604925E-16,2.22044604925E-16));
#1103 = DIRECTION('',(-2.22044604925E-16,-1.,1.68525052194E-14));
#1104 = ADVANCED_FACE('',(#1105),#1123,.T.);
#1105 = FACE_BOUND('',#1106,.T.);
#1106 = EDGE_LOOP('',(#1107,#1108,#1109,#1117));
#1107 = ORIENTED_EDGE('',*,*,#1086,.F.);
#1108 = ORIENTED_EDGE('',*,*,#693,.T.);
#1109 = ORIENTED_EDGE('',*,*,#1110,.T.);
#1110 = EDGE_CURVE('',#694,#1111,#1113,.T.);
#1111 = VERTEX_POINT('',#1112);
#1112 = CARTESIAN_POINT('',(-0.6,5.4,-22.));
#1113 = LINE('',#1114,#1115);
#1114 = CARTESIAN_POINT('',(-0.6,5.4,-1.5));
#1115 = VECTOR('',#1116,1.);
#1116 = DIRECTION('',(9.860761315263E-32,2.22044604925E-16,-1.));
#1117 = ORIENTED_EDGE('',*,*,#1118,.F.);
#1118 = EDGE_CURVE('',#1087,#1111,#1119,.T.);
#1119 = LINE('',#1120,#1121);
#1120 = CARTESIAN_POINT('',(0.6,5.4,-22.));
#1121 = VECTOR('',#1122,1.);
#1122 = DIRECTION('',(-1.,2.22044604925E-16,-4.930380657631E-32));
#1123 = PLANE('',#1124);
#1124 = AXIS2_PLACEMENT_3D('',#1125,#1126,#1127);
#1125 = CARTESIAN_POINT('',(0.6,5.4,-1.5));
#1126 = DIRECTION('',(-2.22044604925E-16,-1.,-2.22044604925E-16));
#1127 = DIRECTION('',(-1.,2.22044604925E-16,-4.930380657631E-32));
#1128 = ADVANCED_FACE('',(#1129),#1147,.T.);
#1129 = FACE_BOUND('',#1130,.T.);
#1130 = EDGE_LOOP('',(#1131,#1132,#1133,#1141));
#1131 = ORIENTED_EDGE('',*,*,#1110,.F.);
#1132 = ORIENTED_EDGE('',*,*,#718,.T.);
#1133 = ORIENTED_EDGE('',*,*,#1134,.T.);
#1134 = EDGE_CURVE('',#719,#1135,#1137,.T.);
#1135 = VERTEX_POINT('',#1136);
#1136 = CARTESIAN_POINT('',(-0.6,6.6,-22.));
#1137 = LINE('',#1138,#1139);
#1138 = CARTESIAN_POINT('',(-0.6,6.6,-1.5));
#1139 = VECTOR('',#1140,1.);
#1140 = DIRECTION('',(2.22044604925E-16,-1.68525052194E-14,-1.));
#1141 = ORIENTED_EDGE('',*,*,#1142,.F.);
#1142 = EDGE_CURVE('',#1111,#1135,#1143,.T.);
#1143 = LINE('',#1144,#1145);
#1144 = CARTESIAN_POINT('',(-0.6,5.4,-22.));
#1145 = VECTOR('',#1146,1.);
#1146 = DIRECTION('',(2.22044604925E-16,1.,-1.68525052194E-14));
#1147 = PLANE('',#1148);
#1148 = AXIS2_PLACEMENT_3D('',#1149,#1150,#1151);
#1149 = CARTESIAN_POINT('',(-0.6,5.4,-1.5));
#1150 = DIRECTION('',(-1.,2.22044604925E-16,-2.22044604925E-16));
#1151 = DIRECTION('',(2.22044604925E-16,1.,-1.68525052194E-14));
#1152 = ADVANCED_FACE('',(#1153),#1164,.T.);
#1153 = FACE_BOUND('',#1154,.T.);
#1154 = EDGE_LOOP('',(#1155,#1156,#1157,#1158));
#1155 = ORIENTED_EDGE('',*,*,#1134,.F.);
#1156 = ORIENTED_EDGE('',*,*,#744,.F.);
#1157 = ORIENTED_EDGE('',*,*,#1077,.T.);
#1158 = ORIENTED_EDGE('',*,*,#1159,.F.);
#1159 = EDGE_CURVE('',#1135,#1078,#1160,.T.);
#1160 = LINE('',#1161,#1162);
#1161 = CARTESIAN_POINT('',(-0.6,6.6,-22.));
#1162 = VECTOR('',#1163,1.);
#1163 = DIRECTION('',(1.,-2.22044604925E-16,4.930380657631E-32));
#1164 = PLANE('',#1165);
#1165 = AXIS2_PLACEMENT_3D('',#1166,#1167,#1168);
#1166 = CARTESIAN_POINT('',(-0.6,6.6,-1.5));
#1167 = DIRECTION('',(2.22044604925E-16,1.,2.22044604925E-16));
#1168 = DIRECTION('',(1.,-2.22044604925E-16,4.930380657631E-32));
#1169 = ADVANCED_FACE('',(#1170),#1176,.F.);
#1170 = FACE_BOUND('',#1171,.F.);
#1171 = EDGE_LOOP('',(#1172,#1173,#1174,#1175));
#1172 = ORIENTED_EDGE('',*,*,#831,.T.);
#1173 = ORIENTED_EDGE('',*,*,#855,.T.);
#1174 = ORIENTED_EDGE('',*,*,#879,.T.);
#1175 = ORIENTED_EDGE('',*,*,#903,.T.);
#1176 = PLANE('',#1177);
#1177 = AXIS2_PLACEMENT_3D('',#1178,#1179,#1180);
#1178 = CARTESIAN_POINT('',(10.16,5.135813185033E-33,2.312964634636E-17)
  );
#1179 = DIRECTION('',(0.,1.,-2.22044604925E-16));
#1180 = DIRECTION('',(0.,-2.22044604925E-16,-1.));
#1181 = ADVANCED_FACE('',(#1182),#1209,.F.);
#1182 = FACE_BOUND('',#1183,.F.);
#1183 = EDGE_LOOP('',(#1184,#1185,#1194,#1202));
#1184 = ORIENTED_EDGE('',*,*,#937,.F.);
#1185 = ORIENTED_EDGE('',*,*,#1186,.T.);
#1186 = EDGE_CURVE('',#938,#1187,#1189,.T.);
#1187 = VERTEX_POINT('',#1188);
#1188 = CARTESIAN_POINT('',(10.76,5.4,-1.5));
#1189 = CIRCLE('',#1190,0.9);
#1190 = AXIS2_PLACEMENT_3D('',#1191,#1192,#1193);
#1191 = CARTESIAN_POINT('',(10.76,4.5,-1.5));
#1192 = DIRECTION('',(-1.,2.22044604925E-16,-2.22044604925E-16));
#1193 = DIRECTION('',(2.22044604925E-16,1.,-5.181040781584E-16));
#1194 = ORIENTED_EDGE('',*,*,#1195,.T.);
#1195 = EDGE_CURVE('',#1187,#1196,#1198,.T.);
#1196 = VERTEX_POINT('',#1197);
#1197 = CARTESIAN_POINT('',(9.56,5.4,-1.5));
#1198 = LINE('',#1199,#1200);
#1199 = CARTESIAN_POINT('',(10.76,5.4,-1.5));
#1200 = VECTOR('',#1201,1.);
#1201 = DIRECTION('',(-1.,2.22044604925E-16,-2.22044604925E-16));
#1202 = ORIENTED_EDGE('',*,*,#1203,.F.);
#1203 = EDGE_CURVE('',#940,#1196,#1204,.T.);
#1204 = CIRCLE('',#1205,0.9);
#1205 = AXIS2_PLACEMENT_3D('',#1206,#1207,#1208);
#1206 = CARTESIAN_POINT('',(9.56,4.5,-1.5));
#1207 = DIRECTION('',(-1.,2.22044604925E-16,-2.22044604925E-16));
#1208 = DIRECTION('',(2.22044604925E-16,1.,-5.181040781584E-16));
#1209 = CYLINDRICAL_SURFACE('',#1210,0.9);
#1210 = AXIS2_PLACEMENT_3D('',#1211,#1212,#1213);
#1211 = CARTESIAN_POINT('',(10.76,4.5,-1.5));
#1212 = DIRECTION('',(-1.,2.22044604925E-16,-2.22044604925E-16));
#1213 = DIRECTION('',(2.22044604925E-16,1.,-5.181040781584E-16));
#1214 = ADVANCED_FACE('',(#1215),#1234,.F.);
#1215 = FACE_BOUND('',#1216,.F.);
#1216 = EDGE_LOOP('',(#1217,#1218,#1219,#1227));
#1217 = ORIENTED_EDGE('',*,*,#963,.T.);
#1218 = ORIENTED_EDGE('',*,*,#1203,.T.);
#1219 = ORIENTED_EDGE('',*,*,#1220,.T.);
#1220 = EDGE_CURVE('',#1196,#1221,#1223,.T.);
#1221 = VERTEX_POINT('',#1222);
#1222 = CARTESIAN_POINT('',(9.56,6.6,-1.5));
#1223 = LINE('',#1224,#1225);
#1224 = CARTESIAN_POINT('',(9.56,5.4,-1.5));
#1225 = VECTOR('',#1226,1.);
#1226 = DIRECTION('',(2.22044604925E-16,1.,-1.68525052194E-14));
#1227 = ORIENTED_EDGE('',*,*,#1228,.F.);
#1228 = EDGE_CURVE('',#956,#1221,#1229,.T.);
#1229 = CIRCLE('',#1230,2.1);
#1230 = AXIS2_PLACEMENT_3D('',#1231,#1232,#1233);
#1231 = CARTESIAN_POINT('',(9.56,4.5,-1.5));
#1232 = DIRECTION('',(-1.,2.22044604925E-16,-2.22044604925E-16));
#1233 = DIRECTION('',(2.22044604925E-16,1.,-9.51619735393E-17));
#1234 = PLANE('',#1235);
#1235 = AXIS2_PLACEMENT_3D('',#1236,#1237,#1238);
#1236 = CARTESIAN_POINT('',(9.56,5.56066017178,-0.43933982822));
#1237 = DIRECTION('',(1.,-2.22044604925E-16,2.22044604925E-16));
#1238 = DIRECTION('',(3.140184917368E-16,0.707106781187,-0.707106781187)
  );
#1239 = ADVANCED_FACE('',(#1240),#1259,.T.);
#1240 = FACE_BOUND('',#1241,.T.);
#1241 = EDGE_LOOP('',(#1242,#1243,#1244,#1253));
#1242 = ORIENTED_EDGE('',*,*,#1228,.F.);
#1243 = ORIENTED_EDGE('',*,*,#955,.F.);
#1244 = ORIENTED_EDGE('',*,*,#1245,.T.);
#1245 = EDGE_CURVE('',#948,#1246,#1248,.T.);
#1246 = VERTEX_POINT('',#1247);
#1247 = CARTESIAN_POINT('',(10.76,6.6,-1.5));
#1248 = CIRCLE('',#1249,2.1);
#1249 = AXIS2_PLACEMENT_3D('',#1250,#1251,#1252);
#1250 = CARTESIAN_POINT('',(10.76,4.5,-1.5));
#1251 = DIRECTION('',(-1.,2.22044604925E-16,-2.22044604925E-16));
#1252 = DIRECTION('',(2.22044604925E-16,1.,-3.066330258489E-16));
#1253 = ORIENTED_EDGE('',*,*,#1254,.T.);
#1254 = EDGE_CURVE('',#1246,#1221,#1255,.T.);
#1255 = LINE('',#1256,#1257);
#1256 = CARTESIAN_POINT('',(9.56,6.6,-1.5));
#1257 = VECTOR('',#1258,1.);
#1258 = DIRECTION('',(-1.,2.22044604925E-16,-2.22044604925E-16));
#1259 = CYLINDRICAL_SURFACE('',#1260,2.1);
#1260 = AXIS2_PLACEMENT_3D('',#1261,#1262,#1263);
#1261 = CARTESIAN_POINT('',(9.56,4.5,-1.5));
#1262 = DIRECTION('',(-1.,2.22044604925E-16,-2.22044604925E-16));
#1263 = DIRECTION('',(2.22044604925E-16,1.,-9.51619735393E-17));
#1264 = ADVANCED_FACE('',(#1265),#1276,.F.);
#1265 = FACE_BOUND('',#1266,.F.);
#1266 = EDGE_LOOP('',(#1267,#1268,#1269,#1275));
#1267 = ORIENTED_EDGE('',*,*,#947,.T.);
#1268 = ORIENTED_EDGE('',*,*,#1245,.T.);
#1269 = ORIENTED_EDGE('',*,*,#1270,.T.);
#1270 = EDGE_CURVE('',#1246,#1187,#1271,.T.);
#1271 = LINE('',#1272,#1273);
#1272 = CARTESIAN_POINT('',(10.76,6.6,-1.5));
#1273 = VECTOR('',#1274,1.);
#1274 = DIRECTION('',(-2.22044604925E-16,-1.,1.68525052194E-14));
#1275 = ORIENTED_EDGE('',*,*,#1186,.F.);
#1276 = PLANE('',#1277);
#1277 = AXIS2_PLACEMENT_3D('',#1278,#1279,#1280);
#1278 = CARTESIAN_POINT('',(10.76,5.56066017178,-0.43933982822));
#1279 = DIRECTION('',(-1.,2.22044604925E-16,-2.22044604925E-16));
#1280 = DIRECTION('',(3.140184917368E-16,0.707106781187,-0.707106781187)
  );
#1281 = ADVANCED_FACE('',(#1282),#1307,.T.);
#1282 = FACE_BOUND('',#1283,.T.);
#1283 = EDGE_LOOP('',(#1284,#1292,#1293,#1301));
#1284 = ORIENTED_EDGE('',*,*,#1285,.F.);
#1285 = EDGE_CURVE('',#979,#1286,#1288,.T.);
#1286 = VERTEX_POINT('',#1287);
#1287 = CARTESIAN_POINT('',(5.68,5.4,-22.));
#1288 = LINE('',#1289,#1290);
#1289 = CARTESIAN_POINT('',(5.68,5.4,-1.5));
#1290 = VECTOR('',#1291,1.);
#1291 = DIRECTION('',(2.22044604925E-16,-1.68525052194E-14,-1.));
#1292 = ORIENTED_EDGE('',*,*,#987,.T.);
#1293 = ORIENTED_EDGE('',*,*,#1294,.T.);
#1294 = EDGE_CURVE('',#988,#1295,#1297,.T.);
#1295 = VERTEX_POINT('',#1296);
#1296 = CARTESIAN_POINT('',(4.48,5.4,-22.));
#1297 = LINE('',#1298,#1299);
#1298 = CARTESIAN_POINT('',(4.48,5.4,-1.5));
#1299 = VECTOR('',#1300,1.);
#1300 = DIRECTION('',(9.860761315263E-32,2.22044604925E-16,-1.));
#1301 = ORIENTED_EDGE('',*,*,#1302,.F.);
#1302 = EDGE_CURVE('',#1286,#1295,#1303,.T.);
#1303 = LINE('',#1304,#1305);
#1304 = CARTESIAN_POINT('',(5.68,5.4,-22.));
#1305 = VECTOR('',#1306,1.);
#1306 = DIRECTION('',(-1.,2.22044604925E-16,-4.930380657631E-32));
#1307 = PLANE('',#1308);
#1308 = AXIS2_PLACEMENT_3D('',#1309,#1310,#1311);
#1309 = CARTESIAN_POINT('',(5.68,5.4,-1.5));
#1310 = DIRECTION('',(-2.22044604925E-16,-1.,-2.22044604925E-16));
#1311 = DIRECTION('',(-1.,2.22044604925E-16,-4.930380657631E-32));
#1312 = ADVANCED_FACE('',(#1313),#1331,.T.);
#1313 = FACE_BOUND('',#1314,.T.);
#1314 = EDGE_LOOP('',(#1315,#1316,#1317,#1325));
#1315 = ORIENTED_EDGE('',*,*,#1294,.F.);
#1316 = ORIENTED_EDGE('',*,*,#1012,.T.);
#1317 = ORIENTED_EDGE('',*,*,#1318,.T.);
#1318 = EDGE_CURVE('',#1013,#1319,#1321,.T.);
#1319 = VERTEX_POINT('',#1320);
#1320 = CARTESIAN_POINT('',(4.48,6.6,-22.));
#1321 = LINE('',#1322,#1323);
#1322 = CARTESIAN_POINT('',(4.48,6.6,-1.5));
#1323 = VECTOR('',#1324,1.);
#1324 = DIRECTION('',(2.22044604925E-16,-1.68525052194E-14,-1.));
#1325 = ORIENTED_EDGE('',*,*,#1326,.F.);
#1326 = EDGE_CURVE('',#1295,#1319,#1327,.T.);
#1327 = LINE('',#1328,#1329);
#1328 = CARTESIAN_POINT('',(4.48,5.4,-22.));
#1329 = VECTOR('',#1330,1.);
#1330 = DIRECTION('',(2.22044604925E-16,1.,-1.68525052194E-14));
#1331 = PLANE('',#1332);
#1332 = AXIS2_PLACEMENT_3D('',#1333,#1334,#1335);
#1333 = CARTESIAN_POINT('',(4.48,5.4,-1.5));
#1334 = DIRECTION('',(-1.,2.22044604925E-16,-2.22044604925E-16));
#1335 = DIRECTION('',(2.22044604925E-16,1.,-1.68525052194E-14));
#1336 = ADVANCED_FACE('',(#1337),#1355,.T.);
#1337 = FACE_BOUND('',#1338,.T.);
#1338 = EDGE_LOOP('',(#1339,#1340,#1341,#1349));
#1339 = ORIENTED_EDGE('',*,*,#1318,.F.);
#1340 = ORIENTED_EDGE('',*,*,#1046,.F.);
#1341 = ORIENTED_EDGE('',*,*,#1342,.T.);
#1342 = EDGE_CURVE('',#1038,#1343,#1345,.T.);
#1343 = VERTEX_POINT('',#1344);
#1344 = CARTESIAN_POINT('',(5.68,6.6,-22.));
#1345 = LINE('',#1346,#1347);
#1346 = CARTESIAN_POINT('',(5.68,6.6,-1.5));
#1347 = VECTOR('',#1348,1.);
#1348 = DIRECTION('',(2.22044604925E-16,-1.68525052194E-14,-1.));
#1349 = ORIENTED_EDGE('',*,*,#1350,.F.);
#1350 = EDGE_CURVE('',#1319,#1343,#1351,.T.);
#1351 = LINE('',#1352,#1353);
#1352 = CARTESIAN_POINT('',(4.48,6.6,-22.));
#1353 = VECTOR('',#1354,1.);
#1354 = DIRECTION('',(1.,-2.22044604925E-16,4.930380657631E-32));
#1355 = PLANE('',#1356);
#1356 = AXIS2_PLACEMENT_3D('',#1357,#1358,#1359);
#1357 = CARTESIAN_POINT('',(4.48,6.6,-1.5));
#1358 = DIRECTION('',(2.22044604925E-16,1.,2.22044604925E-16));
#1359 = DIRECTION('',(1.,-2.22044604925E-16,4.930380657631E-32));
#1360 = ADVANCED_FACE('',(#1361),#1372,.T.);
#1361 = FACE_BOUND('',#1362,.T.);
#1362 = EDGE_LOOP('',(#1363,#1364,#1365,#1366));
#1363 = ORIENTED_EDGE('',*,*,#1342,.F.);
#1364 = ORIENTED_EDGE('',*,*,#1062,.T.);
#1365 = ORIENTED_EDGE('',*,*,#1285,.T.);
#1366 = ORIENTED_EDGE('',*,*,#1367,.F.);
#1367 = EDGE_CURVE('',#1343,#1286,#1368,.T.);
#1368 = LINE('',#1369,#1370);
#1369 = CARTESIAN_POINT('',(5.68,6.6,-22.));
#1370 = VECTOR('',#1371,1.);
#1371 = DIRECTION('',(-2.22044604925E-16,-1.,1.68525052194E-14));
#1372 = PLANE('',#1373);
#1373 = AXIS2_PLACEMENT_3D('',#1374,#1375,#1376);
#1374 = CARTESIAN_POINT('',(5.68,6.6,-1.5));
#1375 = DIRECTION('',(1.,-2.22044604925E-16,2.22044604925E-16));
#1376 = DIRECTION('',(-2.22044604925E-16,-1.,1.68525052194E-14));
#1377 = ADVANCED_FACE('',(#1378),#1384,.T.);
#1378 = FACE_BOUND('',#1379,.T.);
#1379 = EDGE_LOOP('',(#1380,#1381,#1382,#1383));
#1380 = ORIENTED_EDGE('',*,*,#1094,.T.);
#1381 = ORIENTED_EDGE('',*,*,#1118,.T.);
#1382 = ORIENTED_EDGE('',*,*,#1142,.T.);
#1383 = ORIENTED_EDGE('',*,*,#1159,.T.);
#1384 = PLANE('',#1385);
#1385 = AXIS2_PLACEMENT_3D('',#1386,#1387,#1388);
#1386 = CARTESIAN_POINT('',(6.210310043997E-15,6.,-22.));
#1387 = DIRECTION('',(-6.710795895109E-30,-1.754152378908E-14,-1.));
#1388 = DIRECTION('',(0.,1.,-1.754152378908E-14));
#1389 = ADVANCED_FACE('',(#1390),#1415,.T.);
#1390 = FACE_BOUND('',#1391,.T.);
#1391 = EDGE_LOOP('',(#1392,#1400,#1401,#1409));
#1392 = ORIENTED_EDGE('',*,*,#1393,.F.);
#1393 = EDGE_CURVE('',#1187,#1394,#1396,.T.);
#1394 = VERTEX_POINT('',#1395);
#1395 = CARTESIAN_POINT('',(10.76,5.4,-22.));
#1396 = LINE('',#1397,#1398);
#1397 = CARTESIAN_POINT('',(10.76,5.4,-1.5));
#1398 = VECTOR('',#1399,1.);
#1399 = DIRECTION('',(2.22044604925E-16,-1.68525052194E-14,-1.));
#1400 = ORIENTED_EDGE('',*,*,#1195,.T.);
#1401 = ORIENTED_EDGE('',*,*,#1402,.T.);
#1402 = EDGE_CURVE('',#1196,#1403,#1405,.T.);
#1403 = VERTEX_POINT('',#1404);
#1404 = CARTESIAN_POINT('',(9.56,5.4,-22.));
#1405 = LINE('',#1406,#1407);
#1406 = CARTESIAN_POINT('',(9.56,5.4,-1.5));
#1407 = VECTOR('',#1408,1.);
#1408 = DIRECTION('',(9.860761315263E-32,2.22044604925E-16,-1.));
#1409 = ORIENTED_EDGE('',*,*,#1410,.F.);
#1410 = EDGE_CURVE('',#1394,#1403,#1411,.T.);
#1411 = LINE('',#1412,#1413);
#1412 = CARTESIAN_POINT('',(10.76,5.4,-22.));
#1413 = VECTOR('',#1414,1.);
#1414 = DIRECTION('',(-1.,2.22044604925E-16,-4.930380657631E-32));
#1415 = PLANE('',#1416);
#1416 = AXIS2_PLACEMENT_3D('',#1417,#1418,#1419);
#1417 = CARTESIAN_POINT('',(10.76,5.4,-1.5));
#1418 = DIRECTION('',(-2.22044604925E-16,-1.,-2.22044604925E-16));
#1419 = DIRECTION('',(-1.,2.22044604925E-16,-4.930380657631E-32));
#1420 = ADVANCED_FACE('',(#1421),#1439,.T.);
#1421 = FACE_BOUND('',#1422,.T.);
#1422 = EDGE_LOOP('',(#1423,#1424,#1425,#1433));
#1423 = ORIENTED_EDGE('',*,*,#1402,.F.);
#1424 = ORIENTED_EDGE('',*,*,#1220,.T.);
#1425 = ORIENTED_EDGE('',*,*,#1426,.T.);
#1426 = EDGE_CURVE('',#1221,#1427,#1429,.T.);
#1427 = VERTEX_POINT('',#1428);
#1428 = CARTESIAN_POINT('',(9.56,6.6,-22.));
#1429 = LINE('',#1430,#1431);
#1430 = CARTESIAN_POINT('',(9.56,6.6,-1.5));
#1431 = VECTOR('',#1432,1.);
#1432 = DIRECTION('',(2.22044604925E-16,-1.68525052194E-14,-1.));
#1433 = ORIENTED_EDGE('',*,*,#1434,.F.);
#1434 = EDGE_CURVE('',#1403,#1427,#1435,.T.);
#1435 = LINE('',#1436,#1437);
#1436 = CARTESIAN_POINT('',(9.56,5.4,-22.));
#1437 = VECTOR('',#1438,1.);
#1438 = DIRECTION('',(2.22044604925E-16,1.,-1.68525052194E-14));
#1439 = PLANE('',#1440);
#1440 = AXIS2_PLACEMENT_3D('',#1441,#1442,#1443);
#1441 = CARTESIAN_POINT('',(9.56,5.4,-1.5));
#1442 = DIRECTION('',(-1.,2.22044604925E-16,-2.22044604925E-16));
#1443 = DIRECTION('',(2.22044604925E-16,1.,-1.68525052194E-14));
#1444 = ADVANCED_FACE('',(#1445),#1463,.T.);
#1445 = FACE_BOUND('',#1446,.T.);
#1446 = EDGE_LOOP('',(#1447,#1448,#1449,#1457));
#1447 = ORIENTED_EDGE('',*,*,#1426,.F.);
#1448 = ORIENTED_EDGE('',*,*,#1254,.F.);
#1449 = ORIENTED_EDGE('',*,*,#1450,.T.);
#1450 = EDGE_CURVE('',#1246,#1451,#1453,.T.);
#1451 = VERTEX_POINT('',#1452);
#1452 = CARTESIAN_POINT('',(10.76,6.6,-22.));
#1453 = LINE('',#1454,#1455);
#1454 = CARTESIAN_POINT('',(10.76,6.6,-1.5));
#1455 = VECTOR('',#1456,1.);
#1456 = DIRECTION('',(2.22044604925E-16,-1.68525052194E-14,-1.));
#1457 = ORIENTED_EDGE('',*,*,#1458,.F.);
#1458 = EDGE_CURVE('',#1427,#1451,#1459,.T.);
#1459 = LINE('',#1460,#1461);
#1460 = CARTESIAN_POINT('',(9.56,6.6,-22.));
#1461 = VECTOR('',#1462,1.);
#1462 = DIRECTION('',(1.,-2.22044604925E-16,4.930380657631E-32));
#1463 = PLANE('',#1464);
#1464 = AXIS2_PLACEMENT_3D('',#1465,#1466,#1467);
#1465 = CARTESIAN_POINT('',(9.56,6.6,-1.5));
#1466 = DIRECTION('',(2.22044604925E-16,1.,2.22044604925E-16));
#1467 = DIRECTION('',(1.,-2.22044604925E-16,4.930380657631E-32));
#1468 = ADVANCED_FACE('',(#1469),#1480,.T.);
#1469 = FACE_BOUND('',#1470,.T.);
#1470 = EDGE_LOOP('',(#1471,#1472,#1473,#1474));
#1471 = ORIENTED_EDGE('',*,*,#1450,.F.);
#1472 = ORIENTED_EDGE('',*,*,#1270,.T.);
#1473 = ORIENTED_EDGE('',*,*,#1393,.T.);
#1474 = ORIENTED_EDGE('',*,*,#1475,.F.);
#1475 = EDGE_CURVE('',#1451,#1394,#1476,.T.);
#1476 = LINE('',#1477,#1478);
#1477 = CARTESIAN_POINT('',(10.76,6.6,-22.));
#1478 = VECTOR('',#1479,1.);
#1479 = DIRECTION('',(-2.22044604925E-16,-1.,1.68525052194E-14));
#1480 = PLANE('',#1481);
#1481 = AXIS2_PLACEMENT_3D('',#1482,#1483,#1484);
#1482 = CARTESIAN_POINT('',(10.76,6.6,-1.5));
#1483 = DIRECTION('',(1.,-2.22044604925E-16,2.22044604925E-16));
#1484 = DIRECTION('',(-2.22044604925E-16,-1.,1.68525052194E-14));
#1485 = ADVANCED_FACE('',(#1486),#1492,.T.);
#1486 = FACE_BOUND('',#1487,.T.);
#1487 = EDGE_LOOP('',(#1488,#1489,#1490,#1491));
#1488 = ORIENTED_EDGE('',*,*,#1367,.T.);
#1489 = ORIENTED_EDGE('',*,*,#1302,.T.);
#1490 = ORIENTED_EDGE('',*,*,#1326,.T.);
#1491 = ORIENTED_EDGE('',*,*,#1350,.T.);
#1492 = PLANE('',#1493);
#1493 = AXIS2_PLACEMENT_3D('',#1494,#1495,#1496);
#1494 = CARTESIAN_POINT('',(5.08,6.,-22.));
#1495 = DIRECTION('',(-6.710795895109E-30,-1.754152378908E-14,-1.));
#1496 = DIRECTION('',(0.,1.,-1.754152378908E-14));
#1497 = ADVANCED_FACE('',(#1498),#1504,.T.);
#1498 = FACE_BOUND('',#1499,.T.);
#1499 = EDGE_LOOP('',(#1500,#1501,#1502,#1503));
#1500 = ORIENTED_EDGE('',*,*,#1475,.T.);
#1501 = ORIENTED_EDGE('',*,*,#1410,.T.);
#1502 = ORIENTED_EDGE('',*,*,#1434,.T.);
#1503 = ORIENTED_EDGE('',*,*,#1458,.T.);
#1504 = PLANE('',#1505);
#1505 = AXIS2_PLACEMENT_3D('',#1506,#1507,#1508);
#1506 = CARTESIAN_POINT('',(10.16,6.,-22.));
#1507 = DIRECTION('',(-6.710795895109E-30,-1.754152378908E-14,-1.));
#1508 = DIRECTION('',(0.,1.,-1.754152378908E-14));
#1509 = ( GEOMETRIC_REPRESENTATION_CONTEXT(3) 
GLOBAL_UNCERTAINTY_ASSIGNED_CONTEXT((#1513)) 
GLOBAL_UNIT_ASSIGNED_CONTEXT((#1510,#1511,#1512)) REPRESENTATION_CONTEXT
('Context #1','3D Context with UNIT and UNCERTAINTY') );
#1510 = ( LENGTH_UNIT() NAMED_UNIT(*) SI_UNIT(.MILLI.,.METRE.) );
#1511 = ( NAMED_UNIT(*) PLANE_ANGLE_UNIT() SI_UNIT($,.RADIAN.) );
#1512 = ( NAMED_UNIT(*) SI_UNIT($,.STERADIAN.) SOLID_ANGLE_UNIT() );
#1513 = UNCERTAINTY_MEASURE_WITH_UNIT(LENGTH_MEASURE(1.E-07),#1510,
  'distance_accuracy_value','confusion accuracy');
#1514 = PRODUCT_RELATED_PRODUCT_CATEGORY('part',$,(#7));
#1515 = MECHANICAL_DESIGN_GEOMETRIC_PRESENTATION_REPRESENTATION('',(
    #1516),#1509);
#1516 = STYLED_ITEM('color',(#1517),#15);
#1517 = PRESENTATION_STYLE_ASSIGNMENT((#1518,#1524));
#1518 = SURFACE_STYLE_USAGE(.BOTH.,#1519);
#1519 = SURFACE_SIDE_STYLE('',(#1520));
#1520 = SURFACE_STYLE_FILL_AREA(#1521);
#1521 = FILL_AREA_STYLE('',(#1522));
#1522 = FILL_AREA_STYLE_COLOUR('',#1523);
#1523 = COLOUR_RGB('',0.800000010877,0.800000010877,0.800000010877);
#1524 = CURVE_STYLE('',#1525,POSITIVE_LENGTH_MEASURE(0.1),#1526);
#1525 = DRAUGHTING_PRE_DEFINED_CURVE_FONT('continuous');
#1526 = COLOUR_RGB('',9.803921802644E-02,9.803921802644E-02,
  9.803921802644E-02);
ENDSEC;
END-ISO-10303-21;
