ISO-10303-21;
HEADER;
FILE_DESCRIPTION (( 'STEP AP214' ),
    '1' );
FILE_NAME ('PLP2-3MM-D.STEP',
    '2023-05-31T09:13:22',
    ( '' ),
    ( '' ),
    'SwSTEP 2.0',
    'SolidWorks 2023',
    '' );
FILE_SCHEMA (( 'AUTOMOTIVE_DESIGN' ));
ENDSEC;

DATA;
#1 = PRODUCT_RELATED_PRODUCT_CATEGORY ( 'part', '', ( #74 ) ) ;
#2 = DIRECTION ( 'NONE',  ( -1.156371643122423625E-18, -1.000000000000000000, -4.164402429366248713E-16 ) ) ;
#3 = PRESENTATION_LAYER_ASSIGNMENT (  '', '', ( #53 ) ) ;
#4 = PLANE ( 'NONE',  #130 ) ;
#5 = CARTESIAN_POINT ( 'NONE',  ( 0.000000000000000000, 0.000000000000000000, 0.1295000000000000040 ) ) ;
#6 = FACE_OUTER_BOUND ( 'NONE', #12, .T. ) ;
#7 = DIRECTION ( 'NONE',  ( 1.000000000000000000, -1.156371643122403788E-18, 0.000000000000000000 ) ) ;
#8 =( LENGTH_UNIT ( ) NAMED_UNIT ( * ) SI_UNIT ( $, .METRE. ) );
#9 = ORIENTED_EDGE ( 'NONE', *, *, #51, .T. ) ;
#10 = EDGE_CURVE ( 'NONE', #232, #56, #60, .T. ) ;
#11 = EDGE_CURVE ( 'NONE', #37, #125, #178, .T. ) ;
#12 = EDGE_LOOP ( 'NONE', ( #54, #124, #191, #58 ) ) ;
#13 = CIRCLE ( 'NONE', #86, 0.05600000000000001504 ) ;
#14 = VECTOR ( 'NONE', #102, 39.37007874015748143 ) ;
#15 = VERTEX_POINT ( 'NONE', #107 ) ;
#16 = ORIENTED_EDGE ( 'NONE', *, *, #263, .F. ) ;
#17 = CARTESIAN_POINT ( 'NONE',  ( 0.000000000000000000, 0.000000000000000000, 0.1329999999972112379 ) ) ;
#18 = AXIS2_PLACEMENT_3D ( 'NONE', #217, #128, #22 ) ;
#19 = AXIS2_PLACEMENT_3D ( 'NONE', #270, #71, #193 ) ;
#20 = UNCERTAINTY_MEASURE_WITH_UNIT (LENGTH_MEASURE( 1.000000000000000082E-05 ), #166, 'distance_accuracy_value', 'NONE');
#21 = CARTESIAN_POINT ( 'NONE',  ( 0.000000000000000000, 0.05600000000000001504, 0.1180000000000000354 ) ) ;
#22 = DIRECTION ( 'NONE',  ( 0.000000000000000000, -4.164402429366248220E-16, 1.000000000000000000 ) ) ;
#23 = EDGE_CURVE ( 'NONE', #15, #232, #286, .T. ) ;
#24 = DIRECTION ( 'NONE',  ( -0.000000000000000000, -0.000000000000000000, 1.000000000000000000 ) ) ;
#25 = CONICAL_SURFACE ( 'NONE', #264, 0.06499999999925966387, 0.7853981637171525421 ) ;
#26 = CARTESIAN_POINT ( 'NONE',  ( -0.06500000000000002998, 0.000000000000000000, 0.1295000000000000040 ) ) ;
#27 = DIRECTION ( 'NONE',  ( 0.000000000000000000, 1.000000000000000000, 0.000000000000000000 ) ) ;
#28 = FACE_OUTER_BOUND ( 'NONE', #252, .T. ) ;
#29 = CYLINDRICAL_SURFACE ( 'NONE', #135, 0.05600000000000001504 ) ;
#30 = FACE_OUTER_BOUND ( 'NONE', #41, .T. ) ;
#31 = FACE_OUTER_BOUND ( 'NONE', #281, .T. ) ;
#32 = AXIS2_PLACEMENT_3D ( 'NONE', #108, #243, #219 ) ;
#33 = AXIS2_PLACEMENT_3D ( 'NONE', #199, #78, #44 ) ;
#34 = EDGE_CURVE ( 'NONE', #95, #144, #151, .T. ) ;
#35 = ORIENTED_EDGE ( 'NONE', *, *, #263, .T. ) ;
#36 = ORIENTED_EDGE ( 'NONE', *, *, #132, .F. ) ;
#37 = VERTEX_POINT ( 'NONE', #84 ) ;
#38 =( GEOMETRIC_REPRESENTATION_CONTEXT ( 3 ) GLOBAL_UNCERTAINTY_ASSIGNED_CONTEXT ( ( #20 ) ) GLOBAL_UNIT_ASSIGNED_CONTEXT ( ( #166, #93, #143 ) ) REPRESENTATION_CONTEXT ( 'NONE', 'WORKASPACE' ) );
#39 = ORIENTED_EDGE ( 'NONE', *, *, #120, .F. ) ;
#40 = DIRECTION ( 'NONE',  ( 0.000000000000000000, 0.000000000000000000, -1.000000000000000000 ) ) ;
#41 = EDGE_LOOP ( 'NONE', ( #96, #227, #275 ) ) ;
#42 = CARTESIAN_POINT ( 'NONE',  ( 0.06500000000000002998, 7.960204194457799791E-18, 0.1295000000000000040 ) ) ;
#43 = FACE_OUTER_BOUND ( 'NONE', #81, .T. ) ;
#44 = DIRECTION ( 'NONE',  ( 0.000000000000000000, 1.000000000000000000, -1.524468746464432291E-16 ) ) ;
#45 = AXIS2_PLACEMENT_3D ( 'NONE', #5, #131, #161 ) ;
#46 = DIRECTION ( 'NONE',  ( 0.000000000000000000, 1.000000000000000000, 0.000000000000000000 ) ) ;
#47 = DIRECTION ( 'NONE',  ( -1.000000000000000000, 0.000000000000000000, 0.000000000000000000 ) ) ;
#48 = FACE_OUTER_BOUND ( 'NONE', #72, .T. ) ;
#49 = DIRECTION ( 'NONE',  ( 0.000000000000000000, 0.000000000000000000, 1.000000000000000000 ) ) ;
#50 = APPLICATION_PROTOCOL_DEFINITION ( 'draft international standard', 'automotive_design', 1998, #189 ) ;
#51 = EDGE_CURVE ( 'NONE', #37, #168, #129, .T. ) ;
#52 = EDGE_CURVE ( 'NONE', #15, #95, #155, .T. ) ;
#53 = STYLED_ITEM ( 'NONE', ( #196 ), #274 ) ;
#54 = ORIENTED_EDGE ( 'NONE', *, *, #10, .F. ) ;
#55 = CIRCLE ( 'NONE', #77, 0.06500000000000002998 ) ;
#56 = VERTEX_POINT ( 'NONE', #234 ) ;
#57 = ORIENTED_EDGE ( 'NONE', *, *, #52, .T. ) ;
#58 = ORIENTED_EDGE ( 'NONE', *, *, #88, .T. ) ;
#59 = ORIENTED_EDGE ( 'NONE', *, *, #61, .T. ) ;
#60 = LINE ( 'NONE', #42, #285 ) ;
#61 = EDGE_CURVE ( 'NONE', #94, #168, #260, .T. ) ;
#62 = FILL_AREA_STYLE_COLOUR ( '', #214 ) ;
#63 = CARTESIAN_POINT ( 'NONE',  ( 0.000000000000000000, 0.05599999999999999423, -2.561107494060246767E-17 ) ) ;
#64 = DIRECTION ( 'NONE',  ( -1.000000000000000000, 0.000000000000000000, 0.000000000000000000 ) ) ;
#65 = AXIS2_PLACEMENT_3D ( 'NONE', #133, #222, #92 ) ;
#66 = CARTESIAN_POINT ( 'NONE',  ( 0.000000000000000000, 0.000000000000000000, 0.1180000000000000354 ) ) ;
#67 = CARTESIAN_POINT ( 'NONE',  ( 6.858022075225181264E-18, -0.05600000000000002892, -8.537024980200822558E-18 ) ) ;
#68 = CARTESIAN_POINT ( 'NONE',  ( 0.000000000000000000, 0.000000000000000000, 0.1295000000002292928 ) ) ;
#69 = DIRECTION ( 'NONE',  ( -0.000000000000000000, -0.000000000000000000, 1.000000000000000000 ) ) ;
#70 = EDGE_CURVE ( 'NONE', #95, #273, #139, .T. ) ;
#71 = DIRECTION ( 'NONE',  ( 0.000000000000000000, 0.000000000000000000, 1.000000000000000000 ) ) ;
#72 = EDGE_LOOP ( 'NONE', ( #271, #57, #256, #210 ) ) ;
#73 = EDGE_LOOP ( 'NONE', ( #117, #251, #123, #249 ) ) ;
#74 = PRODUCT ( 'PLP2-3MM-D', 'PLP2-3MM-D', '', ( #99 ) ) ;
#75 = ORIENTED_EDGE ( 'NONE', *, *, #10, .T. ) ;
#76 = CLOSED_SHELL ( 'NONE', ( #272, #153, #184, #221, #241, #174, #164, #212, #255, #203 ) ) ;
#77 = AXIS2_PLACEMENT_3D ( 'NONE', #215, #24, #192 ) ;
#78 = DIRECTION ( 'NONE',  ( -0.000000000000000000, 1.524468746464432045E-16, 1.000000000000000000 ) ) ;
#79 = DIRECTION ( 'NONE',  ( 0.000000000000000000, -1.524468746464432045E-16, -1.000000000000000000 ) ) ;
#80 = LENGTH_MEASURE_WITH_UNIT ( LENGTH_MEASURE( 0.02539999999999999897 ), #103 );
#81 = EDGE_LOOP ( 'NONE', ( #230, #75, #167, #39 ) ) ;
#82 = AXIS2_PLACEMENT_3D ( 'NONE', #68, #111, #90 ) ;
#83 = CARTESIAN_POINT ( 'NONE',  ( 0.000000000000000000, 0.05600000000000001504, 0.1180000000000000354 ) ) ;
#84 = CARTESIAN_POINT ( 'NONE',  ( 6.858022075225179723E-18, -0.05600000000000001504, 0.1180000000000000354 ) ) ;
#85 = DIRECTION ( 'NONE',  ( 0.000000000000000000, 4.164402429366248220E-16, -1.000000000000000000 ) ) ;
#86 = AXIS2_PLACEMENT_3D ( 'NONE', #182, #177, #220 ) ;
#87 = CYLINDRICAL_SURFACE ( 'NONE', #45, 0.06500000000000002998 ) ;
#88 = EDGE_CURVE ( 'NONE', #121, #56, #55, .T. ) ;
#89 = SPHERICAL_SURFACE ( 'NONE', #170, 0.1335749999999999160 ) ;
#90 = DIRECTION ( 'NONE',  ( -1.000000000000000000, 0.000000000000000000, 0.000000000000000000 ) ) ;
#91 = AXIS2_PLACEMENT_3D ( 'NONE', #223, #245, #158 ) ;
#92 = DIRECTION ( 'NONE',  ( -1.000000000000000000, 0.000000000000000000, 0.000000000000000000 ) ) ;
#93 =( NAMED_UNIT ( * ) PLANE_ANGLE_UNIT ( ) SI_UNIT ( $, .RADIAN. ) );
#94 = VERTEX_POINT ( 'NONE', #63 ) ;
#95 = VERTEX_POINT ( 'NONE', #283 ) ;
#96 = ORIENTED_EDGE ( 'NONE', *, *, #207, .F. ) ;
#97 = UNCERTAINTY_MEASURE_WITH_UNIT (LENGTH_MEASURE( 1.000000000000000082E-05 ), #148, 'distance_accuracy_value', 'NONE');
#98 = ORIENTED_EDGE ( 'NONE', *, *, #194, .T. ) ;
#99 = PRODUCT_CONTEXT ( 'NONE', #229, 'mechanical' ) ;
#100 = CARTESIAN_POINT ( 'NONE',  ( -0.06499999999925966387, 0.000000000000000000, 0.1295000000002292928 ) ) ;
#101 = APPLICATION_PROTOCOL_DEFINITION ( 'draft international standard', 'automotive_design', 1998, #229 ) ;
#102 = DIRECTION ( 'NONE',  ( 0.000000000000000000, -1.524468746464432045E-16, -1.000000000000000000 ) ) ;
#103 =( LENGTH_UNIT ( ) NAMED_UNIT ( * ) SI_UNIT ( $, .METRE. ) );
#104 = DIRECTION ( 'NONE',  ( 0.000000000000000000, 1.000000000000000000, 0.000000000000000000 ) ) ;
#105 = CARTESIAN_POINT ( 'NONE',  ( 0.000000000000000000, 0.000000000000000000, 0.1295000000000000040 ) ) ;
#106 = CIRCLE ( 'NONE', #280, 0.06500000000000002998 ) ;
#107 = CARTESIAN_POINT ( 'NONE',  ( 0.06150000000270822165, -1.483297567917824278E-16, 0.1329999999972112379 ) ) ;
#108 = CARTESIAN_POINT ( 'NONE',  ( -1.774885855854838338E-17, -9.887923813067833718E-17, 0.01442500000000004542 ) ) ;
#109 = CYLINDRICAL_SURFACE ( 'NONE', #122, 0.05600000000000001504 ) ;
#110 = DIRECTION ( 'NONE',  ( 1.000000000000000000, 0.000000000000000000, -0.000000000000000000 ) ) ;
#111 = DIRECTION ( 'NONE',  ( 0.000000000000000000, 0.000000000000000000, -1.000000000000000000 ) ) ;
#112 = VECTOR ( 'NONE', #258, 39.37007874015748143 ) ;
#113 = CIRCLE ( 'NONE', #179, 0.1335749999999999160 ) ;
#114 = CARTESIAN_POINT ( 'NONE',  ( -9.569748748743053083E-18, -1.545052435809379755E-16, 0.1479999999999999372 ) ) ;
#115 = AXIS2_PLACEMENT_3D ( 'NONE', #238, #173, #104 ) ;
#116 =( NAMED_UNIT ( * ) PLANE_ANGLE_UNIT ( ) SI_UNIT ( $, .RADIAN. ) );
#117 = ORIENTED_EDGE ( 'NONE', *, *, #207, .T. ) ;
#118 = PRODUCT_DEFINITION_CONTEXT ( 'detailed design', #189, 'design' ) ;
#119 = DIRECTION ( 'NONE',  ( 0.000000000000000000, 1.000000000000000000, 0.000000000000000000 ) ) ;
#120 = EDGE_CURVE ( 'NONE', #144, #121, #197, .T. ) ;
#121 = VERTEX_POINT ( 'NONE', #237 ) ;
#122 = AXIS2_PLACEMENT_3D ( 'NONE', #138, #259, #119 ) ;
#123 = ORIENTED_EDGE ( 'NONE', *, *, #225, .F. ) ;
#124 = ORIENTED_EDGE ( 'NONE', *, *, #277, .T. ) ;
#125 = VERTEX_POINT ( 'NONE', #83 ) ;
#126 = LINE ( 'NONE', #21, #14 ) ;
#127 = CARTESIAN_POINT ( 'NONE',  ( 0.000000000000000000, 0.000000000000000000, 0.1295000000000000040 ) ) ;
#128 = DIRECTION ( 'NONE',  ( 1.236210515578577341E-16, 1.000000000000000000, 4.164402429366248713E-16 ) ) ;
#129 = LINE ( 'NONE', #211, #160 ) ;
#130 = AXIS2_PLACEMENT_3D ( 'NONE', #247, #49, #110 ) ;
#131 = DIRECTION ( 'NONE',  ( 0.000000000000000000, 0.000000000000000000, -1.000000000000000000 ) ) ;
#132 = EDGE_CURVE ( 'NONE', #125, #94, #126, .T. ) ;
#133 = CARTESIAN_POINT ( 'NONE',  ( 0.000000000000000000, 0.000000000000000000, 0.1295000000000000040 ) ) ;
#134 = FACE_OUTER_BOUND ( 'NONE', #188, .T. ) ;
#135 = AXIS2_PLACEMENT_3D ( 'NONE', #201, #162, #46 ) ;
#136 = CARTESIAN_POINT ( 'NONE',  ( -0.06578000000000003289, -0.06578000000000003289, 0.1180000000000000354 ) ) ;
#137 = DIRECTION ( 'NONE',  ( 1.000000000000000000, 0.000000000000000000, -0.000000000000000000 ) ) ;
#138 = CARTESIAN_POINT ( 'NONE',  ( 0.000000000000000000, 0.000000000000000000, 0.1180000000000000354 ) ) ;
#139 = CIRCLE ( 'NONE', #18, 0.1335749999999999160 ) ;
#140 = AXIS2_PLACEMENT_3D ( 'NONE', #224, #156, #27 ) ;
#141 = ORIENTED_EDGE ( 'NONE', *, *, #242, .T. ) ;
#142 = PRODUCT_DEFINITION ( 'UNKNOWN', '', #261, #118 ) ;
#143 =( NAMED_UNIT ( * ) SI_UNIT ( $, .STERADIAN. ) SOLID_ANGLE_UNIT ( ) );
#144 = VERTEX_POINT ( 'NONE', #195 ) ;
#145 = EDGE_LOOP ( 'NONE', ( #171, #187 ) ) ;
#146 = ORIENTED_EDGE ( 'NONE', *, *, #194, .F. ) ;
#147 = AXIS2_PLACEMENT_3D ( 'NONE', #136, #157, #137 ) ;
#148 =( CONVERSION_BASED_UNIT ( 'INCH', #186 ) LENGTH_UNIT ( ) NAMED_UNIT ( #244 ) );
#149 = DIRECTION ( 'NONE',  ( 0.000000000000000000, 0.000000000000000000, -1.000000000000000000 ) ) ;
#150 = SURFACE_SIDE_STYLE ('',( #172 ) ) ;
#151 = LINE ( 'NONE', #100, #112 ) ;
#152 = DIRECTION ( 'NONE',  ( 0.000000000000000000, 0.000000000000000000, -1.000000000000000000 ) ) ;
#153 = ADVANCED_FACE ( 'NONE', ( #43 ), #282, .T. ) ;
#154 = EDGE_CURVE ( 'NONE', #56, #121, #106, .T. ) ;
#155 = CIRCLE ( 'NONE', #198, 0.06150000000003975897 ) ;
#156 = DIRECTION ( 'NONE',  ( 0.000000000000000000, -1.524468746464432045E-16, -1.000000000000000000 ) ) ;
#157 = DIRECTION ( 'NONE',  ( 0.000000000000000000, 0.000000000000000000, 1.000000000000000000 ) ) ;
#158 = DIRECTION ( 'NONE',  ( -1.000000000000000000, 0.000000000000000000, 0.000000000000000000 ) ) ;
#159 = MECHANICAL_DESIGN_GEOMETRIC_PRESENTATION_REPRESENTATION (  '', ( #53 ), #206 ) ;
#160 = VECTOR ( 'NONE', #79, 39.37007874015748143 ) ;
#161 = DIRECTION ( 'NONE',  ( -1.000000000000000000, 0.000000000000000000, 0.000000000000000000 ) ) ;
#162 = DIRECTION ( 'NONE',  ( 0.000000000000000000, -1.524468746464432045E-16, -1.000000000000000000 ) ) ;
#163 = FILL_AREA_STYLE ('',( #62 ) ) ;
#164 = ADVANCED_FACE ( 'NONE', ( #248, #204 ), #262, .F. ) ;
#165 = EDGE_LOOP ( 'NONE', ( #253, #228, #208, #59 ) ) ;
#166 =( CONVERSION_BASED_UNIT ( 'INCH', #80 ) LENGTH_UNIT ( ) NAMED_UNIT ( #266 ) );
#167 = ORIENTED_EDGE ( 'NONE', *, *, #154, .T. ) ;
#168 = VERTEX_POINT ( 'NONE', #67 ) ;
#169 = ORIENTED_EDGE ( 'NONE', *, *, #70, .F. ) ;
#170 = AXIS2_PLACEMENT_3D ( 'NONE', #265, #181, #7 ) ;
#171 = ORIENTED_EDGE ( 'NONE', *, *, #88, .F. ) ;
#172 = SURFACE_STYLE_FILL_AREA ( #163 ) ;
#173 = DIRECTION ( 'NONE',  ( 0.000000000000000000, -1.524468746464432045E-16, -1.000000000000000000 ) ) ;
#174 = ADVANCED_FACE ( 'NONE', ( #134 ), #4, .F. ) ;
#175 = VECTOR ( 'NONE', #239, 39.37007874015748143 ) ;
#176 = DIRECTION ( 'NONE',  ( 0.000000000000000000, 0.000000000000000000, -1.000000000000000000 ) ) ;
#177 = DIRECTION ( 'NONE',  ( -0.000000000000000000, 1.524468746464432045E-16, 1.000000000000000000 ) ) ;
#178 = CIRCLE ( 'NONE', #115, 0.05600000000000001504 ) ;
#179 = AXIS2_PLACEMENT_3D ( 'NONE', #240, #2, #85 ) ;
#180 = SPHERICAL_SURFACE ( 'NONE', #32, 0.1335749999999999160 ) ;
#181 = DIRECTION ( 'NONE',  ( 1.156371643122403788E-18, 1.000000000000000000, 4.164402429366248220E-16 ) ) ;
#182 = CARTESIAN_POINT ( 'NONE',  ( 0.000000000000000000, -1.798873120828030622E-17, -1.707404996040164512E-17 ) ) ;
#183 = CARTESIAN_POINT ( 'NONE',  ( 0.06499999999948895268, 7.960204194395210149E-18, 0.1295000000000000040 ) ) ;
#184 = ADVANCED_FACE ( 'NONE', ( #269 ), #25, .T. ) ;
#185 = EDGE_LOOP ( 'NONE', ( #146, #278 ) ) ;
#186 = LENGTH_MEASURE_WITH_UNIT ( LENGTH_MEASURE( 0.02539999999999999897 ), #8 );
#187 = ORIENTED_EDGE ( 'NONE', *, *, #154, .F. ) ;
#188 = EDGE_LOOP ( 'NONE', ( #209, #16 ) ) ;
#189 = APPLICATION_CONTEXT ( 'automotive_design' ) ;
#190 = ORIENTED_EDGE ( 'NONE', *, *, #52, .F. ) ;
#191 = ORIENTED_EDGE ( 'NONE', *, *, #120, .T. ) ;
#192 = DIRECTION ( 'NONE',  ( -1.000000000000000000, 0.000000000000000000, 0.000000000000000000 ) ) ;
#193 = DIRECTION ( 'NONE',  ( 1.000000000000000000, 0.000000000000000000, 0.000000000000000000 ) ) ;
#194 = EDGE_CURVE ( 'NONE', #125, #37, #226, .T. ) ;
#195 = CARTESIAN_POINT ( 'NONE',  ( -0.06499999999948895268, 0.000000000000000000, 0.1295000000000000040 ) ) ;
#196 = PRESENTATION_STYLE_ASSIGNMENT (( #235 ) ) ;
#197 = LINE ( 'NONE', #26, #231 ) ;
#198 = AXIS2_PLACEMENT_3D ( 'NONE', #17, #149, #216 ) ;
#199 = CARTESIAN_POINT ( 'NONE',  ( 0.000000000000000000, -1.798873120828030622E-17, -1.707404996040164512E-17 ) ) ;
#200 = DIRECTION ( 'NONE',  ( 0.000000000000000000, 0.000000000000000000, -1.000000000000000000 ) ) ;
#201 = CARTESIAN_POINT ( 'NONE',  ( 0.000000000000000000, 0.000000000000000000, 0.1180000000000000354 ) ) ;
#202 = DIRECTION ( 'NONE',  ( -1.000000000000000000, 0.000000000000000000, 0.000000000000000000 ) ) ;
#203 = ADVANCED_FACE ( 'NONE', ( #31 ), #180, .T. ) ;
#204 = FACE_BOUND ( 'NONE', #185, .T. ) ;
#205 = CIRCLE ( 'NONE', #65, 0.06500000000000002998 ) ;
#206 =( GEOMETRIC_REPRESENTATION_CONTEXT ( 3 ) GLOBAL_UNCERTAINTY_ASSIGNED_CONTEXT ( ( #97 ) ) GLOBAL_UNIT_ASSIGNED_CONTEXT ( ( #148, #116, #257 ) ) REPRESENTATION_CONTEXT ( 'NONE', 'WORKASPACE' ) );
#207 = EDGE_CURVE ( 'NONE', #95, #15, #218, .T. ) ;
#208 = ORIENTED_EDGE ( 'NONE', *, *, #132, .T. ) ;
#209 = ORIENTED_EDGE ( 'NONE', *, *, #61, .F. ) ;
#210 = ORIENTED_EDGE ( 'NONE', *, *, #277, .F. ) ;
#211 = CARTESIAN_POINT ( 'NONE',  ( 6.858022075225179723E-18, -0.05600000000000001504, 0.1180000000000000354 ) ) ;
#212 = ADVANCED_FACE ( 'NONE', ( #6 ), #87, .T. ) ;
#213 = CIRCLE ( 'NONE', #284, 0.06500000000000002998 ) ;
#214 = COLOUR_RGB ( '',0.8431372549019607865, 0.8156862745098039102, 0.7529411764705882248 ) ;
#215 = CARTESIAN_POINT ( 'NONE',  ( 0.000000000000000000, 0.000000000000000000, 0.1180000000000000354 ) ) ;
#216 = DIRECTION ( 'NONE',  ( -1.000000000000000000, 0.000000000000000000, 0.000000000000000000 ) ) ;
#217 = CARTESIAN_POINT ( 'NONE',  ( -1.774885855854838338E-17, -9.887923813067833718E-17, 0.01442500000000004542 ) ) ;
#218 = CIRCLE ( 'NONE', #91, 0.06150000000003975897 ) ;
#219 = DIRECTION ( 'NONE',  ( 1.000000000000000000, -1.156371643122403788E-18, 0.000000000000000000 ) ) ;
#220 = DIRECTION ( 'NONE',  ( 0.000000000000000000, 1.000000000000000000, -1.524468746464432291E-16 ) ) ;
#221 = ADVANCED_FACE ( 'NONE', ( #30 ), #89, .T. ) ;
#222 = DIRECTION ( 'NONE',  ( 0.000000000000000000, 0.000000000000000000, -1.000000000000000000 ) ) ;
#223 = CARTESIAN_POINT ( 'NONE',  ( 0.000000000000000000, 0.000000000000000000, 0.1329999999972112379 ) ) ;
#224 = CARTESIAN_POINT ( 'NONE',  ( 0.000000000000000000, 1.301442777010228923E-33, 0.1180000000000000354 ) ) ;
#225 = EDGE_CURVE ( 'NONE', #144, #232, #205, .T. ) ;
#226 = CIRCLE ( 'NONE', #140, 0.05600000000000001504 ) ;
#227 = ORIENTED_EDGE ( 'NONE', *, *, #70, .T. ) ;
#228 = ORIENTED_EDGE ( 'NONE', *, *, #11, .T. ) ;
#229 = APPLICATION_CONTEXT ( 'automotive_design' ) ;
#230 = ORIENTED_EDGE ( 'NONE', *, *, #225, .T. ) ;
#231 = VECTOR ( 'NONE', #287, 39.37007874015748143 ) ;
#232 = VERTEX_POINT ( 'NONE', #183 ) ;
#233 = DIRECTION ( 'NONE',  ( -1.000000000000000000, 0.000000000000000000, 0.000000000000000000 ) ) ;
#234 = CARTESIAN_POINT ( 'NONE',  ( 0.06500000000000002998, 7.960204194457799791E-18, 0.1180000000000000354 ) ) ;
#235 = SURFACE_STYLE_USAGE ( .BOTH. , #150 ) ;
#236 = CARTESIAN_POINT ( 'NONE',  ( 0.06499999999925966387, 7.960204194367130091E-18, 0.1295000000002292928 ) ) ;
#237 = CARTESIAN_POINT ( 'NONE',  ( -0.06500000000000002998, 0.000000000000000000, 0.1180000000000000354 ) ) ;
#238 = CARTESIAN_POINT ( 'NONE',  ( 0.000000000000000000, 1.301442777010228923E-33, 0.1180000000000000354 ) ) ;
#239 = DIRECTION ( 'NONE',  ( 0.7071067814126125173, 8.659560565123430344E-17, -0.7071067809604825172 ) ) ;
#240 = CARTESIAN_POINT ( 'NONE',  ( -1.774885855854838338E-17, -9.887923813067833718E-17, 0.01442500000000004542 ) ) ;
#241 = ADVANCED_FACE ( 'NONE', ( #267 ), #29, .T. ) ;
#242 = EDGE_CURVE ( 'NONE', #15, #273, #113, .T. ) ;
#243 = DIRECTION ( 'NONE',  ( 1.156371643122403788E-18, 1.000000000000000000, 4.164402429366248220E-16 ) ) ;
#244 = DIMENSIONAL_EXPONENTS ( 1.000000000000000000, 0.000000000000000000, 0.000000000000000000, 0.000000000000000000, 0.000000000000000000, 0.000000000000000000, 0.000000000000000000 ) ;
#245 = DIRECTION ( 'NONE',  ( 0.000000000000000000, 0.000000000000000000, -1.000000000000000000 ) ) ;
#246 = CONICAL_SURFACE ( 'NONE', #82, 0.06499999999925966387, 0.7853981637171525421 ) ;
#247 = CARTESIAN_POINT ( 'NONE',  ( -0.05667200000000002097, -0.05667200000000002097, 0.000000000000000000 ) ) ;
#248 = FACE_OUTER_BOUND ( 'NONE', #145, .T. ) ;
#249 = ORIENTED_EDGE ( 'NONE', *, *, #34, .F. ) ;
#250 = ADVANCED_BREP_SHAPE_REPRESENTATION ( 'PLP2-3MM-D', ( #274, #19 ), #38 ) ;
#251 = ORIENTED_EDGE ( 'NONE', *, *, #23, .T. ) ;
#252 = EDGE_LOOP ( 'NONE', ( #98, #9, #35, #36 ) ) ;
#253 = ORIENTED_EDGE ( 'NONE', *, *, #51, .F. ) ;
#254 = AXIS2_PLACEMENT_3D ( 'NONE', #105, #176, #64 ) ;
#255 = ADVANCED_FACE ( 'NONE', ( #48 ), #246, .T. ) ;
#256 = ORIENTED_EDGE ( 'NONE', *, *, #34, .T. ) ;
#257 =( NAMED_UNIT ( * ) SI_UNIT ( $, .STERADIAN. ) SOLID_ANGLE_UNIT ( ) );
#258 = DIRECTION ( 'NONE',  ( -0.7071067814126125173, 0.000000000000000000, -0.7071067809604825172 ) ) ;
#259 = DIRECTION ( 'NONE',  ( 0.000000000000000000, -1.524468746464432045E-16, -1.000000000000000000 ) ) ;
#260 = CIRCLE ( 'NONE', #33, 0.05600000000000001504 ) ;
#261 = PRODUCT_DEFINITION_FORMATION_WITH_SPECIFIED_SOURCE ( 'ANY', '', #74, .NOT_KNOWN. ) ;
#262 = PLANE ( 'NONE',  #147 ) ;
#263 = EDGE_CURVE ( 'NONE', #168, #94, #13, .T. ) ;
#264 = AXIS2_PLACEMENT_3D ( 'NONE', #268, #200, #202 ) ;
#265 = CARTESIAN_POINT ( 'NONE',  ( -1.774885855854838338E-17, -9.887923813067833718E-17, 0.01442500000000004542 ) ) ;
#266 = DIMENSIONAL_EXPONENTS ( 1.000000000000000000, 0.000000000000000000, 0.000000000000000000, 0.000000000000000000, 0.000000000000000000, 0.000000000000000000, 0.000000000000000000 ) ;
#267 = FACE_OUTER_BOUND ( 'NONE', #165, .T. ) ;
#268 = CARTESIAN_POINT ( 'NONE',  ( 0.000000000000000000, 0.000000000000000000, 0.1295000000002292928 ) ) ;
#269 = FACE_OUTER_BOUND ( 'NONE', #73, .T. ) ;
#270 = CARTESIAN_POINT ( 'NONE',  ( 0.000000000000000000, 0.000000000000000000, 0.000000000000000000 ) ) ;
#271 = ORIENTED_EDGE ( 'NONE', *, *, #23, .F. ) ;
#272 = ADVANCED_FACE ( 'NONE', ( #28 ), #109, .T. ) ;
#273 = VERTEX_POINT ( 'NONE', #114 ) ;
#274 = MANIFOLD_SOLID_BREP ( 'Imported1', #76 ) ;
#275 = ORIENTED_EDGE ( 'NONE', *, *, #242, .F. ) ;
#276 = PRODUCT_DEFINITION_SHAPE ( 'NONE', 'NONE',  #142 ) ;
#277 = EDGE_CURVE ( 'NONE', #232, #144, #213, .T. ) ;
#278 = ORIENTED_EDGE ( 'NONE', *, *, #11, .F. ) ;
#279 = SHAPE_DEFINITION_REPRESENTATION ( #276, #250 ) ;
#280 = AXIS2_PLACEMENT_3D ( 'NONE', #66, #69, #47 ) ;
#281 = EDGE_LOOP ( 'NONE', ( #169, #190, #141 ) ) ;
#282 = CYLINDRICAL_SURFACE ( 'NONE', #254, 0.06500000000000002998 ) ;
#283 = CARTESIAN_POINT ( 'NONE',  ( -0.06150000000270824246, -1.406559452645842358E-16, 0.1329999999972112379 ) ) ;
#284 = AXIS2_PLACEMENT_3D ( 'NONE', #127, #40, #233 ) ;
#285 = VECTOR ( 'NONE', #152, 39.37007874015748143 ) ;
#286 = LINE ( 'NONE', #236, #175 ) ;
#287 = DIRECTION ( 'NONE',  ( 0.000000000000000000, 0.000000000000000000, -1.000000000000000000 ) ) ;
ENDSEC;
END-ISO-10303-21;
