%TF.GenerationSoftware,KiCad,Pcbnew,9.0.4-9.0.4-0~ubuntu24.04.1*%
%TF.CreationDate,2026-04-29T23:01:14+02:00*%
%TF.ProjectId,LinKey,4c696e4b-6579-42e6-9b69-6361645f7063,rev?*%
%TF.SameCoordinates,Original*%
%TF.FileFunction,Copper,L4,Bot*%
%TF.FilePolarity,Positive*%
%FSLAX46Y46*%
G04 Gerber Fmt 4.6, Leading zero omitted, Abs format (unit mm)*
G04 Created by KiCad (PCBNEW 9.0.4-9.0.4-0~ubuntu24.04.1) date 2026-04-29 23:01:14*
%MOMM*%
%LPD*%
G01*
G04 APERTURE LIST*
G04 Aperture macros list*
%AMRoundRect*
0 Rectangle with rounded corners*
0 $1 Rounding radius*
0 $2 $3 $4 $5 $6 $7 $8 $9 X,Y pos of 4 corners*
0 Add a 4 corners polygon primitive as box body*
4,1,4,$2,$3,$4,$5,$6,$7,$8,$9,$2,$3,0*
0 Add four circle primitives for the rounded corners*
1,1,$1+$1,$2,$3*
1,1,$1+$1,$4,$5*
1,1,$1+$1,$6,$7*
1,1,$1+$1,$8,$9*
0 Add four rect primitives between the rounded corners*
20,1,$1+$1,$2,$3,$4,$5,0*
20,1,$1+$1,$4,$5,$6,$7,0*
20,1,$1+$1,$6,$7,$8,$9,0*
20,1,$1+$1,$8,$9,$2,$3,0*%
%AMFreePoly0*
4,1,17,1.370000,0.720000,0.950000,0.720000,0.950000,0.580000,1.370000,0.580000,1.370000,0.080000,0.950000,0.080000,0.950000,-0.080000,1.370000,-0.080000,1.370000,-0.580000,0.950000,-0.580000,0.950000,-0.720000,1.371000,-0.720000,1.371000,-1.225000,-0.950000,-1.225000,-0.950000,1.225000,1.370000,1.225000,1.370000,0.720000,1.370000,0.720000,$1*%
G04 Aperture macros list end*
%ADD10C,0.200000*%
%TA.AperFunction,NonConductor*%
%ADD11C,0.200000*%
%TD*%
%TA.AperFunction,SMDPad,CuDef*%
%ADD12RoundRect,0.237500X-0.300000X-0.237500X0.300000X-0.237500X0.300000X0.237500X-0.300000X0.237500X0*%
%TD*%
%TA.AperFunction,SMDPad,CuDef*%
%ADD13RoundRect,0.237500X0.250000X0.237500X-0.250000X0.237500X-0.250000X-0.237500X0.250000X-0.237500X0*%
%TD*%
%TA.AperFunction,HeatsinkPad*%
%ADD14C,0.600000*%
%TD*%
%TA.AperFunction,ComponentPad*%
%ADD15R,3.400000X3.400000*%
%TD*%
%TA.AperFunction,ComponentPad*%
%ADD16C,3.400000*%
%TD*%
%TA.AperFunction,SMDPad,CuDef*%
%ADD17RoundRect,0.237500X0.237500X-0.300000X0.237500X0.300000X-0.237500X0.300000X-0.237500X-0.300000X0*%
%TD*%
%TA.AperFunction,SMDPad,CuDef*%
%ADD18RoundRect,0.237500X-0.250000X-0.237500X0.250000X-0.237500X0.250000X0.237500X-0.250000X0.237500X0*%
%TD*%
%TA.AperFunction,SMDPad,CuDef*%
%ADD19RoundRect,0.250000X2.100000X-0.340000X2.100000X0.340000X-2.100000X0.340000X-2.100000X-0.340000X0*%
%TD*%
%TA.AperFunction,SMDPad,CuDef*%
%ADD20RoundRect,0.250000X0.412500X0.650000X-0.412500X0.650000X-0.412500X-0.650000X0.412500X-0.650000X0*%
%TD*%
%TA.AperFunction,SMDPad,CuDef*%
%ADD21RoundRect,0.250000X-0.412500X-0.650000X0.412500X-0.650000X0.412500X0.650000X-0.412500X0.650000X0*%
%TD*%
%TA.AperFunction,ComponentPad*%
%ADD22RoundRect,0.250000X0.550000X-0.550000X0.550000X0.550000X-0.550000X0.550000X-0.550000X-0.550000X0*%
%TD*%
%TA.AperFunction,ComponentPad*%
%ADD23C,1.600000*%
%TD*%
%TA.AperFunction,SMDPad,CuDef*%
%ADD24RoundRect,0.150000X-0.587500X-0.150000X0.587500X-0.150000X0.587500X0.150000X-0.587500X0.150000X0*%
%TD*%
%TA.AperFunction,SMDPad,CuDef*%
%ADD25RoundRect,0.125000X-0.125000X0.190000X-0.125000X-0.190000X0.125000X-0.190000X0.125000X0.190000X0*%
%TD*%
%TA.AperFunction,SMDPad,CuDef*%
%ADD26FreePoly0,270.000000*%
%TD*%
%TA.AperFunction,ComponentPad*%
%ADD27R,1.700000X1.700000*%
%TD*%
%TA.AperFunction,ComponentPad*%
%ADD28C,1.700000*%
%TD*%
%TA.AperFunction,SMDPad,CuDef*%
%ADD29RoundRect,0.250000X-0.350000X-0.450000X0.350000X-0.450000X0.350000X0.450000X-0.350000X0.450000X0*%
%TD*%
%TA.AperFunction,SMDPad,CuDef*%
%ADD30RoundRect,0.237500X-0.237500X0.250000X-0.237500X-0.250000X0.237500X-0.250000X0.237500X0.250000X0*%
%TD*%
%TA.AperFunction,SMDPad,CuDef*%
%ADD31R,1.700000X0.800000*%
%TD*%
%TA.AperFunction,SMDPad,CuDef*%
%ADD32RoundRect,0.250000X0.650000X-0.412500X0.650000X0.412500X-0.650000X0.412500X-0.650000X-0.412500X0*%
%TD*%
%TA.AperFunction,SMDPad,CuDef*%
%ADD33RoundRect,0.087500X-0.087500X0.487500X-0.087500X-0.487500X0.087500X-0.487500X0.087500X0.487500X0*%
%TD*%
%TA.AperFunction,SMDPad,CuDef*%
%ADD34RoundRect,0.050000X-0.050000X0.675000X-0.050000X-0.675000X0.050000X-0.675000X0.050000X0.675000X0*%
%TD*%
%TA.AperFunction,SMDPad,CuDef*%
%ADD35RoundRect,0.062500X-0.062500X0.162500X-0.062500X-0.162500X0.062500X-0.162500X0.062500X0.162500X0*%
%TD*%
%TA.AperFunction,SMDPad,CuDef*%
%ADD36RoundRect,0.237500X-0.237500X0.300000X-0.237500X-0.300000X0.237500X-0.300000X0.237500X0.300000X0*%
%TD*%
%TA.AperFunction,SMDPad,CuDef*%
%ADD37RoundRect,0.200000X-0.750000X-0.200000X0.750000X-0.200000X0.750000X0.200000X-0.750000X0.200000X0*%
%TD*%
%TA.AperFunction,ViaPad*%
%ADD38C,0.600000*%
%TD*%
%TA.AperFunction,Conductor*%
%ADD39C,0.500000*%
%TD*%
%TA.AperFunction,Conductor*%
%ADD40C,0.200000*%
%TD*%
%TA.AperFunction,Conductor*%
%ADD41C,1.000000*%
%TD*%
G04 APERTURE END LIST*
D10*
D11*
X153204523Y-64210552D02*
X153204523Y-64877219D01*
X153442618Y-63829600D02*
X153680713Y-64543885D01*
X153680713Y-64543885D02*
X153061666Y-64543885D01*
D12*
%TO.P,C9,2*%
%TO.N,GND*%
X144652500Y-67350000D03*
%TO.P,C9,1*%
%TO.N,Net-(U2-EN)*%
X142927500Y-67350000D03*
%TD*%
D13*
%TO.P,R7,2*%
%TO.N,Net-(U2-EN)*%
X142877500Y-65780000D03*
%TO.P,R7,1*%
%TO.N,+3.3V*%
X144702500Y-65780000D03*
%TD*%
D14*
%TO.P,U2,39,GND*%
%TO.N,GND*%
X149150000Y-70760000D03*
X149150000Y-72160000D03*
X149850000Y-70060000D03*
X149850000Y-71460000D03*
X149850000Y-72860000D03*
X150550000Y-70760000D03*
X150550000Y-72160000D03*
X151250000Y-70060000D03*
X151250000Y-71460000D03*
X151250000Y-72860000D03*
X151950000Y-70760000D03*
X151950000Y-72160000D03*
%TD*%
D15*
%TO.P,J1,1,A*%
%TO.N,Net-(D1-~_2)*%
X144500000Y-96000000D03*
D16*
%TO.P,J1,2,I2*%
%TO.N,Net-(J1-I2)*%
X149580000Y-96000000D03*
%TO.P,J1,3,I1*%
%TO.N,Net-(D1-~_1)*%
X154660000Y-96000000D03*
%TD*%
D17*
%TO.P,C8,1*%
%TO.N,+3.3V*%
X149150000Y-65662500D03*
%TO.P,C8,2*%
%TO.N,GND*%
X149150000Y-63937500D03*
%TD*%
D18*
%TO.P,R13,1*%
%TO.N,VCAP*%
X156687500Y-84100000D03*
%TO.P,R13,2*%
%TO.N,Net-(Q1-C)*%
X158512500Y-84100000D03*
%TD*%
D19*
%TO.P,L1,1*%
%TO.N,VCAP*%
X152620000Y-80245000D03*
%TO.P,L1,2*%
%TO.N,Net-(U5-SW)*%
X152620000Y-76935000D03*
%TD*%
D20*
%TO.P,C6,1*%
%TO.N,+3.3V*%
X158962500Y-72500000D03*
%TO.P,C6,2*%
%TO.N,GND*%
X155837500Y-72500000D03*
%TD*%
D21*
%TO.P,C3,1*%
%TO.N,VCAP*%
X156737500Y-80200000D03*
%TO.P,C3,2*%
%TO.N,GND*%
X159862500Y-80200000D03*
%TD*%
D22*
%TO.P,C2,1*%
%TO.N,VCAP*%
X146900000Y-73900000D03*
D23*
%TO.P,C2,2*%
%TO.N,GND*%
X146900000Y-70400000D03*
%TD*%
D24*
%TO.P,U4,1,K*%
%TO.N,Net-(U4-K)*%
X160462500Y-85950000D03*
%TO.P,U4,2,REF*%
%TO.N,Net-(U4-REF)*%
X160462500Y-84050000D03*
%TO.P,U4,3,A*%
%TO.N,GND*%
X162337500Y-85000000D03*
%TD*%
D12*
%TO.P,C4,1*%
%TO.N,VCAP*%
X156607500Y-78100000D03*
%TO.P,C4,2*%
%TO.N,GND*%
X158332500Y-78100000D03*
%TD*%
D25*
%TO.P,Q2,1,D*%
%TO.N,VCAP*%
X152707500Y-83950000D03*
%TO.P,Q2,2,D*%
X153347500Y-83950000D03*
%TO.P,Q2,3,D*%
X154007500Y-83950000D03*
%TO.P,Q2,4,G*%
%TO.N,Net-(Q2-G)*%
X154647500Y-83950000D03*
D26*
%TO.P,Q2,5,S*%
%TO.N,Net-(Q2-S)*%
X153677500Y-85775000D03*
%TD*%
D27*
%TO.P,J2,1,Pin_1*%
%TO.N,+3.3V*%
X163800000Y-64500000D03*
D28*
%TO.P,J2,2,Pin_2*%
%TO.N,/ESP_TX*%
X163800000Y-67040000D03*
%TO.P,J2,3,Pin_3*%
%TO.N,/ESP_RX*%
X163800000Y-69580000D03*
%TO.P,J2,4,Pin_4*%
%TO.N,GND*%
X163800000Y-72120000D03*
%TD*%
D18*
%TO.P,R15,1*%
%TO.N,VCAP*%
X156687500Y-82300000D03*
%TO.P,R15,2*%
%TO.N,Net-(U4-REF)*%
X158512500Y-82300000D03*
%TD*%
%TO.P,R12,1*%
%TO.N,Net-(Q2-G)*%
X156687500Y-85900000D03*
%TO.P,R12,2*%
%TO.N,Net-(Q1-C)*%
X158512500Y-85900000D03*
%TD*%
D29*
%TO.P,R10,1*%
%TO.N,VDD*%
X145600000Y-85900000D03*
%TO.P,R10,2*%
%TO.N,Net-(Q2-S)*%
X147600000Y-85900000D03*
%TD*%
D30*
%TO.P,R11,1*%
%TO.N,Net-(Q2-S)*%
X142910000Y-88387500D03*
%TO.P,R11,2*%
%TO.N,Net-(Q1-B)*%
X142910000Y-90212500D03*
%TD*%
D31*
%TO.P,SW1,1,1*%
%TO.N,GND*%
X143750000Y-80000000D03*
%TO.P,SW1,2,2*%
%TO.N,Net-(U2-EN)*%
X143750000Y-76600000D03*
%TD*%
D32*
%TO.P,C7,1*%
%TO.N,+3.3V*%
X146600000Y-66912500D03*
%TO.P,C7,2*%
%TO.N,GND*%
X146600000Y-63787500D03*
%TD*%
D30*
%TO.P,R17,1*%
%TO.N,+3.3V*%
X160000000Y-74687500D03*
%TO.P,R17,2*%
%TO.N,Net-(U5-FB)*%
X160000000Y-76512500D03*
%TD*%
D18*
%TO.P,R18,1*%
%TO.N,Net-(U5-FB)*%
X159987500Y-78100000D03*
%TO.P,R18,2*%
%TO.N,GND*%
X161812500Y-78100000D03*
%TD*%
D33*
%TO.P,U5,1,GND*%
%TO.N,GND*%
X156850000Y-74780000D03*
D34*
%TO.P,U5,2,SW*%
%TO.N,Net-(U5-SW)*%
X157400000Y-74930000D03*
D33*
%TO.P,U5,3,VOUT*%
%TO.N,+3.3V*%
X157950000Y-74780000D03*
D35*
%TO.P,U5,4,FB*%
%TO.N,Net-(U5-FB)*%
X158150000Y-76380000D03*
%TO.P,U5,5,EN*%
%TO.N,VCAP*%
X157650000Y-76380000D03*
%TO.P,U5,6,MODE*%
%TO.N,GND*%
X157150000Y-76380000D03*
%TO.P,U5,7,VIN*%
%TO.N,VCAP*%
X156650000Y-76380000D03*
%TD*%
D18*
%TO.P,R16,1*%
%TO.N,Net-(U4-REF)*%
X160187500Y-82300000D03*
%TO.P,R16,2*%
%TO.N,GND*%
X162012500Y-82300000D03*
%TD*%
D30*
%TO.P,R14,1*%
%TO.N,Net-(U4-K)*%
X150200000Y-88387500D03*
%TO.P,R14,2*%
%TO.N,Net-(Q1-B)*%
X150200000Y-90212500D03*
%TD*%
D36*
%TO.P,C5,1*%
%TO.N,+3.3V*%
X161850000Y-74737500D03*
%TO.P,C5,2*%
%TO.N,Net-(U5-FB)*%
X161850000Y-76462500D03*
%TD*%
D37*
%TO.P,Q1,1,B*%
%TO.N,Net-(Q1-B)*%
X144900000Y-90250000D03*
%TO.P,Q1,2,E*%
%TO.N,VDD*%
X144900000Y-88350000D03*
%TO.P,Q1,3,C*%
%TO.N,Net-(Q1-C)*%
X147900000Y-89300000D03*
%TD*%
D38*
%TO.N,GND*%
X142100000Y-63700000D03*
X144650000Y-68850000D03*
X163800000Y-75900000D03*
X162300000Y-84100000D03*
X156200000Y-73900000D03*
X154700000Y-71800000D03*
X144550000Y-63740000D03*
X163100000Y-82300000D03*
X158300000Y-79200000D03*
X156200000Y-74700000D03*
X154700000Y-72600000D03*
X150300000Y-83500000D03*
X150500000Y-63800000D03*
X145212500Y-80100000D03*
X146300000Y-80000000D03*
X146300000Y-82800000D03*
X157150000Y-77000000D03*
X155300000Y-73900000D03*
X156900000Y-73400000D03*
X162900000Y-78100000D03*
X156900000Y-71800000D03*
X154700000Y-73400000D03*
X162000000Y-63800000D03*
X149100000Y-88400000D03*
X159600000Y-63740000D03*
X163000000Y-86100000D03*
X142300000Y-86200000D03*
X145300000Y-81500000D03*
X156900000Y-72600000D03*
X142200000Y-94200000D03*
X148000000Y-63800000D03*
X163000000Y-87800000D03*
X158600000Y-80200000D03*
%TO.N,VDD*%
X146500000Y-87200000D03*
X144600000Y-87200000D03*
X144600000Y-85100000D03*
X146500000Y-85100000D03*
%TO.N,Net-(D1-~_1)*%
X144500000Y-91150000D03*
X148800000Y-93300000D03*
%TO.N,+3.3V*%
X157800000Y-73400000D03*
X145800000Y-65000000D03*
X157800000Y-69400000D03*
X158700000Y-70200000D03*
X157800000Y-71000000D03*
X145800000Y-68500000D03*
X158700000Y-69400000D03*
X144550000Y-65000000D03*
X157800000Y-72600000D03*
X147100000Y-65000000D03*
X157800000Y-71800000D03*
X157800000Y-70200000D03*
X158700000Y-71000000D03*
X147100000Y-68500000D03*
X142800000Y-82200000D03*
X158800000Y-75100000D03*
X158800000Y-74100000D03*
X148400000Y-68500000D03*
X149200000Y-67100000D03*
%TO.N,VCAP*%
X149700000Y-78600000D03*
X152020000Y-78600000D03*
X154340000Y-78600000D03*
X153180000Y-78600000D03*
X150860000Y-78600000D03*
X155500000Y-78600000D03*
%TO.N,Net-(U2-EN)*%
X142887500Y-66300000D03*
%TD*%
D39*
%TO.N,+3.3V*%
X144702500Y-65780000D02*
X145422500Y-66500000D01*
X145422500Y-66500000D02*
X146187500Y-66500000D01*
D40*
%TO.N,Net-(U2-EN)*%
X142887500Y-68850000D02*
X142887500Y-66300000D01*
%TO.N,GND*%
X144550000Y-63700000D02*
X146112500Y-63700000D01*
X146112500Y-63700000D02*
X146250000Y-63837500D01*
X149075000Y-63837500D02*
X149150000Y-63762500D01*
X146250000Y-63837500D02*
X149075000Y-63837500D01*
X157150000Y-76380000D02*
X157150000Y-76850000D01*
%TO.N,VDD*%
X144600000Y-87200000D02*
X144600000Y-86100000D01*
X144600000Y-86100000D02*
X144800000Y-85900000D01*
X144800000Y-85900000D02*
X145600000Y-85900000D01*
X144600000Y-88050000D02*
X144900000Y-88350000D01*
X144600000Y-87200000D02*
X144600000Y-88050000D01*
%TO.N,Net-(D1-~_1)*%
X154660000Y-93960000D02*
X154660000Y-96000000D01*
X144500000Y-91150000D02*
X144450000Y-91200000D01*
X144450000Y-92400000D02*
X145350000Y-93300000D01*
X144450000Y-91200000D02*
X144450000Y-92400000D01*
X145350000Y-93300000D02*
X154000000Y-93300000D01*
X154000000Y-93300000D02*
X154660000Y-93960000D01*
%TO.N,+3.3V*%
X146412500Y-67100000D02*
X146600000Y-66912500D01*
X161642500Y-74700000D02*
X160207500Y-74700000D01*
X161800000Y-74542500D02*
X161642500Y-74700000D01*
X146187500Y-66500000D02*
X146600000Y-66912500D01*
D39*
X163400000Y-64320000D02*
X163380000Y-64300000D01*
D40*
X146100000Y-67112500D02*
X146250000Y-66962500D01*
%TO.N,VCAP*%
X156650000Y-77862500D02*
X156607500Y-77905000D01*
X152707500Y-83950000D02*
X154007500Y-83950000D01*
X156737500Y-78035000D02*
X156607500Y-77905000D01*
%TO.N,Net-(U2-EN)*%
X143750000Y-76600000D02*
X143750000Y-69712500D01*
X143750000Y-69712500D02*
X142887500Y-68850000D01*
%TO.N,Net-(U5-FB)*%
X158150000Y-76380000D02*
X158850000Y-76380000D01*
X158982500Y-76512500D02*
X158850000Y-76380000D01*
X159987500Y-76330000D02*
X159987500Y-77905000D01*
X160000000Y-76512500D02*
X158982500Y-76512500D01*
X160000000Y-76317500D02*
X159987500Y-76330000D01*
X161800000Y-76512500D02*
X161850000Y-76462500D01*
X161750000Y-76317500D02*
X161800000Y-76267500D01*
X160000000Y-76512500D02*
X161800000Y-76512500D01*
X159937500Y-76380000D02*
X160000000Y-76317500D01*
%TO.N,Net-(Q1-C)*%
X147900000Y-88600000D02*
X148900000Y-87600000D01*
X158100000Y-87600000D02*
X158512500Y-87187500D01*
X158512500Y-84100000D02*
X158512500Y-85900000D01*
X147900000Y-89300000D02*
X147900000Y-88600000D01*
X158512500Y-87187500D02*
X158512500Y-85900000D01*
X148900000Y-87600000D02*
X158100000Y-87600000D01*
%TO.N,Net-(Q1-B)*%
X144900000Y-90250000D02*
X144800000Y-90250000D01*
X142917500Y-90250000D02*
X142910000Y-90242500D01*
X150200000Y-90212500D02*
X144937500Y-90212500D01*
X142910000Y-90242500D02*
X142730000Y-90242500D01*
X144937500Y-90212500D02*
X144900000Y-90250000D01*
X144900000Y-90250000D02*
X142917500Y-90250000D01*
X142730000Y-90242500D02*
X142700000Y-90212500D01*
X150162500Y-90250000D02*
X150200000Y-90212500D01*
%TO.N,Net-(Q2-S)*%
X142910000Y-88417500D02*
X143692500Y-89200000D01*
X147700000Y-87400000D02*
X147700000Y-85900000D01*
X142950000Y-88400000D02*
X143000000Y-88450000D01*
X145900000Y-89200000D02*
X147700000Y-87400000D01*
X143692500Y-89200000D02*
X145900000Y-89200000D01*
D41*
X147700000Y-85900000D02*
X153552500Y-85900000D01*
D40*
X153552500Y-85900000D02*
X153677500Y-85775000D01*
%TO.N,Net-(Q2-G)*%
X155800000Y-85900000D02*
X155600000Y-85700000D01*
X155600000Y-84902500D02*
X154647500Y-83950000D01*
X156687500Y-85900000D02*
X155800000Y-85900000D01*
X155600000Y-85700000D02*
X155600000Y-84902500D01*
%TO.N,Net-(U4-K)*%
X150200000Y-88387500D02*
X159112500Y-88387500D01*
X159112500Y-88387500D02*
X160462500Y-87037500D01*
X160462500Y-87037500D02*
X160462500Y-85950000D01*
%TO.N,Net-(U4-REF)*%
X160187500Y-83775000D02*
X160462500Y-84050000D01*
X158512500Y-82300000D02*
X160187500Y-82300000D01*
X160187500Y-82300000D02*
X160187500Y-83775000D01*
%TD*%
%TA.AperFunction,Conductor*%
%TO.N,VDD*%
G36*
X146859191Y-84518907D02*
G01*
X146895155Y-84568407D01*
X146900000Y-84599000D01*
X146900000Y-85133008D01*
X146881093Y-85191199D01*
X146880656Y-85191795D01*
X146847208Y-85237116D01*
X146847205Y-85237121D01*
X146802355Y-85365296D01*
X146802353Y-85365305D01*
X146799500Y-85395725D01*
X146799500Y-86404274D01*
X146802353Y-86434694D01*
X146802355Y-86434703D01*
X146847207Y-86562883D01*
X146847207Y-86562884D01*
X146880654Y-86608201D01*
X146899997Y-86666248D01*
X146900000Y-86666990D01*
X146900000Y-87501000D01*
X146881093Y-87559191D01*
X146831593Y-87595155D01*
X146801000Y-87600000D01*
X144099000Y-87600000D01*
X144040809Y-87581093D01*
X144004845Y-87531593D01*
X144000000Y-87501000D01*
X144000000Y-86397824D01*
X144749999Y-86397824D01*
X144756401Y-86457370D01*
X144756403Y-86457381D01*
X144806646Y-86592088D01*
X144806647Y-86592090D01*
X144892807Y-86707184D01*
X144892815Y-86707192D01*
X145007909Y-86793352D01*
X145007911Y-86793353D01*
X145142618Y-86843596D01*
X145142629Y-86843598D01*
X145202176Y-86850000D01*
X145474999Y-86850000D01*
X145475000Y-86849999D01*
X145475000Y-86025001D01*
X145725000Y-86025001D01*
X145725000Y-86849999D01*
X145725001Y-86850000D01*
X145997824Y-86850000D01*
X146057370Y-86843598D01*
X146057381Y-86843596D01*
X146192088Y-86793353D01*
X146192090Y-86793352D01*
X146307184Y-86707192D01*
X146307192Y-86707184D01*
X146393352Y-86592090D01*
X146393353Y-86592088D01*
X146443596Y-86457381D01*
X146443598Y-86457370D01*
X146450000Y-86397824D01*
X146450000Y-86025001D01*
X146449999Y-86025000D01*
X145725001Y-86025000D01*
X145725000Y-86025001D01*
X145475000Y-86025001D01*
X145474999Y-86025000D01*
X144750001Y-86025000D01*
X144750000Y-86025001D01*
X144750000Y-86397824D01*
X144749999Y-86397824D01*
X144000000Y-86397824D01*
X144000000Y-85402175D01*
X144750000Y-85402175D01*
X144750000Y-85774999D01*
X144750001Y-85775000D01*
X145474999Y-85775000D01*
X145475000Y-85774999D01*
X145475000Y-84950001D01*
X145725000Y-84950001D01*
X145725000Y-85774999D01*
X145725001Y-85775000D01*
X146449999Y-85775000D01*
X146450000Y-85774999D01*
X146450000Y-85402175D01*
X146443598Y-85342629D01*
X146443596Y-85342618D01*
X146393353Y-85207911D01*
X146393352Y-85207909D01*
X146307192Y-85092815D01*
X146307184Y-85092807D01*
X146192090Y-85006647D01*
X146192088Y-85006646D01*
X146057381Y-84956403D01*
X146057370Y-84956401D01*
X145997824Y-84950000D01*
X145725001Y-84950000D01*
X145725000Y-84950001D01*
X145475000Y-84950001D01*
X145474999Y-84950000D01*
X145202176Y-84950000D01*
X145142629Y-84956401D01*
X145142618Y-84956403D01*
X145007911Y-85006646D01*
X145007909Y-85006647D01*
X144892815Y-85092807D01*
X144892807Y-85092815D01*
X144806647Y-85207909D01*
X144806646Y-85207911D01*
X144756403Y-85342618D01*
X144756401Y-85342629D01*
X144750000Y-85402175D01*
X144000000Y-85402175D01*
X144000000Y-84599000D01*
X144018907Y-84540809D01*
X144068407Y-84504845D01*
X144099000Y-84500000D01*
X146801000Y-84500000D01*
X146859191Y-84518907D01*
G37*
%TD.AperFunction*%
%TD*%
%TA.AperFunction,Conductor*%
%TO.N,VCAP*%
G36*
X156800171Y-76018907D02*
G01*
X156836135Y-76068407D01*
X156839077Y-76118312D01*
X156833869Y-76144500D01*
X156824500Y-76191599D01*
X156824501Y-76573263D01*
X156822884Y-76573263D01*
X156811216Y-76626434D01*
X156795811Y-76646374D01*
X156749499Y-76692686D01*
X156683609Y-76806809D01*
X156683608Y-76806814D01*
X156649500Y-76934108D01*
X156649500Y-77065892D01*
X156679579Y-77178151D01*
X156683609Y-77193190D01*
X156749496Y-77307309D01*
X156749498Y-77307311D01*
X156749500Y-77307314D01*
X156842686Y-77400500D01*
X156842688Y-77400501D01*
X156842690Y-77400503D01*
X156956810Y-77466390D01*
X156956808Y-77466390D01*
X156956812Y-77466391D01*
X156956814Y-77466392D01*
X157084108Y-77500500D01*
X157084110Y-77500500D01*
X157215890Y-77500500D01*
X157215892Y-77500500D01*
X157343186Y-77466392D01*
X157343188Y-77466390D01*
X157343190Y-77466390D01*
X157457309Y-77400503D01*
X157457309Y-77400502D01*
X157457314Y-77400500D01*
X157550500Y-77307314D01*
X157616392Y-77193186D01*
X157650500Y-77065892D01*
X157650500Y-76934108D01*
X157616392Y-76806814D01*
X157616390Y-76806811D01*
X157616390Y-76806809D01*
X157550503Y-76692690D01*
X157550501Y-76692688D01*
X157550500Y-76692686D01*
X157504187Y-76646373D01*
X157476412Y-76591859D01*
X157475867Y-76573265D01*
X157475500Y-76573265D01*
X157475499Y-76382118D01*
X157475499Y-76191600D01*
X157460922Y-76118312D01*
X157463865Y-76093449D01*
X157463865Y-76068407D01*
X157467406Y-76063533D01*
X157468114Y-76057552D01*
X157485108Y-76039167D01*
X157499829Y-76018907D01*
X157505559Y-76017045D01*
X157509647Y-76012623D01*
X157558020Y-76000000D01*
X157741980Y-76000000D01*
X157800171Y-76018907D01*
X157836135Y-76068407D01*
X157839077Y-76118312D01*
X157833869Y-76144500D01*
X157824500Y-76191599D01*
X157824500Y-76568397D01*
X157824501Y-76568404D01*
X157839759Y-76645116D01*
X157839760Y-76645118D01*
X157883315Y-76710302D01*
X157900000Y-76765304D01*
X157900000Y-77258992D01*
X157881093Y-77317183D01*
X157871004Y-77328995D01*
X157400000Y-77799999D01*
X157400000Y-77800000D01*
X157400000Y-78100000D01*
X155100000Y-78100000D01*
X156300000Y-76900000D01*
X156300000Y-76099000D01*
X156318907Y-76040809D01*
X156368407Y-76004845D01*
X156399000Y-76000000D01*
X156741980Y-76000000D01*
X156800171Y-76018907D01*
G37*
%TD.AperFunction*%
%TD*%
%TA.AperFunction,Conductor*%
%TO.N,+3.3V*%
G36*
X159396641Y-68895624D02*
G01*
X159454725Y-68914847D01*
X159466287Y-68924803D01*
X161928071Y-71400000D01*
X162271194Y-71744993D01*
X162298823Y-71799585D01*
X162300000Y-71814806D01*
X162300000Y-73908818D01*
X162281093Y-73967009D01*
X162231593Y-74002973D01*
X162175879Y-74002973D01*
X162175642Y-74004057D01*
X162170679Y-74002973D01*
X162170407Y-74002973D01*
X162169907Y-74002804D01*
X162169758Y-74002771D01*
X162140201Y-74000000D01*
X161950001Y-74000000D01*
X161950000Y-74000001D01*
X161950000Y-74638500D01*
X161945155Y-74653411D01*
X161945155Y-74669093D01*
X161935938Y-74681778D01*
X161931093Y-74696691D01*
X161918407Y-74705907D01*
X161909191Y-74718593D01*
X161894278Y-74723438D01*
X161881593Y-74732655D01*
X161851000Y-74737500D01*
X161850000Y-74737500D01*
X161850000Y-74738500D01*
X161831093Y-74796691D01*
X161781593Y-74832655D01*
X161751000Y-74837500D01*
X161175001Y-74837500D01*
X161175000Y-74837501D01*
X161175000Y-75090201D01*
X161177771Y-75119758D01*
X161177772Y-75119759D01*
X161221330Y-75244240D01*
X161299641Y-75350348D01*
X161299651Y-75350358D01*
X161395835Y-75421345D01*
X161431428Y-75471112D01*
X161430970Y-75532296D01*
X161394637Y-75581526D01*
X161337047Y-75600000D01*
X158350593Y-75600000D01*
X158292402Y-75581093D01*
X158256438Y-75531593D01*
X158256438Y-75470407D01*
X158274483Y-75440958D01*
X158273610Y-75440360D01*
X158278793Y-75432792D01*
X158322211Y-75334460D01*
X158324999Y-75310428D01*
X158325000Y-75310425D01*
X158325000Y-75296420D01*
X158324999Y-75296419D01*
X157949293Y-74920712D01*
X157942167Y-74906727D01*
X157931071Y-74895623D01*
X157928626Y-74880150D01*
X157921516Y-74866196D01*
X157923971Y-74850693D01*
X157921521Y-74835187D01*
X157928636Y-74821233D01*
X157931087Y-74805764D01*
X157949318Y-74780681D01*
X157949999Y-74779999D01*
X158091420Y-74779999D01*
X158325000Y-75013579D01*
X158325000Y-74787501D01*
X159325000Y-74787501D01*
X159325000Y-74990201D01*
X159327771Y-75019758D01*
X159327772Y-75019759D01*
X159371330Y-75144240D01*
X159449641Y-75250348D01*
X159449651Y-75250358D01*
X159555759Y-75328669D01*
X159680240Y-75372227D01*
X159680241Y-75372228D01*
X159709799Y-75375000D01*
X159899999Y-75375000D01*
X159900000Y-75374999D01*
X159900000Y-74787501D01*
X160100000Y-74787501D01*
X160100000Y-75374999D01*
X160100001Y-75375000D01*
X160290201Y-75375000D01*
X160319758Y-75372228D01*
X160319759Y-75372227D01*
X160444240Y-75328669D01*
X160550348Y-75250358D01*
X160550358Y-75250348D01*
X160628669Y-75144240D01*
X160672227Y-75019759D01*
X160672228Y-75019758D01*
X160675000Y-74990201D01*
X160675000Y-74787501D01*
X160674999Y-74787500D01*
X160100001Y-74787500D01*
X160100000Y-74787501D01*
X159900000Y-74787501D01*
X159899999Y-74787500D01*
X159325001Y-74787500D01*
X159325000Y-74787501D01*
X158325000Y-74787501D01*
X158325000Y-74546419D01*
X158091420Y-74779999D01*
X157949999Y-74779999D01*
X157949318Y-74779318D01*
X157921521Y-74724812D01*
X157931071Y-74664376D01*
X157949293Y-74639286D01*
X158203781Y-74384798D01*
X159325000Y-74384798D01*
X159325000Y-74587499D01*
X159325001Y-74587500D01*
X159899999Y-74587500D01*
X159900000Y-74587499D01*
X159900000Y-74000001D01*
X160100000Y-74000001D01*
X160100000Y-74587499D01*
X160100001Y-74587500D01*
X160674999Y-74587500D01*
X160675000Y-74587499D01*
X160675000Y-74384798D01*
X161175000Y-74384798D01*
X161175000Y-74637499D01*
X161175001Y-74637500D01*
X161750000Y-74637500D01*
X161750000Y-74000001D01*
X161749999Y-74000000D01*
X161559799Y-74000000D01*
X161530241Y-74002771D01*
X161530240Y-74002772D01*
X161405759Y-74046330D01*
X161299651Y-74124641D01*
X161299641Y-74124651D01*
X161221330Y-74230759D01*
X161177772Y-74355240D01*
X161177771Y-74355241D01*
X161175000Y-74384798D01*
X160675000Y-74384798D01*
X160672228Y-74355241D01*
X160672227Y-74355240D01*
X160628669Y-74230759D01*
X160550358Y-74124651D01*
X160550348Y-74124641D01*
X160444240Y-74046330D01*
X160319759Y-74002772D01*
X160319758Y-74002771D01*
X160290201Y-74000000D01*
X160100001Y-74000000D01*
X160100000Y-74000001D01*
X159900000Y-74000001D01*
X159899999Y-74000000D01*
X159709799Y-74000000D01*
X159680241Y-74002771D01*
X159680240Y-74002772D01*
X159555759Y-74046330D01*
X159449651Y-74124641D01*
X159449641Y-74124651D01*
X159371330Y-74230759D01*
X159327772Y-74355240D01*
X159327771Y-74355241D01*
X159325000Y-74384798D01*
X158203781Y-74384798D01*
X158325000Y-74263579D01*
X158325000Y-74249574D01*
X158324999Y-74249571D01*
X158322211Y-74225539D01*
X158278794Y-74127209D01*
X158202790Y-74051205D01*
X158104460Y-74007788D01*
X158080428Y-74005000D01*
X157819571Y-74005000D01*
X157795533Y-74007789D01*
X157790055Y-74009279D01*
X157728942Y-74006303D01*
X157689525Y-73978887D01*
X157682086Y-73970372D01*
X157603576Y-73923464D01*
X157603574Y-73923463D01*
X157603572Y-73923462D01*
X157545382Y-73904556D01*
X157545384Y-73904556D01*
X157489013Y-73895628D01*
X157434496Y-73867850D01*
X157406719Y-73813334D01*
X157405500Y-73797847D01*
X157405500Y-72600001D01*
X158100001Y-72600001D01*
X158100001Y-73204203D01*
X158102850Y-73234600D01*
X158102850Y-73234602D01*
X158147654Y-73362647D01*
X158228207Y-73471790D01*
X158228209Y-73471792D01*
X158337352Y-73552345D01*
X158465398Y-73597149D01*
X158495789Y-73599999D01*
X158862498Y-73599999D01*
X158862500Y-73599998D01*
X158862500Y-72600001D01*
X159062500Y-72600001D01*
X159062500Y-73599998D01*
X159062501Y-73599999D01*
X159429203Y-73599999D01*
X159459600Y-73597149D01*
X159459602Y-73597149D01*
X159587647Y-73552345D01*
X159696790Y-73471792D01*
X159696792Y-73471790D01*
X159777345Y-73362647D01*
X159822149Y-73234601D01*
X159824999Y-73204211D01*
X159825000Y-73204210D01*
X159825000Y-72600001D01*
X159824999Y-72600000D01*
X159062501Y-72600000D01*
X159062500Y-72600001D01*
X158862500Y-72600001D01*
X158862499Y-72600000D01*
X158100002Y-72600000D01*
X158100001Y-72600001D01*
X157405500Y-72600001D01*
X157405500Y-71795788D01*
X158100000Y-71795788D01*
X158100000Y-72399999D01*
X158100001Y-72400000D01*
X158862499Y-72400000D01*
X158862500Y-72399999D01*
X158862500Y-71400001D01*
X159062500Y-71400001D01*
X159062500Y-72399999D01*
X159062501Y-72400000D01*
X159824998Y-72400000D01*
X159824999Y-72399999D01*
X159824999Y-71795796D01*
X159822149Y-71765399D01*
X159822149Y-71765397D01*
X159777345Y-71637352D01*
X159696792Y-71528209D01*
X159696790Y-71528207D01*
X159587647Y-71447654D01*
X159459601Y-71402850D01*
X159429211Y-71400000D01*
X159062501Y-71400000D01*
X159062500Y-71400001D01*
X158862500Y-71400001D01*
X158862499Y-71400000D01*
X158495796Y-71400000D01*
X158465399Y-71402850D01*
X158465397Y-71402850D01*
X158337352Y-71447654D01*
X158228209Y-71528207D01*
X158228207Y-71528209D01*
X158147654Y-71637352D01*
X158102850Y-71765398D01*
X158100000Y-71795788D01*
X157405500Y-71795788D01*
X157405500Y-71300000D01*
X157400348Y-71254272D01*
X157360666Y-71171873D01*
X157360665Y-71171872D01*
X157337273Y-71153217D01*
X157303567Y-71102153D01*
X157300000Y-71075817D01*
X157300000Y-68983768D01*
X157318907Y-68925577D01*
X157368407Y-68889613D01*
X157399531Y-68884769D01*
X159396641Y-68895624D01*
G37*
%TD.AperFunction*%
%TD*%
%TA.AperFunction,Conductor*%
%TO.N,VCAP*%
G36*
X156800539Y-78119685D02*
G01*
X156846294Y-78172489D01*
X156857500Y-78224000D01*
X156857500Y-78670000D01*
X156863500Y-78670000D01*
X156930539Y-78689685D01*
X156976294Y-78742489D01*
X156987500Y-78794000D01*
X156987500Y-81628638D01*
X156967815Y-81695677D01*
X156951181Y-81716319D01*
X156937500Y-81730000D01*
X156937500Y-83976000D01*
X156917815Y-84043039D01*
X156865011Y-84088794D01*
X156813500Y-84100000D01*
X156687500Y-84100000D01*
X156687500Y-84226000D01*
X156667815Y-84293039D01*
X156615011Y-84338794D01*
X156563500Y-84350000D01*
X155700001Y-84350000D01*
X155673917Y-84376084D01*
X155612594Y-84409569D01*
X155542902Y-84404585D01*
X155498555Y-84376084D01*
X155134318Y-84011847D01*
X155119614Y-83984919D01*
X155103022Y-83959101D01*
X155102130Y-83952900D01*
X155100833Y-83950524D01*
X155097999Y-83924166D01*
X155097999Y-83813345D01*
X155700000Y-83813345D01*
X155700000Y-83850000D01*
X156437500Y-83850000D01*
X156437500Y-82550000D01*
X155700001Y-82550000D01*
X155700001Y-82586654D01*
X155710319Y-82687652D01*
X155764546Y-82851300D01*
X155764551Y-82851311D01*
X155855052Y-82998034D01*
X155855055Y-82998038D01*
X155969336Y-83112319D01*
X156002821Y-83173642D01*
X155997837Y-83243334D01*
X155969336Y-83287681D01*
X155855055Y-83401961D01*
X155855052Y-83401965D01*
X155764551Y-83548688D01*
X155764546Y-83548699D01*
X155710319Y-83712347D01*
X155700000Y-83813345D01*
X155097999Y-83813345D01*
X155097999Y-83721867D01*
X155097999Y-83721862D01*
X155091759Y-83674455D01*
X155043247Y-83570421D01*
X154962079Y-83489253D01*
X154858045Y-83440741D01*
X154858043Y-83440740D01*
X154858044Y-83440740D01*
X154810640Y-83434500D01*
X154736846Y-83434500D01*
X154669807Y-83414815D01*
X154635771Y-83379493D01*
X154635052Y-83380052D01*
X154630267Y-83373883D01*
X154518616Y-83262232D01*
X154518608Y-83262226D01*
X154382688Y-83181844D01*
X154382687Y-83181843D01*
X154257500Y-83145472D01*
X154257500Y-83530606D01*
X154245882Y-83583010D01*
X154203240Y-83674454D01*
X154203240Y-83674455D01*
X154197000Y-83721860D01*
X154197000Y-83826000D01*
X154177315Y-83893039D01*
X154124511Y-83938794D01*
X154073000Y-83950000D01*
X154007500Y-83950000D01*
X154007500Y-84076000D01*
X153987815Y-84143039D01*
X153935011Y-84188794D01*
X153883500Y-84200000D01*
X151957500Y-84200000D01*
X151957500Y-84203118D01*
X151960288Y-84238547D01*
X151960289Y-84238553D01*
X151990171Y-84341405D01*
X151989972Y-84411274D01*
X151952030Y-84469944D01*
X151888391Y-84498788D01*
X151871095Y-84500000D01*
X149424000Y-84500000D01*
X149356961Y-84480315D01*
X149311206Y-84427511D01*
X149300000Y-84376000D01*
X149300000Y-83434108D01*
X149799500Y-83434108D01*
X149799500Y-83565892D01*
X149800714Y-83570421D01*
X149833608Y-83693187D01*
X149850164Y-83721862D01*
X149899500Y-83807314D01*
X149992686Y-83900500D01*
X150106814Y-83966392D01*
X150234108Y-84000500D01*
X150234110Y-84000500D01*
X150365890Y-84000500D01*
X150365892Y-84000500D01*
X150493186Y-83966392D01*
X150607314Y-83900500D01*
X150700500Y-83807314D01*
X150764259Y-83696881D01*
X151957500Y-83696881D01*
X151957500Y-83700000D01*
X152457500Y-83700000D01*
X152457500Y-83181142D01*
X152957500Y-83181142D01*
X152957500Y-83700000D01*
X153097500Y-83700000D01*
X153097500Y-83183655D01*
X153597500Y-83183655D01*
X153597500Y-83700000D01*
X153757500Y-83700000D01*
X153757500Y-83145472D01*
X153712096Y-83158664D01*
X153703601Y-83160810D01*
X153597500Y-83183655D01*
X153097500Y-83183655D01*
X153097500Y-83145472D01*
X153097499Y-83145472D01*
X153062095Y-83155758D01*
X153060262Y-83155758D01*
X153056598Y-83157220D01*
X152957500Y-83181142D01*
X152457500Y-83181142D01*
X152457500Y-83145472D01*
X152332312Y-83181843D01*
X152332311Y-83181844D01*
X152196391Y-83262226D01*
X152196383Y-83262232D01*
X152084732Y-83373883D01*
X152084726Y-83373891D01*
X152004344Y-83509811D01*
X152004343Y-83509814D01*
X151960289Y-83661446D01*
X151960288Y-83661452D01*
X151957500Y-83696881D01*
X150764259Y-83696881D01*
X150766392Y-83693186D01*
X150800500Y-83565892D01*
X150800500Y-83434108D01*
X150766392Y-83306814D01*
X150700500Y-83192686D01*
X150607314Y-83099500D01*
X150550250Y-83066554D01*
X150493187Y-83033608D01*
X150429539Y-83016554D01*
X150365892Y-82999500D01*
X150234108Y-82999500D01*
X150106812Y-83033608D01*
X149992686Y-83099500D01*
X149992683Y-83099502D01*
X149899502Y-83192683D01*
X149899500Y-83192686D01*
X149833608Y-83306812D01*
X149804669Y-83414815D01*
X149799500Y-83434108D01*
X149300000Y-83434108D01*
X149300000Y-80634986D01*
X149770001Y-80634986D01*
X149780494Y-80737697D01*
X149835641Y-80904119D01*
X149835643Y-80904124D01*
X149927684Y-81053345D01*
X150051654Y-81177315D01*
X150200875Y-81269356D01*
X150200880Y-81269358D01*
X150367302Y-81324505D01*
X150367309Y-81324506D01*
X150470019Y-81334999D01*
X152369999Y-81334999D01*
X152370000Y-81334998D01*
X152370000Y-80495000D01*
X152870000Y-80495000D01*
X152870000Y-81334999D01*
X154769972Y-81334999D01*
X154769986Y-81334998D01*
X154872697Y-81324505D01*
X155039119Y-81269358D01*
X155039124Y-81269356D01*
X155188345Y-81177315D01*
X155312317Y-81053343D01*
X155361340Y-80973864D01*
X155413287Y-80927139D01*
X155482250Y-80915916D01*
X155546332Y-80943759D01*
X155584585Y-80999955D01*
X155640642Y-81169121D01*
X155640643Y-81169124D01*
X155732684Y-81318345D01*
X155848224Y-81433885D01*
X155881709Y-81495208D01*
X155876725Y-81564900D01*
X155857818Y-81598466D01*
X155855055Y-81601960D01*
X155764551Y-81748688D01*
X155764546Y-81748699D01*
X155710319Y-81912347D01*
X155700000Y-82013345D01*
X155700000Y-82050000D01*
X156437500Y-82050000D01*
X156437500Y-81296362D01*
X156457185Y-81229323D01*
X156473819Y-81208681D01*
X156487500Y-81195000D01*
X156487500Y-80450000D01*
X155600000Y-80450000D01*
X155591319Y-80458681D01*
X155529996Y-80492166D01*
X155503638Y-80495000D01*
X152870000Y-80495000D01*
X152370000Y-80495000D01*
X149770001Y-80495000D01*
X149770001Y-80634986D01*
X149300000Y-80634986D01*
X149300000Y-79855013D01*
X149770000Y-79855013D01*
X149770000Y-79995000D01*
X152370000Y-79995000D01*
X152370000Y-79155000D01*
X152870000Y-79155000D01*
X152870000Y-79995000D01*
X155445000Y-79995000D01*
X155453681Y-79986319D01*
X155515004Y-79952834D01*
X155541362Y-79950000D01*
X156487500Y-79950000D01*
X156487500Y-79205000D01*
X156481500Y-79205000D01*
X156414461Y-79185315D01*
X156368706Y-79132511D01*
X156357500Y-79081000D01*
X156357500Y-78350000D01*
X155570001Y-78350000D01*
X155570001Y-78386654D01*
X155580319Y-78487652D01*
X155634546Y-78651300D01*
X155634551Y-78651311D01*
X155725052Y-78798034D01*
X155725055Y-78798038D01*
X155782996Y-78855979D01*
X155816481Y-78917302D01*
X155811497Y-78986994D01*
X155782998Y-79031340D01*
X155732682Y-79081656D01*
X155640643Y-79230875D01*
X155640641Y-79230880D01*
X155585494Y-79397302D01*
X155585493Y-79397309D01*
X155580353Y-79447619D01*
X155553956Y-79512310D01*
X155496775Y-79552461D01*
X155426964Y-79555323D01*
X155366687Y-79519989D01*
X155351456Y-79500111D01*
X155312317Y-79436656D01*
X155188345Y-79312684D01*
X155039124Y-79220643D01*
X155039119Y-79220641D01*
X154872697Y-79165494D01*
X154872690Y-79165493D01*
X154769986Y-79155000D01*
X152870000Y-79155000D01*
X152370000Y-79155000D01*
X150470028Y-79155000D01*
X150470012Y-79155001D01*
X150367302Y-79165494D01*
X150200880Y-79220641D01*
X150200875Y-79220643D01*
X150051654Y-79312684D01*
X149927684Y-79436654D01*
X149835643Y-79585875D01*
X149835641Y-79585880D01*
X149780494Y-79752302D01*
X149780493Y-79752309D01*
X149770000Y-79855013D01*
X149300000Y-79855013D01*
X149300000Y-78224000D01*
X149319685Y-78156961D01*
X149372489Y-78111206D01*
X149424000Y-78100000D01*
X155100000Y-78100000D01*
X156607500Y-78100000D01*
X156733500Y-78100000D01*
X156800539Y-78119685D01*
G37*
%TD.AperFunction*%
%TD*%
%TA.AperFunction,Conductor*%
%TO.N,GND*%
G36*
X157200000Y-73921229D02*
G01*
X157175424Y-73930689D01*
X157175422Y-73930691D01*
X157170614Y-73934495D01*
X157162549Y-73937943D01*
X157126928Y-73969062D01*
X157125023Y-73970570D01*
X157125019Y-73970574D01*
X157103706Y-73987440D01*
X157103704Y-73987442D01*
X157098546Y-73993859D01*
X157093676Y-73998115D01*
X157080000Y-74016937D01*
X157078496Y-74018809D01*
X157078494Y-74018809D01*
X157076500Y-74021291D01*
X157076446Y-74021363D01*
X157065373Y-74035143D01*
X157044968Y-74065804D01*
X157044968Y-74065805D01*
X157044968Y-74065806D01*
X157043314Y-74071710D01*
X157038814Y-74079244D01*
X157028285Y-74125370D01*
X157027633Y-74127699D01*
X157020304Y-74153870D01*
X157020304Y-74153872D01*
X157019901Y-74162103D01*
X157018463Y-74168407D01*
X157018463Y-74191530D01*
X157018348Y-74193883D01*
X157017398Y-74213586D01*
X157017395Y-74213642D01*
X157017023Y-74221268D01*
X157015743Y-74224675D01*
X157016890Y-74234571D01*
X157016891Y-74234573D01*
X157017717Y-74241691D01*
X157018473Y-74248215D01*
X157018575Y-74249091D01*
X157018575Y-74249092D01*
X157019340Y-74255692D01*
X157019999Y-74267092D01*
X157019999Y-75250999D01*
X157001092Y-75309190D01*
X156951592Y-75345154D01*
X156920999Y-75349999D01*
X156769333Y-75349999D01*
X156711142Y-75331092D01*
X156699329Y-75321002D01*
X156687517Y-75309190D01*
X156662014Y-75283686D01*
X156650163Y-75272731D01*
X156638350Y-75262642D01*
X156568392Y-75223464D01*
X156510201Y-75204557D01*
X156510198Y-75204556D01*
X156510199Y-75204556D01*
X156446702Y-75194500D01*
X156446699Y-75194500D01*
X155744500Y-75194500D01*
X154200000Y-73650000D01*
X154200000Y-71300000D01*
X157200000Y-71300000D01*
X157200000Y-73921229D01*
G37*
%TD.AperFunction*%
%TD*%
%TA.AperFunction,Conductor*%
%TO.N,+3.3V*%
G36*
X145623451Y-64518907D02*
G01*
X145624048Y-64519345D01*
X145737116Y-64602792D01*
X145737117Y-64602792D01*
X145737118Y-64602793D01*
X145865301Y-64647646D01*
X145895725Y-64650499D01*
X145895727Y-64650500D01*
X145895734Y-64650500D01*
X147304273Y-64650500D01*
X147304273Y-64650499D01*
X147334699Y-64647646D01*
X147462882Y-64602793D01*
X147509474Y-64568407D01*
X147575952Y-64519345D01*
X147634000Y-64500003D01*
X147634740Y-64500000D01*
X148511885Y-64500000D01*
X148570076Y-64518907D01*
X148591540Y-64540212D01*
X148599284Y-64550705D01*
X148599286Y-64550707D01*
X148599289Y-64550711D01*
X148599292Y-64550713D01*
X148599293Y-64550714D01*
X148705523Y-64629115D01*
X148705524Y-64629115D01*
X148705525Y-64629116D01*
X148830151Y-64672725D01*
X148857441Y-64675284D01*
X148859733Y-64675499D01*
X148859738Y-64675500D01*
X148859744Y-64675500D01*
X149440262Y-64675500D01*
X149440265Y-64675499D01*
X149469849Y-64672725D01*
X149594475Y-64629116D01*
X149700711Y-64550711D01*
X149708460Y-64540212D01*
X149758228Y-64504619D01*
X149788115Y-64500000D01*
X150901000Y-64500000D01*
X150959191Y-64518907D01*
X150995155Y-64568407D01*
X151000000Y-64599000D01*
X151000000Y-68801000D01*
X150981093Y-68859191D01*
X150931593Y-68895155D01*
X150901000Y-68900000D01*
X145549000Y-68900000D01*
X145490809Y-68881093D01*
X145454845Y-68831593D01*
X145450000Y-68801000D01*
X145450000Y-67706185D01*
X145468907Y-67647994D01*
X145518407Y-67612030D01*
X145579593Y-67612030D01*
X145621946Y-67642562D01*
X145622963Y-67641546D01*
X145628209Y-67646792D01*
X145737352Y-67727345D01*
X145865398Y-67772149D01*
X145895789Y-67774999D01*
X146499998Y-67774999D01*
X146500000Y-67774998D01*
X146500000Y-67012501D01*
X146700000Y-67012501D01*
X146700000Y-67774998D01*
X146700001Y-67774999D01*
X147304203Y-67774999D01*
X147334600Y-67772149D01*
X147334602Y-67772149D01*
X147462647Y-67727345D01*
X147571790Y-67646792D01*
X147571792Y-67646790D01*
X147652345Y-67537647D01*
X147697149Y-67409601D01*
X147699999Y-67379211D01*
X147700000Y-67379210D01*
X147700000Y-67012501D01*
X147699999Y-67012500D01*
X146700001Y-67012500D01*
X146700000Y-67012501D01*
X146500000Y-67012501D01*
X146500000Y-66050001D01*
X146700000Y-66050001D01*
X146700000Y-66812499D01*
X146700001Y-66812500D01*
X147699998Y-66812500D01*
X147699999Y-66812499D01*
X147699999Y-66445796D01*
X147697149Y-66415399D01*
X147697149Y-66415397D01*
X147652345Y-66287352D01*
X147571792Y-66178209D01*
X147571790Y-66178207D01*
X147462647Y-66097654D01*
X147334601Y-66052850D01*
X147304211Y-66050000D01*
X146700001Y-66050000D01*
X146700000Y-66050001D01*
X146500000Y-66050001D01*
X146499999Y-66050000D01*
X145895796Y-66050000D01*
X145865399Y-66052850D01*
X145865397Y-66052850D01*
X145737352Y-66097654D01*
X145628209Y-66178207D01*
X145628207Y-66178209D01*
X145547654Y-66287352D01*
X145502850Y-66415398D01*
X145500000Y-66445788D01*
X145500000Y-66811000D01*
X145495155Y-66825911D01*
X145495155Y-66841593D01*
X145485938Y-66854278D01*
X145481093Y-66869191D01*
X145468407Y-66878407D01*
X145459191Y-66891093D01*
X145444278Y-66895938D01*
X145431593Y-66905155D01*
X145401000Y-66910000D01*
X145397397Y-66910000D01*
X145339206Y-66891093D01*
X145317742Y-66869788D01*
X145265715Y-66799294D01*
X145265713Y-66799292D01*
X145265711Y-66799289D01*
X145265706Y-66799285D01*
X145159476Y-66720884D01*
X145034852Y-66677276D01*
X145034851Y-66677275D01*
X145034849Y-66677275D01*
X145034847Y-66677274D01*
X145034844Y-66677274D01*
X145005266Y-66674500D01*
X145005256Y-66674500D01*
X144299744Y-66674500D01*
X144299733Y-66674500D01*
X144270155Y-66677274D01*
X144270147Y-66677276D01*
X144145523Y-66720884D01*
X144039293Y-66799285D01*
X144039284Y-66799294D01*
X143987258Y-66869788D01*
X143937491Y-66905381D01*
X143907603Y-66910000D01*
X143672397Y-66910000D01*
X143614206Y-66891093D01*
X143592742Y-66869788D01*
X143540715Y-66799294D01*
X143540713Y-66799292D01*
X143540711Y-66799289D01*
X143540706Y-66799285D01*
X143434477Y-66720884D01*
X143370850Y-66698620D01*
X143322170Y-66661554D01*
X143304574Y-66602954D01*
X143311566Y-66568569D01*
X143314220Y-66561898D01*
X143353892Y-66493186D01*
X143379290Y-66398394D01*
X143381435Y-66393007D01*
X143397454Y-66373712D01*
X143411115Y-66352677D01*
X143414616Y-66349968D01*
X143440711Y-66330711D01*
X143519116Y-66224475D01*
X143562725Y-66099849D01*
X143565500Y-66070256D01*
X143565500Y-65880001D01*
X144015000Y-65880001D01*
X144015000Y-66070201D01*
X144017771Y-66099758D01*
X144017772Y-66099759D01*
X144061330Y-66224240D01*
X144139641Y-66330348D01*
X144139651Y-66330358D01*
X144245759Y-66408669D01*
X144370240Y-66452227D01*
X144370241Y-66452228D01*
X144399799Y-66455000D01*
X144602499Y-66455000D01*
X144602500Y-66454999D01*
X144602500Y-65880001D01*
X144802500Y-65880001D01*
X144802500Y-66454999D01*
X144802501Y-66455000D01*
X145005201Y-66455000D01*
X145034758Y-66452228D01*
X145034759Y-66452227D01*
X145159240Y-66408669D01*
X145265348Y-66330358D01*
X145265358Y-66330348D01*
X145343669Y-66224240D01*
X145387227Y-66099759D01*
X145387228Y-66099758D01*
X145390000Y-66070201D01*
X145390000Y-65880001D01*
X145389999Y-65880000D01*
X144802501Y-65880000D01*
X144802500Y-65880001D01*
X144602500Y-65880001D01*
X144602499Y-65880000D01*
X144015001Y-65880000D01*
X144015000Y-65880001D01*
X143565500Y-65880001D01*
X143565500Y-65762501D01*
X148475000Y-65762501D01*
X148475000Y-66015201D01*
X148477771Y-66044758D01*
X148477772Y-66044759D01*
X148521330Y-66169240D01*
X148599641Y-66275348D01*
X148599651Y-66275358D01*
X148705759Y-66353669D01*
X148830240Y-66397227D01*
X148830241Y-66397228D01*
X148859799Y-66400000D01*
X149049999Y-66400000D01*
X149050000Y-66399999D01*
X149050000Y-65762501D01*
X149250000Y-65762501D01*
X149250000Y-66399999D01*
X149250001Y-66400000D01*
X149440201Y-66400000D01*
X149469758Y-66397228D01*
X149469759Y-66397227D01*
X149594240Y-66353669D01*
X149700348Y-66275358D01*
X149700358Y-66275348D01*
X149778669Y-66169240D01*
X149822227Y-66044759D01*
X149822228Y-66044758D01*
X149825000Y-66015201D01*
X149825000Y-65762501D01*
X149824999Y-65762500D01*
X149250001Y-65762500D01*
X149250000Y-65762501D01*
X149050000Y-65762501D01*
X149049999Y-65762500D01*
X148475001Y-65762500D01*
X148475000Y-65762501D01*
X143565500Y-65762501D01*
X143565500Y-65489798D01*
X144015000Y-65489798D01*
X144015000Y-65679999D01*
X144015001Y-65680000D01*
X144602499Y-65680000D01*
X144602500Y-65679999D01*
X144602500Y-65105001D01*
X144802500Y-65105001D01*
X144802500Y-65679999D01*
X144802501Y-65680000D01*
X145389999Y-65680000D01*
X145390000Y-65679999D01*
X145390000Y-65489798D01*
X145387228Y-65460241D01*
X145345216Y-65340180D01*
X145345215Y-65340178D01*
X145345215Y-65340177D01*
X145343669Y-65335759D01*
X145324509Y-65309798D01*
X148475000Y-65309798D01*
X148475000Y-65562499D01*
X148475001Y-65562500D01*
X149049999Y-65562500D01*
X149050000Y-65562499D01*
X149050000Y-64925001D01*
X149250000Y-64925001D01*
X149250000Y-65562499D01*
X149250001Y-65562500D01*
X149824999Y-65562500D01*
X149825000Y-65562499D01*
X149825000Y-65309798D01*
X149822228Y-65280241D01*
X149822227Y-65280240D01*
X149778669Y-65155759D01*
X149700358Y-65049651D01*
X149700348Y-65049641D01*
X149594240Y-64971330D01*
X149469759Y-64927772D01*
X149469758Y-64927771D01*
X149440201Y-64925000D01*
X149250001Y-64925000D01*
X149250000Y-64925001D01*
X149050000Y-64925001D01*
X149049999Y-64925000D01*
X148859799Y-64925000D01*
X148830241Y-64927771D01*
X148830240Y-64927772D01*
X148705759Y-64971330D01*
X148599651Y-65049641D01*
X148599641Y-65049651D01*
X148521330Y-65155759D01*
X148477772Y-65280240D01*
X148477771Y-65280241D01*
X148475000Y-65309798D01*
X145324509Y-65309798D01*
X145265358Y-65229651D01*
X145265348Y-65229641D01*
X145159240Y-65151330D01*
X145034759Y-65107772D01*
X145034758Y-65107771D01*
X145005201Y-65105000D01*
X144802501Y-65105000D01*
X144802500Y-65105001D01*
X144602500Y-65105001D01*
X144602499Y-65105000D01*
X144399799Y-65105000D01*
X144370241Y-65107771D01*
X144370240Y-65107772D01*
X144245759Y-65151330D01*
X144139651Y-65229641D01*
X144139641Y-65229651D01*
X144061330Y-65335759D01*
X144017772Y-65460240D01*
X144017771Y-65460241D01*
X144015000Y-65489798D01*
X143565500Y-65489798D01*
X143565500Y-65489744D01*
X143565500Y-65489738D01*
X143565499Y-65489733D01*
X143562725Y-65460155D01*
X143562725Y-65460151D01*
X143519116Y-65335525D01*
X143440711Y-65229289D01*
X143440706Y-65229285D01*
X143334478Y-65150885D01*
X143334473Y-65150883D01*
X143316301Y-65144524D01*
X143267621Y-65107457D01*
X143250000Y-65051080D01*
X143250000Y-64599000D01*
X143268907Y-64540809D01*
X143318407Y-64504845D01*
X143349000Y-64500000D01*
X145565260Y-64500000D01*
X145623451Y-64518907D01*
G37*
%TD.AperFunction*%
%TD*%
%TA.AperFunction,Conductor*%
%TO.N,Net-(U5-SW)*%
G36*
X157540074Y-74118907D02*
G01*
X157576038Y-74168407D01*
X157577237Y-74217917D01*
X157578151Y-74218023D01*
X157577397Y-74224518D01*
X157577409Y-74224996D01*
X157577292Y-74225425D01*
X157574500Y-74249488D01*
X157574500Y-75310500D01*
X157574501Y-75310505D01*
X157577292Y-75334580D01*
X157586090Y-75354503D01*
X157591564Y-75366900D01*
X157600000Y-75406889D01*
X157600000Y-75702006D01*
X157581093Y-75760197D01*
X157531593Y-75796161D01*
X157530953Y-75796366D01*
X157522451Y-75799064D01*
X157506132Y-75801159D01*
X157457759Y-75813782D01*
X157434220Y-75821466D01*
X157422943Y-75829184D01*
X157409599Y-75834887D01*
X157409592Y-75834890D01*
X157402454Y-75837941D01*
X157379006Y-75858424D01*
X157379007Y-75858425D01*
X157374609Y-75862267D01*
X157358750Y-75873123D01*
X157354662Y-75877545D01*
X157355856Y-75878648D01*
X157340360Y-75892187D01*
X157340358Y-75892187D01*
X157333583Y-75898107D01*
X157333580Y-75898110D01*
X157329404Y-75903857D01*
X157322915Y-75911872D01*
X157322405Y-75912437D01*
X157317207Y-75918063D01*
X157316387Y-75919126D01*
X157314057Y-75921717D01*
X157288872Y-75936269D01*
X157264131Y-75951629D01*
X157261802Y-75951911D01*
X157261080Y-75952329D01*
X157259620Y-75952176D01*
X157240462Y-75954500D01*
X157057832Y-75954500D01*
X156999641Y-75935593D01*
X156977740Y-75913692D01*
X156970594Y-75903857D01*
X156966424Y-75898117D01*
X156942183Y-75870372D01*
X156863673Y-75823464D01*
X156863671Y-75823463D01*
X156863669Y-75823462D01*
X156805479Y-75804556D01*
X156805480Y-75804556D01*
X156741983Y-75794500D01*
X156741980Y-75794500D01*
X156399000Y-75794500D01*
X156366856Y-75797030D01*
X156336206Y-75801883D01*
X156331718Y-75802646D01*
X156331713Y-75802647D01*
X156247617Y-75838591D01*
X156198118Y-75874555D01*
X156170372Y-75898797D01*
X156136849Y-75954903D01*
X156136847Y-75954906D01*
X156123464Y-75977307D01*
X156116091Y-76000000D01*
X156100000Y-76000000D01*
X156100000Y-76064271D01*
X156097629Y-76079237D01*
X156097629Y-76079240D01*
X156094500Y-76098997D01*
X156094500Y-76664492D01*
X156075593Y-76722683D01*
X156065504Y-76734496D01*
X154938996Y-77861004D01*
X154884479Y-77888781D01*
X154868992Y-77890000D01*
X150199000Y-77890000D01*
X150140809Y-77871093D01*
X150104845Y-77821593D01*
X150100000Y-77791000D01*
X150100000Y-75499000D01*
X150118907Y-75440809D01*
X150168407Y-75404845D01*
X150199000Y-75400000D01*
X156446699Y-75400000D01*
X156504890Y-75418907D01*
X156516703Y-75428996D01*
X156520784Y-75433077D01*
X156520785Y-75433079D01*
X156596921Y-75509215D01*
X156695420Y-75552707D01*
X156719495Y-75555500D01*
X156980504Y-75555499D01*
X157004580Y-75552707D01*
X157103079Y-75509215D01*
X157179215Y-75433079D01*
X157193821Y-75400000D01*
X157200000Y-75400000D01*
X157200000Y-75386005D01*
X157222707Y-75334580D01*
X157225500Y-75310505D01*
X157225499Y-74249496D01*
X157222707Y-74225420D01*
X157222704Y-74225414D01*
X157222588Y-74224983D01*
X157222608Y-74224568D01*
X157221849Y-74218022D01*
X157222932Y-74217896D01*
X157223963Y-74196718D01*
X157223963Y-74168407D01*
X157225439Y-74166375D01*
X157225561Y-74163870D01*
X157243280Y-74141819D01*
X157259927Y-74118907D01*
X157262315Y-74118131D01*
X157263887Y-74116175D01*
X157318118Y-74100000D01*
X157481883Y-74100000D01*
X157540074Y-74118907D01*
G37*
%TD.AperFunction*%
%TD*%
%TA.AperFunction,Conductor*%
%TO.N,GND*%
G36*
X150351425Y-83208373D02*
G01*
X150401277Y-83221730D01*
X150425153Y-83231620D01*
X150434184Y-83236834D01*
X150469845Y-83257423D01*
X150490349Y-83273155D01*
X150526842Y-83309648D01*
X150542574Y-83330152D01*
X150568379Y-83374847D01*
X150578268Y-83398722D01*
X150585919Y-83427274D01*
X150591626Y-83448570D01*
X150595000Y-83474194D01*
X150595000Y-83525802D01*
X150591626Y-83551426D01*
X150578268Y-83601277D01*
X150568378Y-83625154D01*
X150542574Y-83669847D01*
X150526842Y-83690350D01*
X150490350Y-83726842D01*
X150469846Y-83742574D01*
X150425151Y-83768379D01*
X150401275Y-83778269D01*
X150351428Y-83791626D01*
X150325804Y-83795000D01*
X150274197Y-83795000D01*
X150248575Y-83791627D01*
X150198720Y-83778268D01*
X150174847Y-83768380D01*
X150130151Y-83742574D01*
X150109650Y-83726844D01*
X150073155Y-83690349D01*
X150057423Y-83669845D01*
X150042790Y-83644500D01*
X150031620Y-83625153D01*
X150021730Y-83601277D01*
X150008373Y-83551425D01*
X150005000Y-83525803D01*
X150005000Y-83474194D01*
X150008373Y-83448573D01*
X150019152Y-83408342D01*
X150021730Y-83398720D01*
X150031620Y-83374844D01*
X150057426Y-83330147D01*
X150073145Y-83309660D01*
X150109656Y-83273148D01*
X150130145Y-83257427D01*
X150174848Y-83231617D01*
X150198722Y-83221729D01*
X150211880Y-83218204D01*
X150248575Y-83208373D01*
X150274195Y-83205000D01*
X150325803Y-83205000D01*
X150351425Y-83208373D01*
G37*
%TD.AperFunction*%
%TA.AperFunction,Conductor*%
G36*
X156997905Y-76847550D02*
G01*
X156998098Y-76846889D01*
X157005301Y-76848988D01*
X157005345Y-76848997D01*
X157005369Y-76849008D01*
X157050879Y-76854999D01*
X157249114Y-76854999D01*
X157294625Y-76849008D01*
X157294643Y-76849001D01*
X157294666Y-76848998D01*
X157301898Y-76846890D01*
X157302241Y-76848067D01*
X157355371Y-76841536D01*
X157408889Y-76871192D01*
X157432120Y-76913096D01*
X157441626Y-76948572D01*
X157445000Y-76974196D01*
X157445000Y-77025804D01*
X157441626Y-77051428D01*
X157428269Y-77101275D01*
X157418379Y-77125151D01*
X157392574Y-77169846D01*
X157376842Y-77190350D01*
X157340348Y-77226844D01*
X157319846Y-77242575D01*
X157319845Y-77242576D01*
X157291416Y-77258990D01*
X157275158Y-77268377D01*
X157275156Y-77268378D01*
X157251279Y-77278268D01*
X157201429Y-77291626D01*
X157175805Y-77295000D01*
X157124200Y-77295000D01*
X157098577Y-77291627D01*
X157048721Y-77278268D01*
X157024843Y-77268377D01*
X156980154Y-77242575D01*
X156959651Y-77226843D01*
X156923149Y-77190341D01*
X156907417Y-77169837D01*
X156881622Y-77125159D01*
X156871732Y-77101283D01*
X156858373Y-77051424D01*
X156855000Y-77025802D01*
X156855000Y-76974194D01*
X156858373Y-76948574D01*
X156862256Y-76934077D01*
X156867878Y-76913098D01*
X156901199Y-76861785D01*
X156958320Y-76839856D01*
X156997905Y-76847550D01*
G37*
%TD.AperFunction*%
%TA.AperFunction,Conductor*%
G36*
X157200443Y-73809134D02*
G01*
X157200634Y-73813978D01*
X157201853Y-73829461D01*
X157202708Y-73834246D01*
X157201622Y-73834439D01*
X157200825Y-73854690D01*
X157202643Y-73879980D01*
X157200000Y-73883634D01*
X157200000Y-73797847D01*
X157200443Y-73809134D01*
G37*
%TD.AperFunction*%
%TA.AperFunction,Conductor*%
G36*
X145837112Y-62719407D02*
G01*
X145873076Y-62768907D01*
X145873076Y-62830093D01*
X145837112Y-62879593D01*
X145813517Y-62892258D01*
X145707911Y-62931646D01*
X145707909Y-62931647D01*
X145592815Y-63017807D01*
X145592807Y-63017815D01*
X145506647Y-63132909D01*
X145506646Y-63132911D01*
X145456403Y-63267618D01*
X145456401Y-63267629D01*
X145450000Y-63327175D01*
X145450000Y-63662499D01*
X145450001Y-63662500D01*
X147749999Y-63662500D01*
X147750000Y-63662499D01*
X147750000Y-63590873D01*
X148425000Y-63590873D01*
X148425000Y-63812499D01*
X148425001Y-63812500D01*
X149024999Y-63812500D01*
X149025000Y-63812499D01*
X149025000Y-63150001D01*
X149275000Y-63150001D01*
X149275000Y-63812499D01*
X149275001Y-63812500D01*
X149874999Y-63812500D01*
X149875000Y-63812499D01*
X149875000Y-63590873D01*
X149868758Y-63532810D01*
X149819767Y-63401464D01*
X149735758Y-63289241D01*
X149623535Y-63205232D01*
X149492188Y-63156241D01*
X149492190Y-63156241D01*
X149434126Y-63150000D01*
X149275001Y-63150000D01*
X149275000Y-63150001D01*
X149025000Y-63150001D01*
X149024999Y-63150000D01*
X148865873Y-63150000D01*
X148807810Y-63156241D01*
X148676464Y-63205232D01*
X148564241Y-63289241D01*
X148480232Y-63401464D01*
X148431241Y-63532810D01*
X148425000Y-63590873D01*
X147750000Y-63590873D01*
X147750000Y-63327175D01*
X147743598Y-63267629D01*
X147743596Y-63267618D01*
X147693353Y-63132911D01*
X147693352Y-63132909D01*
X147607192Y-63017815D01*
X147607184Y-63017807D01*
X147492090Y-62931647D01*
X147492088Y-62931646D01*
X147386483Y-62892258D01*
X147338568Y-62854208D01*
X147322170Y-62795261D01*
X147343552Y-62737933D01*
X147394546Y-62704122D01*
X147421079Y-62700500D01*
X165700500Y-62700500D01*
X165758691Y-62719407D01*
X165794655Y-62768907D01*
X165799500Y-62799500D01*
X165799500Y-90900500D01*
X165780593Y-90958691D01*
X165731093Y-90994655D01*
X165700500Y-90999500D01*
X158892677Y-90999500D01*
X158680235Y-91030045D01*
X158680233Y-91030045D01*
X158474294Y-91090514D01*
X158279048Y-91179680D01*
X158279040Y-91179684D01*
X158098494Y-91295713D01*
X158098482Y-91295722D01*
X157936285Y-91436267D01*
X157936267Y-91436285D01*
X157795722Y-91598482D01*
X157795713Y-91598494D01*
X157679684Y-91779040D01*
X157679680Y-91779048D01*
X157679679Y-91779050D01*
X157662235Y-91817247D01*
X157590514Y-91974294D01*
X157530045Y-92180233D01*
X157530045Y-92180235D01*
X157499500Y-92392676D01*
X157499500Y-98900500D01*
X157480593Y-98958691D01*
X157431093Y-98994655D01*
X157400500Y-98999500D01*
X141899500Y-98999500D01*
X141841309Y-98980593D01*
X141805345Y-98931093D01*
X141800500Y-98900500D01*
X141800500Y-94280253D01*
X142599500Y-94280253D01*
X142599500Y-97719746D01*
X142599501Y-97719758D01*
X142611132Y-97778227D01*
X142611134Y-97778233D01*
X142628019Y-97803503D01*
X142655448Y-97844552D01*
X142721769Y-97888867D01*
X142766231Y-97897711D01*
X142780241Y-97900498D01*
X142780246Y-97900498D01*
X142780252Y-97900500D01*
X142780253Y-97900500D01*
X146219747Y-97900500D01*
X146219748Y-97900500D01*
X146278231Y-97888867D01*
X146344552Y-97844552D01*
X146388867Y-97778231D01*
X146400500Y-97719748D01*
X146400500Y-95875433D01*
X147679500Y-95875433D01*
X147679500Y-96124566D01*
X147712017Y-96371557D01*
X147712017Y-96371562D01*
X147776496Y-96612199D01*
X147776500Y-96612212D01*
X147871832Y-96842365D01*
X147871834Y-96842369D01*
X147871836Y-96842373D01*
X147996401Y-97058127D01*
X147996403Y-97058130D01*
X148148056Y-97255769D01*
X148148058Y-97255771D01*
X148148062Y-97255776D01*
X148324224Y-97431938D01*
X148324228Y-97431941D01*
X148324230Y-97431943D01*
X148521869Y-97583596D01*
X148521873Y-97583599D01*
X148737627Y-97708164D01*
X148967793Y-97803502D01*
X149208435Y-97867982D01*
X149455435Y-97900500D01*
X149455436Y-97900500D01*
X149704564Y-97900500D01*
X149704565Y-97900500D01*
X149951565Y-97867982D01*
X150192207Y-97803502D01*
X150422373Y-97708164D01*
X150638127Y-97583599D01*
X150835776Y-97431938D01*
X151011938Y-97255776D01*
X151163599Y-97058127D01*
X151288164Y-96842373D01*
X151383502Y-96612207D01*
X151447982Y-96371565D01*
X151480500Y-96124565D01*
X151480500Y-95875435D01*
X151447982Y-95628435D01*
X151383502Y-95387793D01*
X151288164Y-95157627D01*
X151163599Y-94941873D01*
X151011938Y-94744224D01*
X150835776Y-94568062D01*
X150835771Y-94568058D01*
X150835769Y-94568056D01*
X150638130Y-94416403D01*
X150638127Y-94416401D01*
X150422373Y-94291836D01*
X150422369Y-94291834D01*
X150422365Y-94291832D01*
X150192212Y-94196500D01*
X150192211Y-94196499D01*
X150192207Y-94196498D01*
X149951565Y-94132018D01*
X149951562Y-94132017D01*
X149951560Y-94132017D01*
X149704566Y-94099500D01*
X149704565Y-94099500D01*
X149455435Y-94099500D01*
X149455433Y-94099500D01*
X149208442Y-94132017D01*
X149208437Y-94132017D01*
X148967800Y-94196496D01*
X148967787Y-94196500D01*
X148737634Y-94291832D01*
X148521869Y-94416403D01*
X148324230Y-94568056D01*
X148148056Y-94744230D01*
X147996403Y-94941869D01*
X147871832Y-95157634D01*
X147776500Y-95387787D01*
X147776496Y-95387800D01*
X147712017Y-95628437D01*
X147712017Y-95628442D01*
X147679500Y-95875433D01*
X146400500Y-95875433D01*
X146400500Y-94280252D01*
X146388867Y-94221769D01*
X146344552Y-94155448D01*
X146338394Y-94151333D01*
X146278233Y-94111134D01*
X146278231Y-94111133D01*
X146278228Y-94111132D01*
X146278227Y-94111132D01*
X146219758Y-94099501D01*
X146219748Y-94099500D01*
X142780252Y-94099500D01*
X142780251Y-94099500D01*
X142780241Y-94099501D01*
X142721772Y-94111132D01*
X142721766Y-94111134D01*
X142655451Y-94155445D01*
X142655445Y-94155451D01*
X142611134Y-94221766D01*
X142611132Y-94221772D01*
X142599501Y-94280241D01*
X142599500Y-94280253D01*
X141800500Y-94280253D01*
X141800500Y-88084733D01*
X142234500Y-88084733D01*
X142234500Y-88690266D01*
X142237274Y-88719844D01*
X142237276Y-88719852D01*
X142280884Y-88844476D01*
X142359285Y-88950706D01*
X142359289Y-88950711D01*
X142359292Y-88950713D01*
X142359293Y-88950714D01*
X142465523Y-89029115D01*
X142465524Y-89029115D01*
X142465525Y-89029116D01*
X142590151Y-89072725D01*
X142617441Y-89075284D01*
X142619733Y-89075499D01*
X142619738Y-89075500D01*
X142619744Y-89075500D01*
X143102021Y-89075500D01*
X143160212Y-89094407D01*
X143172025Y-89104496D01*
X143452040Y-89384511D01*
X143452039Y-89384511D01*
X143504211Y-89436682D01*
X143507624Y-89443381D01*
X143517881Y-89446171D01*
X143576511Y-89480021D01*
X143652935Y-89500499D01*
X143652937Y-89500500D01*
X143933913Y-89500500D01*
X143992104Y-89519407D01*
X144028068Y-89568907D01*
X144028068Y-89630093D01*
X143992104Y-89679593D01*
X143978859Y-89687709D01*
X143911659Y-89721949D01*
X143911658Y-89721950D01*
X143821950Y-89811658D01*
X143779257Y-89895446D01*
X143762867Y-89911836D01*
X143749240Y-89930593D01*
X143741642Y-89933061D01*
X143735994Y-89938710D01*
X143691049Y-89949500D01*
X143677236Y-89949500D01*
X143619045Y-89930593D01*
X143583792Y-89883198D01*
X143551338Y-89790454D01*
X143539116Y-89755525D01*
X143529869Y-89742996D01*
X143460714Y-89649293D01*
X143460713Y-89649292D01*
X143460711Y-89649289D01*
X143428212Y-89625304D01*
X143409594Y-89611563D01*
X143398451Y-89595981D01*
X143375421Y-89586342D01*
X143354475Y-89570884D01*
X143354476Y-89570884D01*
X143229852Y-89527276D01*
X143229851Y-89527275D01*
X143229849Y-89527275D01*
X143229847Y-89527274D01*
X143229844Y-89527274D01*
X143200266Y-89524500D01*
X143200256Y-89524500D01*
X142619744Y-89524500D01*
X142619733Y-89524500D01*
X142590155Y-89527274D01*
X142590147Y-89527276D01*
X142465523Y-89570884D01*
X142359293Y-89649285D01*
X142359285Y-89649293D01*
X142280884Y-89755523D01*
X142237276Y-89880147D01*
X142237274Y-89880155D01*
X142234500Y-89909733D01*
X142234500Y-90515266D01*
X142237274Y-90544844D01*
X142237276Y-90544852D01*
X142280884Y-90669476D01*
X142294808Y-90688342D01*
X142359289Y-90775711D01*
X142359292Y-90775713D01*
X142359293Y-90775714D01*
X142465523Y-90854115D01*
X142465524Y-90854115D01*
X142465525Y-90854116D01*
X142590151Y-90897725D01*
X142617441Y-90900284D01*
X142619733Y-90900499D01*
X142619738Y-90900500D01*
X142619744Y-90900500D01*
X143200262Y-90900500D01*
X143200265Y-90900499D01*
X143229849Y-90897725D01*
X143354475Y-90854116D01*
X143460711Y-90775711D01*
X143539116Y-90669475D01*
X143540658Y-90665066D01*
X143557548Y-90616802D01*
X143575422Y-90593326D01*
X143592801Y-90569407D01*
X143593908Y-90569047D01*
X143594614Y-90568121D01*
X143650992Y-90550500D01*
X143691049Y-90550500D01*
X143749240Y-90569407D01*
X143779257Y-90604552D01*
X143821950Y-90688342D01*
X143911658Y-90778050D01*
X143986606Y-90816238D01*
X143992684Y-90819335D01*
X144035948Y-90862599D01*
X144045519Y-90923032D01*
X144035734Y-90950668D01*
X144036092Y-90950817D01*
X144033609Y-90956809D01*
X144022170Y-90999500D01*
X143999500Y-91084108D01*
X143999500Y-91215892D01*
X144020890Y-91295722D01*
X144033609Y-91343190D01*
X144099496Y-91457309D01*
X144099498Y-91457311D01*
X144099500Y-91457314D01*
X144120505Y-91478319D01*
X144148281Y-91532834D01*
X144149500Y-91548321D01*
X144149500Y-92439564D01*
X144169978Y-92515988D01*
X144169980Y-92515992D01*
X144209538Y-92584508D01*
X144209540Y-92584511D01*
X145109540Y-93484511D01*
X145109539Y-93484511D01*
X145165489Y-93540460D01*
X145234007Y-93580019D01*
X145234011Y-93580021D01*
X145310435Y-93600499D01*
X145310437Y-93600500D01*
X145310438Y-93600500D01*
X148351679Y-93600500D01*
X148409870Y-93619407D01*
X148421676Y-93629490D01*
X148492686Y-93700500D01*
X148492688Y-93700501D01*
X148492690Y-93700503D01*
X148606810Y-93766390D01*
X148606808Y-93766390D01*
X148606812Y-93766391D01*
X148606814Y-93766392D01*
X148734108Y-93800500D01*
X148734110Y-93800500D01*
X148865890Y-93800500D01*
X148865892Y-93800500D01*
X148993186Y-93766392D01*
X148993188Y-93766390D01*
X148993190Y-93766390D01*
X149107309Y-93700503D01*
X149107309Y-93700502D01*
X149107314Y-93700500D01*
X149178319Y-93629494D01*
X149232834Y-93601719D01*
X149248321Y-93600500D01*
X153834521Y-93600500D01*
X153892712Y-93619407D01*
X153904525Y-93629496D01*
X154260731Y-93985702D01*
X154288508Y-94040219D01*
X154278937Y-94100651D01*
X154235672Y-94143916D01*
X154216350Y-94151333D01*
X154047800Y-94196496D01*
X154047787Y-94196500D01*
X153817634Y-94291832D01*
X153601869Y-94416403D01*
X153404230Y-94568056D01*
X153228056Y-94744230D01*
X153076403Y-94941869D01*
X152951832Y-95157634D01*
X152856500Y-95387787D01*
X152856496Y-95387800D01*
X152792017Y-95628437D01*
X152792017Y-95628442D01*
X152759500Y-95875433D01*
X152759500Y-96124566D01*
X152792017Y-96371557D01*
X152792017Y-96371562D01*
X152856496Y-96612199D01*
X152856500Y-96612212D01*
X152951832Y-96842365D01*
X152951834Y-96842369D01*
X152951836Y-96842373D01*
X153076401Y-97058127D01*
X153076403Y-97058130D01*
X153228056Y-97255769D01*
X153228058Y-97255771D01*
X153228062Y-97255776D01*
X153404224Y-97431938D01*
X153404228Y-97431941D01*
X153404230Y-97431943D01*
X153601869Y-97583596D01*
X153601873Y-97583599D01*
X153817627Y-97708164D01*
X154047793Y-97803502D01*
X154288435Y-97867982D01*
X154535435Y-97900500D01*
X154535436Y-97900500D01*
X154784564Y-97900500D01*
X154784565Y-97900500D01*
X155031565Y-97867982D01*
X155272207Y-97803502D01*
X155502373Y-97708164D01*
X155718127Y-97583599D01*
X155915776Y-97431938D01*
X156091938Y-97255776D01*
X156243599Y-97058127D01*
X156368164Y-96842373D01*
X156463502Y-96612207D01*
X156527982Y-96371565D01*
X156560500Y-96124565D01*
X156560500Y-95875435D01*
X156527982Y-95628435D01*
X156463502Y-95387793D01*
X156368164Y-95157627D01*
X156243599Y-94941873D01*
X156091938Y-94744224D01*
X155915776Y-94568062D01*
X155915771Y-94568058D01*
X155915769Y-94568056D01*
X155718130Y-94416403D01*
X155718127Y-94416401D01*
X155502373Y-94291836D01*
X155502369Y-94291834D01*
X155502365Y-94291832D01*
X155272212Y-94196500D01*
X155272211Y-94196499D01*
X155272207Y-94196498D01*
X155033875Y-94132637D01*
X154982563Y-94099314D01*
X154960636Y-94042192D01*
X154960500Y-94037011D01*
X154960500Y-93920437D01*
X154960499Y-93920435D01*
X154940021Y-93844011D01*
X154940019Y-93844007D01*
X154900460Y-93775489D01*
X154844511Y-93719539D01*
X154844511Y-93719540D01*
X154184511Y-93059540D01*
X154175066Y-93054087D01*
X154115989Y-93019979D01*
X154115988Y-93019978D01*
X154115987Y-93019978D01*
X154039564Y-92999500D01*
X154039562Y-92999500D01*
X149248321Y-92999500D01*
X149190130Y-92980593D01*
X149178323Y-92970509D01*
X149107314Y-92899500D01*
X149107311Y-92899498D01*
X149107309Y-92899496D01*
X148993189Y-92833609D01*
X148993191Y-92833609D01*
X148943799Y-92820375D01*
X148865892Y-92799500D01*
X148734108Y-92799500D01*
X148656200Y-92820375D01*
X148606809Y-92833609D01*
X148492690Y-92899496D01*
X148492689Y-92899497D01*
X148492686Y-92899499D01*
X148492686Y-92899500D01*
X148421680Y-92970505D01*
X148367166Y-92998281D01*
X148351679Y-92999500D01*
X145515479Y-92999500D01*
X145457288Y-92980593D01*
X145445475Y-92970504D01*
X144779496Y-92304525D01*
X144751719Y-92250008D01*
X144750500Y-92234521D01*
X144750500Y-91640458D01*
X144769407Y-91582267D01*
X144799999Y-91554722D01*
X144807314Y-91550500D01*
X144900500Y-91457314D01*
X144912652Y-91436267D01*
X144966390Y-91343190D01*
X144966390Y-91343188D01*
X144966392Y-91343186D01*
X145000500Y-91215892D01*
X145000500Y-91084108D01*
X144971297Y-90975120D01*
X144974500Y-90914020D01*
X145013005Y-90866471D01*
X145066924Y-90850499D01*
X145681521Y-90850499D01*
X145681522Y-90850498D01*
X145728411Y-90843072D01*
X145775299Y-90835647D01*
X145775299Y-90835646D01*
X145775304Y-90835646D01*
X145888342Y-90778050D01*
X145978050Y-90688342D01*
X146035646Y-90575304D01*
X146035645Y-90575304D01*
X146039184Y-90568361D01*
X146042069Y-90569831D01*
X146069646Y-90531894D01*
X146127818Y-90513000D01*
X149445886Y-90513000D01*
X149504077Y-90531907D01*
X149539330Y-90579302D01*
X149570884Y-90669475D01*
X149570884Y-90669476D01*
X149584808Y-90688342D01*
X149649289Y-90775711D01*
X149649292Y-90775713D01*
X149649293Y-90775714D01*
X149755523Y-90854115D01*
X149755524Y-90854115D01*
X149755525Y-90854116D01*
X149880151Y-90897725D01*
X149907441Y-90900284D01*
X149909733Y-90900499D01*
X149909738Y-90900500D01*
X149909744Y-90900500D01*
X150490262Y-90900500D01*
X150490265Y-90900499D01*
X150519849Y-90897725D01*
X150644475Y-90854116D01*
X150750711Y-90775711D01*
X150829116Y-90669475D01*
X150872725Y-90544849D01*
X150875500Y-90515256D01*
X150875500Y-90393709D01*
X152949500Y-90393709D01*
X152949500Y-90606290D01*
X152982752Y-90816238D01*
X153048443Y-91018412D01*
X153144948Y-91207815D01*
X153144950Y-91207819D01*
X153269891Y-91379786D01*
X153269893Y-91379788D01*
X153269896Y-91379792D01*
X153420208Y-91530104D01*
X153420211Y-91530106D01*
X153420213Y-91530108D01*
X153592180Y-91655049D01*
X153592184Y-91655051D01*
X153781588Y-91751557D01*
X153983757Y-91817246D01*
X153983758Y-91817246D01*
X153983761Y-91817247D01*
X154193710Y-91850500D01*
X154193713Y-91850500D01*
X154406290Y-91850500D01*
X154616238Y-91817247D01*
X154616239Y-91817246D01*
X154616243Y-91817246D01*
X154818412Y-91751557D01*
X155007816Y-91655051D01*
X155179792Y-91530104D01*
X155330104Y-91379792D01*
X155413402Y-91265141D01*
X155455049Y-91207819D01*
X155455051Y-91207816D01*
X155551557Y-91018412D01*
X155617246Y-90816243D01*
X155623666Y-90775711D01*
X155650500Y-90606290D01*
X155650500Y-90393709D01*
X155617247Y-90183761D01*
X155617246Y-90183757D01*
X155551557Y-89981588D01*
X155455051Y-89792184D01*
X155455049Y-89792180D01*
X155330108Y-89620213D01*
X155330106Y-89620211D01*
X155330104Y-89620208D01*
X155179792Y-89469896D01*
X155179788Y-89469893D01*
X155179786Y-89469891D01*
X155007819Y-89344950D01*
X155007815Y-89344948D01*
X154818412Y-89248443D01*
X154616238Y-89182752D01*
X154406290Y-89149500D01*
X154406287Y-89149500D01*
X154193713Y-89149500D01*
X154193710Y-89149500D01*
X153983761Y-89182752D01*
X153781587Y-89248443D01*
X153592184Y-89344948D01*
X153592180Y-89344950D01*
X153420213Y-89469891D01*
X153269891Y-89620213D01*
X153144950Y-89792180D01*
X153144948Y-89792184D01*
X153048443Y-89981587D01*
X152982752Y-90183761D01*
X152949500Y-90393709D01*
X150875500Y-90393709D01*
X150875500Y-89909744D01*
X150875500Y-89909738D01*
X150875499Y-89909733D01*
X150874059Y-89894379D01*
X150872725Y-89880151D01*
X150829116Y-89755525D01*
X150819869Y-89742996D01*
X150750714Y-89649293D01*
X150750713Y-89649292D01*
X150750711Y-89649289D01*
X150750706Y-89649285D01*
X150644476Y-89570884D01*
X150519852Y-89527276D01*
X150519851Y-89527275D01*
X150519849Y-89527275D01*
X150519847Y-89527274D01*
X150519844Y-89527274D01*
X150490266Y-89524500D01*
X150490256Y-89524500D01*
X149909744Y-89524500D01*
X149909733Y-89524500D01*
X149880155Y-89527274D01*
X149880147Y-89527276D01*
X149755523Y-89570884D01*
X149649293Y-89649285D01*
X149649285Y-89649293D01*
X149570884Y-89755523D01*
X149570884Y-89755524D01*
X149539330Y-89845698D01*
X149502264Y-89894379D01*
X149445886Y-89912000D01*
X149043399Y-89912000D01*
X148985208Y-89893093D01*
X148949244Y-89843593D01*
X148949244Y-89782407D01*
X148973393Y-89742998D01*
X148978050Y-89738342D01*
X149035646Y-89625304D01*
X149050500Y-89531519D01*
X149050499Y-89068482D01*
X149044265Y-89029116D01*
X149035647Y-88974700D01*
X149035646Y-88974698D01*
X149035646Y-88974696D01*
X148978050Y-88861658D01*
X148888342Y-88771950D01*
X148775304Y-88714354D01*
X148775305Y-88714354D01*
X148681522Y-88699500D01*
X148681519Y-88699500D01*
X148464478Y-88699500D01*
X148406287Y-88680593D01*
X148370323Y-88631093D01*
X148370323Y-88569907D01*
X148394474Y-88530496D01*
X148995475Y-87929496D01*
X149049992Y-87901719D01*
X149065479Y-87900500D01*
X149441862Y-87900500D01*
X149500053Y-87919407D01*
X149536017Y-87968907D01*
X149536017Y-88030093D01*
X149535307Y-88032197D01*
X149527275Y-88055151D01*
X149527274Y-88055155D01*
X149524500Y-88084733D01*
X149524500Y-88690266D01*
X149527274Y-88719844D01*
X149527276Y-88719852D01*
X149570884Y-88844476D01*
X149649285Y-88950706D01*
X149649289Y-88950711D01*
X149649292Y-88950713D01*
X149649293Y-88950714D01*
X149755523Y-89029115D01*
X149755524Y-89029115D01*
X149755525Y-89029116D01*
X149880151Y-89072725D01*
X149907441Y-89075284D01*
X149909733Y-89075499D01*
X149909738Y-89075500D01*
X149909744Y-89075500D01*
X150490262Y-89075500D01*
X150490265Y-89075499D01*
X150519849Y-89072725D01*
X150644475Y-89029116D01*
X150750711Y-88950711D01*
X150829116Y-88844475D01*
X150854494Y-88771950D01*
X150860670Y-88754302D01*
X150897736Y-88705621D01*
X150954114Y-88688000D01*
X159152063Y-88688000D01*
X159152063Y-88687999D01*
X159228489Y-88667521D01*
X159297011Y-88627960D01*
X159352960Y-88572011D01*
X160702960Y-87222011D01*
X160720444Y-87191728D01*
X160721780Y-87189415D01*
X160742520Y-87153490D01*
X160742521Y-87153489D01*
X160763000Y-87077062D01*
X160763000Y-86549500D01*
X160781907Y-86491309D01*
X160831407Y-86455345D01*
X160862000Y-86450500D01*
X161083257Y-86450500D01*
X161083260Y-86450500D01*
X161151393Y-86440573D01*
X161256483Y-86389198D01*
X161339198Y-86306483D01*
X161390573Y-86201393D01*
X161400500Y-86133260D01*
X161400500Y-85766740D01*
X161390573Y-85698607D01*
X161339198Y-85593517D01*
X161256483Y-85510802D01*
X161245728Y-85505544D01*
X161151395Y-85459427D01*
X161124139Y-85455456D01*
X161083260Y-85449500D01*
X159841740Y-85449500D01*
X159807673Y-85454463D01*
X159773604Y-85459427D01*
X159668518Y-85510801D01*
X159585801Y-85593518D01*
X159534427Y-85698604D01*
X159534427Y-85698607D01*
X159524500Y-85766740D01*
X159524500Y-86133260D01*
X159531118Y-86178682D01*
X159534427Y-86201395D01*
X159566403Y-86266802D01*
X159585802Y-86306483D01*
X159668517Y-86389198D01*
X159722285Y-86415483D01*
X159773604Y-86440572D01*
X159773605Y-86440572D01*
X159773607Y-86440573D01*
X159841740Y-86450500D01*
X160063000Y-86450500D01*
X160121191Y-86469407D01*
X160157155Y-86518907D01*
X160162000Y-86549500D01*
X160162000Y-86872021D01*
X160143093Y-86930212D01*
X160133004Y-86942025D01*
X159017025Y-88058004D01*
X158962508Y-88085781D01*
X158947021Y-88087000D01*
X158195513Y-88087000D01*
X158137322Y-88068093D01*
X158101358Y-88018593D01*
X158101358Y-87957407D01*
X158137322Y-87907907D01*
X158169885Y-87892374D01*
X158215989Y-87880021D01*
X158284511Y-87840460D01*
X158322001Y-87802970D01*
X158340461Y-87784511D01*
X158623978Y-87500993D01*
X158752960Y-87372011D01*
X158772596Y-87338000D01*
X158792521Y-87303489D01*
X158813000Y-87227062D01*
X158813000Y-86654113D01*
X158831907Y-86595922D01*
X158879301Y-86560669D01*
X158969475Y-86529116D01*
X159075711Y-86450711D01*
X159154116Y-86344475D01*
X159197725Y-86219849D01*
X159200500Y-86190256D01*
X159200500Y-85609744D01*
X159200500Y-85609738D01*
X159200499Y-85609733D01*
X159197725Y-85580155D01*
X159197725Y-85580151D01*
X159154116Y-85455525D01*
X159150041Y-85450004D01*
X159075714Y-85349293D01*
X159075713Y-85349292D01*
X159075711Y-85349289D01*
X159075706Y-85349285D01*
X158969476Y-85270884D01*
X158879302Y-85239330D01*
X158855826Y-85221455D01*
X158831907Y-85204077D01*
X158831547Y-85202969D01*
X158830621Y-85202264D01*
X158813000Y-85145886D01*
X158813000Y-85125001D01*
X161350001Y-85125001D01*
X161350001Y-85181485D01*
X161364833Y-85275141D01*
X161364836Y-85275151D01*
X161422358Y-85388043D01*
X161511956Y-85477641D01*
X161624848Y-85535163D01*
X161624852Y-85535164D01*
X161718515Y-85549999D01*
X162212498Y-85549999D01*
X162212500Y-85549998D01*
X162212500Y-85125001D01*
X162462500Y-85125001D01*
X162462500Y-85549998D01*
X162462501Y-85549999D01*
X162956483Y-85549999D01*
X162956485Y-85549998D01*
X163050141Y-85535166D01*
X163050151Y-85535163D01*
X163163043Y-85477641D01*
X163252641Y-85388043D01*
X163310163Y-85275151D01*
X163310164Y-85275147D01*
X163325000Y-85181484D01*
X163325000Y-85125001D01*
X163324999Y-85125000D01*
X162462501Y-85125000D01*
X162462500Y-85125001D01*
X162212500Y-85125001D01*
X162212499Y-85125000D01*
X161350002Y-85125000D01*
X161350001Y-85125001D01*
X158813000Y-85125001D01*
X158813000Y-84854113D01*
X158824566Y-84818515D01*
X161350000Y-84818515D01*
X161350000Y-84874999D01*
X161350001Y-84875000D01*
X162212499Y-84875000D01*
X162212500Y-84874999D01*
X162212500Y-84450001D01*
X162462500Y-84450001D01*
X162462500Y-84874999D01*
X162462501Y-84875000D01*
X163324998Y-84875000D01*
X163324999Y-84874999D01*
X163324999Y-84818516D01*
X163324998Y-84818514D01*
X163310166Y-84724858D01*
X163310163Y-84724848D01*
X163252641Y-84611956D01*
X163163043Y-84522358D01*
X163050151Y-84464836D01*
X163050147Y-84464835D01*
X162956484Y-84450000D01*
X162462501Y-84450000D01*
X162462500Y-84450001D01*
X162212500Y-84450001D01*
X162212499Y-84450000D01*
X161718516Y-84450000D01*
X161718514Y-84450001D01*
X161624858Y-84464833D01*
X161624848Y-84464836D01*
X161511956Y-84522358D01*
X161422358Y-84611956D01*
X161364836Y-84724848D01*
X161364835Y-84724852D01*
X161350000Y-84818515D01*
X158824566Y-84818515D01*
X158831907Y-84795922D01*
X158879301Y-84760669D01*
X158969475Y-84729116D01*
X159075711Y-84650711D01*
X159154116Y-84544475D01*
X159197725Y-84419849D01*
X159200500Y-84390256D01*
X159200500Y-83809744D01*
X159200500Y-83809738D01*
X159200499Y-83809733D01*
X159197725Y-83780155D01*
X159197725Y-83780151D01*
X159154116Y-83655525D01*
X159145979Y-83644500D01*
X159075714Y-83549293D01*
X159075713Y-83549292D01*
X159075711Y-83549289D01*
X159075706Y-83549285D01*
X158969476Y-83470884D01*
X158844852Y-83427276D01*
X158844851Y-83427275D01*
X158844849Y-83427275D01*
X158844847Y-83427274D01*
X158844844Y-83427274D01*
X158815266Y-83424500D01*
X158815256Y-83424500D01*
X158209744Y-83424500D01*
X158209717Y-83424500D01*
X158209092Y-83424529D01*
X158208986Y-83424500D01*
X158207429Y-83424500D01*
X158207429Y-83424072D01*
X158150087Y-83408342D01*
X158111866Y-83360563D01*
X158105500Y-83325636D01*
X158105500Y-83074363D01*
X158124407Y-83016172D01*
X158173907Y-82980208D01*
X158207429Y-82975699D01*
X158207429Y-82975500D01*
X158208910Y-82975500D01*
X158209126Y-82975471D01*
X158209742Y-82975499D01*
X158209744Y-82975500D01*
X158209746Y-82975500D01*
X158815262Y-82975500D01*
X158815265Y-82975499D01*
X158844849Y-82972725D01*
X158969475Y-82929116D01*
X159075711Y-82850711D01*
X159154116Y-82744475D01*
X159181295Y-82666801D01*
X159199172Y-82643322D01*
X159216548Y-82619407D01*
X159217655Y-82619047D01*
X159218360Y-82618122D01*
X159274739Y-82600500D01*
X159425261Y-82600500D01*
X159483452Y-82619407D01*
X159518705Y-82666802D01*
X159545884Y-82744476D01*
X159624285Y-82850706D01*
X159624289Y-82850711D01*
X159624292Y-82850713D01*
X159624293Y-82850714D01*
X159730523Y-82929115D01*
X159730524Y-82929115D01*
X159730525Y-82929116D01*
X159820698Y-82960669D01*
X159869378Y-82997734D01*
X159887000Y-83054113D01*
X159887000Y-83457284D01*
X159868093Y-83515475D01*
X159818593Y-83551439D01*
X159802276Y-83555249D01*
X159773606Y-83559426D01*
X159668518Y-83610801D01*
X159585801Y-83693518D01*
X159534427Y-83798604D01*
X159534427Y-83798607D01*
X159524500Y-83866740D01*
X159524500Y-84233260D01*
X159530180Y-84272242D01*
X159534427Y-84301395D01*
X159585236Y-84405326D01*
X159585802Y-84406483D01*
X159668517Y-84489198D01*
X159722285Y-84515483D01*
X159773604Y-84540572D01*
X159773605Y-84540572D01*
X159773607Y-84540573D01*
X159841740Y-84550500D01*
X159841743Y-84550500D01*
X161083257Y-84550500D01*
X161083260Y-84550500D01*
X161151393Y-84540573D01*
X161256483Y-84489198D01*
X161339198Y-84406483D01*
X161390573Y-84301393D01*
X161400500Y-84233260D01*
X161400500Y-83866740D01*
X161390573Y-83798607D01*
X161387160Y-83791626D01*
X161350509Y-83716655D01*
X161339198Y-83693517D01*
X161256483Y-83610802D01*
X161256481Y-83610801D01*
X161151395Y-83559427D01*
X161122718Y-83555249D01*
X161083260Y-83549500D01*
X161083257Y-83549500D01*
X160587000Y-83549500D01*
X160528809Y-83530593D01*
X160492845Y-83481093D01*
X160488000Y-83450500D01*
X160488000Y-83054113D01*
X160506907Y-82995922D01*
X160554301Y-82960669D01*
X160644475Y-82929116D01*
X160750711Y-82850711D01*
X160829116Y-82744475D01*
X160872725Y-82619849D01*
X160875500Y-82590256D01*
X160875500Y-82425001D01*
X161275000Y-82425001D01*
X161275000Y-82584126D01*
X161281241Y-82642189D01*
X161330232Y-82773535D01*
X161414241Y-82885758D01*
X161526464Y-82969767D01*
X161657811Y-83018758D01*
X161657809Y-83018758D01*
X161715873Y-83024999D01*
X161715873Y-83025000D01*
X161887499Y-83025000D01*
X161887500Y-83024999D01*
X161887500Y-82425001D01*
X162137500Y-82425001D01*
X162137500Y-83024999D01*
X162137501Y-83025000D01*
X162309127Y-83025000D01*
X162309126Y-83024999D01*
X162367189Y-83018758D01*
X162498535Y-82969767D01*
X162610758Y-82885758D01*
X162694767Y-82773535D01*
X162743758Y-82642189D01*
X162749999Y-82584126D01*
X162750000Y-82584126D01*
X162750000Y-82425001D01*
X162749999Y-82425000D01*
X162137501Y-82425000D01*
X162137500Y-82425001D01*
X161887500Y-82425001D01*
X161887499Y-82425000D01*
X161275001Y-82425000D01*
X161275000Y-82425001D01*
X160875500Y-82425001D01*
X160875500Y-82015873D01*
X161275000Y-82015873D01*
X161275000Y-82174999D01*
X161275001Y-82175000D01*
X161887499Y-82175000D01*
X161887500Y-82174999D01*
X161887500Y-81575001D01*
X162137500Y-81575001D01*
X162137500Y-82174999D01*
X162137501Y-82175000D01*
X162749999Y-82175000D01*
X162750000Y-82174999D01*
X162750000Y-82015873D01*
X162743758Y-81957810D01*
X162694767Y-81826464D01*
X162610758Y-81714241D01*
X162498535Y-81630232D01*
X162367188Y-81581241D01*
X162367190Y-81581241D01*
X162309126Y-81575000D01*
X162137501Y-81575000D01*
X162137500Y-81575001D01*
X161887500Y-81575001D01*
X161887499Y-81575000D01*
X161715873Y-81575000D01*
X161657810Y-81581241D01*
X161526464Y-81630232D01*
X161414241Y-81714241D01*
X161330232Y-81826464D01*
X161281241Y-81957810D01*
X161275000Y-82015873D01*
X160875500Y-82015873D01*
X160875500Y-82009744D01*
X160875500Y-82009738D01*
X160875499Y-82009733D01*
X160872725Y-81980155D01*
X160872725Y-81980151D01*
X160829116Y-81855525D01*
X160820979Y-81844500D01*
X160750714Y-81749293D01*
X160750713Y-81749292D01*
X160750711Y-81749289D01*
X160743141Y-81743702D01*
X160644476Y-81670884D01*
X160519852Y-81627276D01*
X160519851Y-81627275D01*
X160519849Y-81627275D01*
X160519847Y-81627274D01*
X160519844Y-81627274D01*
X160490266Y-81624500D01*
X160490256Y-81624500D01*
X159884744Y-81624500D01*
X159884733Y-81624500D01*
X159855155Y-81627274D01*
X159855147Y-81627276D01*
X159730523Y-81670884D01*
X159624293Y-81749285D01*
X159624285Y-81749293D01*
X159545884Y-81855523D01*
X159532879Y-81892690D01*
X159524494Y-81916655D01*
X159518705Y-81933198D01*
X159500827Y-81956677D01*
X159483452Y-81980593D01*
X159482344Y-81980952D01*
X159481640Y-81981878D01*
X159425261Y-81999500D01*
X159274739Y-81999500D01*
X159216548Y-81980593D01*
X159181295Y-81933198D01*
X159154116Y-81855525D01*
X159145979Y-81844500D01*
X159075714Y-81749293D01*
X159075713Y-81749292D01*
X159075711Y-81749289D01*
X159068141Y-81743702D01*
X158969476Y-81670884D01*
X158844852Y-81627276D01*
X158844851Y-81627275D01*
X158844849Y-81627275D01*
X158844847Y-81627274D01*
X158844844Y-81627274D01*
X158815266Y-81624500D01*
X158815256Y-81624500D01*
X158209744Y-81624500D01*
X158209717Y-81624500D01*
X158209092Y-81624529D01*
X158208986Y-81624500D01*
X158207429Y-81624500D01*
X158207429Y-81624072D01*
X158150087Y-81608342D01*
X158111866Y-81560563D01*
X158105500Y-81525636D01*
X158105500Y-81460017D01*
X158105488Y-81459361D01*
X158105369Y-81452687D01*
X158105053Y-81443841D01*
X158092227Y-81379362D01*
X158074303Y-81331307D01*
X158067812Y-81313903D01*
X158057603Y-81290929D01*
X158057603Y-81290928D01*
X158021598Y-81248509D01*
X157998421Y-81221203D01*
X157998419Y-81221202D01*
X157998418Y-81221200D01*
X157942496Y-81179337D01*
X157942458Y-81179310D01*
X157921477Y-81165524D01*
X157833996Y-81138864D01*
X157764309Y-81133880D01*
X157747544Y-81133709D01*
X157739166Y-81133624D01*
X157739165Y-81133624D01*
X157739162Y-81133624D01*
X157688136Y-81148043D01*
X157626996Y-81145672D01*
X157578927Y-81107817D01*
X157562289Y-81048937D01*
X157567771Y-81020076D01*
X157597646Y-80934699D01*
X157600499Y-80904273D01*
X157600500Y-80904273D01*
X157600500Y-80897824D01*
X158949999Y-80897824D01*
X158956401Y-80957370D01*
X158956403Y-80957381D01*
X159006646Y-81092088D01*
X159006647Y-81092090D01*
X159092807Y-81207184D01*
X159092815Y-81207192D01*
X159207909Y-81293352D01*
X159207911Y-81293353D01*
X159342618Y-81343596D01*
X159342629Y-81343598D01*
X159402176Y-81350000D01*
X159737499Y-81350000D01*
X159737500Y-81349999D01*
X159737500Y-80325001D01*
X159987500Y-80325001D01*
X159987500Y-81349999D01*
X159987501Y-81350000D01*
X160322824Y-81350000D01*
X160382370Y-81343598D01*
X160382381Y-81343596D01*
X160517088Y-81293353D01*
X160517090Y-81293352D01*
X160632184Y-81207192D01*
X160632192Y-81207184D01*
X160718352Y-81092090D01*
X160718353Y-81092088D01*
X160768596Y-80957381D01*
X160768598Y-80957370D01*
X160775000Y-80897824D01*
X160775000Y-80325001D01*
X160774999Y-80325000D01*
X159987501Y-80325000D01*
X159987500Y-80325001D01*
X159737500Y-80325001D01*
X159737499Y-80325000D01*
X158950001Y-80325000D01*
X158950000Y-80325001D01*
X158950000Y-80897824D01*
X158949999Y-80897824D01*
X157600500Y-80897824D01*
X157600500Y-79502175D01*
X158950000Y-79502175D01*
X158950000Y-80074999D01*
X158950001Y-80075000D01*
X159737499Y-80075000D01*
X159737500Y-80074999D01*
X159737500Y-79050001D01*
X159987500Y-79050001D01*
X159987500Y-80074999D01*
X159987501Y-80075000D01*
X160774999Y-80075000D01*
X160775000Y-80074999D01*
X160775000Y-79502175D01*
X160768598Y-79442629D01*
X160768596Y-79442618D01*
X160718353Y-79307911D01*
X160718352Y-79307909D01*
X160632192Y-79192815D01*
X160632184Y-79192807D01*
X160517090Y-79106647D01*
X160517088Y-79106646D01*
X160382381Y-79056403D01*
X160382370Y-79056401D01*
X160322824Y-79050000D01*
X159987501Y-79050000D01*
X159987500Y-79050001D01*
X159737500Y-79050001D01*
X159737499Y-79050000D01*
X159402176Y-79050000D01*
X159342629Y-79056401D01*
X159342618Y-79056403D01*
X159207911Y-79106646D01*
X159207909Y-79106647D01*
X159092815Y-79192807D01*
X159092807Y-79192815D01*
X159006647Y-79307909D01*
X159006646Y-79307911D01*
X158956403Y-79442618D01*
X158956401Y-79442629D01*
X158950000Y-79502175D01*
X157600500Y-79502175D01*
X157600500Y-79495727D01*
X157600499Y-79495725D01*
X157597646Y-79465301D01*
X157552793Y-79337118D01*
X157538915Y-79318314D01*
X157472154Y-79227855D01*
X157472152Y-79227853D01*
X157472150Y-79227850D01*
X157472146Y-79227847D01*
X157472144Y-79227845D01*
X157362883Y-79147207D01*
X157259302Y-79110962D01*
X157210621Y-79073897D01*
X157193000Y-79017518D01*
X157193000Y-78794005D01*
X157193000Y-78794000D01*
X157188303Y-78750316D01*
X157187741Y-78747732D01*
X157193848Y-78686852D01*
X157217193Y-78657679D01*
X157215468Y-78655954D01*
X157220707Y-78650713D01*
X157220711Y-78650711D01*
X157299116Y-78544475D01*
X157342725Y-78419849D01*
X157345437Y-78390922D01*
X157347641Y-78385818D01*
X157347020Y-78380293D01*
X157359596Y-78358137D01*
X157369696Y-78334753D01*
X157374479Y-78331919D01*
X157377225Y-78327083D01*
X157400417Y-78316553D01*
X157422337Y-78303568D01*
X157432934Y-78301789D01*
X157433636Y-78301710D01*
X157436048Y-78301439D01*
X157495988Y-78313722D01*
X157537260Y-78358891D01*
X157545549Y-78389236D01*
X157551241Y-78442189D01*
X157600232Y-78573535D01*
X157684241Y-78685758D01*
X157796464Y-78769767D01*
X157927811Y-78818758D01*
X157927809Y-78818758D01*
X157985873Y-78824999D01*
X157985873Y-78825000D01*
X158207499Y-78825000D01*
X158207500Y-78824999D01*
X158207500Y-77375001D01*
X158207499Y-77375000D01*
X158203040Y-77375000D01*
X158144849Y-77356093D01*
X158108885Y-77306593D01*
X158105447Y-77262892D01*
X158105195Y-77262873D01*
X158105320Y-77261275D01*
X158105260Y-77260505D01*
X158105500Y-77258990D01*
X158105500Y-76904499D01*
X158124407Y-76846308D01*
X158173907Y-76810344D01*
X158204500Y-76805499D01*
X158238398Y-76805499D01*
X158238400Y-76805499D01*
X158315117Y-76790240D01*
X158402112Y-76732112D01*
X158403602Y-76729881D01*
X158407201Y-76724497D01*
X158420995Y-76713622D01*
X158431324Y-76699407D01*
X158444430Y-76695148D01*
X158455252Y-76686618D01*
X158489515Y-76680500D01*
X158684521Y-76680500D01*
X158742712Y-76699407D01*
X158754524Y-76709496D01*
X158797989Y-76752960D01*
X158866507Y-76792519D01*
X158866511Y-76792521D01*
X158942935Y-76812999D01*
X158942937Y-76813000D01*
X158942938Y-76813000D01*
X159245886Y-76813000D01*
X159304077Y-76831907D01*
X159339330Y-76879302D01*
X159370884Y-76969475D01*
X159370884Y-76969476D01*
X159431367Y-77051428D01*
X159449289Y-77075711D01*
X159449292Y-77075713D01*
X159449293Y-77075714D01*
X159555521Y-77154114D01*
X159555523Y-77154114D01*
X159555525Y-77154116D01*
X159620699Y-77176921D01*
X159644180Y-77194800D01*
X159668093Y-77212174D01*
X159668452Y-77213281D01*
X159669378Y-77213986D01*
X159687000Y-77270365D01*
X159687000Y-77345886D01*
X159668093Y-77404077D01*
X159620698Y-77439330D01*
X159530524Y-77470884D01*
X159530523Y-77470884D01*
X159424293Y-77549285D01*
X159424285Y-77549293D01*
X159345884Y-77655522D01*
X159304785Y-77772975D01*
X159267719Y-77821655D01*
X159209118Y-77839251D01*
X159151367Y-77819042D01*
X159116523Y-77768747D01*
X159114994Y-77763041D01*
X159113758Y-77757810D01*
X159064767Y-77626464D01*
X158980758Y-77514241D01*
X158868535Y-77430232D01*
X158737188Y-77381241D01*
X158737190Y-77381241D01*
X158679126Y-77375000D01*
X158457501Y-77375000D01*
X158457500Y-77375001D01*
X158457500Y-78824999D01*
X158457501Y-78825000D01*
X158679127Y-78825000D01*
X158679126Y-78824999D01*
X158737189Y-78818758D01*
X158868535Y-78769767D01*
X158980758Y-78685758D01*
X159064767Y-78573535D01*
X159113756Y-78442194D01*
X159114993Y-78436960D01*
X159146774Y-78384676D01*
X159203217Y-78361057D01*
X159262763Y-78375125D01*
X159302668Y-78421507D01*
X159304785Y-78427024D01*
X159345884Y-78544477D01*
X159424285Y-78650706D01*
X159424289Y-78650711D01*
X159424292Y-78650713D01*
X159424293Y-78650714D01*
X159530523Y-78729115D01*
X159530524Y-78729115D01*
X159530525Y-78729116D01*
X159655151Y-78772725D01*
X159682441Y-78775284D01*
X159684733Y-78775499D01*
X159684738Y-78775500D01*
X159684744Y-78775500D01*
X160290262Y-78775500D01*
X160290265Y-78775499D01*
X160319849Y-78772725D01*
X160444475Y-78729116D01*
X160550711Y-78650711D01*
X160629116Y-78544475D01*
X160672725Y-78419849D01*
X160675500Y-78390256D01*
X160675500Y-78225001D01*
X161075000Y-78225001D01*
X161075000Y-78384126D01*
X161081241Y-78442189D01*
X161130232Y-78573535D01*
X161214241Y-78685758D01*
X161326464Y-78769767D01*
X161457811Y-78818758D01*
X161457809Y-78818758D01*
X161515873Y-78824999D01*
X161515873Y-78825000D01*
X161687499Y-78825000D01*
X161687500Y-78824999D01*
X161687500Y-78225001D01*
X161937500Y-78225001D01*
X161937500Y-78824999D01*
X161937501Y-78825000D01*
X162109127Y-78825000D01*
X162109126Y-78824999D01*
X162167189Y-78818758D01*
X162298535Y-78769767D01*
X162410758Y-78685758D01*
X162494767Y-78573535D01*
X162543758Y-78442189D01*
X162549999Y-78384126D01*
X162550000Y-78384126D01*
X162550000Y-78225001D01*
X162549999Y-78225000D01*
X161937501Y-78225000D01*
X161937500Y-78225001D01*
X161687500Y-78225001D01*
X161687499Y-78225000D01*
X161075001Y-78225000D01*
X161075000Y-78225001D01*
X160675500Y-78225001D01*
X160675500Y-77809744D01*
X160675500Y-77809738D01*
X160675499Y-77809733D01*
X160675284Y-77807441D01*
X160672725Y-77780151D01*
X160629116Y-77655525D01*
X160607668Y-77626464D01*
X160550714Y-77549293D01*
X160550713Y-77549292D01*
X160550711Y-77549289D01*
X160550706Y-77549285D01*
X160444476Y-77470884D01*
X160354302Y-77439330D01*
X160330826Y-77421455D01*
X160306907Y-77404077D01*
X160306547Y-77402969D01*
X160305621Y-77402264D01*
X160288000Y-77345886D01*
X160288000Y-77279113D01*
X160306907Y-77220922D01*
X160354301Y-77185669D01*
X160444475Y-77154116D01*
X160550711Y-77075711D01*
X160629116Y-76969475D01*
X160648844Y-76913096D01*
X160660670Y-76879302D01*
X160697736Y-76830621D01*
X160754114Y-76813000D01*
X161095886Y-76813000D01*
X161154077Y-76831907D01*
X161189330Y-76879302D01*
X161220884Y-76969475D01*
X161220884Y-76969476D01*
X161281367Y-77051428D01*
X161299289Y-77075711D01*
X161299292Y-77075713D01*
X161299293Y-77075714D01*
X161405523Y-77154115D01*
X161405524Y-77154115D01*
X161405525Y-77154116D01*
X161500070Y-77187199D01*
X161548750Y-77224264D01*
X161566347Y-77282865D01*
X161546139Y-77340616D01*
X161495844Y-77375460D01*
X161477955Y-77379076D01*
X161457810Y-77381241D01*
X161326464Y-77430232D01*
X161214241Y-77514241D01*
X161130232Y-77626464D01*
X161081241Y-77757810D01*
X161075000Y-77815873D01*
X161075000Y-77974999D01*
X161075001Y-77975000D01*
X162549999Y-77975000D01*
X162550000Y-77974999D01*
X162550000Y-77815873D01*
X162543758Y-77757810D01*
X162494767Y-77626464D01*
X162410758Y-77514241D01*
X162298535Y-77430232D01*
X162171271Y-77382764D01*
X162123357Y-77344713D01*
X162106960Y-77285765D01*
X162128342Y-77228438D01*
X162173171Y-77196562D01*
X162294475Y-77154116D01*
X162400711Y-77075711D01*
X162479116Y-76969475D01*
X162522725Y-76844849D01*
X162525500Y-76815256D01*
X162525500Y-76109744D01*
X162525500Y-76109738D01*
X162525499Y-76109733D01*
X162522725Y-76080155D01*
X162522725Y-76080151D01*
X162479116Y-75955525D01*
X162478360Y-75954501D01*
X162400714Y-75849293D01*
X162400713Y-75849292D01*
X162400711Y-75849289D01*
X162400706Y-75849285D01*
X162294476Y-75770884D01*
X162169852Y-75727276D01*
X162169851Y-75727275D01*
X162169849Y-75727275D01*
X162169847Y-75727274D01*
X162169844Y-75727274D01*
X162140266Y-75724500D01*
X162140256Y-75724500D01*
X161716542Y-75724500D01*
X161691134Y-75716244D01*
X161665131Y-75710105D01*
X161662372Y-75706899D01*
X161658351Y-75705593D01*
X161642643Y-75683973D01*
X161625221Y-75663728D01*
X161624873Y-75659515D01*
X161622387Y-75656093D01*
X161620191Y-75602750D01*
X161632233Y-75551750D01*
X161664007Y-75499461D01*
X161720447Y-75475835D01*
X161728584Y-75475500D01*
X162140262Y-75475500D01*
X162140265Y-75475499D01*
X162169849Y-75472725D01*
X162294475Y-75429116D01*
X162400711Y-75350711D01*
X162479116Y-75244475D01*
X162522725Y-75119849D01*
X162525500Y-75090256D01*
X162525500Y-74384744D01*
X162525500Y-74384738D01*
X162525499Y-74384733D01*
X162522725Y-74355155D01*
X162522725Y-74355151D01*
X162479116Y-74230525D01*
X162479115Y-74230523D01*
X162450772Y-74192119D01*
X162431430Y-74134071D01*
X162445440Y-74082556D01*
X162476536Y-74030511D01*
X162495443Y-73972320D01*
X162502036Y-73930690D01*
X162505500Y-73908821D01*
X162505500Y-72236463D01*
X162524407Y-72178272D01*
X162573907Y-72142308D01*
X162635093Y-72142308D01*
X162684593Y-72178272D01*
X162702281Y-72220976D01*
X162727084Y-72377579D01*
X162780588Y-72542248D01*
X162859195Y-72696523D01*
X162938096Y-72805124D01*
X163369269Y-72373950D01*
X163399901Y-72427007D01*
X163492993Y-72520099D01*
X163546046Y-72550729D01*
X163114874Y-72981902D01*
X163223476Y-73060804D01*
X163377751Y-73139411D01*
X163542420Y-73192915D01*
X163713425Y-73220000D01*
X163886575Y-73220000D01*
X164057579Y-73192915D01*
X164222248Y-73139411D01*
X164376524Y-73060804D01*
X164376528Y-73060802D01*
X164485124Y-72981902D01*
X164053952Y-72550730D01*
X164107007Y-72520099D01*
X164200099Y-72427007D01*
X164230730Y-72373952D01*
X164661902Y-72805124D01*
X164740802Y-72696528D01*
X164740804Y-72696524D01*
X164819411Y-72542248D01*
X164872915Y-72377579D01*
X164900000Y-72206575D01*
X164900000Y-72033424D01*
X164872915Y-71862420D01*
X164819411Y-71697751D01*
X164740804Y-71543476D01*
X164661902Y-71434874D01*
X164230729Y-71866046D01*
X164200099Y-71812993D01*
X164107007Y-71719901D01*
X164053950Y-71689269D01*
X164485124Y-71258096D01*
X164376523Y-71179195D01*
X164222248Y-71100588D01*
X164057579Y-71047084D01*
X163886575Y-71020000D01*
X163713425Y-71020000D01*
X163542420Y-71047084D01*
X163377751Y-71100588D01*
X163223472Y-71179197D01*
X163114874Y-71258096D01*
X163546047Y-71689269D01*
X163492993Y-71719901D01*
X163399901Y-71812993D01*
X163369269Y-71866047D01*
X162938096Y-71434874D01*
X162859197Y-71543472D01*
X162780588Y-71697751D01*
X162727084Y-71862420D01*
X162702281Y-72019023D01*
X162674503Y-72073540D01*
X162619987Y-72101317D01*
X162559555Y-72091746D01*
X162516290Y-72048481D01*
X162505500Y-72003536D01*
X162505500Y-71814797D01*
X162504888Y-71798962D01*
X162503711Y-71783744D01*
X162503711Y-71783742D01*
X162482178Y-71706789D01*
X162454549Y-71652197D01*
X162416899Y-71600078D01*
X162416894Y-71600073D01*
X162416892Y-71600070D01*
X162183738Y-71365646D01*
X162183732Y-71365641D01*
X162174544Y-71356403D01*
X160634508Y-69807975D01*
X160369461Y-69541484D01*
X160369459Y-69541481D01*
X160304862Y-69476532D01*
X162749500Y-69476532D01*
X162749500Y-69683467D01*
X162789869Y-69886418D01*
X162869058Y-70077597D01*
X162984020Y-70249651D01*
X162984023Y-70249655D01*
X163130345Y-70395977D01*
X163302402Y-70510941D01*
X163493580Y-70590130D01*
X163696535Y-70630500D01*
X163696536Y-70630500D01*
X163903464Y-70630500D01*
X163903465Y-70630500D01*
X164106420Y-70590130D01*
X164297598Y-70510941D01*
X164469655Y-70395977D01*
X164615977Y-70249655D01*
X164730941Y-70077598D01*
X164810130Y-69886420D01*
X164850500Y-69683465D01*
X164850500Y-69476535D01*
X164810130Y-69273580D01*
X164730941Y-69082402D01*
X164615977Y-68910345D01*
X164469655Y-68764023D01*
X164469651Y-68764020D01*
X164297597Y-68649058D01*
X164106418Y-68569869D01*
X163903467Y-68529500D01*
X163903465Y-68529500D01*
X163696535Y-68529500D01*
X163696532Y-68529500D01*
X163493581Y-68569869D01*
X163302402Y-68649058D01*
X163130348Y-68764020D01*
X162984020Y-68910348D01*
X162869058Y-69082402D01*
X162789869Y-69273581D01*
X162749500Y-69476532D01*
X160304862Y-69476532D01*
X159612000Y-68779895D01*
X159600380Y-68769081D01*
X159588817Y-68759124D01*
X159519292Y-68719754D01*
X159461207Y-68700531D01*
X159461199Y-68700529D01*
X159397767Y-68690128D01*
X159397765Y-68690127D01*
X158465773Y-68685061D01*
X157400648Y-68679272D01*
X157400647Y-68679272D01*
X157400640Y-68679272D01*
X157400622Y-68679273D01*
X157367924Y-68681714D01*
X157367917Y-68681714D01*
X157336793Y-68686559D01*
X157331714Y-68687415D01*
X157247617Y-68723359D01*
X157198118Y-68759323D01*
X157170372Y-68783565D01*
X157123464Y-68862075D01*
X157123462Y-68862078D01*
X157104556Y-68920267D01*
X157094500Y-68983764D01*
X157094500Y-71075816D01*
X157096358Y-71103391D01*
X157096360Y-71103406D01*
X157099030Y-71123117D01*
X157099210Y-71125791D01*
X157099925Y-71129733D01*
X157099926Y-71129735D01*
X157132061Y-71215360D01*
X157165767Y-71266424D01*
X157174075Y-71275514D01*
X157185197Y-71300000D01*
X154200000Y-71300000D01*
X154200000Y-73650000D01*
X155744500Y-75194500D01*
X150199000Y-75194500D01*
X150166856Y-75197030D01*
X150136206Y-75201883D01*
X150131718Y-75202646D01*
X150131713Y-75202647D01*
X150047617Y-75238591D01*
X149998118Y-75274555D01*
X149970372Y-75298797D01*
X149923464Y-75377307D01*
X149923462Y-75377310D01*
X149904556Y-75435499D01*
X149894500Y-75498996D01*
X149894500Y-75499000D01*
X149894500Y-77791000D01*
X149894501Y-77791017D01*
X149894524Y-77791591D01*
X149894500Y-77791676D01*
X149894500Y-77792944D01*
X149894143Y-77792944D01*
X149877929Y-77850483D01*
X149829887Y-77888373D01*
X149795601Y-77894500D01*
X149424000Y-77894500D01*
X149392797Y-77897855D01*
X149380314Y-77899197D01*
X149328800Y-77910404D01*
X149318628Y-77912889D01*
X149237914Y-77955900D01*
X149185113Y-78001653D01*
X149185098Y-78001667D01*
X149167155Y-78019247D01*
X149167153Y-78019249D01*
X149122511Y-78099058D01*
X149122509Y-78099062D01*
X149102826Y-78166095D01*
X149102824Y-78166104D01*
X149099509Y-78189163D01*
X149094500Y-78224000D01*
X149094500Y-79789500D01*
X149094500Y-80700500D01*
X149094500Y-83461161D01*
X149094500Y-84376000D01*
X149097778Y-84406483D01*
X149099197Y-84419685D01*
X149110404Y-84471199D01*
X149112889Y-84481371D01*
X149112889Y-84481372D01*
X149112890Y-84481373D01*
X149155900Y-84562085D01*
X149201655Y-84614889D01*
X149201667Y-84614901D01*
X149219247Y-84632844D01*
X149219249Y-84632846D01*
X149299058Y-84677488D01*
X149299062Y-84677490D01*
X149366095Y-84697173D01*
X149366102Y-84697175D01*
X149424000Y-84705500D01*
X149424001Y-84705500D01*
X151871108Y-84705500D01*
X151885442Y-84704998D01*
X151885452Y-84704997D01*
X151885460Y-84704997D01*
X151902756Y-84703785D01*
X151973226Y-84685960D01*
X152036865Y-84657116D01*
X152049588Y-84650382D01*
X152059077Y-84645361D01*
X152059078Y-84645359D01*
X152059082Y-84645358D01*
X152124590Y-84581539D01*
X152129203Y-84574407D01*
X152144663Y-84550500D01*
X152162532Y-84522869D01*
X152174866Y-84500964D01*
X152179206Y-84482196D01*
X152181506Y-84478371D01*
X152181506Y-84473907D01*
X152197086Y-84452462D01*
X152210738Y-84429761D01*
X152214845Y-84428019D01*
X152217470Y-84424407D01*
X152242676Y-84416217D01*
X152267067Y-84405874D01*
X152275661Y-84405500D01*
X152359721Y-84405500D01*
X152401559Y-84414775D01*
X152446167Y-84435576D01*
X152490915Y-84477303D01*
X152502590Y-84537364D01*
X152476733Y-84592817D01*
X152423219Y-84622481D01*
X152415416Y-84623677D01*
X152406775Y-84624650D01*
X152324372Y-84664334D01*
X152267350Y-84735837D01*
X152247000Y-84825000D01*
X152247000Y-85100500D01*
X152228093Y-85158691D01*
X152178593Y-85194655D01*
X152148000Y-85199500D01*
X148375008Y-85199500D01*
X148316817Y-85180593D01*
X148295352Y-85159288D01*
X148272150Y-85127850D01*
X148268290Y-85125001D01*
X148162883Y-85047207D01*
X148034703Y-85002355D01*
X148034694Y-85002353D01*
X148004274Y-84999500D01*
X148004266Y-84999500D01*
X147204500Y-84999500D01*
X147146309Y-84980593D01*
X147110345Y-84931093D01*
X147105500Y-84900500D01*
X147105500Y-84599006D01*
X147105500Y-84599000D01*
X147102970Y-84566856D01*
X147098125Y-84536263D01*
X147098116Y-84536206D01*
X147097353Y-84531714D01*
X147097352Y-84531713D01*
X147061408Y-84447617D01*
X147041233Y-84419849D01*
X147025444Y-84398117D01*
X147001203Y-84370372D01*
X146922693Y-84323464D01*
X146922691Y-84323463D01*
X146922689Y-84323462D01*
X146864499Y-84304556D01*
X146864500Y-84304556D01*
X146801003Y-84294500D01*
X146801000Y-84294500D01*
X144099000Y-84294500D01*
X144066856Y-84297030D01*
X144036206Y-84301883D01*
X144031718Y-84302646D01*
X144031713Y-84302647D01*
X143947617Y-84338591D01*
X143898118Y-84374555D01*
X143870372Y-84398797D01*
X143823464Y-84477307D01*
X143823462Y-84477310D01*
X143804556Y-84535499D01*
X143794500Y-84598996D01*
X143794500Y-84599000D01*
X143794500Y-85413189D01*
X143794500Y-86386823D01*
X143794500Y-87501000D01*
X143795680Y-87515988D01*
X143797030Y-87533143D01*
X143801883Y-87563793D01*
X143802646Y-87568281D01*
X143802647Y-87568286D01*
X143838591Y-87652382D01*
X143874560Y-87701888D01*
X143886947Y-87716065D01*
X143910997Y-87772326D01*
X143897385Y-87831978D01*
X143882400Y-87851207D01*
X143821951Y-87911656D01*
X143821950Y-87911658D01*
X143764353Y-88024696D01*
X143762451Y-88030551D01*
X143726486Y-88080051D01*
X143668295Y-88098957D01*
X143610105Y-88080049D01*
X143574853Y-88032655D01*
X143573957Y-88030093D01*
X143539116Y-87930525D01*
X143525190Y-87911656D01*
X143460714Y-87824293D01*
X143460713Y-87824292D01*
X143460711Y-87824289D01*
X143457542Y-87821950D01*
X143354476Y-87745884D01*
X143229852Y-87702276D01*
X143229851Y-87702275D01*
X143229849Y-87702275D01*
X143229847Y-87702274D01*
X143229844Y-87702274D01*
X143200266Y-87699500D01*
X143200256Y-87699500D01*
X142619744Y-87699500D01*
X142619733Y-87699500D01*
X142590155Y-87702274D01*
X142590147Y-87702276D01*
X142465523Y-87745884D01*
X142359293Y-87824285D01*
X142359285Y-87824293D01*
X142280884Y-87930523D01*
X142237276Y-88055147D01*
X142237274Y-88055155D01*
X142234500Y-88084733D01*
X141800500Y-88084733D01*
X141800500Y-82134108D01*
X142299500Y-82134108D01*
X142299500Y-82265892D01*
X142328528Y-82374227D01*
X142333609Y-82393190D01*
X142399496Y-82507309D01*
X142399498Y-82507311D01*
X142399500Y-82507314D01*
X142492686Y-82600500D01*
X142492688Y-82600501D01*
X142492690Y-82600503D01*
X142606810Y-82666390D01*
X142606808Y-82666390D01*
X142606812Y-82666391D01*
X142606814Y-82666392D01*
X142734108Y-82700500D01*
X142734110Y-82700500D01*
X142865890Y-82700500D01*
X142865892Y-82700500D01*
X142993186Y-82666392D01*
X142993188Y-82666390D01*
X142993190Y-82666390D01*
X143107309Y-82600503D01*
X143107309Y-82600502D01*
X143107314Y-82600500D01*
X143200500Y-82507314D01*
X143214093Y-82483770D01*
X143266390Y-82393190D01*
X143266390Y-82393188D01*
X143266392Y-82393186D01*
X143300500Y-82265892D01*
X143300500Y-82134108D01*
X143266392Y-82006814D01*
X143266390Y-82006811D01*
X143266390Y-82006809D01*
X143200503Y-81892690D01*
X143200501Y-81892688D01*
X143200500Y-81892686D01*
X143107314Y-81799500D01*
X143107311Y-81799498D01*
X143107309Y-81799496D01*
X142993189Y-81733609D01*
X142993191Y-81733609D01*
X142943799Y-81720375D01*
X142865892Y-81699500D01*
X142734108Y-81699500D01*
X142656200Y-81720375D01*
X142606809Y-81733609D01*
X142492690Y-81799496D01*
X142399496Y-81892690D01*
X142333609Y-82006809D01*
X142318495Y-82063218D01*
X142299500Y-82134108D01*
X141800500Y-82134108D01*
X141800500Y-80125001D01*
X142650000Y-80125001D01*
X142650000Y-80424624D01*
X142664506Y-80497546D01*
X142664507Y-80497548D01*
X142719758Y-80580237D01*
X142719762Y-80580241D01*
X142802451Y-80635492D01*
X142802453Y-80635493D01*
X142875375Y-80649999D01*
X142875377Y-80650000D01*
X143624999Y-80650000D01*
X143625000Y-80649999D01*
X143625000Y-80125001D01*
X143875000Y-80125001D01*
X143875000Y-80649999D01*
X143875001Y-80650000D01*
X144624623Y-80650000D01*
X144624624Y-80649999D01*
X144697546Y-80635493D01*
X144697548Y-80635492D01*
X144780237Y-80580241D01*
X144780241Y-80580237D01*
X144835492Y-80497548D01*
X144835493Y-80497546D01*
X144849999Y-80424624D01*
X144850000Y-80424622D01*
X144850000Y-80125001D01*
X144849999Y-80125000D01*
X143875001Y-80125000D01*
X143875000Y-80125001D01*
X143625000Y-80125001D01*
X143624999Y-80125000D01*
X142650001Y-80125000D01*
X142650000Y-80125001D01*
X141800500Y-80125001D01*
X141800500Y-79575375D01*
X142650000Y-79575375D01*
X142650000Y-79874999D01*
X142650001Y-79875000D01*
X143624999Y-79875000D01*
X143625000Y-79874999D01*
X143625000Y-79350001D01*
X143875000Y-79350001D01*
X143875000Y-79874999D01*
X143875001Y-79875000D01*
X144849999Y-79875000D01*
X144850000Y-79874999D01*
X144850000Y-79575377D01*
X144849999Y-79575375D01*
X144835493Y-79502453D01*
X144835492Y-79502451D01*
X144780241Y-79419762D01*
X144780237Y-79419758D01*
X144697548Y-79364507D01*
X144697546Y-79364506D01*
X144624624Y-79350000D01*
X143875001Y-79350000D01*
X143875000Y-79350001D01*
X143625000Y-79350001D01*
X143624999Y-79350000D01*
X142875375Y-79350000D01*
X142802453Y-79364506D01*
X142802451Y-79364507D01*
X142719762Y-79419758D01*
X142719758Y-79419762D01*
X142664507Y-79502451D01*
X142664506Y-79502453D01*
X142650000Y-79575375D01*
X141800500Y-79575375D01*
X141800500Y-65489733D01*
X142189500Y-65489733D01*
X142189500Y-66070266D01*
X142192274Y-66099844D01*
X142192276Y-66099852D01*
X142235884Y-66224476D01*
X142314285Y-66330706D01*
X142314289Y-66330711D01*
X142314292Y-66330713D01*
X142314293Y-66330714D01*
X142365299Y-66368358D01*
X142397314Y-66408570D01*
X142400239Y-66415304D01*
X142421108Y-66493186D01*
X142473450Y-66583845D01*
X142475699Y-66589022D01*
X142478108Y-66614135D01*
X142483354Y-66638813D01*
X142480985Y-66644131D01*
X142481542Y-66649928D01*
X142468729Y-66671661D01*
X142458468Y-66694709D01*
X142452993Y-66698352D01*
X142450469Y-66702635D01*
X142439211Y-66707525D01*
X142426369Y-66716072D01*
X142427081Y-66717419D01*
X142420523Y-66720884D01*
X142314293Y-66799285D01*
X142314285Y-66799293D01*
X142235884Y-66905523D01*
X142192276Y-67030147D01*
X142192274Y-67030155D01*
X142189500Y-67059733D01*
X142189500Y-67640266D01*
X142192274Y-67669844D01*
X142192276Y-67669852D01*
X142235884Y-67794476D01*
X142314285Y-67900706D01*
X142314289Y-67900711D01*
X142314292Y-67900713D01*
X142314293Y-67900714D01*
X142420523Y-67979115D01*
X142420524Y-67979115D01*
X142420525Y-67979116D01*
X142520699Y-68014168D01*
X142569378Y-68051233D01*
X142587000Y-68107612D01*
X142587000Y-68889564D01*
X142607477Y-68965985D01*
X142607478Y-68965987D01*
X142607479Y-68965989D01*
X142641805Y-69025444D01*
X142644221Y-69029628D01*
X142647040Y-69034511D01*
X143420504Y-69807975D01*
X143448281Y-69862492D01*
X143449500Y-69877979D01*
X143449500Y-75900500D01*
X143430593Y-75958691D01*
X143381093Y-75994655D01*
X143350500Y-75999500D01*
X142880252Y-75999500D01*
X142880251Y-75999500D01*
X142880241Y-75999501D01*
X142821772Y-76011132D01*
X142821766Y-76011134D01*
X142755451Y-76055445D01*
X142755445Y-76055451D01*
X142711134Y-76121766D01*
X142711132Y-76121772D01*
X142699501Y-76180241D01*
X142699500Y-76180253D01*
X142699500Y-77019746D01*
X142699501Y-77019758D01*
X142711132Y-77078227D01*
X142711134Y-77078233D01*
X142734947Y-77113871D01*
X142755448Y-77144552D01*
X142821769Y-77188867D01*
X142866231Y-77197711D01*
X142880241Y-77200498D01*
X142880246Y-77200498D01*
X142880252Y-77200500D01*
X142880253Y-77200500D01*
X144619747Y-77200500D01*
X144619748Y-77200500D01*
X144678231Y-77188867D01*
X144744552Y-77144552D01*
X144788867Y-77078231D01*
X144800500Y-77019748D01*
X144800500Y-76180252D01*
X144788867Y-76121769D01*
X144744552Y-76055448D01*
X144736776Y-76050252D01*
X144678233Y-76011134D01*
X144678231Y-76011133D01*
X144678228Y-76011132D01*
X144678227Y-76011132D01*
X144619758Y-75999501D01*
X144619748Y-75999500D01*
X144619747Y-75999500D01*
X144149500Y-75999500D01*
X144091309Y-75980593D01*
X144055345Y-75931093D01*
X144050500Y-75900500D01*
X144050500Y-73295725D01*
X145899500Y-73295725D01*
X145899500Y-74504274D01*
X145902353Y-74534694D01*
X145902355Y-74534703D01*
X145947207Y-74662883D01*
X146027845Y-74772144D01*
X146027847Y-74772146D01*
X146027850Y-74772150D01*
X146027853Y-74772152D01*
X146027855Y-74772154D01*
X146137116Y-74852792D01*
X146137117Y-74852792D01*
X146137118Y-74852793D01*
X146265301Y-74897646D01*
X146295725Y-74900499D01*
X146295727Y-74900500D01*
X146295734Y-74900500D01*
X147504273Y-74900500D01*
X147504273Y-74900499D01*
X147534699Y-74897646D01*
X147662882Y-74852793D01*
X147772150Y-74772150D01*
X147852793Y-74662882D01*
X147897646Y-74534699D01*
X147900499Y-74504273D01*
X147900500Y-74504273D01*
X147900500Y-73295727D01*
X147900499Y-73295725D01*
X147897646Y-73265305D01*
X147897646Y-73265301D01*
X147852793Y-73137118D01*
X147772150Y-73027850D01*
X147772146Y-73027847D01*
X147772144Y-73027845D01*
X147662883Y-72947207D01*
X147534703Y-72902355D01*
X147534694Y-72902353D01*
X147504274Y-72899500D01*
X147504266Y-72899500D01*
X146295734Y-72899500D01*
X146295725Y-72899500D01*
X146265305Y-72902353D01*
X146265296Y-72902355D01*
X146137116Y-72947207D01*
X146027855Y-73027845D01*
X146027845Y-73027855D01*
X145947207Y-73137116D01*
X145902355Y-73265296D01*
X145902353Y-73265305D01*
X145899500Y-73295725D01*
X144050500Y-73295725D01*
X144050500Y-70296581D01*
X145850000Y-70296581D01*
X145850000Y-70503418D01*
X145890349Y-70706272D01*
X145969501Y-70897361D01*
X146072183Y-71051037D01*
X146542473Y-70580746D01*
X146579920Y-70645606D01*
X146654394Y-70720080D01*
X146719250Y-70757525D01*
X146248961Y-71227815D01*
X146402638Y-71330498D01*
X146593727Y-71409650D01*
X146796581Y-71449999D01*
X146796586Y-71450000D01*
X147003414Y-71450000D01*
X147003418Y-71449999D01*
X147206272Y-71409650D01*
X147397360Y-71330498D01*
X147551037Y-71227815D01*
X147080747Y-70757525D01*
X147145606Y-70720080D01*
X147220080Y-70645606D01*
X147257525Y-70580747D01*
X147727815Y-71051037D01*
X147830498Y-70897360D01*
X147909650Y-70706272D01*
X147949999Y-70503418D01*
X147950000Y-70503413D01*
X147950000Y-70296586D01*
X147949999Y-70296581D01*
X147909650Y-70093727D01*
X147830498Y-69902638D01*
X147727815Y-69748961D01*
X147257525Y-70219250D01*
X147220080Y-70154394D01*
X147145606Y-70079920D01*
X147080746Y-70042473D01*
X147551037Y-69572183D01*
X147397361Y-69469501D01*
X147206272Y-69390349D01*
X147003418Y-69350000D01*
X146796581Y-69350000D01*
X146593727Y-69390349D01*
X146402638Y-69469501D01*
X146248961Y-69572183D01*
X146719252Y-70042474D01*
X146654394Y-70079920D01*
X146579920Y-70154394D01*
X146542474Y-70219252D01*
X146072183Y-69748961D01*
X145969501Y-69902638D01*
X145890349Y-70093727D01*
X145850000Y-70296581D01*
X144050500Y-70296581D01*
X144050500Y-69672938D01*
X144040254Y-69634701D01*
X144040254Y-69634698D01*
X144030021Y-69596511D01*
X144030019Y-69596507D01*
X143990460Y-69527989D01*
X143934511Y-69472039D01*
X143934511Y-69472040D01*
X143216996Y-68754525D01*
X143189219Y-68700008D01*
X143188000Y-68684521D01*
X143188000Y-68124293D01*
X143206907Y-68066102D01*
X143256407Y-68030138D01*
X143277995Y-68026203D01*
X143277950Y-68025717D01*
X143297688Y-68023865D01*
X143309849Y-68022725D01*
X143434475Y-67979116D01*
X143540711Y-67900711D01*
X143619116Y-67794475D01*
X143662725Y-67669849D01*
X143665500Y-67640256D01*
X143665500Y-67475001D01*
X143865000Y-67475001D01*
X143865000Y-67634126D01*
X143871241Y-67692189D01*
X143920232Y-67823535D01*
X144004241Y-67935758D01*
X144116464Y-68019767D01*
X144247811Y-68068758D01*
X144247809Y-68068758D01*
X144305873Y-68074999D01*
X144305873Y-68075000D01*
X144527499Y-68075000D01*
X144527500Y-68074999D01*
X144527500Y-67475000D01*
X143865001Y-67475000D01*
X143865000Y-67475001D01*
X143665500Y-67475001D01*
X143665500Y-67214500D01*
X143670345Y-67199588D01*
X143670345Y-67183907D01*
X143679561Y-67171221D01*
X143684407Y-67156309D01*
X143697092Y-67147092D01*
X143706309Y-67134407D01*
X143721221Y-67129561D01*
X143733907Y-67120345D01*
X143764500Y-67115500D01*
X143766000Y-67115500D01*
X143824191Y-67134407D01*
X143860155Y-67183907D01*
X143865000Y-67214500D01*
X143865000Y-67224999D01*
X143865001Y-67225000D01*
X144553500Y-67225000D01*
X144568412Y-67229845D01*
X144584093Y-67229845D01*
X144596778Y-67239061D01*
X144611691Y-67243907D01*
X144620907Y-67256592D01*
X144633593Y-67265809D01*
X144638438Y-67280721D01*
X144647655Y-67293407D01*
X144652500Y-67324000D01*
X144652500Y-67350000D01*
X144678500Y-67350000D01*
X144736691Y-67368907D01*
X144772655Y-67418407D01*
X144777500Y-67449000D01*
X144777500Y-68074999D01*
X144777501Y-68075000D01*
X144999127Y-68075000D01*
X144999126Y-68074999D01*
X145057190Y-68068758D01*
X145057192Y-68068757D01*
X145110901Y-68048724D01*
X145172030Y-68046102D01*
X145223026Y-68079912D01*
X145244409Y-68137239D01*
X145244500Y-68141481D01*
X145244500Y-68801000D01*
X145247030Y-68833143D01*
X145251883Y-68863793D01*
X145252646Y-68868281D01*
X145252647Y-68868286D01*
X145288591Y-68952382D01*
X145288592Y-68952383D01*
X145324556Y-69001883D01*
X145348797Y-69029628D01*
X145427307Y-69076536D01*
X145485498Y-69095443D01*
X145497552Y-69097352D01*
X145548996Y-69105500D01*
X145549000Y-69105500D01*
X150900993Y-69105500D01*
X150901000Y-69105500D01*
X150933144Y-69102970D01*
X150963737Y-69098125D01*
X150963748Y-69098123D01*
X150963793Y-69098116D01*
X150968281Y-69097353D01*
X150968280Y-69097353D01*
X150968287Y-69097352D01*
X151052383Y-69061408D01*
X151101883Y-69025444D01*
X151129628Y-69001203D01*
X151176536Y-68922693D01*
X151195443Y-68864502D01*
X151205500Y-68801000D01*
X151205500Y-66936532D01*
X162749500Y-66936532D01*
X162749500Y-67143467D01*
X162789869Y-67346418D01*
X162869058Y-67537597D01*
X162981704Y-67706185D01*
X162984023Y-67709655D01*
X163130345Y-67855977D01*
X163302402Y-67970941D01*
X163493580Y-68050130D01*
X163696535Y-68090500D01*
X163696536Y-68090500D01*
X163903464Y-68090500D01*
X163903465Y-68090500D01*
X164106420Y-68050130D01*
X164297598Y-67970941D01*
X164469655Y-67855977D01*
X164615977Y-67709655D01*
X164730941Y-67537598D01*
X164810130Y-67346420D01*
X164850500Y-67143465D01*
X164850500Y-66936535D01*
X164810130Y-66733580D01*
X164730941Y-66542402D01*
X164615977Y-66370345D01*
X164469655Y-66224023D01*
X164297598Y-66109059D01*
X164297599Y-66109059D01*
X164297597Y-66109058D01*
X164106418Y-66029869D01*
X163903467Y-65989500D01*
X163903465Y-65989500D01*
X163696535Y-65989500D01*
X163696532Y-65989500D01*
X163493581Y-66029869D01*
X163302402Y-66109058D01*
X163130348Y-66224020D01*
X162984020Y-66370348D01*
X162869058Y-66542402D01*
X162789869Y-66733581D01*
X162749500Y-66936532D01*
X151205500Y-66936532D01*
X151205500Y-65695000D01*
X152125000Y-65695000D01*
X152125001Y-65695000D01*
X158474999Y-65695000D01*
X158475000Y-65695000D01*
X158475000Y-63630253D01*
X162749500Y-63630253D01*
X162749500Y-65369746D01*
X162749501Y-65369758D01*
X162761132Y-65428227D01*
X162761134Y-65428233D01*
X162782464Y-65460155D01*
X162805448Y-65494552D01*
X162871769Y-65538867D01*
X162916231Y-65547711D01*
X162930241Y-65550498D01*
X162930246Y-65550498D01*
X162930252Y-65550500D01*
X162930253Y-65550500D01*
X164669747Y-65550500D01*
X164669748Y-65550500D01*
X164728231Y-65538867D01*
X164794552Y-65494552D01*
X164838867Y-65428231D01*
X164850500Y-65369748D01*
X164850500Y-63630252D01*
X164838867Y-63571769D01*
X164794552Y-63505448D01*
X164794548Y-63505445D01*
X164728233Y-63461134D01*
X164728231Y-63461133D01*
X164728228Y-63461132D01*
X164728227Y-63461132D01*
X164669758Y-63449501D01*
X164669748Y-63449500D01*
X162930252Y-63449500D01*
X162930251Y-63449500D01*
X162930241Y-63449501D01*
X162871772Y-63461132D01*
X162871766Y-63461134D01*
X162805451Y-63505445D01*
X162805445Y-63505451D01*
X162761134Y-63571766D01*
X162761132Y-63571772D01*
X162749501Y-63630241D01*
X162749500Y-63630253D01*
X158475000Y-63630253D01*
X158475000Y-63155000D01*
X152125000Y-63155000D01*
X152125000Y-65695000D01*
X151205500Y-65695000D01*
X151205500Y-64599000D01*
X151202970Y-64566856D01*
X151198125Y-64536263D01*
X151198116Y-64536206D01*
X151197353Y-64531714D01*
X151197352Y-64531713D01*
X151161408Y-64447617D01*
X151140656Y-64419055D01*
X151125444Y-64398117D01*
X151101203Y-64370372D01*
X151022693Y-64323464D01*
X151022691Y-64323463D01*
X151022689Y-64323462D01*
X150964499Y-64304556D01*
X150964500Y-64304556D01*
X150901003Y-64294500D01*
X150901000Y-64294500D01*
X149974000Y-64294500D01*
X149915809Y-64275593D01*
X149879845Y-64226093D01*
X149875000Y-64195500D01*
X149875000Y-64062501D01*
X149874999Y-64062500D01*
X148425001Y-64062500D01*
X148425000Y-64062501D01*
X148425000Y-64195500D01*
X148406093Y-64253691D01*
X148356593Y-64289655D01*
X148326000Y-64294500D01*
X147849000Y-64294500D01*
X147790809Y-64275593D01*
X147754845Y-64226093D01*
X147750000Y-64195500D01*
X147750000Y-63912501D01*
X147749999Y-63912500D01*
X145450001Y-63912500D01*
X145450000Y-63912501D01*
X145450000Y-64195500D01*
X145431093Y-64253691D01*
X145381593Y-64289655D01*
X145351000Y-64294500D01*
X143349000Y-64294500D01*
X143318368Y-64296911D01*
X143316856Y-64297030D01*
X143286206Y-64301883D01*
X143281718Y-64302646D01*
X143281713Y-64302647D01*
X143197617Y-64338591D01*
X143148118Y-64374555D01*
X143120372Y-64398797D01*
X143073464Y-64477307D01*
X143073462Y-64477310D01*
X143054556Y-64535499D01*
X143044500Y-64598996D01*
X143044500Y-65005500D01*
X143025593Y-65063691D01*
X142976093Y-65099655D01*
X142945500Y-65104500D01*
X142574733Y-65104500D01*
X142545155Y-65107274D01*
X142545147Y-65107276D01*
X142420523Y-65150884D01*
X142314293Y-65229285D01*
X142314285Y-65229293D01*
X142235884Y-65335523D01*
X142192276Y-65460147D01*
X142192274Y-65460155D01*
X142189500Y-65489733D01*
X141800500Y-65489733D01*
X141800500Y-62799500D01*
X141819407Y-62741309D01*
X141868907Y-62705345D01*
X141899500Y-62700500D01*
X145778921Y-62700500D01*
X145837112Y-62719407D01*
G37*
%TD.AperFunction*%
%TD*%
M02*
