%TF.GenerationSoftware,KiCad,Pcbnew,9.0.4-9.0.4-0~ubuntu24.04.1*%
%TF.CreationDate,2026-04-29T22:27:19+02:00*%
%TF.ProjectId,LinKey,4c696e4b-6579-42e6-9b69-6361645f7063,rev?*%
%TF.SameCoordinates,Original*%
%TF.FileFunction,Copper,L3,Inr*%
%TF.FilePolarity,Positive*%
%FSLAX46Y46*%
G04 Gerber Fmt 4.6, Leading zero omitted, Abs format (unit mm)*
G04 Created by KiCad (PCBNEW 9.0.4-9.0.4-0~ubuntu24.04.1) date 2026-04-29 22:27:19*
%MOMM*%
%LPD*%
G01*
G04 APERTURE LIST*
G04 Aperture macros list*
%AMRoundRect*
0 Rectangle with rounded corners*
0 $1 Rounding radius*
0 $2 $3 $4 $5 $6 $7 $8 $9 X,Y pos of 4 corners*
0 Add a 4 corners polygon primitive as box body*
4,1,4,$2,$3,$4,$5,$6,$7,$8,$9,$2,$3,0*
0 Add four circle primitives for the rounded corners*
1,1,$1+$1,$2,$3*
1,1,$1+$1,$4,$5*
1,1,$1+$1,$6,$7*
1,1,$1+$1,$8,$9*
0 Add four rect primitives between the rounded corners*
20,1,$1+$1,$2,$3,$4,$5,0*
20,1,$1+$1,$4,$5,$6,$7,0*
20,1,$1+$1,$6,$7,$8,$9,0*
20,1,$1+$1,$8,$9,$2,$3,0*%
G04 Aperture macros list end*
%ADD10C,0.200000*%
%TA.AperFunction,NonConductor*%
%ADD11C,0.200000*%
%TD*%
%TA.AperFunction,HeatsinkPad*%
%ADD12C,0.600000*%
%TD*%
%TA.AperFunction,ComponentPad*%
%ADD13R,3.400000X3.400000*%
%TD*%
%TA.AperFunction,ComponentPad*%
%ADD14C,3.400000*%
%TD*%
%TA.AperFunction,ComponentPad*%
%ADD15RoundRect,0.250000X0.550000X-0.550000X0.550000X0.550000X-0.550000X0.550000X-0.550000X-0.550000X0*%
%TD*%
%TA.AperFunction,ComponentPad*%
%ADD16C,1.600000*%
%TD*%
%TA.AperFunction,ComponentPad*%
%ADD17R,1.700000X1.700000*%
%TD*%
%TA.AperFunction,ComponentPad*%
%ADD18C,1.700000*%
%TD*%
%TA.AperFunction,ViaPad*%
%ADD19C,0.600000*%
%TD*%
G04 APERTURE END LIST*
D10*
D11*
X154331667Y-63877219D02*
X154950714Y-63877219D01*
X154950714Y-63877219D02*
X154617381Y-64258171D01*
X154617381Y-64258171D02*
X154760238Y-64258171D01*
X154760238Y-64258171D02*
X154855476Y-64305790D01*
X154855476Y-64305790D02*
X154903095Y-64353409D01*
X154903095Y-64353409D02*
X154950714Y-64448647D01*
X154950714Y-64448647D02*
X154950714Y-64686742D01*
X154950714Y-64686742D02*
X154903095Y-64781980D01*
X154903095Y-64781980D02*
X154855476Y-64829600D01*
X154855476Y-64829600D02*
X154760238Y-64877219D01*
X154760238Y-64877219D02*
X154474524Y-64877219D01*
X154474524Y-64877219D02*
X154379286Y-64829600D01*
X154379286Y-64829600D02*
X154331667Y-64781980D01*
D12*
%TO.N,GND*%
%TO.C,U2*%
X149150000Y-70760000D03*
X149150000Y-72160000D03*
X149850000Y-70060000D03*
X149850000Y-71460000D03*
X149850000Y-72860000D03*
X150550000Y-70760000D03*
X150550000Y-72160000D03*
X151250000Y-70060000D03*
X151250000Y-71460000D03*
X151250000Y-72860000D03*
X151950000Y-70760000D03*
X151950000Y-72160000D03*
%TD*%
D13*
%TO.N,Net-(D1-~_2)*%
%TO.C,J1*%
X144500000Y-96000000D03*
D14*
%TO.N,Net-(J1-I2)*%
X149580000Y-96000000D03*
%TO.N,Net-(D1-~_1)*%
X154660000Y-96000000D03*
%TD*%
D15*
%TO.N,VCAP*%
%TO.C,C2*%
X146900000Y-73900000D03*
D16*
%TO.N,GND*%
X146900000Y-70400000D03*
%TD*%
D17*
%TO.N,+3.3V*%
%TO.C,J2*%
X163800000Y-64500000D03*
D18*
%TO.N,/ESP_TX*%
X163800000Y-67040000D03*
%TO.N,/ESP_RX*%
X163800000Y-69580000D03*
%TO.N,GND*%
X163800000Y-72120000D03*
%TD*%
D19*
%TO.N,GND*%
X142100000Y-63700000D03*
X144650000Y-68850000D03*
X163800000Y-75900000D03*
X162300000Y-84100000D03*
X156200000Y-73900000D03*
X154700000Y-71800000D03*
X144550000Y-63740000D03*
X163100000Y-82300000D03*
X158300000Y-79200000D03*
X156200000Y-74700000D03*
X154700000Y-72600000D03*
X150300000Y-83500000D03*
X150500000Y-63800000D03*
X145212500Y-80100000D03*
X146300000Y-80000000D03*
X146300000Y-82800000D03*
X157150000Y-77000000D03*
X155300000Y-73900000D03*
X156900000Y-73400000D03*
X162900000Y-78100000D03*
X156900000Y-71800000D03*
X154700000Y-73400000D03*
X162000000Y-63800000D03*
X149100000Y-88400000D03*
X159600000Y-63740000D03*
X163000000Y-86100000D03*
X142300000Y-86200000D03*
X145300000Y-81500000D03*
X156900000Y-72600000D03*
X142200000Y-94200000D03*
X148000000Y-63800000D03*
X163000000Y-87800000D03*
X158600000Y-80200000D03*
%TO.N,VDD*%
X146500000Y-87200000D03*
X144600000Y-87200000D03*
X144600000Y-85100000D03*
X146500000Y-85100000D03*
%TO.N,Net-(D1-~_1)*%
X144500000Y-91150000D03*
X148800000Y-93300000D03*
%TO.N,+3.3V*%
X157800000Y-73400000D03*
X145800000Y-65000000D03*
X157800000Y-69400000D03*
X158700000Y-70200000D03*
X157800000Y-71000000D03*
X145800000Y-68500000D03*
X158700000Y-69400000D03*
X144550000Y-65000000D03*
X157800000Y-72600000D03*
X147100000Y-65000000D03*
X157800000Y-71800000D03*
X157800000Y-70200000D03*
X158700000Y-71000000D03*
X147100000Y-68500000D03*
X142800000Y-82200000D03*
X158800000Y-75100000D03*
X158800000Y-74100000D03*
X148400000Y-68500000D03*
X149200000Y-67100000D03*
%TO.N,VCAP*%
X149700000Y-78600000D03*
X152020000Y-78600000D03*
X154340000Y-78600000D03*
X153180000Y-78600000D03*
X150860000Y-78600000D03*
X155500000Y-78600000D03*
%TO.N,Net-(U2-EN)*%
X143300000Y-66280000D03*
%TD*%
%TA.AperFunction,Conductor*%
%TO.N,+3.3V*%
G36*
X165742539Y-62720185D02*
G01*
X165788294Y-62772989D01*
X165799500Y-62824500D01*
X165799500Y-90875500D01*
X165779815Y-90942539D01*
X165727011Y-90988294D01*
X165675500Y-90999500D01*
X158892682Y-90999500D01*
X158680235Y-91030044D01*
X158680225Y-91030047D01*
X158474284Y-91090517D01*
X158279061Y-91179672D01*
X158279048Y-91179679D01*
X158098485Y-91295720D01*
X157936275Y-91436275D01*
X157795720Y-91598485D01*
X157679679Y-91779048D01*
X157679672Y-91779061D01*
X157590517Y-91974284D01*
X157530047Y-92180225D01*
X157530044Y-92180235D01*
X157499500Y-92392682D01*
X157499500Y-98875500D01*
X157479815Y-98942539D01*
X157427011Y-98988294D01*
X157375500Y-98999500D01*
X141924500Y-98999500D01*
X141857461Y-98979815D01*
X141811706Y-98927011D01*
X141800500Y-98875500D01*
X141800500Y-94762051D01*
X141820185Y-94695012D01*
X141872989Y-94649257D01*
X141942147Y-94639313D01*
X141986499Y-94654663D01*
X142006814Y-94666392D01*
X142134108Y-94700500D01*
X142134110Y-94700500D01*
X142265890Y-94700500D01*
X142265892Y-94700500D01*
X142393186Y-94666392D01*
X142413499Y-94654663D01*
X142481399Y-94638191D01*
X142547426Y-94661043D01*
X142590617Y-94715964D01*
X142599500Y-94762051D01*
X142599500Y-97719752D01*
X142611131Y-97778229D01*
X142611132Y-97778230D01*
X142655447Y-97844552D01*
X142721769Y-97888867D01*
X142721770Y-97888868D01*
X142780247Y-97900499D01*
X142780250Y-97900500D01*
X142780252Y-97900500D01*
X146219750Y-97900500D01*
X146219751Y-97900499D01*
X146234568Y-97897552D01*
X146278229Y-97888868D01*
X146278229Y-97888867D01*
X146278231Y-97888867D01*
X146344552Y-97844552D01*
X146388867Y-97778231D01*
X146388867Y-97778229D01*
X146388868Y-97778229D01*
X146400499Y-97719752D01*
X146400500Y-97719750D01*
X146400500Y-95875441D01*
X147679500Y-95875441D01*
X147679500Y-96124558D01*
X147679501Y-96124575D01*
X147712017Y-96371561D01*
X147776498Y-96612207D01*
X147871830Y-96842361D01*
X147871837Y-96842376D01*
X147996400Y-97058126D01*
X148148060Y-97255774D01*
X148148066Y-97255781D01*
X148324218Y-97431933D01*
X148324225Y-97431939D01*
X148521873Y-97583599D01*
X148737623Y-97708162D01*
X148737638Y-97708169D01*
X148836825Y-97749253D01*
X148967793Y-97803502D01*
X149208435Y-97867982D01*
X149455435Y-97900500D01*
X149455442Y-97900500D01*
X149704558Y-97900500D01*
X149704565Y-97900500D01*
X149951565Y-97867982D01*
X150192207Y-97803502D01*
X150422373Y-97708164D01*
X150638127Y-97583599D01*
X150835776Y-97431938D01*
X151011938Y-97255776D01*
X151163599Y-97058127D01*
X151288164Y-96842373D01*
X151383502Y-96612207D01*
X151447982Y-96371565D01*
X151480500Y-96124565D01*
X151480500Y-95875441D01*
X152759500Y-95875441D01*
X152759500Y-96124558D01*
X152759501Y-96124575D01*
X152792017Y-96371561D01*
X152856498Y-96612207D01*
X152951830Y-96842361D01*
X152951837Y-96842376D01*
X153076400Y-97058126D01*
X153228060Y-97255774D01*
X153228066Y-97255781D01*
X153404218Y-97431933D01*
X153404225Y-97431939D01*
X153601873Y-97583599D01*
X153817623Y-97708162D01*
X153817638Y-97708169D01*
X153916825Y-97749253D01*
X154047793Y-97803502D01*
X154288435Y-97867982D01*
X154535435Y-97900500D01*
X154535442Y-97900500D01*
X154784558Y-97900500D01*
X154784565Y-97900500D01*
X155031565Y-97867982D01*
X155272207Y-97803502D01*
X155502373Y-97708164D01*
X155718127Y-97583599D01*
X155915776Y-97431938D01*
X156091938Y-97255776D01*
X156243599Y-97058127D01*
X156368164Y-96842373D01*
X156463502Y-96612207D01*
X156527982Y-96371565D01*
X156560500Y-96124565D01*
X156560500Y-95875435D01*
X156527982Y-95628435D01*
X156463502Y-95387793D01*
X156368164Y-95157627D01*
X156243599Y-94941873D01*
X156091938Y-94744224D01*
X156091933Y-94744218D01*
X155915781Y-94568066D01*
X155915774Y-94568060D01*
X155718126Y-94416400D01*
X155502376Y-94291837D01*
X155502361Y-94291830D01*
X155272207Y-94196498D01*
X155031561Y-94132017D01*
X154784575Y-94099501D01*
X154784570Y-94099500D01*
X154784565Y-94099500D01*
X154535435Y-94099500D01*
X154535429Y-94099500D01*
X154535424Y-94099501D01*
X154288438Y-94132017D01*
X154047792Y-94196498D01*
X153817638Y-94291830D01*
X153817623Y-94291837D01*
X153601873Y-94416400D01*
X153404225Y-94568060D01*
X153404218Y-94568066D01*
X153228066Y-94744218D01*
X153228060Y-94744225D01*
X153076400Y-94941873D01*
X152951837Y-95157623D01*
X152951830Y-95157638D01*
X152856498Y-95387792D01*
X152792017Y-95628438D01*
X152759501Y-95875424D01*
X152759500Y-95875441D01*
X151480500Y-95875441D01*
X151480500Y-95875435D01*
X151447982Y-95628435D01*
X151383502Y-95387793D01*
X151288164Y-95157627D01*
X151163599Y-94941873D01*
X151011938Y-94744224D01*
X151011933Y-94744218D01*
X150835781Y-94568066D01*
X150835774Y-94568060D01*
X150638126Y-94416400D01*
X150422376Y-94291837D01*
X150422361Y-94291830D01*
X150192207Y-94196498D01*
X149951561Y-94132017D01*
X149704575Y-94099501D01*
X149704570Y-94099500D01*
X149704565Y-94099500D01*
X149455435Y-94099500D01*
X149455429Y-94099500D01*
X149455424Y-94099501D01*
X149208438Y-94132017D01*
X148967792Y-94196498D01*
X148737638Y-94291830D01*
X148737623Y-94291837D01*
X148521873Y-94416400D01*
X148324225Y-94568060D01*
X148324218Y-94568066D01*
X148148066Y-94744218D01*
X148148060Y-94744225D01*
X147996400Y-94941873D01*
X147871837Y-95157623D01*
X147871830Y-95157638D01*
X147776498Y-95387792D01*
X147712017Y-95628438D01*
X147679501Y-95875424D01*
X147679500Y-95875441D01*
X146400500Y-95875441D01*
X146400500Y-94280249D01*
X146400499Y-94280247D01*
X146388868Y-94221770D01*
X146388867Y-94221769D01*
X146344552Y-94155447D01*
X146278230Y-94111132D01*
X146278229Y-94111131D01*
X146219752Y-94099500D01*
X146219748Y-94099500D01*
X142786375Y-94099500D01*
X142719336Y-94079815D01*
X142673581Y-94027011D01*
X142666599Y-94007588D01*
X142666392Y-94006814D01*
X142600500Y-93892686D01*
X142507314Y-93799500D01*
X142442028Y-93761807D01*
X142393187Y-93733608D01*
X142329539Y-93716554D01*
X142265892Y-93699500D01*
X142134108Y-93699500D01*
X142006814Y-93733608D01*
X142006813Y-93733608D01*
X142006811Y-93733609D01*
X142006808Y-93733610D01*
X141986498Y-93745336D01*
X141918598Y-93761807D01*
X141852571Y-93738954D01*
X141809382Y-93684032D01*
X141800500Y-93637948D01*
X141800500Y-93234108D01*
X148299500Y-93234108D01*
X148299500Y-93365891D01*
X148333608Y-93493187D01*
X148366554Y-93550250D01*
X148399500Y-93607314D01*
X148492686Y-93700500D01*
X148570344Y-93745336D01*
X148598872Y-93761807D01*
X148606814Y-93766392D01*
X148734108Y-93800500D01*
X148734110Y-93800500D01*
X148865890Y-93800500D01*
X148865892Y-93800500D01*
X148993186Y-93766392D01*
X149107314Y-93700500D01*
X149200500Y-93607314D01*
X149266392Y-93493186D01*
X149300500Y-93365892D01*
X149300500Y-93234108D01*
X149266392Y-93106814D01*
X149200500Y-92992686D01*
X149107314Y-92899500D01*
X149050250Y-92866554D01*
X148993187Y-92833608D01*
X148929539Y-92816554D01*
X148865892Y-92799500D01*
X148734108Y-92799500D01*
X148606812Y-92833608D01*
X148492686Y-92899500D01*
X148492683Y-92899502D01*
X148399502Y-92992683D01*
X148399500Y-92992686D01*
X148333608Y-93106812D01*
X148299500Y-93234108D01*
X141800500Y-93234108D01*
X141800500Y-91084108D01*
X143999500Y-91084108D01*
X143999500Y-91215891D01*
X144033608Y-91343187D01*
X144066554Y-91400250D01*
X144099500Y-91457314D01*
X144192686Y-91550500D01*
X144306814Y-91616392D01*
X144434108Y-91650500D01*
X144434110Y-91650500D01*
X144565890Y-91650500D01*
X144565892Y-91650500D01*
X144693186Y-91616392D01*
X144807314Y-91550500D01*
X144900500Y-91457314D01*
X144966392Y-91343186D01*
X145000500Y-91215892D01*
X145000500Y-91084108D01*
X144966392Y-90956814D01*
X144900500Y-90842686D01*
X144807314Y-90749500D01*
X144750250Y-90716554D01*
X144693187Y-90683608D01*
X144629539Y-90666554D01*
X144565892Y-90649500D01*
X144434108Y-90649500D01*
X144306812Y-90683608D01*
X144192686Y-90749500D01*
X144192683Y-90749502D01*
X144099502Y-90842683D01*
X144099500Y-90842686D01*
X144033608Y-90956812D01*
X143999500Y-91084108D01*
X141800500Y-91084108D01*
X141800500Y-90393713D01*
X152949500Y-90393713D01*
X152949500Y-90606286D01*
X152961746Y-90683608D01*
X152982754Y-90816243D01*
X153023790Y-90942539D01*
X153048444Y-91018414D01*
X153144951Y-91207820D01*
X153269890Y-91379786D01*
X153420213Y-91530109D01*
X153592179Y-91655048D01*
X153592181Y-91655049D01*
X153592184Y-91655051D01*
X153781588Y-91751557D01*
X153983757Y-91817246D01*
X154193713Y-91850500D01*
X154193714Y-91850500D01*
X154406286Y-91850500D01*
X154406287Y-91850500D01*
X154616243Y-91817246D01*
X154818412Y-91751557D01*
X155007816Y-91655051D01*
X155061027Y-91616391D01*
X155179786Y-91530109D01*
X155179788Y-91530106D01*
X155179792Y-91530104D01*
X155330104Y-91379792D01*
X155330106Y-91379788D01*
X155330109Y-91379786D01*
X155455048Y-91207820D01*
X155455047Y-91207820D01*
X155455051Y-91207816D01*
X155551557Y-91018412D01*
X155617246Y-90816243D01*
X155650500Y-90606287D01*
X155650500Y-90393713D01*
X155617246Y-90183757D01*
X155551557Y-89981588D01*
X155455051Y-89792184D01*
X155455049Y-89792181D01*
X155455048Y-89792179D01*
X155330109Y-89620213D01*
X155179786Y-89469890D01*
X155007820Y-89344951D01*
X154818414Y-89248444D01*
X154818413Y-89248443D01*
X154818412Y-89248443D01*
X154616243Y-89182754D01*
X154616241Y-89182753D01*
X154616240Y-89182753D01*
X154454957Y-89157208D01*
X154406287Y-89149500D01*
X154193713Y-89149500D01*
X154145042Y-89157208D01*
X153983760Y-89182753D01*
X153781585Y-89248444D01*
X153592179Y-89344951D01*
X153420213Y-89469890D01*
X153269890Y-89620213D01*
X153144951Y-89792179D01*
X153048444Y-89981585D01*
X152982753Y-90183760D01*
X152949500Y-90393713D01*
X141800500Y-90393713D01*
X141800500Y-88334108D01*
X148599500Y-88334108D01*
X148599500Y-88465891D01*
X148633608Y-88593187D01*
X148666554Y-88650250D01*
X148699500Y-88707314D01*
X148792686Y-88800500D01*
X148906814Y-88866392D01*
X149034108Y-88900500D01*
X149034110Y-88900500D01*
X149165890Y-88900500D01*
X149165892Y-88900500D01*
X149293186Y-88866392D01*
X149407314Y-88800500D01*
X149500500Y-88707314D01*
X149566392Y-88593186D01*
X149600500Y-88465892D01*
X149600500Y-88334108D01*
X149566392Y-88206814D01*
X149500500Y-88092686D01*
X149407314Y-87999500D01*
X149350250Y-87966554D01*
X149293187Y-87933608D01*
X149229539Y-87916554D01*
X149165892Y-87899500D01*
X149034108Y-87899500D01*
X148906812Y-87933608D01*
X148792686Y-87999500D01*
X148792683Y-87999502D01*
X148699502Y-88092683D01*
X148699500Y-88092686D01*
X148633608Y-88206812D01*
X148599500Y-88334108D01*
X141800500Y-88334108D01*
X141800500Y-87734108D01*
X162499500Y-87734108D01*
X162499500Y-87865891D01*
X162533608Y-87993187D01*
X162566554Y-88050250D01*
X162599500Y-88107314D01*
X162692686Y-88200500D01*
X162806814Y-88266392D01*
X162934108Y-88300500D01*
X162934110Y-88300500D01*
X163065890Y-88300500D01*
X163065892Y-88300500D01*
X163193186Y-88266392D01*
X163307314Y-88200500D01*
X163400500Y-88107314D01*
X163466392Y-87993186D01*
X163500500Y-87865892D01*
X163500500Y-87734108D01*
X163466392Y-87606814D01*
X163400500Y-87492686D01*
X163307314Y-87399500D01*
X163250250Y-87366554D01*
X163193187Y-87333608D01*
X163129539Y-87316554D01*
X163065892Y-87299500D01*
X162934108Y-87299500D01*
X162806812Y-87333608D01*
X162692686Y-87399500D01*
X162692683Y-87399502D01*
X162599502Y-87492683D01*
X162599500Y-87492686D01*
X162533608Y-87606812D01*
X162499500Y-87734108D01*
X141800500Y-87734108D01*
X141800500Y-87134108D01*
X144099500Y-87134108D01*
X144099500Y-87265891D01*
X144133608Y-87393187D01*
X144166554Y-87450250D01*
X144199500Y-87507314D01*
X144292686Y-87600500D01*
X144391521Y-87657563D01*
X144406810Y-87666390D01*
X144406814Y-87666392D01*
X144534108Y-87700500D01*
X144534110Y-87700500D01*
X144665890Y-87700500D01*
X144665892Y-87700500D01*
X144793186Y-87666392D01*
X144907314Y-87600500D01*
X145000500Y-87507314D01*
X145066392Y-87393186D01*
X145100500Y-87265892D01*
X145100500Y-87134108D01*
X145999500Y-87134108D01*
X145999500Y-87265891D01*
X146033608Y-87393187D01*
X146066554Y-87450250D01*
X146099500Y-87507314D01*
X146192686Y-87600500D01*
X146291521Y-87657563D01*
X146306810Y-87666390D01*
X146306814Y-87666392D01*
X146434108Y-87700500D01*
X146434110Y-87700500D01*
X146565890Y-87700500D01*
X146565892Y-87700500D01*
X146693186Y-87666392D01*
X146807314Y-87600500D01*
X146900500Y-87507314D01*
X146966392Y-87393186D01*
X147000500Y-87265892D01*
X147000500Y-87134108D01*
X146966392Y-87006814D01*
X146900500Y-86892686D01*
X146807314Y-86799500D01*
X146750250Y-86766554D01*
X146693187Y-86733608D01*
X146629539Y-86716554D01*
X146565892Y-86699500D01*
X146434108Y-86699500D01*
X146306812Y-86733608D01*
X146192686Y-86799500D01*
X146192683Y-86799502D01*
X146099502Y-86892683D01*
X146099500Y-86892686D01*
X146033608Y-87006812D01*
X145999500Y-87134108D01*
X145100500Y-87134108D01*
X145066392Y-87006814D01*
X145000500Y-86892686D01*
X144907314Y-86799500D01*
X144850250Y-86766554D01*
X144793187Y-86733608D01*
X144729539Y-86716554D01*
X144665892Y-86699500D01*
X144534108Y-86699500D01*
X144406812Y-86733608D01*
X144292686Y-86799500D01*
X144292683Y-86799502D01*
X144199502Y-86892683D01*
X144199500Y-86892686D01*
X144133608Y-87006812D01*
X144099500Y-87134108D01*
X141800500Y-87134108D01*
X141800500Y-86704315D01*
X141820185Y-86637276D01*
X141872989Y-86591521D01*
X141942147Y-86581577D01*
X141986501Y-86596928D01*
X141992683Y-86600497D01*
X141992686Y-86600500D01*
X142106814Y-86666392D01*
X142234108Y-86700500D01*
X142234110Y-86700500D01*
X142365890Y-86700500D01*
X142365892Y-86700500D01*
X142493186Y-86666392D01*
X142607314Y-86600500D01*
X142700500Y-86507314D01*
X142766392Y-86393186D01*
X142800500Y-86265892D01*
X142800500Y-86134108D01*
X142773705Y-86034108D01*
X162499500Y-86034108D01*
X162499500Y-86165891D01*
X162533608Y-86293187D01*
X162566554Y-86350250D01*
X162599500Y-86407314D01*
X162692686Y-86500500D01*
X162806814Y-86566392D01*
X162934108Y-86600500D01*
X162934110Y-86600500D01*
X163065890Y-86600500D01*
X163065892Y-86600500D01*
X163193186Y-86566392D01*
X163307314Y-86500500D01*
X163400500Y-86407314D01*
X163466392Y-86293186D01*
X163500500Y-86165892D01*
X163500500Y-86034108D01*
X163466392Y-85906814D01*
X163400500Y-85792686D01*
X163307314Y-85699500D01*
X163250250Y-85666554D01*
X163193187Y-85633608D01*
X163129539Y-85616554D01*
X163065892Y-85599500D01*
X162934108Y-85599500D01*
X162806812Y-85633608D01*
X162692686Y-85699500D01*
X162692683Y-85699502D01*
X162599502Y-85792683D01*
X162599500Y-85792686D01*
X162533608Y-85906812D01*
X162499500Y-86034108D01*
X142773705Y-86034108D01*
X142766392Y-86006814D01*
X142700500Y-85892686D01*
X142607314Y-85799500D01*
X142550250Y-85766554D01*
X142493187Y-85733608D01*
X142429539Y-85716554D01*
X142365892Y-85699500D01*
X142234108Y-85699500D01*
X142106814Y-85733608D01*
X142106813Y-85733608D01*
X142106811Y-85733609D01*
X142106810Y-85733609D01*
X141986500Y-85803071D01*
X141918600Y-85819544D01*
X141852573Y-85796692D01*
X141809382Y-85741770D01*
X141800500Y-85695684D01*
X141800500Y-85034108D01*
X144099500Y-85034108D01*
X144099500Y-85165891D01*
X144133608Y-85293187D01*
X144166554Y-85350250D01*
X144199500Y-85407314D01*
X144292686Y-85500500D01*
X144406814Y-85566392D01*
X144534108Y-85600500D01*
X144534110Y-85600500D01*
X144665890Y-85600500D01*
X144665892Y-85600500D01*
X144793186Y-85566392D01*
X144907314Y-85500500D01*
X145000500Y-85407314D01*
X145066392Y-85293186D01*
X145100500Y-85165892D01*
X145100500Y-85034108D01*
X145999500Y-85034108D01*
X145999500Y-85165891D01*
X146033608Y-85293187D01*
X146066554Y-85350250D01*
X146099500Y-85407314D01*
X146192686Y-85500500D01*
X146306814Y-85566392D01*
X146434108Y-85600500D01*
X146434110Y-85600500D01*
X146565890Y-85600500D01*
X146565892Y-85600500D01*
X146693186Y-85566392D01*
X146807314Y-85500500D01*
X146900500Y-85407314D01*
X146966392Y-85293186D01*
X147000500Y-85165892D01*
X147000500Y-85034108D01*
X146966392Y-84906814D01*
X146900500Y-84792686D01*
X146807314Y-84699500D01*
X146750250Y-84666554D01*
X146693187Y-84633608D01*
X146629539Y-84616554D01*
X146565892Y-84599500D01*
X146434108Y-84599500D01*
X146306812Y-84633608D01*
X146192686Y-84699500D01*
X146192683Y-84699502D01*
X146099502Y-84792683D01*
X146099500Y-84792686D01*
X146033608Y-84906812D01*
X145999500Y-85034108D01*
X145100500Y-85034108D01*
X145066392Y-84906814D01*
X145000500Y-84792686D01*
X144907314Y-84699500D01*
X144850250Y-84666554D01*
X144793187Y-84633608D01*
X144729539Y-84616554D01*
X144665892Y-84599500D01*
X144534108Y-84599500D01*
X144406812Y-84633608D01*
X144292686Y-84699500D01*
X144292683Y-84699502D01*
X144199502Y-84792683D01*
X144199500Y-84792686D01*
X144133608Y-84906812D01*
X144099500Y-85034108D01*
X141800500Y-85034108D01*
X141800500Y-84034108D01*
X161799500Y-84034108D01*
X161799500Y-84165891D01*
X161833608Y-84293187D01*
X161866554Y-84350250D01*
X161899500Y-84407314D01*
X161992686Y-84500500D01*
X162106814Y-84566392D01*
X162234108Y-84600500D01*
X162234110Y-84600500D01*
X162365890Y-84600500D01*
X162365892Y-84600500D01*
X162493186Y-84566392D01*
X162607314Y-84500500D01*
X162700500Y-84407314D01*
X162766392Y-84293186D01*
X162800500Y-84165892D01*
X162800500Y-84034108D01*
X162766392Y-83906814D01*
X162700500Y-83792686D01*
X162607314Y-83699500D01*
X162550250Y-83666554D01*
X162493187Y-83633608D01*
X162429539Y-83616554D01*
X162365892Y-83599500D01*
X162234108Y-83599500D01*
X162106812Y-83633608D01*
X161992686Y-83699500D01*
X161992683Y-83699502D01*
X161899502Y-83792683D01*
X161899500Y-83792686D01*
X161833608Y-83906812D01*
X161799500Y-84034108D01*
X141800500Y-84034108D01*
X141800500Y-83434108D01*
X149799500Y-83434108D01*
X149799500Y-83565891D01*
X149833608Y-83693187D01*
X149866554Y-83750250D01*
X149899500Y-83807314D01*
X149992686Y-83900500D01*
X150091521Y-83957563D01*
X150106810Y-83966390D01*
X150106814Y-83966392D01*
X150234108Y-84000500D01*
X150234110Y-84000500D01*
X150365890Y-84000500D01*
X150365892Y-84000500D01*
X150493186Y-83966392D01*
X150607314Y-83900500D01*
X150700500Y-83807314D01*
X150766392Y-83693186D01*
X150800500Y-83565892D01*
X150800500Y-83434108D01*
X150766392Y-83306814D01*
X150700500Y-83192686D01*
X150607314Y-83099500D01*
X150550250Y-83066554D01*
X150493187Y-83033608D01*
X150429539Y-83016554D01*
X150365892Y-82999500D01*
X150234108Y-82999500D01*
X150106812Y-83033608D01*
X149992686Y-83099500D01*
X149992683Y-83099502D01*
X149899502Y-83192683D01*
X149899500Y-83192686D01*
X149833608Y-83306812D01*
X149799500Y-83434108D01*
X141800500Y-83434108D01*
X141800500Y-82734108D01*
X145799500Y-82734108D01*
X145799500Y-82865891D01*
X145833608Y-82993187D01*
X145837253Y-82999500D01*
X145899500Y-83107314D01*
X145992686Y-83200500D01*
X146106814Y-83266392D01*
X146234108Y-83300500D01*
X146234110Y-83300500D01*
X146365890Y-83300500D01*
X146365892Y-83300500D01*
X146493186Y-83266392D01*
X146607314Y-83200500D01*
X146700500Y-83107314D01*
X146766392Y-82993186D01*
X146800500Y-82865892D01*
X146800500Y-82734108D01*
X146766392Y-82606814D01*
X146700500Y-82492686D01*
X146607314Y-82399500D01*
X146493186Y-82333608D01*
X146365892Y-82299500D01*
X146234108Y-82299500D01*
X146106812Y-82333608D01*
X145992686Y-82399500D01*
X145992683Y-82399502D01*
X145899502Y-82492683D01*
X145899500Y-82492686D01*
X145833608Y-82606812D01*
X145799500Y-82734108D01*
X141800500Y-82734108D01*
X141800500Y-82234108D01*
X162599500Y-82234108D01*
X162599500Y-82365891D01*
X162633608Y-82493187D01*
X162666554Y-82550250D01*
X162699500Y-82607314D01*
X162792686Y-82700500D01*
X162906814Y-82766392D01*
X163034108Y-82800500D01*
X163034110Y-82800500D01*
X163165890Y-82800500D01*
X163165892Y-82800500D01*
X163293186Y-82766392D01*
X163407314Y-82700500D01*
X163500500Y-82607314D01*
X163566392Y-82493186D01*
X163600500Y-82365892D01*
X163600500Y-82234108D01*
X163566392Y-82106814D01*
X163500500Y-81992686D01*
X163407314Y-81899500D01*
X163350250Y-81866554D01*
X163293187Y-81833608D01*
X163229539Y-81816554D01*
X163165892Y-81799500D01*
X163034108Y-81799500D01*
X162906812Y-81833608D01*
X162792686Y-81899500D01*
X162792683Y-81899502D01*
X162699502Y-81992683D01*
X162699500Y-81992686D01*
X162633608Y-82106812D01*
X162599500Y-82234108D01*
X141800500Y-82234108D01*
X141800500Y-81434108D01*
X144799500Y-81434108D01*
X144799500Y-81565891D01*
X144833608Y-81693187D01*
X144866554Y-81750250D01*
X144899500Y-81807314D01*
X144992686Y-81900500D01*
X145106814Y-81966392D01*
X145234108Y-82000500D01*
X145234110Y-82000500D01*
X145365890Y-82000500D01*
X145365892Y-82000500D01*
X145493186Y-81966392D01*
X145607314Y-81900500D01*
X145700500Y-81807314D01*
X145766392Y-81693186D01*
X145800500Y-81565892D01*
X145800500Y-81434108D01*
X145766392Y-81306814D01*
X145700500Y-81192686D01*
X145607314Y-81099500D01*
X145550250Y-81066554D01*
X145493187Y-81033608D01*
X145429539Y-81016554D01*
X145365892Y-80999500D01*
X145234108Y-80999500D01*
X145106812Y-81033608D01*
X144992686Y-81099500D01*
X144992683Y-81099502D01*
X144899502Y-81192683D01*
X144899500Y-81192686D01*
X144833608Y-81306812D01*
X144799500Y-81434108D01*
X141800500Y-81434108D01*
X141800500Y-80034108D01*
X144712000Y-80034108D01*
X144712000Y-80165891D01*
X144746108Y-80293187D01*
X144754266Y-80307316D01*
X144812000Y-80407314D01*
X144905186Y-80500500D01*
X145019314Y-80566392D01*
X145146608Y-80600500D01*
X145146610Y-80600500D01*
X145278390Y-80600500D01*
X145278392Y-80600500D01*
X145405686Y-80566392D01*
X145519814Y-80500500D01*
X145613000Y-80407314D01*
X145677730Y-80295197D01*
X145728297Y-80246982D01*
X145796904Y-80233759D01*
X145861769Y-80259727D01*
X145892502Y-80295194D01*
X145896813Y-80302660D01*
X145899500Y-80307314D01*
X145992686Y-80400500D01*
X146106814Y-80466392D01*
X146234108Y-80500500D01*
X146234110Y-80500500D01*
X146365890Y-80500500D01*
X146365892Y-80500500D01*
X146493186Y-80466392D01*
X146607314Y-80400500D01*
X146700500Y-80307314D01*
X146766392Y-80193186D01*
X146800500Y-80065892D01*
X146800500Y-79934108D01*
X146766392Y-79806814D01*
X146765230Y-79804802D01*
X146757563Y-79791521D01*
X146700500Y-79692686D01*
X146607314Y-79599500D01*
X146527117Y-79553198D01*
X146493187Y-79533608D01*
X146421228Y-79514327D01*
X146365892Y-79499500D01*
X146234108Y-79499500D01*
X146106812Y-79533608D01*
X145992686Y-79599500D01*
X145992683Y-79599502D01*
X145899502Y-79692683D01*
X145899500Y-79692686D01*
X145834769Y-79804802D01*
X145784201Y-79853017D01*
X145715594Y-79866239D01*
X145650729Y-79840271D01*
X145619996Y-79804803D01*
X145616934Y-79799500D01*
X145613000Y-79792686D01*
X145519814Y-79699500D01*
X145462468Y-79666391D01*
X145405687Y-79633608D01*
X145342039Y-79616554D01*
X145278392Y-79599500D01*
X145146608Y-79599500D01*
X145019312Y-79633608D01*
X144905186Y-79699500D01*
X144905183Y-79699502D01*
X144812002Y-79792683D01*
X144812000Y-79792686D01*
X144746108Y-79906812D01*
X144712000Y-80034108D01*
X141800500Y-80034108D01*
X141800500Y-79134108D01*
X157799500Y-79134108D01*
X157799500Y-79265891D01*
X157833608Y-79393187D01*
X157866554Y-79450250D01*
X157899500Y-79507314D01*
X157992686Y-79600500D01*
X158106814Y-79666392D01*
X158150930Y-79678212D01*
X158210590Y-79714577D01*
X158241119Y-79777424D01*
X158232824Y-79846799D01*
X158206521Y-79885665D01*
X158199500Y-79892685D01*
X158199500Y-79892686D01*
X158133608Y-80006812D01*
X158117778Y-80065892D01*
X158099500Y-80134108D01*
X158099500Y-80265892D01*
X158116554Y-80329539D01*
X158133608Y-80393187D01*
X158141766Y-80407316D01*
X158199500Y-80507314D01*
X158292686Y-80600500D01*
X158406814Y-80666392D01*
X158534108Y-80700500D01*
X158534110Y-80700500D01*
X158665890Y-80700500D01*
X158665892Y-80700500D01*
X158793186Y-80666392D01*
X158907314Y-80600500D01*
X159000500Y-80507314D01*
X159066392Y-80393186D01*
X159100500Y-80265892D01*
X159100500Y-80134108D01*
X159066392Y-80006814D01*
X159000500Y-79892686D01*
X158907314Y-79799500D01*
X158793186Y-79733608D01*
X158749067Y-79721786D01*
X158689408Y-79685421D01*
X158658880Y-79622574D01*
X158667175Y-79553198D01*
X158693480Y-79514333D01*
X158700500Y-79507314D01*
X158766392Y-79393186D01*
X158800500Y-79265892D01*
X158800500Y-79134108D01*
X158766392Y-79006814D01*
X158700500Y-78892686D01*
X158607314Y-78799500D01*
X158550250Y-78766554D01*
X158493187Y-78733608D01*
X158429539Y-78716554D01*
X158365892Y-78699500D01*
X158234108Y-78699500D01*
X158106812Y-78733608D01*
X157992686Y-78799500D01*
X157992683Y-78799502D01*
X157899502Y-78892683D01*
X157899500Y-78892686D01*
X157833608Y-79006812D01*
X157799500Y-79134108D01*
X141800500Y-79134108D01*
X141800500Y-78534108D01*
X149199500Y-78534108D01*
X149199500Y-78665891D01*
X149233608Y-78793187D01*
X149266554Y-78850250D01*
X149299500Y-78907314D01*
X149392686Y-79000500D01*
X149491521Y-79057563D01*
X149506810Y-79066390D01*
X149506814Y-79066392D01*
X149634108Y-79100500D01*
X149634110Y-79100500D01*
X149765890Y-79100500D01*
X149765892Y-79100500D01*
X149893186Y-79066392D01*
X150007314Y-79000500D01*
X150100500Y-78907314D01*
X150166392Y-78793186D01*
X150166392Y-78793185D01*
X150170456Y-78786147D01*
X150172170Y-78787136D01*
X150209269Y-78741090D01*
X150275561Y-78719018D01*
X150343262Y-78736291D01*
X150390878Y-78787423D01*
X150393139Y-78792374D01*
X150409595Y-78820876D01*
X150459500Y-78907314D01*
X150552686Y-79000500D01*
X150651521Y-79057563D01*
X150666810Y-79066390D01*
X150666814Y-79066392D01*
X150794108Y-79100500D01*
X150794110Y-79100500D01*
X150925890Y-79100500D01*
X150925892Y-79100500D01*
X151053186Y-79066392D01*
X151167314Y-79000500D01*
X151260500Y-78907314D01*
X151326392Y-78793186D01*
X151326392Y-78793185D01*
X151330456Y-78786147D01*
X151332170Y-78787136D01*
X151369269Y-78741090D01*
X151435561Y-78719018D01*
X151503262Y-78736291D01*
X151550878Y-78787423D01*
X151553139Y-78792374D01*
X151569595Y-78820876D01*
X151619500Y-78907314D01*
X151712686Y-79000500D01*
X151811521Y-79057563D01*
X151826810Y-79066390D01*
X151826814Y-79066392D01*
X151954108Y-79100500D01*
X151954110Y-79100500D01*
X152085890Y-79100500D01*
X152085892Y-79100500D01*
X152213186Y-79066392D01*
X152327314Y-79000500D01*
X152420500Y-78907314D01*
X152486392Y-78793186D01*
X152486392Y-78793185D01*
X152490456Y-78786147D01*
X152492170Y-78787136D01*
X152529269Y-78741090D01*
X152595561Y-78719018D01*
X152663262Y-78736291D01*
X152710878Y-78787423D01*
X152713139Y-78792374D01*
X152729595Y-78820876D01*
X152779500Y-78907314D01*
X152872686Y-79000500D01*
X152971521Y-79057563D01*
X152986810Y-79066390D01*
X152986814Y-79066392D01*
X153114108Y-79100500D01*
X153114110Y-79100500D01*
X153245890Y-79100500D01*
X153245892Y-79100500D01*
X153373186Y-79066392D01*
X153487314Y-79000500D01*
X153580500Y-78907314D01*
X153646392Y-78793186D01*
X153646392Y-78793185D01*
X153650456Y-78786147D01*
X153652170Y-78787136D01*
X153689269Y-78741090D01*
X153755561Y-78719018D01*
X153823262Y-78736291D01*
X153870878Y-78787423D01*
X153873139Y-78792374D01*
X153889595Y-78820876D01*
X153939500Y-78907314D01*
X154032686Y-79000500D01*
X154131521Y-79057563D01*
X154146810Y-79066390D01*
X154146814Y-79066392D01*
X154274108Y-79100500D01*
X154274110Y-79100500D01*
X154405890Y-79100500D01*
X154405892Y-79100500D01*
X154533186Y-79066392D01*
X154647314Y-79000500D01*
X154740500Y-78907314D01*
X154806392Y-78793186D01*
X154806392Y-78793185D01*
X154810456Y-78786147D01*
X154812170Y-78787136D01*
X154849269Y-78741090D01*
X154915561Y-78719018D01*
X154983262Y-78736291D01*
X155030878Y-78787423D01*
X155033139Y-78792374D01*
X155049595Y-78820876D01*
X155099500Y-78907314D01*
X155192686Y-79000500D01*
X155291521Y-79057563D01*
X155306810Y-79066390D01*
X155306814Y-79066392D01*
X155434108Y-79100500D01*
X155434110Y-79100500D01*
X155565890Y-79100500D01*
X155565892Y-79100500D01*
X155693186Y-79066392D01*
X155807314Y-79000500D01*
X155900500Y-78907314D01*
X155966392Y-78793186D01*
X156000500Y-78665892D01*
X156000500Y-78534108D01*
X155966392Y-78406814D01*
X155900500Y-78292686D01*
X155807314Y-78199500D01*
X155693186Y-78133608D01*
X155565892Y-78099500D01*
X155434108Y-78099500D01*
X155306812Y-78133608D01*
X155192686Y-78199500D01*
X155192683Y-78199502D01*
X155099502Y-78292683D01*
X155099500Y-78292686D01*
X155029544Y-78413853D01*
X155027830Y-78412863D01*
X154990724Y-78458914D01*
X154924430Y-78480981D01*
X154856730Y-78463704D01*
X154809118Y-78412569D01*
X154806859Y-78407623D01*
X154806391Y-78406812D01*
X154740500Y-78292686D01*
X154647314Y-78199500D01*
X154589100Y-78165890D01*
X154533187Y-78133608D01*
X154469539Y-78116554D01*
X154405892Y-78099500D01*
X154274108Y-78099500D01*
X154146812Y-78133608D01*
X154032686Y-78199500D01*
X154032683Y-78199502D01*
X153939502Y-78292683D01*
X153939500Y-78292686D01*
X153869544Y-78413853D01*
X153867830Y-78412863D01*
X153830724Y-78458914D01*
X153764430Y-78480981D01*
X153696730Y-78463704D01*
X153649118Y-78412569D01*
X153646859Y-78407623D01*
X153646391Y-78406812D01*
X153580500Y-78292686D01*
X153487314Y-78199500D01*
X153429100Y-78165890D01*
X153373187Y-78133608D01*
X153309539Y-78116554D01*
X153245892Y-78099500D01*
X153114108Y-78099500D01*
X152986812Y-78133608D01*
X152872686Y-78199500D01*
X152872683Y-78199502D01*
X152779502Y-78292683D01*
X152779500Y-78292686D01*
X152709544Y-78413853D01*
X152707830Y-78412863D01*
X152670724Y-78458914D01*
X152604430Y-78480981D01*
X152536730Y-78463704D01*
X152489118Y-78412569D01*
X152486859Y-78407623D01*
X152486391Y-78406812D01*
X152420500Y-78292686D01*
X152327314Y-78199500D01*
X152269100Y-78165890D01*
X152213187Y-78133608D01*
X152149539Y-78116554D01*
X152085892Y-78099500D01*
X151954108Y-78099500D01*
X151826812Y-78133608D01*
X151712686Y-78199500D01*
X151712683Y-78199502D01*
X151619502Y-78292683D01*
X151619500Y-78292686D01*
X151549544Y-78413853D01*
X151547830Y-78412863D01*
X151510724Y-78458914D01*
X151444430Y-78480981D01*
X151376730Y-78463704D01*
X151329118Y-78412569D01*
X151326859Y-78407623D01*
X151326391Y-78406812D01*
X151260500Y-78292686D01*
X151167314Y-78199500D01*
X151109100Y-78165890D01*
X151053187Y-78133608D01*
X150989539Y-78116554D01*
X150925892Y-78099500D01*
X150794108Y-78099500D01*
X150666812Y-78133608D01*
X150552686Y-78199500D01*
X150552683Y-78199502D01*
X150459502Y-78292683D01*
X150459500Y-78292686D01*
X150389544Y-78413853D01*
X150387830Y-78412863D01*
X150350724Y-78458914D01*
X150284430Y-78480981D01*
X150216730Y-78463704D01*
X150169118Y-78412569D01*
X150166859Y-78407623D01*
X150166391Y-78406812D01*
X150100500Y-78292686D01*
X150007314Y-78199500D01*
X149949100Y-78165890D01*
X149893187Y-78133608D01*
X149829539Y-78116554D01*
X149765892Y-78099500D01*
X149634108Y-78099500D01*
X149506812Y-78133608D01*
X149392686Y-78199500D01*
X149392683Y-78199502D01*
X149299502Y-78292683D01*
X149299500Y-78292686D01*
X149233608Y-78406812D01*
X149199500Y-78534108D01*
X141800500Y-78534108D01*
X141800500Y-78034108D01*
X162399500Y-78034108D01*
X162399500Y-78165891D01*
X162433608Y-78293187D01*
X162466554Y-78350250D01*
X162499500Y-78407314D01*
X162592686Y-78500500D01*
X162706814Y-78566392D01*
X162834108Y-78600500D01*
X162834110Y-78600500D01*
X162965890Y-78600500D01*
X162965892Y-78600500D01*
X163093186Y-78566392D01*
X163207314Y-78500500D01*
X163300500Y-78407314D01*
X163366392Y-78293186D01*
X163400500Y-78165892D01*
X163400500Y-78034108D01*
X163366392Y-77906814D01*
X163300500Y-77792686D01*
X163207314Y-77699500D01*
X163150250Y-77666554D01*
X163093187Y-77633608D01*
X163029539Y-77616554D01*
X162965892Y-77599500D01*
X162834108Y-77599500D01*
X162706812Y-77633608D01*
X162592686Y-77699500D01*
X162592683Y-77699502D01*
X162499502Y-77792683D01*
X162499500Y-77792686D01*
X162433608Y-77906812D01*
X162399500Y-78034108D01*
X141800500Y-78034108D01*
X141800500Y-76934108D01*
X156649500Y-76934108D01*
X156649500Y-77065891D01*
X156683608Y-77193187D01*
X156716554Y-77250250D01*
X156749500Y-77307314D01*
X156842686Y-77400500D01*
X156956814Y-77466392D01*
X157084108Y-77500500D01*
X157084110Y-77500500D01*
X157215890Y-77500500D01*
X157215892Y-77500500D01*
X157343186Y-77466392D01*
X157457314Y-77400500D01*
X157550500Y-77307314D01*
X157616392Y-77193186D01*
X157650500Y-77065892D01*
X157650500Y-76934108D01*
X157616392Y-76806814D01*
X157550500Y-76692686D01*
X157457314Y-76599500D01*
X157400250Y-76566554D01*
X157343187Y-76533608D01*
X157279539Y-76516554D01*
X157215892Y-76499500D01*
X157084108Y-76499500D01*
X156956812Y-76533608D01*
X156842686Y-76599500D01*
X156842683Y-76599502D01*
X156749502Y-76692683D01*
X156749500Y-76692686D01*
X156683608Y-76806812D01*
X156649500Y-76934108D01*
X141800500Y-76934108D01*
X141800500Y-75834108D01*
X163299500Y-75834108D01*
X163299500Y-75965891D01*
X163333608Y-76093187D01*
X163366554Y-76150250D01*
X163399500Y-76207314D01*
X163492686Y-76300500D01*
X163606814Y-76366392D01*
X163734108Y-76400500D01*
X163734110Y-76400500D01*
X163865890Y-76400500D01*
X163865892Y-76400500D01*
X163993186Y-76366392D01*
X164107314Y-76300500D01*
X164200500Y-76207314D01*
X164266392Y-76093186D01*
X164300500Y-75965892D01*
X164300500Y-75834108D01*
X164266392Y-75706814D01*
X164200500Y-75592686D01*
X164107314Y-75499500D01*
X164050250Y-75466554D01*
X163993187Y-75433608D01*
X163929539Y-75416554D01*
X163865892Y-75399500D01*
X163734108Y-75399500D01*
X163606812Y-75433608D01*
X163492686Y-75499500D01*
X163492683Y-75499502D01*
X163399502Y-75592683D01*
X163399500Y-75592686D01*
X163333608Y-75706812D01*
X163299500Y-75834108D01*
X141800500Y-75834108D01*
X141800500Y-73295730D01*
X145899500Y-73295730D01*
X145899500Y-74504269D01*
X145902353Y-74534699D01*
X145902353Y-74534701D01*
X145937139Y-74634110D01*
X145947207Y-74662882D01*
X146027850Y-74772150D01*
X146137118Y-74852793D01*
X146179845Y-74867744D01*
X146265299Y-74897646D01*
X146295730Y-74900500D01*
X146295734Y-74900500D01*
X147504270Y-74900500D01*
X147534699Y-74897646D01*
X147534701Y-74897646D01*
X147598790Y-74875219D01*
X147662882Y-74852793D01*
X147772150Y-74772150D01*
X147852793Y-74662882D01*
X147875219Y-74598790D01*
X147897646Y-74534701D01*
X147897646Y-74534699D01*
X147900500Y-74504269D01*
X147900500Y-73295730D01*
X147897646Y-73265300D01*
X147897646Y-73265298D01*
X147852793Y-73137119D01*
X147852792Y-73137117D01*
X147847636Y-73130131D01*
X147772150Y-73027850D01*
X147662882Y-72947207D01*
X147662880Y-72947206D01*
X147534700Y-72902353D01*
X147504270Y-72899500D01*
X147504266Y-72899500D01*
X146295734Y-72899500D01*
X146295730Y-72899500D01*
X146265300Y-72902353D01*
X146265298Y-72902353D01*
X146137119Y-72947206D01*
X146137117Y-72947207D01*
X146027850Y-73027850D01*
X145947207Y-73137117D01*
X145947206Y-73137119D01*
X145902353Y-73265298D01*
X145902353Y-73265300D01*
X145899500Y-73295730D01*
X141800500Y-73295730D01*
X141800500Y-70498543D01*
X145899499Y-70498543D01*
X145937947Y-70691829D01*
X145937950Y-70691839D01*
X146013364Y-70873907D01*
X146013371Y-70873920D01*
X146122860Y-71037781D01*
X146122863Y-71037785D01*
X146262214Y-71177136D01*
X146262218Y-71177139D01*
X146426079Y-71286628D01*
X146426092Y-71286635D01*
X146598993Y-71358252D01*
X146608165Y-71362051D01*
X146608169Y-71362051D01*
X146608170Y-71362052D01*
X146801456Y-71400500D01*
X146801459Y-71400500D01*
X146998543Y-71400500D01*
X147135484Y-71373260D01*
X147191835Y-71362051D01*
X147373914Y-71286632D01*
X147537782Y-71177139D01*
X147677139Y-71037782D01*
X147786632Y-70873914D01*
X147861109Y-70694108D01*
X148649500Y-70694108D01*
X148649500Y-70825892D01*
X148662367Y-70873914D01*
X148683608Y-70953187D01*
X148687253Y-70959500D01*
X148749500Y-71067314D01*
X148842686Y-71160500D01*
X148956814Y-71226392D01*
X149084108Y-71260500D01*
X149084110Y-71260500D01*
X149224019Y-71260500D01*
X149224019Y-71263600D01*
X149226421Y-71263974D01*
X149243371Y-71261537D01*
X149260227Y-71269235D01*
X149278540Y-71272085D01*
X149291351Y-71283448D01*
X149306927Y-71290562D01*
X149316945Y-71306150D01*
X149330810Y-71318449D01*
X149335630Y-71335226D01*
X149344701Y-71349340D01*
X149346559Y-71373260D01*
X149349724Y-71384275D01*
X149349724Y-71393272D01*
X149349500Y-71394108D01*
X149349500Y-71525892D01*
X149349724Y-71526727D01*
X149349724Y-71535724D01*
X149342074Y-71561774D01*
X149337883Y-71588604D01*
X149332375Y-71594806D01*
X149330039Y-71602763D01*
X149309522Y-71620540D01*
X149291489Y-71640848D01*
X149283501Y-71643088D01*
X149277235Y-71648518D01*
X149250362Y-71652381D01*
X149224215Y-71659715D01*
X149221208Y-71659500D01*
X149215892Y-71659500D01*
X149084108Y-71659500D01*
X148956812Y-71693608D01*
X148842686Y-71759500D01*
X148842683Y-71759502D01*
X148749502Y-71852683D01*
X148749500Y-71852686D01*
X148683608Y-71966812D01*
X148649500Y-72094108D01*
X148649500Y-72225891D01*
X148683608Y-72353187D01*
X148687253Y-72359500D01*
X148749500Y-72467314D01*
X148842686Y-72560500D01*
X148956814Y-72626392D01*
X149084108Y-72660500D01*
X149084110Y-72660500D01*
X149224019Y-72660500D01*
X149224019Y-72663600D01*
X149278540Y-72672085D01*
X149330810Y-72718449D01*
X149349716Y-72785712D01*
X149349500Y-72788745D01*
X149349500Y-72794108D01*
X149349500Y-72925892D01*
X149366554Y-72989539D01*
X149383608Y-73053187D01*
X149406413Y-73092686D01*
X149449500Y-73167314D01*
X149542686Y-73260500D01*
X149656814Y-73326392D01*
X149784108Y-73360500D01*
X149784110Y-73360500D01*
X149915890Y-73360500D01*
X149915892Y-73360500D01*
X150043186Y-73326392D01*
X150157314Y-73260500D01*
X150250500Y-73167314D01*
X150316392Y-73053186D01*
X150350500Y-72925892D01*
X150350500Y-72794108D01*
X150350500Y-72785981D01*
X150353599Y-72785981D01*
X150353973Y-72783574D01*
X150351537Y-72766628D01*
X150359237Y-72749766D01*
X150362089Y-72731451D01*
X150373450Y-72718644D01*
X150380562Y-72703072D01*
X150396155Y-72693051D01*
X150408457Y-72679184D01*
X150425231Y-72674364D01*
X150439340Y-72665298D01*
X150463224Y-72663449D01*
X150474275Y-72660275D01*
X150483268Y-72660275D01*
X150484108Y-72660500D01*
X150615892Y-72660500D01*
X150616732Y-72660275D01*
X150625724Y-72660275D01*
X150651740Y-72667914D01*
X150678540Y-72672085D01*
X150684773Y-72677613D01*
X150692763Y-72679960D01*
X150710516Y-72700448D01*
X150730810Y-72718449D01*
X150733064Y-72726470D01*
X150738518Y-72732764D01*
X150742376Y-72759600D01*
X150749716Y-72785712D01*
X150749500Y-72788745D01*
X150749500Y-72794108D01*
X150749500Y-72925892D01*
X150766554Y-72989539D01*
X150783608Y-73053187D01*
X150806413Y-73092686D01*
X150849500Y-73167314D01*
X150942686Y-73260500D01*
X151056814Y-73326392D01*
X151184108Y-73360500D01*
X151184110Y-73360500D01*
X151315890Y-73360500D01*
X151315892Y-73360500D01*
X151443186Y-73326392D01*
X151557314Y-73260500D01*
X151650500Y-73167314D01*
X151716392Y-73053186D01*
X151750500Y-72925892D01*
X151750500Y-72794108D01*
X151750500Y-72785981D01*
X151753599Y-72785981D01*
X151762089Y-72731451D01*
X151808457Y-72679184D01*
X151875722Y-72660283D01*
X151878754Y-72660500D01*
X151884108Y-72660500D01*
X152015890Y-72660500D01*
X152015892Y-72660500D01*
X152143186Y-72626392D01*
X152257314Y-72560500D01*
X152350500Y-72467314D01*
X152416392Y-72353186D01*
X152450500Y-72225892D01*
X152450500Y-72094108D01*
X152416392Y-71966814D01*
X152414294Y-71963181D01*
X152393054Y-71926392D01*
X152350500Y-71852686D01*
X152257314Y-71759500D01*
X152213334Y-71734108D01*
X154199500Y-71734108D01*
X154199500Y-71865892D01*
X154215711Y-71926392D01*
X154233608Y-71993187D01*
X154266554Y-72050250D01*
X154299500Y-72107314D01*
X154299502Y-72107316D01*
X154304505Y-72112319D01*
X154337990Y-72173642D01*
X154333006Y-72243334D01*
X154304505Y-72287681D01*
X154299502Y-72292683D01*
X154299500Y-72292686D01*
X154233608Y-72406812D01*
X154199500Y-72534108D01*
X154199500Y-72665892D01*
X154213635Y-72718644D01*
X154233608Y-72793187D01*
X154234140Y-72794108D01*
X154299500Y-72907314D01*
X154299502Y-72907316D01*
X154304505Y-72912319D01*
X154337990Y-72973642D01*
X154333006Y-73043334D01*
X154304505Y-73087681D01*
X154299502Y-73092683D01*
X154299500Y-73092686D01*
X154233608Y-73206812D01*
X154199500Y-73334108D01*
X154199500Y-73465891D01*
X154233608Y-73593187D01*
X154266554Y-73650250D01*
X154299500Y-73707314D01*
X154392686Y-73800500D01*
X154506814Y-73866392D01*
X154634108Y-73900500D01*
X154634110Y-73900500D01*
X154686830Y-73900500D01*
X154753869Y-73920185D01*
X154799624Y-73972989D01*
X154806605Y-73992407D01*
X154833608Y-74093187D01*
X154866554Y-74150250D01*
X154899500Y-74207314D01*
X154992686Y-74300500D01*
X155091521Y-74357563D01*
X155106810Y-74366390D01*
X155106814Y-74366392D01*
X155234108Y-74400500D01*
X155234110Y-74400500D01*
X155365890Y-74400500D01*
X155365892Y-74400500D01*
X155493186Y-74366392D01*
X155574653Y-74319356D01*
X155642551Y-74302883D01*
X155708579Y-74325735D01*
X155751770Y-74380655D01*
X155758412Y-74450208D01*
X155744041Y-74488741D01*
X155733610Y-74506808D01*
X155733609Y-74506811D01*
X155699500Y-74634108D01*
X155699500Y-74765891D01*
X155733608Y-74893187D01*
X155766554Y-74950250D01*
X155799500Y-75007314D01*
X155892686Y-75100500D01*
X156006814Y-75166392D01*
X156134108Y-75200500D01*
X156134110Y-75200500D01*
X156265890Y-75200500D01*
X156265892Y-75200500D01*
X156393186Y-75166392D01*
X156507314Y-75100500D01*
X156600500Y-75007314D01*
X156666392Y-74893186D01*
X156700500Y-74765892D01*
X156700500Y-74634108D01*
X156666392Y-74506814D01*
X156600500Y-74392686D01*
X156595495Y-74387681D01*
X156562010Y-74326358D01*
X156566994Y-74256666D01*
X156595495Y-74212319D01*
X156600500Y-74207314D01*
X156666392Y-74093186D01*
X156693832Y-73990775D01*
X156730195Y-73931117D01*
X156793042Y-73900587D01*
X156829799Y-73899932D01*
X156834105Y-73900499D01*
X156834108Y-73900500D01*
X156834111Y-73900500D01*
X156965890Y-73900500D01*
X156965892Y-73900500D01*
X157093186Y-73866392D01*
X157207314Y-73800500D01*
X157300500Y-73707314D01*
X157366392Y-73593186D01*
X157400500Y-73465892D01*
X157400500Y-73334108D01*
X157366392Y-73206814D01*
X157300500Y-73092686D01*
X157295495Y-73087681D01*
X157262010Y-73026358D01*
X157266994Y-72956666D01*
X157295495Y-72912319D01*
X157300500Y-72907314D01*
X157366392Y-72793186D01*
X157400500Y-72665892D01*
X157400500Y-72534108D01*
X157366392Y-72406814D01*
X157358767Y-72393608D01*
X157335430Y-72353187D01*
X157300500Y-72292686D01*
X157295495Y-72287681D01*
X157262010Y-72226358D01*
X157266994Y-72156666D01*
X157275184Y-72139060D01*
X157283511Y-72124302D01*
X157300500Y-72107314D01*
X157352914Y-72016530D01*
X162749500Y-72016530D01*
X162749500Y-72223469D01*
X162789868Y-72426412D01*
X162789870Y-72426420D01*
X162799150Y-72448825D01*
X162869059Y-72617598D01*
X162910209Y-72679184D01*
X162984024Y-72789657D01*
X163130342Y-72935975D01*
X163130345Y-72935977D01*
X163302402Y-73050941D01*
X163493580Y-73130130D01*
X163680513Y-73167313D01*
X163696530Y-73170499D01*
X163696534Y-73170500D01*
X163696535Y-73170500D01*
X163903466Y-73170500D01*
X163903467Y-73170499D01*
X164106420Y-73130130D01*
X164297598Y-73050941D01*
X164469655Y-72935977D01*
X164615977Y-72789655D01*
X164730941Y-72617598D01*
X164810130Y-72426420D01*
X164850500Y-72223465D01*
X164850500Y-72016535D01*
X164810130Y-71813580D01*
X164730941Y-71622402D01*
X164615977Y-71450345D01*
X164615975Y-71450342D01*
X164469657Y-71304024D01*
X164353470Y-71226391D01*
X164297598Y-71189059D01*
X164228648Y-71160499D01*
X164106420Y-71109870D01*
X164106412Y-71109868D01*
X163903469Y-71069500D01*
X163903465Y-71069500D01*
X163696535Y-71069500D01*
X163696530Y-71069500D01*
X163493587Y-71109868D01*
X163493579Y-71109870D01*
X163302403Y-71189058D01*
X163130342Y-71304024D01*
X162984024Y-71450342D01*
X162869058Y-71622403D01*
X162789870Y-71813579D01*
X162789868Y-71813587D01*
X162749500Y-72016530D01*
X157352914Y-72016530D01*
X157366392Y-71993186D01*
X157400500Y-71865892D01*
X157400500Y-71734108D01*
X157366392Y-71606814D01*
X157300500Y-71492686D01*
X157207314Y-71399500D01*
X157120435Y-71349340D01*
X157093187Y-71333608D01*
X156990710Y-71306150D01*
X156965892Y-71299500D01*
X156834108Y-71299500D01*
X156706812Y-71333608D01*
X156592686Y-71399500D01*
X156592683Y-71399502D01*
X156499502Y-71492683D01*
X156499500Y-71492686D01*
X156433608Y-71606812D01*
X156420318Y-71656412D01*
X156399500Y-71734108D01*
X156399500Y-71865892D01*
X156415711Y-71926392D01*
X156433608Y-71993187D01*
X156466554Y-72050250D01*
X156499500Y-72107314D01*
X156499502Y-72107316D01*
X156504505Y-72112319D01*
X156537990Y-72173642D01*
X156533006Y-72243334D01*
X156504505Y-72287681D01*
X156499502Y-72292683D01*
X156499500Y-72292686D01*
X156433608Y-72406812D01*
X156399500Y-72534108D01*
X156399500Y-72665892D01*
X156413635Y-72718644D01*
X156433608Y-72793187D01*
X156434140Y-72794108D01*
X156499500Y-72907314D01*
X156499502Y-72907316D01*
X156504505Y-72912319D01*
X156537990Y-72973642D01*
X156533006Y-73043334D01*
X156504505Y-73087681D01*
X156499502Y-73092683D01*
X156499500Y-73092686D01*
X156454575Y-73170499D01*
X156433608Y-73206814D01*
X156417937Y-73265300D01*
X156406168Y-73309223D01*
X156369803Y-73368883D01*
X156306956Y-73399412D01*
X156270208Y-73400068D01*
X156265893Y-73399500D01*
X156265892Y-73399500D01*
X156134108Y-73399500D01*
X156006812Y-73433608D01*
X155892686Y-73499500D01*
X155892683Y-73499502D01*
X155837681Y-73554505D01*
X155776358Y-73587990D01*
X155706666Y-73583006D01*
X155662319Y-73554505D01*
X155607316Y-73499502D01*
X155607314Y-73499500D01*
X155549100Y-73465890D01*
X155493187Y-73433608D01*
X155399499Y-73408505D01*
X155365892Y-73399500D01*
X155313170Y-73399500D01*
X155246131Y-73379815D01*
X155200376Y-73327011D01*
X155193395Y-73307593D01*
X155166392Y-73206814D01*
X155100500Y-73092686D01*
X155095495Y-73087681D01*
X155062010Y-73026358D01*
X155066994Y-72956666D01*
X155095495Y-72912319D01*
X155100500Y-72907314D01*
X155166392Y-72793186D01*
X155200500Y-72665892D01*
X155200500Y-72534108D01*
X155166392Y-72406814D01*
X155158767Y-72393608D01*
X155135430Y-72353187D01*
X155100500Y-72292686D01*
X155095495Y-72287681D01*
X155062010Y-72226358D01*
X155066994Y-72156666D01*
X155095495Y-72112319D01*
X155100500Y-72107314D01*
X155166392Y-71993186D01*
X155200500Y-71865892D01*
X155200500Y-71734108D01*
X155166392Y-71606814D01*
X155100500Y-71492686D01*
X155007314Y-71399500D01*
X154920435Y-71349340D01*
X154893187Y-71333608D01*
X154790710Y-71306150D01*
X154765892Y-71299500D01*
X154634108Y-71299500D01*
X154506812Y-71333608D01*
X154392686Y-71399500D01*
X154392683Y-71399502D01*
X154299502Y-71492683D01*
X154299500Y-71492686D01*
X154233608Y-71606812D01*
X154220318Y-71656412D01*
X154199500Y-71734108D01*
X152213334Y-71734108D01*
X152200250Y-71726554D01*
X152143187Y-71693608D01*
X152079539Y-71676554D01*
X152015892Y-71659500D01*
X151884108Y-71659500D01*
X151875981Y-71659500D01*
X151875981Y-71656412D01*
X151873537Y-71656030D01*
X151856628Y-71658462D01*
X151839734Y-71650746D01*
X151821386Y-71647879D01*
X151808612Y-71636534D01*
X151793072Y-71629437D01*
X151783031Y-71613813D01*
X151769146Y-71601481D01*
X151764337Y-71584724D01*
X151755298Y-71570659D01*
X151753452Y-71546794D01*
X151750275Y-71535724D01*
X151750275Y-71526731D01*
X151750500Y-71525892D01*
X151750500Y-71394108D01*
X151750275Y-71393268D01*
X151750275Y-71384275D01*
X151757916Y-71358252D01*
X151762089Y-71331451D01*
X151767615Y-71325221D01*
X151769960Y-71317236D01*
X151790452Y-71299479D01*
X151808457Y-71279184D01*
X151816474Y-71276931D01*
X151822764Y-71271481D01*
X151849605Y-71267621D01*
X151875722Y-71260283D01*
X151878754Y-71260500D01*
X151884108Y-71260500D01*
X152015890Y-71260500D01*
X152015892Y-71260500D01*
X152143186Y-71226392D01*
X152257314Y-71160500D01*
X152350500Y-71067314D01*
X152416392Y-70953186D01*
X152450500Y-70825892D01*
X152450500Y-70694108D01*
X152416392Y-70566814D01*
X152350500Y-70452686D01*
X152257314Y-70359500D01*
X152200250Y-70326554D01*
X152143187Y-70293608D01*
X152079539Y-70276554D01*
X152015892Y-70259500D01*
X151884108Y-70259500D01*
X151875981Y-70259500D01*
X151875981Y-70256412D01*
X151821386Y-70247879D01*
X151769146Y-70201481D01*
X151750284Y-70134206D01*
X151750500Y-70131201D01*
X151750500Y-69994110D01*
X151750500Y-69994108D01*
X151716392Y-69866814D01*
X151650500Y-69752686D01*
X151557314Y-69659500D01*
X151493852Y-69622860D01*
X151443187Y-69593608D01*
X151437505Y-69592086D01*
X151315892Y-69559500D01*
X151184108Y-69559500D01*
X151056812Y-69593608D01*
X150942686Y-69659500D01*
X150942683Y-69659502D01*
X150849502Y-69752683D01*
X150849500Y-69752686D01*
X150783608Y-69866812D01*
X150749500Y-69994108D01*
X150749500Y-70134019D01*
X150746411Y-70134019D01*
X150746030Y-70136457D01*
X150748462Y-70153371D01*
X150740748Y-70170260D01*
X150737883Y-70188604D01*
X150726536Y-70201381D01*
X150719437Y-70216927D01*
X150703817Y-70226964D01*
X150691489Y-70240848D01*
X150674729Y-70245658D01*
X150660659Y-70254701D01*
X150636758Y-70256556D01*
X150625724Y-70259724D01*
X150616728Y-70259724D01*
X150615892Y-70259500D01*
X150484108Y-70259500D01*
X150483272Y-70259724D01*
X150474275Y-70259724D01*
X150448219Y-70252073D01*
X150421386Y-70247879D01*
X150415187Y-70242373D01*
X150407236Y-70240039D01*
X150389455Y-70219519D01*
X150369146Y-70201481D01*
X150366907Y-70193497D01*
X150361481Y-70187235D01*
X150357616Y-70160359D01*
X150350284Y-70134206D01*
X150350500Y-70131201D01*
X150350500Y-69994110D01*
X150350500Y-69994108D01*
X150316392Y-69866814D01*
X150250500Y-69752686D01*
X150157314Y-69659500D01*
X150093852Y-69622860D01*
X150043187Y-69593608D01*
X149979539Y-69576554D01*
X149915892Y-69559500D01*
X149784108Y-69559500D01*
X149656812Y-69593608D01*
X149542686Y-69659500D01*
X149542683Y-69659502D01*
X149449502Y-69752683D01*
X149449500Y-69752686D01*
X149383608Y-69866812D01*
X149349500Y-69994108D01*
X149349500Y-70134019D01*
X149346411Y-70134019D01*
X149337883Y-70188604D01*
X149291489Y-70240848D01*
X149224215Y-70259715D01*
X149221208Y-70259500D01*
X149215892Y-70259500D01*
X149084108Y-70259500D01*
X148956812Y-70293608D01*
X148842686Y-70359500D01*
X148842683Y-70359502D01*
X148749502Y-70452683D01*
X148749500Y-70452686D01*
X148683608Y-70566812D01*
X148658160Y-70661789D01*
X148649500Y-70694108D01*
X147861109Y-70694108D01*
X147862051Y-70691835D01*
X147874252Y-70630500D01*
X147900500Y-70498543D01*
X147900500Y-70301456D01*
X147862052Y-70108170D01*
X147862051Y-70108169D01*
X147862051Y-70108165D01*
X147849389Y-70077596D01*
X147786635Y-69926092D01*
X147786628Y-69926079D01*
X147677139Y-69762218D01*
X147677136Y-69762214D01*
X147537785Y-69622863D01*
X147537781Y-69622860D01*
X147373920Y-69513371D01*
X147373907Y-69513364D01*
X147284981Y-69476530D01*
X162749500Y-69476530D01*
X162749500Y-69683469D01*
X162785970Y-69866814D01*
X162789870Y-69886420D01*
X162869059Y-70077598D01*
X162901328Y-70125892D01*
X162984024Y-70249657D01*
X163130342Y-70395975D01*
X163130345Y-70395977D01*
X163302402Y-70510941D01*
X163493580Y-70590130D01*
X163696530Y-70630499D01*
X163696534Y-70630500D01*
X163696535Y-70630500D01*
X163903466Y-70630500D01*
X163903467Y-70630499D01*
X164106420Y-70590130D01*
X164297598Y-70510941D01*
X164469655Y-70395977D01*
X164615977Y-70249655D01*
X164730941Y-70077598D01*
X164810130Y-69886420D01*
X164850500Y-69683465D01*
X164850500Y-69476535D01*
X164810130Y-69273580D01*
X164730941Y-69082402D01*
X164615977Y-68910345D01*
X164615975Y-68910342D01*
X164469657Y-68764024D01*
X164309201Y-68656812D01*
X164297598Y-68649059D01*
X164106420Y-68569870D01*
X164106412Y-68569868D01*
X163903469Y-68529500D01*
X163903465Y-68529500D01*
X163696535Y-68529500D01*
X163696530Y-68529500D01*
X163493587Y-68569868D01*
X163493579Y-68569870D01*
X163302403Y-68649058D01*
X163130342Y-68764024D01*
X162984024Y-68910342D01*
X162869058Y-69082403D01*
X162789870Y-69273579D01*
X162789868Y-69273587D01*
X162749500Y-69476530D01*
X147284981Y-69476530D01*
X147191839Y-69437950D01*
X147191829Y-69437947D01*
X146998543Y-69399500D01*
X146998541Y-69399500D01*
X146801459Y-69399500D01*
X146801457Y-69399500D01*
X146608170Y-69437947D01*
X146608160Y-69437950D01*
X146426092Y-69513364D01*
X146426079Y-69513371D01*
X146262218Y-69622860D01*
X146262214Y-69622863D01*
X146122863Y-69762214D01*
X146122860Y-69762218D01*
X146013371Y-69926079D01*
X146013364Y-69926092D01*
X145937950Y-70108160D01*
X145937947Y-70108170D01*
X145899500Y-70301456D01*
X145899500Y-70301459D01*
X145899500Y-70498541D01*
X145899500Y-70498543D01*
X145899499Y-70498543D01*
X141800500Y-70498543D01*
X141800500Y-68784108D01*
X144149500Y-68784108D01*
X144149500Y-68915891D01*
X144183608Y-69043187D01*
X144206249Y-69082402D01*
X144249500Y-69157314D01*
X144342686Y-69250500D01*
X144456814Y-69316392D01*
X144584108Y-69350500D01*
X144584110Y-69350500D01*
X144715890Y-69350500D01*
X144715892Y-69350500D01*
X144843186Y-69316392D01*
X144957314Y-69250500D01*
X145050500Y-69157314D01*
X145116392Y-69043186D01*
X145150500Y-68915892D01*
X145150500Y-68784108D01*
X145116392Y-68656814D01*
X145050500Y-68542686D01*
X144957314Y-68449500D01*
X144900250Y-68416554D01*
X144843187Y-68383608D01*
X144779539Y-68366554D01*
X144715892Y-68349500D01*
X144584108Y-68349500D01*
X144456812Y-68383608D01*
X144342686Y-68449500D01*
X144342683Y-68449502D01*
X144249502Y-68542683D01*
X144249500Y-68542686D01*
X144183608Y-68656812D01*
X144149500Y-68784108D01*
X141800500Y-68784108D01*
X141800500Y-66936530D01*
X162749500Y-66936530D01*
X162749500Y-67143469D01*
X162789868Y-67346412D01*
X162789870Y-67346420D01*
X162869058Y-67537596D01*
X162984024Y-67709657D01*
X163130342Y-67855975D01*
X163130345Y-67855977D01*
X163302402Y-67970941D01*
X163493580Y-68050130D01*
X163696530Y-68090499D01*
X163696534Y-68090500D01*
X163696535Y-68090500D01*
X163903466Y-68090500D01*
X163903467Y-68090499D01*
X164106420Y-68050130D01*
X164297598Y-67970941D01*
X164469655Y-67855977D01*
X164615977Y-67709655D01*
X164730941Y-67537598D01*
X164810130Y-67346420D01*
X164850500Y-67143465D01*
X164850500Y-66936535D01*
X164810130Y-66733580D01*
X164730941Y-66542402D01*
X164615977Y-66370345D01*
X164615975Y-66370342D01*
X164469657Y-66224024D01*
X164383626Y-66166541D01*
X164297598Y-66109059D01*
X164243889Y-66086812D01*
X164106420Y-66029870D01*
X164106412Y-66029868D01*
X163903469Y-65989500D01*
X163903465Y-65989500D01*
X163696535Y-65989500D01*
X163696530Y-65989500D01*
X163493587Y-66029868D01*
X163493579Y-66029870D01*
X163302403Y-66109058D01*
X163130342Y-66224024D01*
X162984024Y-66370342D01*
X162869058Y-66542403D01*
X162789870Y-66733579D01*
X162789868Y-66733587D01*
X162749500Y-66936530D01*
X141800500Y-66936530D01*
X141800500Y-66214108D01*
X142799500Y-66214108D01*
X142799500Y-66345891D01*
X142833608Y-66473187D01*
X142866554Y-66530250D01*
X142899500Y-66587314D01*
X142992686Y-66680500D01*
X143106814Y-66746392D01*
X143234108Y-66780500D01*
X143234110Y-66780500D01*
X143365890Y-66780500D01*
X143365892Y-66780500D01*
X143493186Y-66746392D01*
X143607314Y-66680500D01*
X143700500Y-66587314D01*
X143766392Y-66473186D01*
X143800500Y-66345892D01*
X143800500Y-66214108D01*
X143766392Y-66086814D01*
X143700500Y-65972686D01*
X143607314Y-65879500D01*
X143550250Y-65846554D01*
X143493187Y-65813608D01*
X143429539Y-65796554D01*
X143365892Y-65779500D01*
X143234108Y-65779500D01*
X143106812Y-65813608D01*
X142992686Y-65879500D01*
X142992683Y-65879502D01*
X142899502Y-65972683D01*
X142899500Y-65972686D01*
X142833608Y-66086812D01*
X142799500Y-66214108D01*
X141800500Y-66214108D01*
X141800500Y-65695000D01*
X152125000Y-65695000D01*
X158475000Y-65695000D01*
X158475000Y-63674108D01*
X159099500Y-63674108D01*
X159099500Y-63805891D01*
X159133608Y-63933187D01*
X159166554Y-63990250D01*
X159199500Y-64047314D01*
X159292686Y-64140500D01*
X159372724Y-64186710D01*
X159396603Y-64200497D01*
X159406814Y-64206392D01*
X159534108Y-64240500D01*
X159534110Y-64240500D01*
X159665890Y-64240500D01*
X159665892Y-64240500D01*
X159793186Y-64206392D01*
X159907314Y-64140500D01*
X160000500Y-64047314D01*
X160066392Y-63933186D01*
X160100500Y-63805892D01*
X160100500Y-63734108D01*
X161499500Y-63734108D01*
X161499500Y-63865891D01*
X161533608Y-63993187D01*
X161541766Y-64007316D01*
X161599500Y-64107314D01*
X161692686Y-64200500D01*
X161806814Y-64266392D01*
X161934108Y-64300500D01*
X161934110Y-64300500D01*
X162065890Y-64300500D01*
X162065892Y-64300500D01*
X162193186Y-64266392D01*
X162307314Y-64200500D01*
X162400500Y-64107314D01*
X162466392Y-63993186D01*
X162500500Y-63865892D01*
X162500500Y-63734108D01*
X162466392Y-63606814D01*
X162400500Y-63492686D01*
X162307314Y-63399500D01*
X162250250Y-63366554D01*
X162193187Y-63333608D01*
X162129539Y-63316554D01*
X162065892Y-63299500D01*
X161934108Y-63299500D01*
X161806812Y-63333608D01*
X161692686Y-63399500D01*
X161692683Y-63399502D01*
X161599502Y-63492683D01*
X161599500Y-63492686D01*
X161533608Y-63606812D01*
X161499500Y-63734108D01*
X160100500Y-63734108D01*
X160100500Y-63674108D01*
X160066392Y-63546814D01*
X160000500Y-63432686D01*
X159907314Y-63339500D01*
X159838032Y-63299500D01*
X159793187Y-63273608D01*
X159729539Y-63256554D01*
X159665892Y-63239500D01*
X159534108Y-63239500D01*
X159406812Y-63273608D01*
X159292686Y-63339500D01*
X159292683Y-63339502D01*
X159199502Y-63432683D01*
X159199500Y-63432686D01*
X159133608Y-63546812D01*
X159099500Y-63674108D01*
X158475000Y-63674108D01*
X158475000Y-63155000D01*
X152125000Y-63155000D01*
X152125000Y-65695000D01*
X141800500Y-65695000D01*
X141800500Y-64299504D01*
X141820185Y-64232465D01*
X141872989Y-64186710D01*
X141942147Y-64176766D01*
X141956571Y-64179724D01*
X142034108Y-64200500D01*
X142034111Y-64200500D01*
X142165890Y-64200500D01*
X142165892Y-64200500D01*
X142293186Y-64166392D01*
X142407314Y-64100500D01*
X142500500Y-64007314D01*
X142566392Y-63893186D01*
X142600500Y-63765892D01*
X142600500Y-63674108D01*
X144049500Y-63674108D01*
X144049500Y-63805891D01*
X144083608Y-63933187D01*
X144116554Y-63990250D01*
X144149500Y-64047314D01*
X144242686Y-64140500D01*
X144322724Y-64186710D01*
X144346603Y-64200497D01*
X144356814Y-64206392D01*
X144484108Y-64240500D01*
X144484110Y-64240500D01*
X144615890Y-64240500D01*
X144615892Y-64240500D01*
X144743186Y-64206392D01*
X144857314Y-64140500D01*
X144950500Y-64047314D01*
X145016392Y-63933186D01*
X145050500Y-63805892D01*
X145050500Y-63734108D01*
X147499500Y-63734108D01*
X147499500Y-63865891D01*
X147533608Y-63993187D01*
X147541766Y-64007316D01*
X147599500Y-64107314D01*
X147692686Y-64200500D01*
X147806814Y-64266392D01*
X147934108Y-64300500D01*
X147934110Y-64300500D01*
X148065890Y-64300500D01*
X148065892Y-64300500D01*
X148193186Y-64266392D01*
X148307314Y-64200500D01*
X148400500Y-64107314D01*
X148466392Y-63993186D01*
X148500500Y-63865892D01*
X148500500Y-63734108D01*
X149999500Y-63734108D01*
X149999500Y-63865891D01*
X150033608Y-63993187D01*
X150041766Y-64007316D01*
X150099500Y-64107314D01*
X150192686Y-64200500D01*
X150306814Y-64266392D01*
X150434108Y-64300500D01*
X150434110Y-64300500D01*
X150565890Y-64300500D01*
X150565892Y-64300500D01*
X150693186Y-64266392D01*
X150807314Y-64200500D01*
X150900500Y-64107314D01*
X150966392Y-63993186D01*
X151000500Y-63865892D01*
X151000500Y-63734108D01*
X150966392Y-63606814D01*
X150900500Y-63492686D01*
X150807314Y-63399500D01*
X150750250Y-63366554D01*
X150693187Y-63333608D01*
X150629539Y-63316554D01*
X150565892Y-63299500D01*
X150434108Y-63299500D01*
X150306812Y-63333608D01*
X150192686Y-63399500D01*
X150192683Y-63399502D01*
X150099502Y-63492683D01*
X150099500Y-63492686D01*
X150033608Y-63606812D01*
X149999500Y-63734108D01*
X148500500Y-63734108D01*
X148466392Y-63606814D01*
X148400500Y-63492686D01*
X148307314Y-63399500D01*
X148250250Y-63366554D01*
X148193187Y-63333608D01*
X148129539Y-63316554D01*
X148065892Y-63299500D01*
X147934108Y-63299500D01*
X147806812Y-63333608D01*
X147692686Y-63399500D01*
X147692683Y-63399502D01*
X147599502Y-63492683D01*
X147599500Y-63492686D01*
X147533608Y-63606812D01*
X147499500Y-63734108D01*
X145050500Y-63734108D01*
X145050500Y-63674108D01*
X145016392Y-63546814D01*
X144950500Y-63432686D01*
X144857314Y-63339500D01*
X144788032Y-63299500D01*
X144743187Y-63273608D01*
X144679539Y-63256554D01*
X144615892Y-63239500D01*
X144484108Y-63239500D01*
X144356812Y-63273608D01*
X144242686Y-63339500D01*
X144242683Y-63339502D01*
X144149502Y-63432683D01*
X144149500Y-63432686D01*
X144083608Y-63546812D01*
X144049500Y-63674108D01*
X142600500Y-63674108D01*
X142600500Y-63634108D01*
X142566392Y-63506814D01*
X142500500Y-63392686D01*
X142407314Y-63299500D01*
X142350250Y-63266554D01*
X142293187Y-63233608D01*
X142277199Y-63229324D01*
X142165892Y-63199500D01*
X142034108Y-63199500D01*
X141956593Y-63220270D01*
X141886743Y-63218607D01*
X141828881Y-63179444D01*
X141801377Y-63115216D01*
X141800500Y-63100495D01*
X141800500Y-62824500D01*
X141820185Y-62757461D01*
X141872989Y-62711706D01*
X141924500Y-62700500D01*
X165675500Y-62700500D01*
X165742539Y-62720185D01*
G37*
%TD.AperFunction*%
%TD*%
M02*
