%TF.GenerationSoftware,KiCad,Pcbnew,9.0.4-9.0.4-0~ubuntu24.04.1*%
%TF.CreationDate,2026-04-29T22:27:19+02:00*%
%TF.ProjectId,LinKey,4c696e4b-6579-42e6-9b69-6361645f7063,rev?*%
%TF.SameCoordinates,Original*%
%TF.FileFunction,Copper,L2,Inr*%
%TF.FilePolarity,Positive*%
%FSLAX46Y46*%
G04 Gerber Fmt 4.6, Leading zero omitted, Abs format (unit mm)*
G04 Created by KiCad (PCBNEW 9.0.4-9.0.4-0~ubuntu24.04.1) date 2026-04-29 22:27:19*
%MOMM*%
%LPD*%
G01*
G04 APERTURE LIST*
G04 Aperture macros list*
%AMRoundRect*
0 Rectangle with rounded corners*
0 $1 Rounding radius*
0 $2 $3 $4 $5 $6 $7 $8 $9 X,Y pos of 4 corners*
0 Add a 4 corners polygon primitive as box body*
4,1,4,$2,$3,$4,$5,$6,$7,$8,$9,$2,$3,0*
0 Add four circle primitives for the rounded corners*
1,1,$1+$1,$2,$3*
1,1,$1+$1,$4,$5*
1,1,$1+$1,$6,$7*
1,1,$1+$1,$8,$9*
0 Add four rect primitives between the rounded corners*
20,1,$1+$1,$2,$3,$4,$5,0*
20,1,$1+$1,$4,$5,$6,$7,0*
20,1,$1+$1,$6,$7,$8,$9,0*
20,1,$1+$1,$8,$9,$2,$3,0*%
G04 Aperture macros list end*
%ADD10C,0.200000*%
%TA.AperFunction,NonConductor*%
%ADD11C,0.200000*%
%TD*%
%TA.AperFunction,HeatsinkPad*%
%ADD12C,0.600000*%
%TD*%
%TA.AperFunction,ComponentPad*%
%ADD13R,3.400000X3.400000*%
%TD*%
%TA.AperFunction,ComponentPad*%
%ADD14C,3.400000*%
%TD*%
%TA.AperFunction,ComponentPad*%
%ADD15RoundRect,0.250000X0.550000X-0.550000X0.550000X0.550000X-0.550000X0.550000X-0.550000X-0.550000X0*%
%TD*%
%TA.AperFunction,ComponentPad*%
%ADD16C,1.600000*%
%TD*%
%TA.AperFunction,ComponentPad*%
%ADD17R,1.700000X1.700000*%
%TD*%
%TA.AperFunction,ComponentPad*%
%ADD18C,1.700000*%
%TD*%
%TA.AperFunction,ViaPad*%
%ADD19C,0.600000*%
%TD*%
G04 APERTURE END LIST*
D10*
D11*
X155649286Y-63972457D02*
X155696905Y-63924838D01*
X155696905Y-63924838D02*
X155792143Y-63877219D01*
X155792143Y-63877219D02*
X156030238Y-63877219D01*
X156030238Y-63877219D02*
X156125476Y-63924838D01*
X156125476Y-63924838D02*
X156173095Y-63972457D01*
X156173095Y-63972457D02*
X156220714Y-64067695D01*
X156220714Y-64067695D02*
X156220714Y-64162933D01*
X156220714Y-64162933D02*
X156173095Y-64305790D01*
X156173095Y-64305790D02*
X155601667Y-64877219D01*
X155601667Y-64877219D02*
X156220714Y-64877219D01*
D12*
%TO.N,GND*%
%TO.C,U2*%
X149150000Y-70760000D03*
X149150000Y-72160000D03*
X149850000Y-70060000D03*
X149850000Y-71460000D03*
X149850000Y-72860000D03*
X150550000Y-70760000D03*
X150550000Y-72160000D03*
X151250000Y-70060000D03*
X151250000Y-71460000D03*
X151250000Y-72860000D03*
X151950000Y-70760000D03*
X151950000Y-72160000D03*
%TD*%
D13*
%TO.N,Net-(D1-~_2)*%
%TO.C,J1*%
X144500000Y-96000000D03*
D14*
%TO.N,Net-(J1-I2)*%
X149580000Y-96000000D03*
%TO.N,Net-(D1-~_1)*%
X154660000Y-96000000D03*
%TD*%
D15*
%TO.N,VCAP*%
%TO.C,C2*%
X146900000Y-73900000D03*
D16*
%TO.N,GND*%
X146900000Y-70400000D03*
%TD*%
D17*
%TO.N,+3.3V*%
%TO.C,J2*%
X163800000Y-64500000D03*
D18*
%TO.N,/ESP_TX*%
X163800000Y-67040000D03*
%TO.N,/ESP_RX*%
X163800000Y-69580000D03*
%TO.N,GND*%
X163800000Y-72120000D03*
%TD*%
D19*
%TO.N,GND*%
X142100000Y-63700000D03*
X144650000Y-68850000D03*
X163800000Y-75900000D03*
X162300000Y-84100000D03*
X156200000Y-73900000D03*
X154700000Y-71800000D03*
X144550000Y-63740000D03*
X163100000Y-82300000D03*
X158300000Y-79200000D03*
X156200000Y-74700000D03*
X154700000Y-72600000D03*
X150300000Y-83500000D03*
X150500000Y-63800000D03*
X145212500Y-80100000D03*
X146300000Y-80000000D03*
X146300000Y-82800000D03*
X157150000Y-77000000D03*
X155300000Y-73900000D03*
X156900000Y-73400000D03*
X162900000Y-78100000D03*
X156900000Y-71800000D03*
X154700000Y-73400000D03*
X162000000Y-63800000D03*
X149100000Y-88400000D03*
X159600000Y-63740000D03*
X163000000Y-86100000D03*
X142300000Y-86200000D03*
X145300000Y-81500000D03*
X156900000Y-72600000D03*
X142200000Y-94200000D03*
X148000000Y-63800000D03*
X163000000Y-87800000D03*
X158600000Y-80200000D03*
%TO.N,VDD*%
X146500000Y-87200000D03*
X144600000Y-87200000D03*
X144600000Y-85100000D03*
X146500000Y-85100000D03*
%TO.N,Net-(D1-~_1)*%
X144500000Y-91150000D03*
X148800000Y-93300000D03*
%TO.N,+3.3V*%
X157800000Y-73400000D03*
X145800000Y-65000000D03*
X157800000Y-69400000D03*
X158700000Y-70200000D03*
X157800000Y-71000000D03*
X145800000Y-68500000D03*
X158700000Y-69400000D03*
X144550000Y-65000000D03*
X157800000Y-72600000D03*
X147100000Y-65000000D03*
X157800000Y-71800000D03*
X157800000Y-70200000D03*
X158700000Y-71000000D03*
X147100000Y-68500000D03*
X142800000Y-82200000D03*
X158800000Y-75100000D03*
X158800000Y-74100000D03*
X148400000Y-68500000D03*
X149200000Y-67100000D03*
%TO.N,VCAP*%
X149700000Y-78600000D03*
X152020000Y-78600000D03*
X154340000Y-78600000D03*
X153180000Y-78600000D03*
X150860000Y-78600000D03*
X155500000Y-78600000D03*
%TO.N,Net-(U2-EN)*%
X143300000Y-66280000D03*
%TD*%
%TA.AperFunction,Conductor*%
%TO.N,GND*%
G36*
X165742539Y-62720185D02*
G01*
X165788294Y-62772989D01*
X165799500Y-62824500D01*
X165799500Y-90875500D01*
X165779815Y-90942539D01*
X165727011Y-90988294D01*
X165675500Y-90999500D01*
X158892682Y-90999500D01*
X158680235Y-91030044D01*
X158680225Y-91030047D01*
X158474284Y-91090517D01*
X158279061Y-91179672D01*
X158279048Y-91179679D01*
X158098485Y-91295720D01*
X157936275Y-91436275D01*
X157795720Y-91598485D01*
X157679679Y-91779048D01*
X157679672Y-91779061D01*
X157590517Y-91974284D01*
X157530047Y-92180225D01*
X157530044Y-92180235D01*
X157499500Y-92392682D01*
X157499500Y-98875500D01*
X157479815Y-98942539D01*
X157427011Y-98988294D01*
X157375500Y-98999500D01*
X141924500Y-98999500D01*
X141857461Y-98979815D01*
X141811706Y-98927011D01*
X141800500Y-98875500D01*
X141800500Y-94280247D01*
X142599500Y-94280247D01*
X142599500Y-97719752D01*
X142611131Y-97778229D01*
X142611132Y-97778230D01*
X142655447Y-97844552D01*
X142721769Y-97888867D01*
X142721770Y-97888868D01*
X142780247Y-97900499D01*
X142780250Y-97900500D01*
X142780252Y-97900500D01*
X146219750Y-97900500D01*
X146219751Y-97900499D01*
X146234568Y-97897552D01*
X146278229Y-97888868D01*
X146278229Y-97888867D01*
X146278231Y-97888867D01*
X146344552Y-97844552D01*
X146388867Y-97778231D01*
X146388867Y-97778229D01*
X146388868Y-97778229D01*
X146400499Y-97719752D01*
X146400500Y-97719750D01*
X146400500Y-95875441D01*
X147679500Y-95875441D01*
X147679500Y-96124558D01*
X147679501Y-96124575D01*
X147712017Y-96371561D01*
X147776498Y-96612207D01*
X147871830Y-96842361D01*
X147871837Y-96842376D01*
X147996400Y-97058126D01*
X148148060Y-97255774D01*
X148148066Y-97255781D01*
X148324218Y-97431933D01*
X148324225Y-97431939D01*
X148521873Y-97583599D01*
X148737623Y-97708162D01*
X148737638Y-97708169D01*
X148836825Y-97749253D01*
X148967793Y-97803502D01*
X149208435Y-97867982D01*
X149455435Y-97900500D01*
X149455442Y-97900500D01*
X149704558Y-97900500D01*
X149704565Y-97900500D01*
X149951565Y-97867982D01*
X150192207Y-97803502D01*
X150422373Y-97708164D01*
X150638127Y-97583599D01*
X150835776Y-97431938D01*
X151011938Y-97255776D01*
X151163599Y-97058127D01*
X151288164Y-96842373D01*
X151383502Y-96612207D01*
X151447982Y-96371565D01*
X151480500Y-96124565D01*
X151480500Y-95875441D01*
X152759500Y-95875441D01*
X152759500Y-96124558D01*
X152759501Y-96124575D01*
X152792017Y-96371561D01*
X152856498Y-96612207D01*
X152951830Y-96842361D01*
X152951837Y-96842376D01*
X153076400Y-97058126D01*
X153228060Y-97255774D01*
X153228066Y-97255781D01*
X153404218Y-97431933D01*
X153404225Y-97431939D01*
X153601873Y-97583599D01*
X153817623Y-97708162D01*
X153817638Y-97708169D01*
X153916825Y-97749253D01*
X154047793Y-97803502D01*
X154288435Y-97867982D01*
X154535435Y-97900500D01*
X154535442Y-97900500D01*
X154784558Y-97900500D01*
X154784565Y-97900500D01*
X155031565Y-97867982D01*
X155272207Y-97803502D01*
X155502373Y-97708164D01*
X155718127Y-97583599D01*
X155915776Y-97431938D01*
X156091938Y-97255776D01*
X156243599Y-97058127D01*
X156368164Y-96842373D01*
X156463502Y-96612207D01*
X156527982Y-96371565D01*
X156560500Y-96124565D01*
X156560500Y-95875435D01*
X156527982Y-95628435D01*
X156463502Y-95387793D01*
X156368164Y-95157627D01*
X156243599Y-94941873D01*
X156091938Y-94744224D01*
X156091933Y-94744218D01*
X155915781Y-94568066D01*
X155915774Y-94568060D01*
X155718126Y-94416400D01*
X155502376Y-94291837D01*
X155502361Y-94291830D01*
X155272207Y-94196498D01*
X155031561Y-94132017D01*
X154784575Y-94099501D01*
X154784570Y-94099500D01*
X154784565Y-94099500D01*
X154535435Y-94099500D01*
X154535429Y-94099500D01*
X154535424Y-94099501D01*
X154288438Y-94132017D01*
X154047792Y-94196498D01*
X153817638Y-94291830D01*
X153817623Y-94291837D01*
X153601873Y-94416400D01*
X153404225Y-94568060D01*
X153404218Y-94568066D01*
X153228066Y-94744218D01*
X153228060Y-94744225D01*
X153076400Y-94941873D01*
X152951837Y-95157623D01*
X152951830Y-95157638D01*
X152856498Y-95387792D01*
X152792017Y-95628438D01*
X152759501Y-95875424D01*
X152759500Y-95875441D01*
X151480500Y-95875441D01*
X151480500Y-95875435D01*
X151447982Y-95628435D01*
X151383502Y-95387793D01*
X151288164Y-95157627D01*
X151163599Y-94941873D01*
X151011938Y-94744224D01*
X151011933Y-94744218D01*
X150835781Y-94568066D01*
X150835774Y-94568060D01*
X150638126Y-94416400D01*
X150422376Y-94291837D01*
X150422361Y-94291830D01*
X150192207Y-94196498D01*
X149951561Y-94132017D01*
X149704575Y-94099501D01*
X149704570Y-94099500D01*
X149704565Y-94099500D01*
X149455435Y-94099500D01*
X149455429Y-94099500D01*
X149455424Y-94099501D01*
X149208438Y-94132017D01*
X148967792Y-94196498D01*
X148737638Y-94291830D01*
X148737623Y-94291837D01*
X148521873Y-94416400D01*
X148324225Y-94568060D01*
X148324218Y-94568066D01*
X148148066Y-94744218D01*
X148148060Y-94744225D01*
X147996400Y-94941873D01*
X147871837Y-95157623D01*
X147871830Y-95157638D01*
X147776498Y-95387792D01*
X147712017Y-95628438D01*
X147679501Y-95875424D01*
X147679500Y-95875441D01*
X146400500Y-95875441D01*
X146400500Y-94280249D01*
X146400499Y-94280247D01*
X146388868Y-94221770D01*
X146388867Y-94221769D01*
X146344552Y-94155447D01*
X146278230Y-94111132D01*
X146278229Y-94111131D01*
X146219752Y-94099500D01*
X146219748Y-94099500D01*
X142780252Y-94099500D01*
X142780247Y-94099500D01*
X142721770Y-94111131D01*
X142721769Y-94111132D01*
X142655447Y-94155447D01*
X142611132Y-94221769D01*
X142611131Y-94221770D01*
X142599500Y-94280247D01*
X141800500Y-94280247D01*
X141800500Y-93234108D01*
X148299500Y-93234108D01*
X148299500Y-93365891D01*
X148333608Y-93493187D01*
X148366554Y-93550250D01*
X148399500Y-93607314D01*
X148492686Y-93700500D01*
X148606814Y-93766392D01*
X148734108Y-93800500D01*
X148734110Y-93800500D01*
X148865890Y-93800500D01*
X148865892Y-93800500D01*
X148993186Y-93766392D01*
X149107314Y-93700500D01*
X149200500Y-93607314D01*
X149266392Y-93493186D01*
X149300500Y-93365892D01*
X149300500Y-93234108D01*
X149266392Y-93106814D01*
X149200500Y-92992686D01*
X149107314Y-92899500D01*
X149050250Y-92866554D01*
X148993187Y-92833608D01*
X148929539Y-92816554D01*
X148865892Y-92799500D01*
X148734108Y-92799500D01*
X148606812Y-92833608D01*
X148492686Y-92899500D01*
X148492683Y-92899502D01*
X148399502Y-92992683D01*
X148399500Y-92992686D01*
X148333608Y-93106812D01*
X148299500Y-93234108D01*
X141800500Y-93234108D01*
X141800500Y-91084108D01*
X143999500Y-91084108D01*
X143999500Y-91215891D01*
X144033608Y-91343187D01*
X144066554Y-91400250D01*
X144099500Y-91457314D01*
X144192686Y-91550500D01*
X144306814Y-91616392D01*
X144434108Y-91650500D01*
X144434110Y-91650500D01*
X144565890Y-91650500D01*
X144565892Y-91650500D01*
X144693186Y-91616392D01*
X144807314Y-91550500D01*
X144900500Y-91457314D01*
X144966392Y-91343186D01*
X145000500Y-91215892D01*
X145000500Y-91084108D01*
X144966392Y-90956814D01*
X144900500Y-90842686D01*
X144807314Y-90749500D01*
X144750250Y-90716554D01*
X144693187Y-90683608D01*
X144629539Y-90666554D01*
X144565892Y-90649500D01*
X144434108Y-90649500D01*
X144306812Y-90683608D01*
X144192686Y-90749500D01*
X144192683Y-90749502D01*
X144099502Y-90842683D01*
X144099500Y-90842686D01*
X144033608Y-90956812D01*
X143999500Y-91084108D01*
X141800500Y-91084108D01*
X141800500Y-90393713D01*
X152949500Y-90393713D01*
X152949500Y-90606286D01*
X152961746Y-90683608D01*
X152982754Y-90816243D01*
X153023790Y-90942539D01*
X153048444Y-91018414D01*
X153144951Y-91207820D01*
X153269890Y-91379786D01*
X153420213Y-91530109D01*
X153592179Y-91655048D01*
X153592181Y-91655049D01*
X153592184Y-91655051D01*
X153781588Y-91751557D01*
X153983757Y-91817246D01*
X154193713Y-91850500D01*
X154193714Y-91850500D01*
X154406286Y-91850500D01*
X154406287Y-91850500D01*
X154616243Y-91817246D01*
X154818412Y-91751557D01*
X155007816Y-91655051D01*
X155061027Y-91616391D01*
X155179786Y-91530109D01*
X155179788Y-91530106D01*
X155179792Y-91530104D01*
X155330104Y-91379792D01*
X155330106Y-91379788D01*
X155330109Y-91379786D01*
X155455048Y-91207820D01*
X155455047Y-91207820D01*
X155455051Y-91207816D01*
X155551557Y-91018412D01*
X155617246Y-90816243D01*
X155650500Y-90606287D01*
X155650500Y-90393713D01*
X155617246Y-90183757D01*
X155551557Y-89981588D01*
X155455051Y-89792184D01*
X155455049Y-89792181D01*
X155455048Y-89792179D01*
X155330109Y-89620213D01*
X155179786Y-89469890D01*
X155007820Y-89344951D01*
X154818414Y-89248444D01*
X154818413Y-89248443D01*
X154818412Y-89248443D01*
X154616243Y-89182754D01*
X154616241Y-89182753D01*
X154616240Y-89182753D01*
X154454957Y-89157208D01*
X154406287Y-89149500D01*
X154193713Y-89149500D01*
X154145042Y-89157208D01*
X153983760Y-89182753D01*
X153781585Y-89248444D01*
X153592179Y-89344951D01*
X153420213Y-89469890D01*
X153269890Y-89620213D01*
X153144951Y-89792179D01*
X153048444Y-89981585D01*
X152982753Y-90183760D01*
X152949500Y-90393713D01*
X141800500Y-90393713D01*
X141800500Y-87134108D01*
X144099500Y-87134108D01*
X144099500Y-87265891D01*
X144133608Y-87393187D01*
X144166554Y-87450250D01*
X144199500Y-87507314D01*
X144292686Y-87600500D01*
X144406814Y-87666392D01*
X144534108Y-87700500D01*
X144534110Y-87700500D01*
X144665890Y-87700500D01*
X144665892Y-87700500D01*
X144793186Y-87666392D01*
X144907314Y-87600500D01*
X145000500Y-87507314D01*
X145066392Y-87393186D01*
X145100500Y-87265892D01*
X145100500Y-87134108D01*
X145999500Y-87134108D01*
X145999500Y-87265891D01*
X146033608Y-87393187D01*
X146066554Y-87450250D01*
X146099500Y-87507314D01*
X146192686Y-87600500D01*
X146306814Y-87666392D01*
X146434108Y-87700500D01*
X146434110Y-87700500D01*
X146565890Y-87700500D01*
X146565892Y-87700500D01*
X146693186Y-87666392D01*
X146807314Y-87600500D01*
X146900500Y-87507314D01*
X146966392Y-87393186D01*
X147000500Y-87265892D01*
X147000500Y-87134108D01*
X146966392Y-87006814D01*
X146900500Y-86892686D01*
X146807314Y-86799500D01*
X146750250Y-86766554D01*
X146693187Y-86733608D01*
X146629539Y-86716554D01*
X146565892Y-86699500D01*
X146434108Y-86699500D01*
X146306812Y-86733608D01*
X146192686Y-86799500D01*
X146192683Y-86799502D01*
X146099502Y-86892683D01*
X146099500Y-86892686D01*
X146033608Y-87006812D01*
X145999500Y-87134108D01*
X145100500Y-87134108D01*
X145066392Y-87006814D01*
X145000500Y-86892686D01*
X144907314Y-86799500D01*
X144850250Y-86766554D01*
X144793187Y-86733608D01*
X144729539Y-86716554D01*
X144665892Y-86699500D01*
X144534108Y-86699500D01*
X144406812Y-86733608D01*
X144292686Y-86799500D01*
X144292683Y-86799502D01*
X144199502Y-86892683D01*
X144199500Y-86892686D01*
X144133608Y-87006812D01*
X144099500Y-87134108D01*
X141800500Y-87134108D01*
X141800500Y-85034108D01*
X144099500Y-85034108D01*
X144099500Y-85165891D01*
X144133608Y-85293187D01*
X144166554Y-85350250D01*
X144199500Y-85407314D01*
X144292686Y-85500500D01*
X144406814Y-85566392D01*
X144534108Y-85600500D01*
X144534110Y-85600500D01*
X144665890Y-85600500D01*
X144665892Y-85600500D01*
X144793186Y-85566392D01*
X144907314Y-85500500D01*
X145000500Y-85407314D01*
X145066392Y-85293186D01*
X145100500Y-85165892D01*
X145100500Y-85034108D01*
X145999500Y-85034108D01*
X145999500Y-85165891D01*
X146033608Y-85293187D01*
X146066554Y-85350250D01*
X146099500Y-85407314D01*
X146192686Y-85500500D01*
X146306814Y-85566392D01*
X146434108Y-85600500D01*
X146434110Y-85600500D01*
X146565890Y-85600500D01*
X146565892Y-85600500D01*
X146693186Y-85566392D01*
X146807314Y-85500500D01*
X146900500Y-85407314D01*
X146966392Y-85293186D01*
X147000500Y-85165892D01*
X147000500Y-85034108D01*
X146966392Y-84906814D01*
X146900500Y-84792686D01*
X146807314Y-84699500D01*
X146750250Y-84666554D01*
X146693187Y-84633608D01*
X146629539Y-84616554D01*
X146565892Y-84599500D01*
X146434108Y-84599500D01*
X146306812Y-84633608D01*
X146192686Y-84699500D01*
X146192683Y-84699502D01*
X146099502Y-84792683D01*
X146099500Y-84792686D01*
X146033608Y-84906812D01*
X145999500Y-85034108D01*
X145100500Y-85034108D01*
X145066392Y-84906814D01*
X145000500Y-84792686D01*
X144907314Y-84699500D01*
X144850250Y-84666554D01*
X144793187Y-84633608D01*
X144729539Y-84616554D01*
X144665892Y-84599500D01*
X144534108Y-84599500D01*
X144406812Y-84633608D01*
X144292686Y-84699500D01*
X144292683Y-84699502D01*
X144199502Y-84792683D01*
X144199500Y-84792686D01*
X144133608Y-84906812D01*
X144099500Y-85034108D01*
X141800500Y-85034108D01*
X141800500Y-82134108D01*
X142299500Y-82134108D01*
X142299500Y-82265891D01*
X142333608Y-82393187D01*
X142366554Y-82450250D01*
X142399500Y-82507314D01*
X142492686Y-82600500D01*
X142606814Y-82666392D01*
X142734108Y-82700500D01*
X142734110Y-82700500D01*
X142865890Y-82700500D01*
X142865892Y-82700500D01*
X142993186Y-82666392D01*
X143107314Y-82600500D01*
X143200500Y-82507314D01*
X143266392Y-82393186D01*
X143300500Y-82265892D01*
X143300500Y-82134108D01*
X143266392Y-82006814D01*
X143200500Y-81892686D01*
X143107314Y-81799500D01*
X143050250Y-81766554D01*
X142993187Y-81733608D01*
X142929539Y-81716554D01*
X142865892Y-81699500D01*
X142734108Y-81699500D01*
X142606812Y-81733608D01*
X142492686Y-81799500D01*
X142492683Y-81799502D01*
X142399502Y-81892683D01*
X142399500Y-81892686D01*
X142333608Y-82006812D01*
X142299500Y-82134108D01*
X141800500Y-82134108D01*
X141800500Y-78534108D01*
X149199500Y-78534108D01*
X149199500Y-78665891D01*
X149233608Y-78793187D01*
X149266554Y-78850250D01*
X149299500Y-78907314D01*
X149392686Y-79000500D01*
X149506814Y-79066392D01*
X149634108Y-79100500D01*
X149634110Y-79100500D01*
X149765890Y-79100500D01*
X149765892Y-79100500D01*
X149893186Y-79066392D01*
X150007314Y-79000500D01*
X150100500Y-78907314D01*
X150166392Y-78793186D01*
X150166392Y-78793185D01*
X150170456Y-78786147D01*
X150172170Y-78787136D01*
X150209269Y-78741090D01*
X150275561Y-78719018D01*
X150343262Y-78736291D01*
X150390878Y-78787423D01*
X150393139Y-78792374D01*
X150409595Y-78820876D01*
X150459500Y-78907314D01*
X150552686Y-79000500D01*
X150666814Y-79066392D01*
X150794108Y-79100500D01*
X150794110Y-79100500D01*
X150925890Y-79100500D01*
X150925892Y-79100500D01*
X151053186Y-79066392D01*
X151167314Y-79000500D01*
X151260500Y-78907314D01*
X151326392Y-78793186D01*
X151326392Y-78793185D01*
X151330456Y-78786147D01*
X151332170Y-78787136D01*
X151369269Y-78741090D01*
X151435561Y-78719018D01*
X151503262Y-78736291D01*
X151550878Y-78787423D01*
X151553139Y-78792374D01*
X151569595Y-78820876D01*
X151619500Y-78907314D01*
X151712686Y-79000500D01*
X151826814Y-79066392D01*
X151954108Y-79100500D01*
X151954110Y-79100500D01*
X152085890Y-79100500D01*
X152085892Y-79100500D01*
X152213186Y-79066392D01*
X152327314Y-79000500D01*
X152420500Y-78907314D01*
X152486392Y-78793186D01*
X152486392Y-78793185D01*
X152490456Y-78786147D01*
X152492170Y-78787136D01*
X152529269Y-78741090D01*
X152595561Y-78719018D01*
X152663262Y-78736291D01*
X152710878Y-78787423D01*
X152713139Y-78792374D01*
X152729595Y-78820876D01*
X152779500Y-78907314D01*
X152872686Y-79000500D01*
X152986814Y-79066392D01*
X153114108Y-79100500D01*
X153114110Y-79100500D01*
X153245890Y-79100500D01*
X153245892Y-79100500D01*
X153373186Y-79066392D01*
X153487314Y-79000500D01*
X153580500Y-78907314D01*
X153646392Y-78793186D01*
X153646392Y-78793185D01*
X153650456Y-78786147D01*
X153652170Y-78787136D01*
X153689269Y-78741090D01*
X153755561Y-78719018D01*
X153823262Y-78736291D01*
X153870878Y-78787423D01*
X153873139Y-78792374D01*
X153889595Y-78820876D01*
X153939500Y-78907314D01*
X154032686Y-79000500D01*
X154146814Y-79066392D01*
X154274108Y-79100500D01*
X154274110Y-79100500D01*
X154405890Y-79100500D01*
X154405892Y-79100500D01*
X154533186Y-79066392D01*
X154647314Y-79000500D01*
X154740500Y-78907314D01*
X154806392Y-78793186D01*
X154806392Y-78793185D01*
X154810456Y-78786147D01*
X154812170Y-78787136D01*
X154849269Y-78741090D01*
X154915561Y-78719018D01*
X154983262Y-78736291D01*
X155030878Y-78787423D01*
X155033139Y-78792374D01*
X155049595Y-78820876D01*
X155099500Y-78907314D01*
X155192686Y-79000500D01*
X155306814Y-79066392D01*
X155434108Y-79100500D01*
X155434110Y-79100500D01*
X155565890Y-79100500D01*
X155565892Y-79100500D01*
X155693186Y-79066392D01*
X155807314Y-79000500D01*
X155900500Y-78907314D01*
X155966392Y-78793186D01*
X156000500Y-78665892D01*
X156000500Y-78534108D01*
X155966392Y-78406814D01*
X155900500Y-78292686D01*
X155807314Y-78199500D01*
X155750250Y-78166554D01*
X155693187Y-78133608D01*
X155629539Y-78116554D01*
X155565892Y-78099500D01*
X155434108Y-78099500D01*
X155306812Y-78133608D01*
X155192686Y-78199500D01*
X155192683Y-78199502D01*
X155099502Y-78292683D01*
X155099500Y-78292686D01*
X155029544Y-78413853D01*
X155027830Y-78412863D01*
X154990724Y-78458914D01*
X154924430Y-78480981D01*
X154856730Y-78463704D01*
X154809118Y-78412569D01*
X154806859Y-78407623D01*
X154806391Y-78406812D01*
X154740500Y-78292686D01*
X154647314Y-78199500D01*
X154590250Y-78166554D01*
X154533187Y-78133608D01*
X154469539Y-78116554D01*
X154405892Y-78099500D01*
X154274108Y-78099500D01*
X154146812Y-78133608D01*
X154032686Y-78199500D01*
X154032683Y-78199502D01*
X153939502Y-78292683D01*
X153939500Y-78292686D01*
X153869544Y-78413853D01*
X153867830Y-78412863D01*
X153830724Y-78458914D01*
X153764430Y-78480981D01*
X153696730Y-78463704D01*
X153649118Y-78412569D01*
X153646859Y-78407623D01*
X153646391Y-78406812D01*
X153580500Y-78292686D01*
X153487314Y-78199500D01*
X153430250Y-78166554D01*
X153373187Y-78133608D01*
X153309539Y-78116554D01*
X153245892Y-78099500D01*
X153114108Y-78099500D01*
X152986812Y-78133608D01*
X152872686Y-78199500D01*
X152872683Y-78199502D01*
X152779502Y-78292683D01*
X152779500Y-78292686D01*
X152709544Y-78413853D01*
X152707830Y-78412863D01*
X152670724Y-78458914D01*
X152604430Y-78480981D01*
X152536730Y-78463704D01*
X152489118Y-78412569D01*
X152486859Y-78407623D01*
X152486391Y-78406812D01*
X152420500Y-78292686D01*
X152327314Y-78199500D01*
X152270250Y-78166554D01*
X152213187Y-78133608D01*
X152149539Y-78116554D01*
X152085892Y-78099500D01*
X151954108Y-78099500D01*
X151826812Y-78133608D01*
X151712686Y-78199500D01*
X151712683Y-78199502D01*
X151619502Y-78292683D01*
X151619500Y-78292686D01*
X151549544Y-78413853D01*
X151547830Y-78412863D01*
X151510724Y-78458914D01*
X151444430Y-78480981D01*
X151376730Y-78463704D01*
X151329118Y-78412569D01*
X151326859Y-78407623D01*
X151326391Y-78406812D01*
X151260500Y-78292686D01*
X151167314Y-78199500D01*
X151110250Y-78166554D01*
X151053187Y-78133608D01*
X150989539Y-78116554D01*
X150925892Y-78099500D01*
X150794108Y-78099500D01*
X150666812Y-78133608D01*
X150552686Y-78199500D01*
X150552683Y-78199502D01*
X150459502Y-78292683D01*
X150459500Y-78292686D01*
X150389544Y-78413853D01*
X150387830Y-78412863D01*
X150350724Y-78458914D01*
X150284430Y-78480981D01*
X150216730Y-78463704D01*
X150169118Y-78412569D01*
X150166859Y-78407623D01*
X150166391Y-78406812D01*
X150100500Y-78292686D01*
X150007314Y-78199500D01*
X149950250Y-78166554D01*
X149893187Y-78133608D01*
X149829539Y-78116554D01*
X149765892Y-78099500D01*
X149634108Y-78099500D01*
X149506812Y-78133608D01*
X149392686Y-78199500D01*
X149392683Y-78199502D01*
X149299502Y-78292683D01*
X149299500Y-78292686D01*
X149233608Y-78406812D01*
X149199500Y-78534108D01*
X141800500Y-78534108D01*
X141800500Y-73295730D01*
X145899500Y-73295730D01*
X145899500Y-74504269D01*
X145902353Y-74534699D01*
X145902353Y-74534701D01*
X145947206Y-74662880D01*
X145947207Y-74662882D01*
X146027850Y-74772150D01*
X146137118Y-74852793D01*
X146179845Y-74867744D01*
X146265299Y-74897646D01*
X146295730Y-74900500D01*
X146295734Y-74900500D01*
X147504270Y-74900500D01*
X147534699Y-74897646D01*
X147534701Y-74897646D01*
X147598790Y-74875219D01*
X147662882Y-74852793D01*
X147772150Y-74772150D01*
X147852793Y-74662882D01*
X147884524Y-74572201D01*
X147897646Y-74534701D01*
X147897646Y-74534699D01*
X147900500Y-74504269D01*
X147900500Y-73295730D01*
X147897646Y-73265300D01*
X147897646Y-73265298D01*
X147852793Y-73137119D01*
X147852792Y-73137117D01*
X147772150Y-73027850D01*
X147662882Y-72947207D01*
X147662880Y-72947206D01*
X147534700Y-72902353D01*
X147504270Y-72899500D01*
X147504266Y-72899500D01*
X146295734Y-72899500D01*
X146295730Y-72899500D01*
X146265300Y-72902353D01*
X146265298Y-72902353D01*
X146137119Y-72947206D01*
X146137117Y-72947207D01*
X146027850Y-73027850D01*
X145947207Y-73137117D01*
X145947206Y-73137119D01*
X145902353Y-73265298D01*
X145902353Y-73265300D01*
X145899500Y-73295730D01*
X141800500Y-73295730D01*
X141800500Y-69334108D01*
X157299500Y-69334108D01*
X157299500Y-69465892D01*
X157302352Y-69476535D01*
X157333608Y-69593187D01*
X157366554Y-69650250D01*
X157399500Y-69707314D01*
X157399502Y-69707316D01*
X157404505Y-69712319D01*
X157437990Y-69773642D01*
X157433006Y-69843334D01*
X157404505Y-69887681D01*
X157399502Y-69892683D01*
X157399500Y-69892686D01*
X157333608Y-70006812D01*
X157299500Y-70134108D01*
X157299500Y-70265891D01*
X157333608Y-70393187D01*
X157366554Y-70450250D01*
X157399500Y-70507314D01*
X157399502Y-70507316D01*
X157404505Y-70512319D01*
X157437990Y-70573642D01*
X157433006Y-70643334D01*
X157404505Y-70687681D01*
X157399502Y-70692683D01*
X157399500Y-70692686D01*
X157333608Y-70806812D01*
X157299500Y-70934108D01*
X157299500Y-71065891D01*
X157333608Y-71193187D01*
X157366554Y-71250250D01*
X157399500Y-71307314D01*
X157399502Y-71307316D01*
X157404505Y-71312319D01*
X157437990Y-71373642D01*
X157433006Y-71443334D01*
X157404505Y-71487681D01*
X157399502Y-71492683D01*
X157399500Y-71492686D01*
X157333608Y-71606812D01*
X157299500Y-71734108D01*
X157299500Y-71865891D01*
X157333608Y-71993187D01*
X157366554Y-72050250D01*
X157399500Y-72107314D01*
X157399502Y-72107316D01*
X157404505Y-72112319D01*
X157437990Y-72173642D01*
X157433006Y-72243334D01*
X157404505Y-72287681D01*
X157399502Y-72292683D01*
X157399500Y-72292686D01*
X157333608Y-72406812D01*
X157299500Y-72534108D01*
X157299500Y-72665891D01*
X157333608Y-72793187D01*
X157366554Y-72850250D01*
X157399500Y-72907314D01*
X157399502Y-72907316D01*
X157404505Y-72912319D01*
X157437990Y-72973642D01*
X157433006Y-73043334D01*
X157404505Y-73087681D01*
X157399502Y-73092683D01*
X157399500Y-73092686D01*
X157333608Y-73206812D01*
X157299500Y-73334108D01*
X157299500Y-73465891D01*
X157333608Y-73593187D01*
X157337253Y-73599500D01*
X157399500Y-73707314D01*
X157492686Y-73800500D01*
X157606814Y-73866392D01*
X157734108Y-73900500D01*
X157734110Y-73900500D01*
X157865890Y-73900500D01*
X157865892Y-73900500D01*
X157993186Y-73866392D01*
X158107314Y-73800500D01*
X158128122Y-73779691D01*
X158189441Y-73746208D01*
X158259132Y-73751191D01*
X158315067Y-73793062D01*
X158339485Y-73858526D01*
X158335576Y-73899467D01*
X158299500Y-74034108D01*
X158299500Y-74165891D01*
X158333608Y-74293187D01*
X158366554Y-74350250D01*
X158399500Y-74407314D01*
X158399502Y-74407316D01*
X158492687Y-74500501D01*
X158494158Y-74501630D01*
X158495083Y-74502897D01*
X158498433Y-74506247D01*
X158497910Y-74506769D01*
X158535356Y-74558060D01*
X158539506Y-74627807D01*
X158505289Y-74688725D01*
X158494158Y-74698370D01*
X158492687Y-74699498D01*
X158399502Y-74792683D01*
X158399500Y-74792686D01*
X158333608Y-74906812D01*
X158299500Y-75034108D01*
X158299500Y-75165891D01*
X158333608Y-75293187D01*
X158366554Y-75350250D01*
X158399500Y-75407314D01*
X158492686Y-75500500D01*
X158606814Y-75566392D01*
X158734108Y-75600500D01*
X158734110Y-75600500D01*
X158865890Y-75600500D01*
X158865892Y-75600500D01*
X158993186Y-75566392D01*
X159107314Y-75500500D01*
X159200500Y-75407314D01*
X159266392Y-75293186D01*
X159300500Y-75165892D01*
X159300500Y-75034108D01*
X159266392Y-74906814D01*
X159200500Y-74792686D01*
X159107314Y-74699500D01*
X159107311Y-74699498D01*
X159105847Y-74698375D01*
X159104921Y-74697107D01*
X159101567Y-74693753D01*
X159102090Y-74693229D01*
X159064645Y-74641947D01*
X159060491Y-74572201D01*
X159094704Y-74511281D01*
X159105847Y-74501625D01*
X159107306Y-74500504D01*
X159107314Y-74500500D01*
X159200500Y-74407314D01*
X159266392Y-74293186D01*
X159300500Y-74165892D01*
X159300500Y-74034108D01*
X159266392Y-73906814D01*
X159200500Y-73792686D01*
X159107314Y-73699500D01*
X159006802Y-73641469D01*
X158993187Y-73633608D01*
X158929539Y-73616554D01*
X158865892Y-73599500D01*
X158734108Y-73599500D01*
X158606812Y-73633608D01*
X158492686Y-73699500D01*
X158471878Y-73720308D01*
X158410554Y-73753792D01*
X158340862Y-73748806D01*
X158284929Y-73706934D01*
X158260514Y-73641469D01*
X158264423Y-73600532D01*
X158266391Y-73593187D01*
X158266392Y-73593186D01*
X158300500Y-73465892D01*
X158300500Y-73334108D01*
X158266392Y-73206814D01*
X158200500Y-73092686D01*
X158195495Y-73087681D01*
X158162010Y-73026358D01*
X158166994Y-72956666D01*
X158195495Y-72912319D01*
X158200500Y-72907314D01*
X158266392Y-72793186D01*
X158300500Y-72665892D01*
X158300500Y-72534108D01*
X158266392Y-72406814D01*
X158200500Y-72292686D01*
X158195495Y-72287681D01*
X158162010Y-72226358D01*
X158166994Y-72156666D01*
X158195495Y-72112319D01*
X158200500Y-72107314D01*
X158266392Y-71993186D01*
X158300500Y-71865892D01*
X158300500Y-71734108D01*
X158266392Y-71606814D01*
X158255958Y-71588743D01*
X158239486Y-71520844D01*
X158262338Y-71454817D01*
X158317259Y-71411626D01*
X158386812Y-71404984D01*
X158425342Y-71419354D01*
X158506814Y-71466392D01*
X158634108Y-71500500D01*
X158634110Y-71500500D01*
X158765890Y-71500500D01*
X158765892Y-71500500D01*
X158893186Y-71466392D01*
X159007314Y-71400500D01*
X159100500Y-71307314D01*
X159166392Y-71193186D01*
X159200500Y-71065892D01*
X159200500Y-70934108D01*
X159166392Y-70806814D01*
X159100500Y-70692686D01*
X159095495Y-70687681D01*
X159062010Y-70626358D01*
X159066994Y-70556666D01*
X159095495Y-70512319D01*
X159096873Y-70510941D01*
X159100500Y-70507314D01*
X159166392Y-70393186D01*
X159200500Y-70265892D01*
X159200500Y-70134108D01*
X159166392Y-70006814D01*
X159100500Y-69892686D01*
X159095495Y-69887681D01*
X159062010Y-69826358D01*
X159066994Y-69756666D01*
X159095495Y-69712319D01*
X159100500Y-69707314D01*
X159166392Y-69593186D01*
X159197650Y-69476530D01*
X162749500Y-69476530D01*
X162749500Y-69683469D01*
X162789868Y-69886412D01*
X162789870Y-69886420D01*
X162869058Y-70077596D01*
X162984024Y-70249657D01*
X163130342Y-70395975D01*
X163130345Y-70395977D01*
X163302402Y-70510941D01*
X163493580Y-70590130D01*
X163675712Y-70626358D01*
X163696530Y-70630499D01*
X163696534Y-70630500D01*
X163696535Y-70630500D01*
X163903466Y-70630500D01*
X163903467Y-70630499D01*
X164106420Y-70590130D01*
X164297598Y-70510941D01*
X164469655Y-70395977D01*
X164615977Y-70249655D01*
X164730941Y-70077598D01*
X164810130Y-69886420D01*
X164850500Y-69683465D01*
X164850500Y-69476535D01*
X164810130Y-69273580D01*
X164730941Y-69082402D01*
X164615977Y-68910345D01*
X164615975Y-68910342D01*
X164469657Y-68764024D01*
X164363639Y-68693186D01*
X164297598Y-68649059D01*
X164106420Y-68569870D01*
X164106412Y-68569868D01*
X163903469Y-68529500D01*
X163903465Y-68529500D01*
X163696535Y-68529500D01*
X163696530Y-68529500D01*
X163493587Y-68569868D01*
X163493579Y-68569870D01*
X163302403Y-68649058D01*
X163130342Y-68764024D01*
X162984024Y-68910342D01*
X162869058Y-69082403D01*
X162789870Y-69273579D01*
X162789868Y-69273587D01*
X162749500Y-69476530D01*
X159197650Y-69476530D01*
X159200500Y-69465892D01*
X159200500Y-69334108D01*
X159166392Y-69206814D01*
X159100500Y-69092686D01*
X159007314Y-68999500D01*
X158949968Y-68966391D01*
X158893187Y-68933608D01*
X158806355Y-68910342D01*
X158765892Y-68899500D01*
X158634108Y-68899500D01*
X158506812Y-68933608D01*
X158392686Y-68999500D01*
X158392683Y-68999502D01*
X158337681Y-69054505D01*
X158276358Y-69087990D01*
X158206666Y-69083006D01*
X158162319Y-69054505D01*
X158107316Y-68999502D01*
X158107314Y-68999500D01*
X158049968Y-68966391D01*
X157993187Y-68933608D01*
X157906355Y-68910342D01*
X157865892Y-68899500D01*
X157734108Y-68899500D01*
X157606812Y-68933608D01*
X157492686Y-68999500D01*
X157492683Y-68999502D01*
X157399502Y-69092683D01*
X157399500Y-69092686D01*
X157333608Y-69206812D01*
X157315718Y-69273580D01*
X157299500Y-69334108D01*
X141800500Y-69334108D01*
X141800500Y-68434108D01*
X145299500Y-68434108D01*
X145299500Y-68565892D01*
X145300566Y-68569870D01*
X145333608Y-68693187D01*
X145366554Y-68750250D01*
X145399500Y-68807314D01*
X145492686Y-68900500D01*
X145606814Y-68966392D01*
X145734108Y-69000500D01*
X145734110Y-69000500D01*
X145865890Y-69000500D01*
X145865892Y-69000500D01*
X145993186Y-68966392D01*
X146107314Y-68900500D01*
X146200500Y-68807314D01*
X146266392Y-68693186D01*
X146300500Y-68565892D01*
X146300500Y-68434108D01*
X146599500Y-68434108D01*
X146599500Y-68565892D01*
X146600566Y-68569870D01*
X146633608Y-68693187D01*
X146666554Y-68750250D01*
X146699500Y-68807314D01*
X146792686Y-68900500D01*
X146906814Y-68966392D01*
X147034108Y-69000500D01*
X147034110Y-69000500D01*
X147165890Y-69000500D01*
X147165892Y-69000500D01*
X147293186Y-68966392D01*
X147407314Y-68900500D01*
X147500500Y-68807314D01*
X147566392Y-68693186D01*
X147600500Y-68565892D01*
X147600500Y-68434108D01*
X147899500Y-68434108D01*
X147899500Y-68565892D01*
X147900566Y-68569870D01*
X147933608Y-68693187D01*
X147966554Y-68750250D01*
X147999500Y-68807314D01*
X148092686Y-68900500D01*
X148206814Y-68966392D01*
X148334108Y-69000500D01*
X148334110Y-69000500D01*
X148465890Y-69000500D01*
X148465892Y-69000500D01*
X148593186Y-68966392D01*
X148707314Y-68900500D01*
X148800500Y-68807314D01*
X148866392Y-68693186D01*
X148900500Y-68565892D01*
X148900500Y-68434108D01*
X148866392Y-68306814D01*
X148800500Y-68192686D01*
X148707314Y-68099500D01*
X148621803Y-68050130D01*
X148593187Y-68033608D01*
X148529539Y-68016554D01*
X148465892Y-67999500D01*
X148334108Y-67999500D01*
X148206812Y-68033608D01*
X148092686Y-68099500D01*
X148092683Y-68099502D01*
X147999502Y-68192683D01*
X147999500Y-68192686D01*
X147933608Y-68306812D01*
X147899500Y-68434108D01*
X147600500Y-68434108D01*
X147566392Y-68306814D01*
X147500500Y-68192686D01*
X147407314Y-68099500D01*
X147321803Y-68050130D01*
X147293187Y-68033608D01*
X147229539Y-68016554D01*
X147165892Y-67999500D01*
X147034108Y-67999500D01*
X146906812Y-68033608D01*
X146792686Y-68099500D01*
X146792683Y-68099502D01*
X146699502Y-68192683D01*
X146699500Y-68192686D01*
X146633608Y-68306812D01*
X146599500Y-68434108D01*
X146300500Y-68434108D01*
X146266392Y-68306814D01*
X146200500Y-68192686D01*
X146107314Y-68099500D01*
X146021803Y-68050130D01*
X145993187Y-68033608D01*
X145929539Y-68016554D01*
X145865892Y-67999500D01*
X145734108Y-67999500D01*
X145606812Y-68033608D01*
X145492686Y-68099500D01*
X145492683Y-68099502D01*
X145399502Y-68192683D01*
X145399500Y-68192686D01*
X145333608Y-68306812D01*
X145299500Y-68434108D01*
X141800500Y-68434108D01*
X141800500Y-67034108D01*
X148699500Y-67034108D01*
X148699500Y-67165891D01*
X148733608Y-67293187D01*
X148764338Y-67346412D01*
X148799500Y-67407314D01*
X148892686Y-67500500D01*
X149006814Y-67566392D01*
X149134108Y-67600500D01*
X149134110Y-67600500D01*
X149265890Y-67600500D01*
X149265892Y-67600500D01*
X149393186Y-67566392D01*
X149507314Y-67500500D01*
X149600500Y-67407314D01*
X149666392Y-67293186D01*
X149700500Y-67165892D01*
X149700500Y-67034108D01*
X149674354Y-66936530D01*
X162749500Y-66936530D01*
X162749500Y-67143469D01*
X162779281Y-67293186D01*
X162789870Y-67346420D01*
X162869059Y-67537598D01*
X162926541Y-67623626D01*
X162984024Y-67709657D01*
X163130342Y-67855975D01*
X163130345Y-67855977D01*
X163302402Y-67970941D01*
X163493580Y-68050130D01*
X163696530Y-68090499D01*
X163696534Y-68090500D01*
X163696535Y-68090500D01*
X163903466Y-68090500D01*
X163903467Y-68090499D01*
X164106420Y-68050130D01*
X164297598Y-67970941D01*
X164469655Y-67855977D01*
X164615977Y-67709655D01*
X164730941Y-67537598D01*
X164810130Y-67346420D01*
X164850500Y-67143465D01*
X164850500Y-66936535D01*
X164810130Y-66733580D01*
X164730941Y-66542402D01*
X164615977Y-66370345D01*
X164615975Y-66370342D01*
X164469657Y-66224024D01*
X164383626Y-66166541D01*
X164297598Y-66109059D01*
X164243889Y-66086812D01*
X164106420Y-66029870D01*
X164106412Y-66029868D01*
X163903469Y-65989500D01*
X163903465Y-65989500D01*
X163696535Y-65989500D01*
X163696530Y-65989500D01*
X163493587Y-66029868D01*
X163493579Y-66029870D01*
X163302403Y-66109058D01*
X163130342Y-66224024D01*
X162984024Y-66370342D01*
X162869058Y-66542403D01*
X162789870Y-66733579D01*
X162789868Y-66733587D01*
X162749500Y-66936530D01*
X149674354Y-66936530D01*
X149666392Y-66906814D01*
X149600500Y-66792686D01*
X149507314Y-66699500D01*
X149450250Y-66666554D01*
X149393187Y-66633608D01*
X149329539Y-66616554D01*
X149265892Y-66599500D01*
X149134108Y-66599500D01*
X149006812Y-66633608D01*
X148892686Y-66699500D01*
X148892683Y-66699502D01*
X148799502Y-66792683D01*
X148799500Y-66792686D01*
X148733608Y-66906812D01*
X148699500Y-67034108D01*
X141800500Y-67034108D01*
X141800500Y-66214108D01*
X142799500Y-66214108D01*
X142799500Y-66345891D01*
X142833608Y-66473187D01*
X142866554Y-66530250D01*
X142899500Y-66587314D01*
X142992686Y-66680500D01*
X143106814Y-66746392D01*
X143234108Y-66780500D01*
X143234110Y-66780500D01*
X143365890Y-66780500D01*
X143365892Y-66780500D01*
X143493186Y-66746392D01*
X143607314Y-66680500D01*
X143700500Y-66587314D01*
X143766392Y-66473186D01*
X143800500Y-66345892D01*
X143800500Y-66214108D01*
X143766392Y-66086814D01*
X143700500Y-65972686D01*
X143607314Y-65879500D01*
X143550250Y-65846554D01*
X143493187Y-65813608D01*
X143429539Y-65796554D01*
X143365892Y-65779500D01*
X143234108Y-65779500D01*
X143106812Y-65813608D01*
X142992686Y-65879500D01*
X142992683Y-65879502D01*
X142899502Y-65972683D01*
X142899500Y-65972686D01*
X142833608Y-66086812D01*
X142799500Y-66214108D01*
X141800500Y-66214108D01*
X141800500Y-65695000D01*
X152125000Y-65695000D01*
X158475000Y-65695000D01*
X158475000Y-63630247D01*
X162749500Y-63630247D01*
X162749500Y-65369752D01*
X162761131Y-65428229D01*
X162761132Y-65428230D01*
X162805447Y-65494552D01*
X162871769Y-65538867D01*
X162871770Y-65538868D01*
X162930247Y-65550499D01*
X162930250Y-65550500D01*
X162930252Y-65550500D01*
X164669750Y-65550500D01*
X164669751Y-65550499D01*
X164684568Y-65547552D01*
X164728229Y-65538868D01*
X164728229Y-65538867D01*
X164728231Y-65538867D01*
X164794552Y-65494552D01*
X164838867Y-65428231D01*
X164838867Y-65428229D01*
X164838868Y-65428229D01*
X164850499Y-65369752D01*
X164850500Y-65369750D01*
X164850500Y-63630249D01*
X164850499Y-63630247D01*
X164838868Y-63571770D01*
X164838867Y-63571769D01*
X164794552Y-63505447D01*
X164728230Y-63461132D01*
X164728229Y-63461131D01*
X164669752Y-63449500D01*
X164669748Y-63449500D01*
X162930252Y-63449500D01*
X162930247Y-63449500D01*
X162871770Y-63461131D01*
X162871769Y-63461132D01*
X162805447Y-63505447D01*
X162761132Y-63571769D01*
X162761131Y-63571770D01*
X162749500Y-63630247D01*
X158475000Y-63630247D01*
X158475000Y-63155000D01*
X152125000Y-63155000D01*
X152125000Y-65695000D01*
X141800500Y-65695000D01*
X141800500Y-64934108D01*
X144049500Y-64934108D01*
X144049500Y-65065891D01*
X144083608Y-65193187D01*
X144116554Y-65250250D01*
X144149500Y-65307314D01*
X144242686Y-65400500D01*
X144356814Y-65466392D01*
X144484108Y-65500500D01*
X144484110Y-65500500D01*
X144615890Y-65500500D01*
X144615892Y-65500500D01*
X144743186Y-65466392D01*
X144857314Y-65400500D01*
X144950500Y-65307314D01*
X145016392Y-65193186D01*
X145050500Y-65065892D01*
X145050500Y-64934108D01*
X145299500Y-64934108D01*
X145299500Y-65065891D01*
X145333608Y-65193187D01*
X145366554Y-65250250D01*
X145399500Y-65307314D01*
X145492686Y-65400500D01*
X145606814Y-65466392D01*
X145734108Y-65500500D01*
X145734110Y-65500500D01*
X145865890Y-65500500D01*
X145865892Y-65500500D01*
X145993186Y-65466392D01*
X146107314Y-65400500D01*
X146200500Y-65307314D01*
X146266392Y-65193186D01*
X146300500Y-65065892D01*
X146300500Y-64934108D01*
X146599500Y-64934108D01*
X146599500Y-65065891D01*
X146633608Y-65193187D01*
X146666554Y-65250250D01*
X146699500Y-65307314D01*
X146792686Y-65400500D01*
X146906814Y-65466392D01*
X147034108Y-65500500D01*
X147034110Y-65500500D01*
X147165890Y-65500500D01*
X147165892Y-65500500D01*
X147293186Y-65466392D01*
X147407314Y-65400500D01*
X147500500Y-65307314D01*
X147566392Y-65193186D01*
X147600500Y-65065892D01*
X147600500Y-64934108D01*
X147566392Y-64806814D01*
X147500500Y-64692686D01*
X147407314Y-64599500D01*
X147350250Y-64566554D01*
X147293187Y-64533608D01*
X147229539Y-64516554D01*
X147165892Y-64499500D01*
X147034108Y-64499500D01*
X146906812Y-64533608D01*
X146792686Y-64599500D01*
X146792683Y-64599502D01*
X146699502Y-64692683D01*
X146699500Y-64692686D01*
X146633608Y-64806812D01*
X146599500Y-64934108D01*
X146300500Y-64934108D01*
X146266392Y-64806814D01*
X146200500Y-64692686D01*
X146107314Y-64599500D01*
X146050250Y-64566554D01*
X145993187Y-64533608D01*
X145929539Y-64516554D01*
X145865892Y-64499500D01*
X145734108Y-64499500D01*
X145606812Y-64533608D01*
X145492686Y-64599500D01*
X145492683Y-64599502D01*
X145399502Y-64692683D01*
X145399500Y-64692686D01*
X145333608Y-64806812D01*
X145299500Y-64934108D01*
X145050500Y-64934108D01*
X145016392Y-64806814D01*
X144950500Y-64692686D01*
X144857314Y-64599500D01*
X144800250Y-64566554D01*
X144743187Y-64533608D01*
X144679539Y-64516554D01*
X144615892Y-64499500D01*
X144484108Y-64499500D01*
X144356812Y-64533608D01*
X144242686Y-64599500D01*
X144242683Y-64599502D01*
X144149502Y-64692683D01*
X144149500Y-64692686D01*
X144083608Y-64806812D01*
X144049500Y-64934108D01*
X141800500Y-64934108D01*
X141800500Y-62824500D01*
X141820185Y-62757461D01*
X141872989Y-62711706D01*
X141924500Y-62700500D01*
X165675500Y-62700500D01*
X165742539Y-62720185D01*
G37*
%TD.AperFunction*%
%TD*%
M02*
