%TF.GenerationSoftware,KiCad,Pcbnew,9.0.4-9.0.4-0~ubuntu24.04.1*%
%TF.CreationDate,2026-01-25T22:20:44+01:00*%
%TF.ProjectId,LinKey,4c696e4b-6579-42e6-9b69-6361645f7063,rev?*%
%TF.SameCoordinates,Original*%
%TF.FileFunction,Paste,Bot*%
%TF.FilePolarity,Positive*%
%FSLAX46Y46*%
G04 Gerber Fmt 4.6, Leading zero omitted, Abs format (unit mm)*
G04 Created by KiCad (PCBNEW 9.0.4-9.0.4-0~ubuntu24.04.1) date 2026-01-25 22:20:44*
%MOMM*%
%LPD*%
G01*
G04 APERTURE LIST*
G04 Aperture macros list*
%AMRoundRect*
0 Rectangle with rounded corners*
0 $1 Rounding radius*
0 $2 $3 $4 $5 $6 $7 $8 $9 X,Y pos of 4 corners*
0 Add a 4 corners polygon primitive as box body*
4,1,4,$2,$3,$4,$5,$6,$7,$8,$9,$2,$3,0*
0 Add four circle primitives for the rounded corners*
1,1,$1+$1,$2,$3*
1,1,$1+$1,$4,$5*
1,1,$1+$1,$6,$7*
1,1,$1+$1,$8,$9*
0 Add four rect primitives between the rounded corners*
20,1,$1+$1,$2,$3,$4,$5,0*
20,1,$1+$1,$4,$5,$6,$7,0*
20,1,$1+$1,$6,$7,$8,$9,0*
20,1,$1+$1,$8,$9,$2,$3,0*%
G04 Aperture macros list end*
%ADD10RoundRect,0.237500X0.237500X-0.300000X0.237500X0.300000X-0.237500X0.300000X-0.237500X-0.300000X0*%
%ADD11RoundRect,0.237500X-0.250000X-0.237500X0.250000X-0.237500X0.250000X0.237500X-0.250000X0.237500X0*%
%ADD12RoundRect,0.250000X2.100000X-0.340000X2.100000X0.340000X-2.100000X0.340000X-2.100000X-0.340000X0*%
%ADD13RoundRect,0.250000X0.412500X0.650000X-0.412500X0.650000X-0.412500X-0.650000X0.412500X-0.650000X0*%
%ADD14RoundRect,0.250000X-0.412500X-0.650000X0.412500X-0.650000X0.412500X0.650000X-0.412500X0.650000X0*%
%ADD15RoundRect,0.150000X-0.587500X-0.150000X0.587500X-0.150000X0.587500X0.150000X-0.587500X0.150000X0*%
%ADD16RoundRect,0.237500X-0.300000X-0.237500X0.300000X-0.237500X0.300000X0.237500X-0.300000X0.237500X0*%
%ADD17R,0.738000X0.570000*%
%ADD18RoundRect,0.125000X-0.125000X0.190000X-0.125000X-0.190000X0.125000X-0.190000X0.125000X0.190000X0*%
%ADD19RoundRect,0.250000X-0.350000X-0.450000X0.350000X-0.450000X0.350000X0.450000X-0.350000X0.450000X0*%
%ADD20RoundRect,0.237500X-0.237500X0.250000X-0.237500X-0.250000X0.237500X-0.250000X0.237500X0.250000X0*%
%ADD21RoundRect,0.237500X0.237500X-0.250000X0.237500X0.250000X-0.237500X0.250000X-0.237500X-0.250000X0*%
%ADD22RoundRect,0.250000X0.650000X-0.412500X0.650000X0.412500X-0.650000X0.412500X-0.650000X-0.412500X0*%
%ADD23RoundRect,0.087500X-0.087500X0.150000X-0.087500X-0.150000X0.087500X-0.150000X0.087500X0.150000X0*%
%ADD24RoundRect,0.050000X-0.050000X0.262500X-0.050000X-0.262500X0.050000X-0.262500X0.050000X0.262500X0*%
%ADD25RoundRect,0.062500X-0.062500X0.162500X-0.062500X-0.162500X0.062500X-0.162500X0.062500X0.162500X0*%
%ADD26RoundRect,0.237500X-0.237500X0.300000X-0.237500X-0.300000X0.237500X-0.300000X0.237500X0.300000X0*%
%ADD27RoundRect,0.200000X-0.750000X-0.200000X0.750000X-0.200000X0.750000X0.200000X-0.750000X0.200000X0*%
G04 APERTURE END LIST*
D10*
%TO.C,C8*%
X149150000Y-65662500D03*
X149150000Y-63937500D03*
%TD*%
D11*
%TO.C,R13*%
X156687500Y-84100000D03*
X158512500Y-84100000D03*
%TD*%
D12*
%TO.C,L1*%
X152600000Y-80055000D03*
X152600000Y-76745000D03*
%TD*%
D13*
%TO.C,C6*%
X158962500Y-72500000D03*
X155837500Y-72500000D03*
%TD*%
D14*
%TO.C,C3*%
X156737500Y-80200000D03*
X159862500Y-80200000D03*
%TD*%
D15*
%TO.C,U4*%
X160462500Y-85950000D03*
X160462500Y-84050000D03*
X162337500Y-85000000D03*
%TD*%
D16*
%TO.C,C4*%
X156607500Y-78100000D03*
X158332500Y-78100000D03*
%TD*%
D17*
%TO.C,Q2*%
X154287500Y-85300000D03*
X153067500Y-85300000D03*
X154287500Y-86250000D03*
X153067500Y-86250000D03*
D18*
X154650000Y-86830000D03*
X154007500Y-86830000D03*
X153347500Y-86830000D03*
X152705000Y-86830000D03*
X152707500Y-83950000D03*
X153347500Y-83950000D03*
X154007500Y-83950000D03*
X154647500Y-83950000D03*
%TD*%
D11*
%TO.C,R15*%
X156687500Y-82300000D03*
X158512500Y-82300000D03*
%TD*%
%TO.C,R12*%
X156687500Y-85900000D03*
X158512500Y-85900000D03*
%TD*%
D19*
%TO.C,R10*%
X145600000Y-85900000D03*
X147600000Y-85900000D03*
%TD*%
D20*
%TO.C,R11*%
X142700000Y-88387500D03*
X142700000Y-90212500D03*
%TD*%
D21*
%TO.C,R7*%
X143200000Y-67112500D03*
X143200000Y-65287500D03*
%TD*%
D22*
%TO.C,C7*%
X146250000Y-66962500D03*
X146250000Y-63837500D03*
%TD*%
D20*
%TO.C,R17*%
X160000000Y-74492500D03*
X160000000Y-76317500D03*
%TD*%
D11*
%TO.C,R18*%
X159987500Y-78100000D03*
X161812500Y-78100000D03*
%TD*%
D23*
%TO.C,U5*%
X157950000Y-74442000D03*
X156850000Y-74442000D03*
D24*
X157400000Y-74517500D03*
D23*
X157950000Y-75117000D03*
X156850000Y-75117000D03*
D24*
X157400000Y-75343000D03*
D25*
X158150000Y-76380000D03*
X157650000Y-76380000D03*
X157150000Y-76380000D03*
X156650000Y-76380000D03*
%TD*%
D11*
%TO.C,R16*%
X160187500Y-82300000D03*
X162012500Y-82300000D03*
%TD*%
D20*
%TO.C,R14*%
X150200000Y-88387500D03*
X150200000Y-90212500D03*
%TD*%
D26*
%TO.C,C5*%
X161800000Y-74542500D03*
X161800000Y-76267500D03*
%TD*%
D27*
%TO.C,Q1*%
X144900000Y-90250000D03*
X144900000Y-88350000D03*
X147900000Y-89300000D03*
%TD*%
M02*
