%TF.GenerationSoftware,KiCad,Pcbnew,9.0.4-9.0.4-0~ubuntu24.04.1*%
%TF.CreationDate,2026-04-29T22:27:19+02:00*%
%TF.ProjectId,LinKey,4c696e4b-6579-42e6-9b69-6361645f7063,rev?*%
%TF.SameCoordinates,Original*%
%TF.FileFunction,Copper,L1,Top*%
%TF.FilePolarity,Positive*%
%FSLAX46Y46*%
G04 Gerber Fmt 4.6, Leading zero omitted, Abs format (unit mm)*
G04 Created by KiCad (PCBNEW 9.0.4-9.0.4-0~ubuntu24.04.1) date 2026-04-29 22:27:19*
%MOMM*%
%LPD*%
G01*
G04 APERTURE LIST*
G04 Aperture macros list*
%AMRoundRect*
0 Rectangle with rounded corners*
0 $1 Rounding radius*
0 $2 $3 $4 $5 $6 $7 $8 $9 X,Y pos of 4 corners*
0 Add a 4 corners polygon primitive as box body*
4,1,4,$2,$3,$4,$5,$6,$7,$8,$9,$2,$3,0*
0 Add four circle primitives for the rounded corners*
1,1,$1+$1,$2,$3*
1,1,$1+$1,$4,$5*
1,1,$1+$1,$6,$7*
1,1,$1+$1,$8,$9*
0 Add four rect primitives between the rounded corners*
20,1,$1+$1,$2,$3,$4,$5,0*
20,1,$1+$1,$4,$5,$6,$7,0*
20,1,$1+$1,$6,$7,$8,$9,0*
20,1,$1+$1,$8,$9,$2,$3,0*%
G04 Aperture macros list end*
%ADD10C,0.200000*%
%TA.AperFunction,NonConductor*%
%ADD11C,0.200000*%
%TD*%
%TA.AperFunction,SMDPad,CuDef*%
%ADD12RoundRect,0.237500X-0.250000X-0.237500X0.250000X-0.237500X0.250000X0.237500X-0.250000X0.237500X0*%
%TD*%
%TA.AperFunction,SMDPad,CuDef*%
%ADD13RoundRect,0.237500X0.250000X0.237500X-0.250000X0.237500X-0.250000X-0.237500X0.250000X-0.237500X0*%
%TD*%
%TA.AperFunction,SMDPad,CuDef*%
%ADD14R,1.500000X0.900000*%
%TD*%
%TA.AperFunction,SMDPad,CuDef*%
%ADD15R,0.900000X1.500000*%
%TD*%
%TA.AperFunction,HeatsinkPad*%
%ADD16R,0.900000X0.900000*%
%TD*%
%TA.AperFunction,HeatsinkPad*%
%ADD17C,0.600000*%
%TD*%
%TA.AperFunction,SMDPad,CuDef*%
%ADD18R,0.900000X1.200000*%
%TD*%
%TA.AperFunction,SMDPad,CuDef*%
%ADD19R,0.900000X0.800000*%
%TD*%
%TA.AperFunction,SMDPad,CuDef*%
%ADD20RoundRect,0.237500X0.237500X-0.250000X0.237500X0.250000X-0.237500X0.250000X-0.237500X-0.250000X0*%
%TD*%
%TA.AperFunction,SMDPad,CuDef*%
%ADD21R,1.700000X0.800000*%
%TD*%
%TA.AperFunction,SMDPad,CuDef*%
%ADD22RoundRect,0.150000X0.150000X-0.662500X0.150000X0.662500X-0.150000X0.662500X-0.150000X-0.662500X0*%
%TD*%
%TA.AperFunction,SMDPad,CuDef*%
%ADD23R,2.000000X1.100000*%
%TD*%
%TA.AperFunction,SMDPad,CuDef*%
%ADD24RoundRect,0.250000X0.337500X0.475000X-0.337500X0.475000X-0.337500X-0.475000X0.337500X-0.475000X0*%
%TD*%
%TA.AperFunction,ComponentPad*%
%ADD25R,3.400000X3.400000*%
%TD*%
%TA.AperFunction,ComponentPad*%
%ADD26C,3.400000*%
%TD*%
%TA.AperFunction,ComponentPad*%
%ADD27RoundRect,0.250000X0.550000X-0.550000X0.550000X0.550000X-0.550000X0.550000X-0.550000X-0.550000X0*%
%TD*%
%TA.AperFunction,ComponentPad*%
%ADD28C,1.600000*%
%TD*%
%TA.AperFunction,ComponentPad*%
%ADD29R,1.700000X1.700000*%
%TD*%
%TA.AperFunction,ComponentPad*%
%ADD30C,1.700000*%
%TD*%
%TA.AperFunction,ViaPad*%
%ADD31C,0.600000*%
%TD*%
%TA.AperFunction,Conductor*%
%ADD32C,0.200000*%
%TD*%
%TA.AperFunction,Conductor*%
%ADD33C,0.500000*%
%TD*%
%TA.AperFunction,Conductor*%
%ADD34C,1.000000*%
%TD*%
G04 APERTURE END LIST*
D10*
D11*
X157490714Y-64877219D02*
X156919286Y-64877219D01*
X157205000Y-64877219D02*
X157205000Y-63877219D01*
X157205000Y-63877219D02*
X157109762Y-64020076D01*
X157109762Y-64020076D02*
X157014524Y-64115314D01*
X157014524Y-64115314D02*
X156919286Y-64162933D01*
D12*
%TO.P,R4,1*%
%TO.N,Net-(D1-~_1)*%
X149600000Y-93300000D03*
%TO.P,R4,2*%
%TO.N,Net-(R4-Pad2)*%
X151425000Y-93300000D03*
%TD*%
D13*
%TO.P,R8,1*%
%TO.N,Net-(D8-GA)*%
X155212500Y-87000000D03*
%TO.P,R8,2*%
%TO.N,/LED_RED*%
X153387500Y-87000000D03*
%TD*%
%TO.P,R1,1*%
%TO.N,Net-(D1-~_1)*%
X147974167Y-93250000D03*
%TO.P,R1,2*%
%TO.N,Net-(D1-~_2)*%
X146149167Y-93250000D03*
%TD*%
%TO.P,R3,1*%
%TO.N,Net-(D1-~_2)*%
X144575000Y-93250000D03*
%TO.P,R3,2*%
%TO.N,GND*%
X142750000Y-93250000D03*
%TD*%
D14*
%TO.P,U2,1,GND*%
%TO.N,GND*%
X143300000Y-63740000D03*
%TO.P,U2,2,VDD*%
%TO.N,+3.3V*%
X143300000Y-65010000D03*
%TO.P,U2,3,EN*%
%TO.N,Net-(U2-EN)*%
X143300000Y-66280000D03*
%TO.P,U2,4,SENSOR_VP*%
%TO.N,unconnected-(U2-SENSOR_VP-Pad4)*%
X143300000Y-67550000D03*
%TO.P,U2,5,SENSOR_VN*%
%TO.N,unconnected-(U2-SENSOR_VN-Pad5)*%
X143300000Y-68820000D03*
%TO.P,U2,6,IO34*%
%TO.N,unconnected-(U2-IO34-Pad6)*%
X143300000Y-70090000D03*
%TO.P,U2,7,IO35*%
%TO.N,unconnected-(U2-IO35-Pad7)*%
X143300000Y-71360000D03*
%TO.P,U2,8,IO32*%
%TO.N,unconnected-(U2-IO32-Pad8)*%
X143300000Y-72630000D03*
%TO.P,U2,9,IO33*%
%TO.N,VCAP*%
X143300000Y-73900000D03*
%TO.P,U2,10,IO25*%
%TO.N,unconnected-(U2-IO25-Pad10)*%
X143300000Y-75170000D03*
%TO.P,U2,11,IO26*%
%TO.N,unconnected-(U2-IO26-Pad11)*%
X143300000Y-76440000D03*
%TO.P,U2,12,IO27*%
%TO.N,unconnected-(U2-IO27-Pad12)*%
X143300000Y-77710000D03*
%TO.P,U2,13,IO14*%
%TO.N,/TIC*%
X143300000Y-78980000D03*
%TO.P,U2,14,IO12*%
%TO.N,unconnected-(U2-IO12-Pad14)*%
X143300000Y-80250000D03*
D15*
%TO.P,U2,15,GND*%
%TO.N,GND*%
X146335000Y-81500000D03*
%TO.P,U2,16,IO13*%
%TO.N,/LED_RED*%
X147605000Y-81500000D03*
%TO.P,U2,17,NC*%
%TO.N,unconnected-(U2-NC-Pad17)*%
X148875000Y-81500000D03*
%TO.P,U2,18,NC*%
%TO.N,unconnected-(U2-NC-Pad18)*%
X150145000Y-81500000D03*
%TO.P,U2,19,NC*%
%TO.N,unconnected-(U2-NC-Pad19)*%
X151415000Y-81500000D03*
%TO.P,U2,20,NC*%
%TO.N,unconnected-(U2-NC-Pad20)*%
X152685000Y-81500000D03*
%TO.P,U2,21,NC*%
%TO.N,unconnected-(U2-NC-Pad21)*%
X153955000Y-81500000D03*
%TO.P,U2,22,NC*%
%TO.N,unconnected-(U2-NC-Pad22)*%
X155225000Y-81500000D03*
%TO.P,U2,23,IO15*%
%TO.N,/LED_GREEN*%
X156495000Y-81500000D03*
%TO.P,U2,24,IO2*%
%TO.N,/LED_BLUE*%
X157765000Y-81500000D03*
D14*
%TO.P,U2,25,IO0*%
%TO.N,Net-(U2-IO0)*%
X160800000Y-80250000D03*
%TO.P,U2,26,IO4*%
%TO.N,unconnected-(U2-IO4-Pad26)*%
X160800000Y-78980000D03*
%TO.P,U2,27,IO16*%
%TO.N,unconnected-(U2-IO16-Pad27)*%
X160800000Y-77710000D03*
%TO.P,U2,28,IO17*%
%TO.N,unconnected-(U2-IO17-Pad28)*%
X160800000Y-76440000D03*
%TO.P,U2,29,IO5*%
%TO.N,unconnected-(U2-IO5-Pad29)*%
X160800000Y-75170000D03*
%TO.P,U2,30,IO18*%
%TO.N,unconnected-(U2-IO18-Pad30)*%
X160800000Y-73900000D03*
%TO.P,U2,31,IO19*%
%TO.N,unconnected-(U2-IO19-Pad31)*%
X160800000Y-72630000D03*
%TO.P,U2,32,NC*%
%TO.N,unconnected-(U2-NC-Pad32)*%
X160800000Y-71360000D03*
%TO.P,U2,33,IO21*%
%TO.N,unconnected-(U2-IO21-Pad33)*%
X160800000Y-70090000D03*
%TO.P,U2,34,RXD0/IO3*%
%TO.N,/ESP_RX*%
X160800000Y-68820000D03*
%TO.P,U2,35,TXD0/IO1*%
%TO.N,/ESP_TX*%
X160800000Y-67550000D03*
%TO.P,U2,36,IO22*%
%TO.N,unconnected-(U2-IO22-Pad36)*%
X160800000Y-66280000D03*
%TO.P,U2,37,IO23*%
%TO.N,unconnected-(U2-IO23-Pad37)*%
X160800000Y-65010000D03*
%TO.P,U2,38,GND*%
%TO.N,GND*%
X160800000Y-63740000D03*
D16*
%TO.P,U2,39,GND*%
X149150000Y-70060000D03*
D17*
X149150000Y-70760000D03*
D16*
X149150000Y-71460000D03*
D17*
X149150000Y-72160000D03*
D16*
X149150000Y-72860000D03*
D17*
X149850000Y-70060000D03*
X149850000Y-71460000D03*
X149850000Y-72860000D03*
D16*
X150550000Y-70060000D03*
D17*
X150550000Y-70760000D03*
D16*
X150550000Y-71460000D03*
D17*
X150550000Y-72160000D03*
D16*
X150550000Y-72860000D03*
D17*
X151250000Y-70060000D03*
X151250000Y-71460000D03*
X151250000Y-72860000D03*
D16*
X151950000Y-70060000D03*
D17*
X151950000Y-70760000D03*
D16*
X151950000Y-71460000D03*
D17*
X151950000Y-72160000D03*
D16*
X151950000Y-72860000D03*
%TD*%
D18*
%TO.P,D1,1,-*%
%TO.N,GND*%
X143500000Y-89000000D03*
D19*
%TO.P,D1,2,~_1*%
%TO.N,Net-(D1-~_1)*%
X143500000Y-90800000D03*
%TO.P,D1,3,~_2*%
%TO.N,Net-(D1-~_2)*%
X145500000Y-90800000D03*
%TO.P,D1,4,+*%
%TO.N,VDD*%
X145500000Y-88800000D03*
%TD*%
D20*
%TO.P,R2,1*%
%TO.N,Net-(D1-~_1)*%
X148000000Y-91612500D03*
%TO.P,R2,2*%
%TO.N,GND*%
X148000000Y-89787500D03*
%TD*%
D21*
%TO.P,SW2,1,1*%
%TO.N,Net-(U2-IO0)*%
X163800000Y-80300000D03*
%TO.P,SW2,2,2*%
%TO.N,GND*%
X163800000Y-76900000D03*
%TD*%
D22*
%TO.P,U1,1*%
%TO.N,Net-(R4-Pad2)*%
X149665000Y-91187500D03*
%TO.P,U1,2*%
%TO.N,Net-(J1-I2)*%
X150935000Y-91187500D03*
%TO.P,U1,3*%
%TO.N,GND*%
X150935000Y-84812500D03*
%TO.P,U1,4*%
%TO.N,/TIC*%
X149665000Y-84812500D03*
%TD*%
D13*
%TO.P,R6,1*%
%TO.N,Net-(D8-RA)*%
X161512500Y-83300000D03*
%TO.P,R6,2*%
%TO.N,/LED_BLUE*%
X159687500Y-83300000D03*
%TD*%
%TO.P,R9,1*%
%TO.N,Net-(D8-BA)*%
X155200000Y-85300000D03*
%TO.P,R9,2*%
%TO.N,/LED_GREEN*%
X153375000Y-85300000D03*
%TD*%
D23*
%TO.P,D8,1,RK*%
%TO.N,GND*%
X163000000Y-88700000D03*
%TO.P,D8,2,GK*%
X163000000Y-87000000D03*
%TO.P,D8,3,BK*%
X163000000Y-85300000D03*
%TO.P,D8,4,BA*%
%TO.N,Net-(D8-BA)*%
X158200000Y-85300000D03*
%TO.P,D8,5,GA*%
%TO.N,Net-(D8-GA)*%
X158200000Y-87000000D03*
%TO.P,D8,6,RA*%
%TO.N,Net-(D8-RA)*%
X158200000Y-88700000D03*
%TD*%
D13*
%TO.P,R5,1*%
%TO.N,/TIC*%
X144612500Y-83300000D03*
%TO.P,R5,2*%
%TO.N,+3.3V*%
X142787500Y-83300000D03*
%TD*%
D24*
%TO.P,C1,1*%
%TO.N,VDD*%
X145537500Y-86000000D03*
%TO.P,C1,2*%
%TO.N,GND*%
X143462500Y-86000000D03*
%TD*%
D25*
%TO.P,J1,1,A*%
%TO.N,Net-(D1-~_2)*%
X144500000Y-96000000D03*
D26*
%TO.P,J1,2,I2*%
%TO.N,Net-(J1-I2)*%
X149580000Y-96000000D03*
%TO.P,J1,3,I1*%
%TO.N,Net-(D1-~_1)*%
X154660000Y-96000000D03*
%TD*%
D27*
%TO.P,C2,1*%
%TO.N,VCAP*%
X146900000Y-73900000D03*
D28*
%TO.P,C2,2*%
%TO.N,GND*%
X146900000Y-70400000D03*
%TD*%
D29*
%TO.P,J2,1,Pin_1*%
%TO.N,+3.3V*%
X163800000Y-64500000D03*
D30*
%TO.P,J2,2,Pin_2*%
%TO.N,/ESP_TX*%
X163800000Y-67040000D03*
%TO.P,J2,3,Pin_3*%
%TO.N,/ESP_RX*%
X163800000Y-69580000D03*
%TO.P,J2,4,Pin_4*%
%TO.N,GND*%
X163800000Y-72120000D03*
%TD*%
D31*
%TO.N,GND*%
X142100000Y-63700000D03*
X144650000Y-68850000D03*
X163800000Y-75900000D03*
X162300000Y-84100000D03*
X156200000Y-73900000D03*
X154700000Y-71800000D03*
X144550000Y-63740000D03*
X163100000Y-82300000D03*
X158300000Y-79200000D03*
X156200000Y-74700000D03*
X154700000Y-72600000D03*
X150300000Y-83500000D03*
X150500000Y-63800000D03*
X145212500Y-80100000D03*
X146300000Y-80000000D03*
X146300000Y-82800000D03*
X157150000Y-77000000D03*
X155300000Y-73900000D03*
X156900000Y-73400000D03*
X162900000Y-78100000D03*
X156900000Y-71800000D03*
X154700000Y-73400000D03*
X162000000Y-63800000D03*
X149100000Y-88400000D03*
X159600000Y-63740000D03*
X163000000Y-86100000D03*
X142300000Y-86200000D03*
X145300000Y-81500000D03*
X156900000Y-72600000D03*
X142200000Y-94200000D03*
X148000000Y-63800000D03*
X163000000Y-87800000D03*
X158600000Y-80200000D03*
%TO.N,VDD*%
X146500000Y-87200000D03*
X144600000Y-87200000D03*
X144600000Y-85100000D03*
X146500000Y-85100000D03*
%TO.N,Net-(D1-~_1)*%
X144500000Y-91150000D03*
X148800000Y-93300000D03*
%TO.N,+3.3V*%
X157800000Y-73400000D03*
X145800000Y-65000000D03*
X157800000Y-69400000D03*
X158700000Y-70200000D03*
X157800000Y-71000000D03*
X145800000Y-68500000D03*
X158700000Y-69400000D03*
X144550000Y-65000000D03*
X157800000Y-72600000D03*
X147100000Y-65000000D03*
X157800000Y-71800000D03*
X157800000Y-70200000D03*
X158700000Y-71000000D03*
X147100000Y-68500000D03*
X142800000Y-82200000D03*
X158800000Y-75100000D03*
X158800000Y-74100000D03*
X148400000Y-68500000D03*
X149200000Y-67100000D03*
%TO.N,VCAP*%
X149700000Y-78600000D03*
X152020000Y-78600000D03*
X154340000Y-78600000D03*
X153180000Y-78600000D03*
X150860000Y-78600000D03*
X155500000Y-78600000D03*
%TO.N,Net-(U2-EN)*%
X143300000Y-66280000D03*
%TD*%
D32*
%TO.N,GND*%
X160860000Y-63800000D02*
X160800000Y-63740000D01*
X146300000Y-80000000D02*
X146300000Y-82800000D01*
X145300000Y-81500000D02*
X146335000Y-81500000D01*
X143300000Y-63740000D02*
X144590000Y-63740000D01*
X150900000Y-84847500D02*
X150935000Y-84812500D01*
X143500000Y-89000000D02*
X143500000Y-86037500D01*
X159600000Y-63740000D02*
X160800000Y-63740000D01*
X142100000Y-63700000D02*
X143260000Y-63700000D01*
X162000000Y-63800000D02*
X160860000Y-63800000D01*
X143260000Y-63700000D02*
X143300000Y-63740000D01*
X143500000Y-86037500D02*
X143462500Y-86000000D01*
X163000000Y-85300000D02*
X163000000Y-88700000D01*
%TO.N,VDD*%
X145637500Y-86100000D02*
X145537500Y-86200000D01*
X145537500Y-88762500D02*
X145500000Y-88800000D01*
X145700000Y-86400000D02*
X145537500Y-86562500D01*
X145537500Y-86562500D02*
X145537500Y-88762500D01*
%TO.N,Net-(D1-~_2)*%
X144500000Y-93325000D02*
X144575000Y-93250000D01*
X146149167Y-93250000D02*
X146149167Y-92149167D01*
X145500000Y-91500000D02*
X145500000Y-90800000D01*
X144575000Y-93250000D02*
X146168750Y-93250000D01*
X146149167Y-92149167D02*
X145500000Y-91500000D01*
X144500000Y-96000000D02*
X144500000Y-93325000D01*
%TO.N,Net-(D1-~_1)*%
X148000000Y-93224167D02*
X147974167Y-93250000D01*
X148024167Y-93300000D02*
X147974167Y-93250000D01*
X143500000Y-90800000D02*
X144150000Y-90800000D01*
X143600000Y-90800000D02*
X143500000Y-90800000D01*
X144150000Y-90800000D02*
X144500000Y-91150000D01*
X148000000Y-91612500D02*
X148000000Y-93224167D01*
X149600000Y-93300000D02*
X148024167Y-93300000D01*
X149665000Y-93235000D02*
X149600000Y-93300000D01*
%TO.N,Net-(D8-RA)*%
X161512500Y-84187500D02*
X161512500Y-83300000D01*
X160800000Y-84900000D02*
X161512500Y-84187500D01*
X160100000Y-88700000D02*
X160800000Y-88000000D01*
X160800000Y-88000000D02*
X160800000Y-84900000D01*
X158200000Y-88700000D02*
X160100000Y-88700000D01*
%TO.N,Net-(D8-GA)*%
X158200000Y-87000000D02*
X155212500Y-87000000D01*
%TO.N,Net-(D8-BA)*%
X158200000Y-85300000D02*
X155200000Y-85300000D01*
%TO.N,Net-(R4-Pad2)*%
X150600000Y-92400000D02*
X149800000Y-92400000D01*
X149665000Y-92265000D02*
X149665000Y-91187500D01*
X149800000Y-92400000D02*
X149665000Y-92265000D01*
X151425000Y-93225000D02*
X150600000Y-92400000D01*
X151425000Y-93300000D02*
X151425000Y-93225000D01*
%TO.N,+3.3V*%
X142800000Y-83287500D02*
X142787500Y-83300000D01*
D33*
X143300000Y-65010000D02*
X144560000Y-65010000D01*
D32*
X143300000Y-65010000D02*
X143290000Y-65000000D01*
X142800000Y-82200000D02*
X142800000Y-83287500D01*
%TO.N,/LED_BLUE*%
X158300000Y-83300000D02*
X157765000Y-82765000D01*
X157765000Y-82765000D02*
X157765000Y-81500000D01*
X159687500Y-83300000D02*
X158300000Y-83300000D01*
%TO.N,/LED_RED*%
X152500000Y-83100000D02*
X152500000Y-86700000D01*
X152500000Y-86700000D02*
X152800000Y-87000000D01*
X147605000Y-82405000D02*
X147800000Y-82600000D01*
X152800000Y-87000000D02*
X153387500Y-87000000D01*
X152000000Y-82600000D02*
X152500000Y-83100000D01*
X147800000Y-82600000D02*
X152000000Y-82600000D01*
X147605000Y-81500000D02*
X147605000Y-82405000D01*
%TO.N,/LED_GREEN*%
X153375000Y-83025000D02*
X153375000Y-85300000D01*
X156495000Y-82405000D02*
X156300000Y-82600000D01*
X156300000Y-82600000D02*
X153800000Y-82600000D01*
X153800000Y-82600000D02*
X153375000Y-83025000D01*
X156495000Y-81500000D02*
X156495000Y-82405000D01*
%TO.N,Net-(U2-IO0)*%
X163800000Y-80300000D02*
X160850000Y-80300000D01*
X160850000Y-80300000D02*
X160800000Y-80250000D01*
%TO.N,/ESP_RX*%
X162580000Y-69580000D02*
X163800000Y-69580000D01*
X161820000Y-68820000D02*
X162580000Y-69580000D01*
X160800000Y-68820000D02*
X161820000Y-68820000D01*
D34*
%TO.N,VCAP*%
X155500000Y-78600000D02*
X149700000Y-78600000D01*
X149700000Y-78600000D02*
X146900000Y-75800000D01*
D32*
X146900000Y-73900000D02*
X143300000Y-73900000D01*
D34*
X146900000Y-75800000D02*
X146900000Y-73900000D01*
D32*
%TO.N,/ESP_TX*%
X160800000Y-67550000D02*
X161650000Y-67550000D01*
X162160000Y-67040000D02*
X161650000Y-67550000D01*
X163800000Y-67040000D02*
X162160000Y-67040000D01*
%TO.N,Net-(J1-I2)*%
X151180000Y-94400000D02*
X152050000Y-94400000D01*
X151437500Y-91187500D02*
X150935000Y-91187500D01*
X149580000Y-96000000D02*
X151180000Y-94400000D01*
X152450000Y-92200000D02*
X151437500Y-91187500D01*
X152450000Y-94000000D02*
X152450000Y-92200000D01*
X152050000Y-94400000D02*
X152450000Y-94000000D01*
%TO.N,/TIC*%
X145112500Y-83800000D02*
X147200000Y-83800000D01*
X148212500Y-84812500D02*
X149665000Y-84812500D01*
X144080000Y-78980000D02*
X144612500Y-79512500D01*
X147200000Y-83800000D02*
X148212500Y-84812500D01*
X144612500Y-83300000D02*
X145112500Y-83800000D01*
X144612500Y-79512500D02*
X144612500Y-83300000D01*
X143300000Y-78980000D02*
X144080000Y-78980000D01*
%TD*%
%TA.AperFunction,Conductor*%
%TO.N,GND*%
G36*
X165758691Y-62719407D02*
G01*
X165794655Y-62768907D01*
X165799500Y-62799500D01*
X165799500Y-90900500D01*
X165780593Y-90958691D01*
X165731093Y-90994655D01*
X165700500Y-90999500D01*
X158892677Y-90999500D01*
X158680235Y-91030045D01*
X158680233Y-91030045D01*
X158474294Y-91090514D01*
X158279048Y-91179680D01*
X158279040Y-91179684D01*
X158098494Y-91295713D01*
X158098482Y-91295722D01*
X157936285Y-91436267D01*
X157936267Y-91436285D01*
X157795722Y-91598482D01*
X157795713Y-91598494D01*
X157679684Y-91779040D01*
X157679680Y-91779048D01*
X157679679Y-91779050D01*
X157662235Y-91817247D01*
X157590514Y-91974294D01*
X157530045Y-92180233D01*
X157530045Y-92180235D01*
X157499500Y-92392676D01*
X157499500Y-98900500D01*
X157480593Y-98958691D01*
X157431093Y-98994655D01*
X157400500Y-98999500D01*
X141899500Y-98999500D01*
X141841309Y-98980593D01*
X141805345Y-98931093D01*
X141800500Y-98900500D01*
X141800500Y-94280253D01*
X142599500Y-94280253D01*
X142599500Y-97719746D01*
X142599501Y-97719758D01*
X142611132Y-97778227D01*
X142611134Y-97778233D01*
X142628019Y-97803503D01*
X142655448Y-97844552D01*
X142721769Y-97888867D01*
X142766231Y-97897711D01*
X142780241Y-97900498D01*
X142780246Y-97900498D01*
X142780252Y-97900500D01*
X142780253Y-97900500D01*
X146219747Y-97900500D01*
X146219748Y-97900500D01*
X146278231Y-97888867D01*
X146344552Y-97844552D01*
X146388867Y-97778231D01*
X146400500Y-97719748D01*
X146400500Y-94280252D01*
X146388867Y-94221769D01*
X146344552Y-94155448D01*
X146315759Y-94136209D01*
X146271769Y-94106815D01*
X146233890Y-94058765D01*
X146231488Y-93997627D01*
X146265481Y-93946753D01*
X146322885Y-93925576D01*
X146326771Y-93925500D01*
X146451929Y-93925500D01*
X146451932Y-93925499D01*
X146481516Y-93922725D01*
X146606142Y-93879116D01*
X146712378Y-93800711D01*
X146790783Y-93694475D01*
X146834392Y-93569849D01*
X146837167Y-93540256D01*
X146837167Y-92959744D01*
X146837167Y-92959738D01*
X146837166Y-92959733D01*
X147286167Y-92959733D01*
X147286167Y-93540266D01*
X147288941Y-93569844D01*
X147288943Y-93569852D01*
X147332551Y-93694476D01*
X147410688Y-93800348D01*
X147410956Y-93800711D01*
X147410959Y-93800713D01*
X147410960Y-93800714D01*
X147517190Y-93879115D01*
X147517191Y-93879115D01*
X147517192Y-93879116D01*
X147641818Y-93922725D01*
X147666079Y-93925000D01*
X147671400Y-93925499D01*
X147671405Y-93925500D01*
X147671411Y-93925500D01*
X148276929Y-93925500D01*
X148276932Y-93925499D01*
X148306516Y-93922725D01*
X148431142Y-93879116D01*
X148537378Y-93800711D01*
X148537383Y-93800703D01*
X148538696Y-93799392D01*
X148540213Y-93798618D01*
X148543347Y-93796306D01*
X148543730Y-93796826D01*
X148593211Y-93771610D01*
X148634321Y-93773762D01*
X148734108Y-93800500D01*
X148734111Y-93800500D01*
X148865892Y-93800500D01*
X148912436Y-93788028D01*
X148973535Y-93791229D01*
X149017713Y-93824864D01*
X149036789Y-93850711D01*
X149036792Y-93850713D01*
X149036793Y-93850714D01*
X149143021Y-93929114D01*
X149143023Y-93929114D01*
X149143025Y-93929116D01*
X149196847Y-93947949D01*
X149245525Y-93985012D01*
X149263122Y-94043613D01*
X149242914Y-94101365D01*
X149192620Y-94136209D01*
X149189770Y-94137019D01*
X148967800Y-94196496D01*
X148967787Y-94196500D01*
X148737634Y-94291832D01*
X148521869Y-94416403D01*
X148324230Y-94568056D01*
X148148056Y-94744230D01*
X147996403Y-94941869D01*
X147871832Y-95157634D01*
X147776500Y-95387787D01*
X147776496Y-95387800D01*
X147712017Y-95628437D01*
X147712017Y-95628442D01*
X147679500Y-95875433D01*
X147679500Y-96124566D01*
X147712017Y-96371557D01*
X147712017Y-96371562D01*
X147776496Y-96612199D01*
X147776500Y-96612212D01*
X147871832Y-96842365D01*
X147871834Y-96842369D01*
X147871836Y-96842373D01*
X147996401Y-97058127D01*
X147996403Y-97058130D01*
X148148056Y-97255769D01*
X148148058Y-97255771D01*
X148148062Y-97255776D01*
X148324224Y-97431938D01*
X148324228Y-97431941D01*
X148324230Y-97431943D01*
X148521869Y-97583596D01*
X148521873Y-97583599D01*
X148737627Y-97708164D01*
X148967793Y-97803502D01*
X149208435Y-97867982D01*
X149455435Y-97900500D01*
X149455436Y-97900500D01*
X149704564Y-97900500D01*
X149704565Y-97900500D01*
X149951565Y-97867982D01*
X150192207Y-97803502D01*
X150422373Y-97708164D01*
X150638127Y-97583599D01*
X150835776Y-97431938D01*
X151011938Y-97255776D01*
X151163599Y-97058127D01*
X151288164Y-96842373D01*
X151383502Y-96612207D01*
X151447982Y-96371565D01*
X151480500Y-96124565D01*
X151480500Y-95875435D01*
X151480500Y-95875433D01*
X152759500Y-95875433D01*
X152759500Y-96124566D01*
X152792017Y-96371557D01*
X152792017Y-96371562D01*
X152856496Y-96612199D01*
X152856500Y-96612212D01*
X152951832Y-96842365D01*
X152951834Y-96842369D01*
X152951836Y-96842373D01*
X153076401Y-97058127D01*
X153076403Y-97058130D01*
X153228056Y-97255769D01*
X153228058Y-97255771D01*
X153228062Y-97255776D01*
X153404224Y-97431938D01*
X153404228Y-97431941D01*
X153404230Y-97431943D01*
X153601869Y-97583596D01*
X153601873Y-97583599D01*
X153817627Y-97708164D01*
X154047793Y-97803502D01*
X154288435Y-97867982D01*
X154535435Y-97900500D01*
X154535436Y-97900500D01*
X154784564Y-97900500D01*
X154784565Y-97900500D01*
X155031565Y-97867982D01*
X155272207Y-97803502D01*
X155502373Y-97708164D01*
X155718127Y-97583599D01*
X155915776Y-97431938D01*
X156091938Y-97255776D01*
X156243599Y-97058127D01*
X156368164Y-96842373D01*
X156463502Y-96612207D01*
X156527982Y-96371565D01*
X156560500Y-96124565D01*
X156560500Y-95875435D01*
X156527982Y-95628435D01*
X156463502Y-95387793D01*
X156368164Y-95157627D01*
X156243599Y-94941873D01*
X156091938Y-94744224D01*
X155915776Y-94568062D01*
X155915771Y-94568058D01*
X155915769Y-94568056D01*
X155718130Y-94416403D01*
X155718127Y-94416401D01*
X155502373Y-94291836D01*
X155502369Y-94291834D01*
X155502365Y-94291832D01*
X155272212Y-94196500D01*
X155272211Y-94196499D01*
X155272207Y-94196498D01*
X155031565Y-94132018D01*
X155031562Y-94132017D01*
X155031560Y-94132017D01*
X154784566Y-94099500D01*
X154784565Y-94099500D01*
X154535435Y-94099500D01*
X154535433Y-94099500D01*
X154288442Y-94132017D01*
X154288437Y-94132017D01*
X154047800Y-94196496D01*
X154047787Y-94196500D01*
X153817634Y-94291832D01*
X153601869Y-94416403D01*
X153404230Y-94568056D01*
X153228056Y-94744230D01*
X153076403Y-94941869D01*
X152951832Y-95157634D01*
X152856500Y-95387787D01*
X152856496Y-95387800D01*
X152792017Y-95628437D01*
X152792017Y-95628442D01*
X152759500Y-95875433D01*
X151480500Y-95875433D01*
X151447982Y-95628435D01*
X151383502Y-95387793D01*
X151288164Y-95157627D01*
X151164793Y-94943941D01*
X151164231Y-94941299D01*
X151162321Y-94939389D01*
X151157922Y-94911618D01*
X151152073Y-94884097D01*
X151153172Y-94881626D01*
X151152750Y-94878957D01*
X151165520Y-94853894D01*
X151176960Y-94828201D01*
X151180503Y-94824467D01*
X151275475Y-94729496D01*
X151329992Y-94701719D01*
X151345478Y-94700500D01*
X152089563Y-94700500D01*
X152089563Y-94700499D01*
X152165989Y-94680021D01*
X152234511Y-94640460D01*
X152262485Y-94612485D01*
X152290461Y-94584511D01*
X152583139Y-94291832D01*
X152690460Y-94184511D01*
X152707239Y-94155448D01*
X152730021Y-94115989D01*
X152750500Y-94039562D01*
X152750500Y-92160438D01*
X152730021Y-92084011D01*
X152690460Y-92015489D01*
X152668846Y-91993875D01*
X152634511Y-91959539D01*
X152634511Y-91959540D01*
X151622011Y-90947040D01*
X151587779Y-90927276D01*
X151553492Y-90907480D01*
X151553488Y-90907478D01*
X151508876Y-90895524D01*
X151457562Y-90862200D01*
X151435636Y-90805078D01*
X151435500Y-90799898D01*
X151435500Y-90491743D01*
X151435500Y-90491740D01*
X151425573Y-90423607D01*
X151422953Y-90418248D01*
X151410957Y-90393709D01*
X152949500Y-90393709D01*
X152949500Y-90606290D01*
X152982752Y-90816238D01*
X153048443Y-91018412D01*
X153144948Y-91207815D01*
X153144950Y-91207819D01*
X153269891Y-91379786D01*
X153269893Y-91379788D01*
X153269896Y-91379792D01*
X153420208Y-91530104D01*
X153420211Y-91530106D01*
X153420213Y-91530108D01*
X153592180Y-91655049D01*
X153592184Y-91655051D01*
X153781588Y-91751557D01*
X153983757Y-91817246D01*
X153983758Y-91817246D01*
X153983761Y-91817247D01*
X154193710Y-91850500D01*
X154193713Y-91850500D01*
X154406290Y-91850500D01*
X154616238Y-91817247D01*
X154616239Y-91817246D01*
X154616243Y-91817246D01*
X154818412Y-91751557D01*
X155007816Y-91655051D01*
X155179792Y-91530104D01*
X155330104Y-91379792D01*
X155446382Y-91219748D01*
X155455049Y-91207819D01*
X155455051Y-91207816D01*
X155551557Y-91018412D01*
X155617246Y-90816243D01*
X155617247Y-90816238D01*
X155650500Y-90606290D01*
X155650500Y-90393709D01*
X155617247Y-90183761D01*
X155614238Y-90174500D01*
X155551557Y-89981588D01*
X155455051Y-89792184D01*
X155455049Y-89792180D01*
X155330108Y-89620213D01*
X155330106Y-89620211D01*
X155330104Y-89620208D01*
X155179792Y-89469896D01*
X155179788Y-89469893D01*
X155179786Y-89469891D01*
X155007819Y-89344950D01*
X155007815Y-89344948D01*
X154818412Y-89248443D01*
X154616238Y-89182752D01*
X154406290Y-89149500D01*
X154406287Y-89149500D01*
X154193713Y-89149500D01*
X154193710Y-89149500D01*
X153983761Y-89182752D01*
X153781587Y-89248443D01*
X153592184Y-89344948D01*
X153592180Y-89344950D01*
X153420213Y-89469891D01*
X153269891Y-89620213D01*
X153144950Y-89792180D01*
X153144948Y-89792184D01*
X153048443Y-89981587D01*
X152982752Y-90183761D01*
X152949500Y-90393709D01*
X151410957Y-90393709D01*
X151375789Y-90321772D01*
X151374198Y-90318517D01*
X151291483Y-90235802D01*
X151291481Y-90235801D01*
X151186395Y-90184427D01*
X151159139Y-90180456D01*
X151118260Y-90174500D01*
X150751740Y-90174500D01*
X150717673Y-90179463D01*
X150683604Y-90184427D01*
X150578518Y-90235801D01*
X150495801Y-90318518D01*
X150444427Y-90423604D01*
X150444427Y-90423607D01*
X150434500Y-90491740D01*
X150434500Y-91883260D01*
X150437012Y-91900500D01*
X150444427Y-91951396D01*
X150447176Y-91957017D01*
X150448179Y-91964109D01*
X150452392Y-91969907D01*
X150452392Y-91993875D01*
X150455749Y-92017598D01*
X150452392Y-92023926D01*
X150452392Y-92031093D01*
X150438303Y-92050483D01*
X150427076Y-92071649D01*
X150420640Y-92074795D01*
X150416428Y-92080593D01*
X150393632Y-92087999D01*
X150372108Y-92098523D01*
X150358237Y-92099500D01*
X150241763Y-92099500D01*
X150183572Y-92080593D01*
X150147608Y-92031093D01*
X150147608Y-91969907D01*
X150152824Y-91957017D01*
X150155572Y-91951396D01*
X150155572Y-91951394D01*
X150155573Y-91951393D01*
X150165500Y-91883260D01*
X150165500Y-90491740D01*
X150155573Y-90423607D01*
X150152953Y-90418248D01*
X150105789Y-90321772D01*
X150104198Y-90318517D01*
X150021483Y-90235802D01*
X150021481Y-90235801D01*
X149916395Y-90184427D01*
X149889139Y-90180456D01*
X149848260Y-90174500D01*
X149481740Y-90174500D01*
X149447673Y-90179463D01*
X149413604Y-90184427D01*
X149308518Y-90235801D01*
X149225801Y-90318518D01*
X149174427Y-90423604D01*
X149174427Y-90423607D01*
X149164500Y-90491740D01*
X149164500Y-91883260D01*
X149167012Y-91900500D01*
X149174427Y-91951395D01*
X149214409Y-92033179D01*
X149225802Y-92056483D01*
X149308517Y-92139198D01*
X149308978Y-92139423D01*
X149309387Y-92139819D01*
X149315194Y-92143965D01*
X149314572Y-92144835D01*
X149352953Y-92181965D01*
X149364500Y-92228365D01*
X149364500Y-92304564D01*
X149384978Y-92380988D01*
X149384980Y-92380992D01*
X149415647Y-92434108D01*
X149424540Y-92449511D01*
X149430527Y-92455498D01*
X149458303Y-92510013D01*
X149448732Y-92570445D01*
X149405467Y-92613710D01*
X149360522Y-92624500D01*
X149297233Y-92624500D01*
X149267655Y-92627274D01*
X149267647Y-92627276D01*
X149143023Y-92670884D01*
X149036793Y-92749285D01*
X149036787Y-92749291D01*
X149017714Y-92775134D01*
X148967946Y-92810725D01*
X148912439Y-92811971D01*
X148865894Y-92799500D01*
X148865892Y-92799500D01*
X148734108Y-92799500D01*
X148734103Y-92799500D01*
X148696800Y-92809495D01*
X148635699Y-92806291D01*
X148591525Y-92772656D01*
X148537381Y-92699293D01*
X148537380Y-92699292D01*
X148537378Y-92699289D01*
X148537373Y-92699285D01*
X148431144Y-92620884D01*
X148366801Y-92598369D01*
X148343314Y-92580486D01*
X148319407Y-92563116D01*
X148319047Y-92562008D01*
X148318121Y-92561303D01*
X148300500Y-92504925D01*
X148300500Y-92374739D01*
X148319407Y-92316548D01*
X148366801Y-92281295D01*
X148444475Y-92254116D01*
X148550711Y-92175711D01*
X148629116Y-92069475D01*
X148672725Y-91944849D01*
X148675500Y-91915256D01*
X148675500Y-91309744D01*
X148675500Y-91309738D01*
X148675499Y-91309733D01*
X148672725Y-91280155D01*
X148672725Y-91280151D01*
X148629116Y-91155525D01*
X148550711Y-91049289D01*
X148550706Y-91049285D01*
X148444476Y-90970884D01*
X148319852Y-90927276D01*
X148319851Y-90927275D01*
X148319849Y-90927275D01*
X148319847Y-90927274D01*
X148319844Y-90927274D01*
X148290266Y-90924500D01*
X148290256Y-90924500D01*
X147709744Y-90924500D01*
X147709733Y-90924500D01*
X147680155Y-90927274D01*
X147680147Y-90927276D01*
X147555523Y-90970884D01*
X147449293Y-91049285D01*
X147449285Y-91049293D01*
X147370884Y-91155523D01*
X147327276Y-91280147D01*
X147327274Y-91280155D01*
X147324500Y-91309733D01*
X147324500Y-91915266D01*
X147327274Y-91944844D01*
X147327276Y-91944852D01*
X147370884Y-92069476D01*
X147449285Y-92175706D01*
X147449289Y-92175711D01*
X147449292Y-92175713D01*
X147449293Y-92175714D01*
X147555523Y-92254115D01*
X147555524Y-92254115D01*
X147555525Y-92254116D01*
X147633198Y-92281295D01*
X147656677Y-92299172D01*
X147680593Y-92316548D01*
X147680952Y-92317655D01*
X147681878Y-92318360D01*
X147699500Y-92374739D01*
X147699500Y-92486846D01*
X147680593Y-92545037D01*
X147633199Y-92580290D01*
X147517189Y-92620884D01*
X147410960Y-92699285D01*
X147410952Y-92699293D01*
X147332551Y-92805523D01*
X147288943Y-92930147D01*
X147288941Y-92930155D01*
X147286167Y-92959733D01*
X146837166Y-92959733D01*
X146834392Y-92930155D01*
X146834392Y-92930151D01*
X146790783Y-92805525D01*
X146786881Y-92800238D01*
X146712381Y-92699293D01*
X146712380Y-92699292D01*
X146712378Y-92699289D01*
X146712373Y-92699285D01*
X146606143Y-92620884D01*
X146515969Y-92589330D01*
X146467288Y-92552264D01*
X146449667Y-92495886D01*
X146449667Y-92109606D01*
X146449667Y-92109605D01*
X146435433Y-92056483D01*
X146435433Y-92056482D01*
X146435433Y-92056481D01*
X146429191Y-92033184D01*
X146429190Y-92033182D01*
X146429189Y-92033181D01*
X146429189Y-92033179D01*
X146389627Y-91964656D01*
X146204011Y-91779040D01*
X145980375Y-91555403D01*
X145952598Y-91500887D01*
X145962169Y-91440455D01*
X146005434Y-91397190D01*
X146022012Y-91391442D01*
X146028225Y-91388868D01*
X146028231Y-91388867D01*
X146094552Y-91344552D01*
X146138867Y-91278231D01*
X146150500Y-91219748D01*
X146150500Y-90380252D01*
X146138867Y-90321769D01*
X146094552Y-90255448D01*
X146094548Y-90255445D01*
X146028233Y-90211134D01*
X146028231Y-90211133D01*
X146028228Y-90211132D01*
X146028227Y-90211132D01*
X145969758Y-90199501D01*
X145969748Y-90199500D01*
X145030252Y-90199500D01*
X145030251Y-90199500D01*
X145030241Y-90199501D01*
X144971772Y-90211132D01*
X144971766Y-90211134D01*
X144905451Y-90255445D01*
X144905445Y-90255451D01*
X144861134Y-90321766D01*
X144861132Y-90321772D01*
X144849501Y-90380241D01*
X144849500Y-90380253D01*
X144849500Y-90602382D01*
X144830593Y-90660573D01*
X144781093Y-90696537D01*
X144719907Y-90696537D01*
X144701003Y-90688120D01*
X144693189Y-90683609D01*
X144693191Y-90683609D01*
X144643799Y-90670375D01*
X144565892Y-90649500D01*
X144465479Y-90649500D01*
X144407288Y-90630593D01*
X144395476Y-90620504D01*
X144334510Y-90559539D01*
X144265992Y-90519980D01*
X144265988Y-90519978D01*
X144223876Y-90508694D01*
X144172562Y-90475370D01*
X144150636Y-90418248D01*
X144150500Y-90413068D01*
X144150500Y-90380253D01*
X144150498Y-90380241D01*
X144147711Y-90366231D01*
X144138867Y-90321769D01*
X144094552Y-90255448D01*
X144094548Y-90255445D01*
X144028233Y-90211134D01*
X144028231Y-90211133D01*
X144028228Y-90211132D01*
X144028227Y-90211132D01*
X143969758Y-90199501D01*
X143969748Y-90199500D01*
X143030252Y-90199500D01*
X143030251Y-90199500D01*
X143030241Y-90199501D01*
X142971772Y-90211132D01*
X142971766Y-90211134D01*
X142905451Y-90255445D01*
X142905445Y-90255451D01*
X142861134Y-90321766D01*
X142861132Y-90321772D01*
X142849501Y-90380241D01*
X142849500Y-90380253D01*
X142849500Y-91219746D01*
X142849501Y-91219758D01*
X142861132Y-91278227D01*
X142861134Y-91278233D01*
X142905445Y-91344548D01*
X142905448Y-91344552D01*
X142971769Y-91388867D01*
X143013612Y-91397190D01*
X143030241Y-91400498D01*
X143030246Y-91400498D01*
X143030252Y-91400500D01*
X143030253Y-91400500D01*
X143969747Y-91400500D01*
X143969748Y-91400500D01*
X143987130Y-91397042D01*
X144047888Y-91404230D01*
X144092181Y-91444637D01*
X144099500Y-91457314D01*
X144192686Y-91550500D01*
X144192688Y-91550501D01*
X144192690Y-91550503D01*
X144306810Y-91616390D01*
X144306808Y-91616390D01*
X144306812Y-91616391D01*
X144306814Y-91616392D01*
X144434108Y-91650500D01*
X144434110Y-91650500D01*
X144565890Y-91650500D01*
X144565892Y-91650500D01*
X144693186Y-91616392D01*
X144693188Y-91616390D01*
X144693190Y-91616390D01*
X144807309Y-91550503D01*
X144807309Y-91550502D01*
X144807314Y-91550500D01*
X144900500Y-91457314D01*
X144900502Y-91457309D01*
X144900504Y-91457308D01*
X144907817Y-91444642D01*
X144953285Y-91403700D01*
X144998510Y-91395264D01*
X145005754Y-91395627D01*
X145030252Y-91400500D01*
X145102982Y-91400500D01*
X145105456Y-91400624D01*
X145131833Y-91410680D01*
X145158691Y-91419407D01*
X145160211Y-91421500D01*
X145162627Y-91422421D01*
X145178051Y-91446054D01*
X145194655Y-91468907D01*
X145195195Y-91472322D01*
X145196068Y-91473659D01*
X145195909Y-91476826D01*
X145199500Y-91499500D01*
X145199500Y-91539564D01*
X145219978Y-91615988D01*
X145219980Y-91615992D01*
X145242530Y-91655049D01*
X145259540Y-91684511D01*
X145819672Y-92244643D01*
X145823297Y-92251758D01*
X145829760Y-92256454D01*
X145836923Y-92278502D01*
X145847448Y-92299158D01*
X145848667Y-92314645D01*
X145848667Y-92495886D01*
X145829760Y-92554077D01*
X145782365Y-92589330D01*
X145692191Y-92620884D01*
X145692190Y-92620884D01*
X145585960Y-92699285D01*
X145585952Y-92699293D01*
X145507551Y-92805523D01*
X145480372Y-92883198D01*
X145462494Y-92906677D01*
X145445119Y-92930593D01*
X145444011Y-92930952D01*
X145443307Y-92931878D01*
X145386928Y-92949500D01*
X145337239Y-92949500D01*
X145279048Y-92930593D01*
X145243795Y-92883198D01*
X145231438Y-92847883D01*
X145216616Y-92805525D01*
X145212714Y-92800238D01*
X145138214Y-92699293D01*
X145138213Y-92699292D01*
X145138211Y-92699289D01*
X145138206Y-92699285D01*
X145031976Y-92620884D01*
X144907352Y-92577276D01*
X144907351Y-92577275D01*
X144907349Y-92577275D01*
X144907347Y-92577274D01*
X144907344Y-92577274D01*
X144877766Y-92574500D01*
X144877756Y-92574500D01*
X144272244Y-92574500D01*
X144272233Y-92574500D01*
X144242655Y-92577274D01*
X144242647Y-92577276D01*
X144118023Y-92620884D01*
X144011793Y-92699285D01*
X144011785Y-92699293D01*
X143933384Y-92805523D01*
X143889776Y-92930147D01*
X143889774Y-92930155D01*
X143887000Y-92959733D01*
X143887000Y-93540266D01*
X143889774Y-93569844D01*
X143889776Y-93569852D01*
X143933384Y-93694476D01*
X144011521Y-93800348D01*
X144011789Y-93800711D01*
X144011792Y-93800713D01*
X144011793Y-93800714D01*
X144113164Y-93875529D01*
X144118025Y-93879116D01*
X144133197Y-93884424D01*
X144156672Y-93902298D01*
X144180593Y-93919678D01*
X144180952Y-93920785D01*
X144181877Y-93921489D01*
X144199500Y-93977869D01*
X144199500Y-94000500D01*
X144180593Y-94058691D01*
X144131093Y-94094655D01*
X144100500Y-94099500D01*
X143158316Y-94099500D01*
X143100125Y-94080593D01*
X143064161Y-94031093D01*
X143064161Y-93969907D01*
X143100125Y-93920407D01*
X143125618Y-93907056D01*
X143206740Y-93878669D01*
X143312848Y-93800358D01*
X143312858Y-93800348D01*
X143391169Y-93694240D01*
X143434727Y-93569759D01*
X143434728Y-93569758D01*
X143437500Y-93540201D01*
X143437500Y-93350001D01*
X143437499Y-93350000D01*
X142850001Y-93350000D01*
X142850000Y-93350001D01*
X142850000Y-93924999D01*
X142855497Y-93930496D01*
X142883274Y-93985013D01*
X142873703Y-94045445D01*
X142830438Y-94088710D01*
X142785493Y-94099500D01*
X142780251Y-94099500D01*
X142727187Y-94110055D01*
X142727185Y-94110055D01*
X142721769Y-94111133D01*
X142718927Y-94113031D01*
X142718924Y-94113033D01*
X142655450Y-94155446D01*
X142655445Y-94155451D01*
X142611134Y-94221766D01*
X142611132Y-94221772D01*
X142599501Y-94280241D01*
X142599500Y-94280253D01*
X141800500Y-94280253D01*
X141800500Y-93350001D01*
X142062500Y-93350001D01*
X142062500Y-93540201D01*
X142065271Y-93569758D01*
X142065272Y-93569759D01*
X142108830Y-93694240D01*
X142187141Y-93800348D01*
X142187151Y-93800358D01*
X142293259Y-93878669D01*
X142417740Y-93922227D01*
X142417741Y-93922228D01*
X142447299Y-93925000D01*
X142649999Y-93925000D01*
X142650000Y-93924999D01*
X142650000Y-93350001D01*
X142649999Y-93350000D01*
X142062501Y-93350000D01*
X142062500Y-93350001D01*
X141800500Y-93350001D01*
X141800500Y-92959798D01*
X142062500Y-92959798D01*
X142062500Y-93149999D01*
X142062501Y-93150000D01*
X142649999Y-93150000D01*
X142650000Y-93149999D01*
X142650000Y-92575001D01*
X142850000Y-92575001D01*
X142850000Y-93149999D01*
X142850001Y-93150000D01*
X143437499Y-93150000D01*
X143437500Y-93149999D01*
X143437500Y-92959798D01*
X143434728Y-92930241D01*
X143434727Y-92930240D01*
X143391169Y-92805759D01*
X143312858Y-92699651D01*
X143312848Y-92699641D01*
X143206740Y-92621330D01*
X143082259Y-92577772D01*
X143082258Y-92577771D01*
X143052701Y-92575000D01*
X142850001Y-92575000D01*
X142850000Y-92575001D01*
X142650000Y-92575001D01*
X142649999Y-92575000D01*
X142447299Y-92575000D01*
X142417741Y-92577771D01*
X142417740Y-92577772D01*
X142293259Y-92621330D01*
X142187151Y-92699641D01*
X142187141Y-92699651D01*
X142108830Y-92805759D01*
X142065272Y-92930240D01*
X142065271Y-92930241D01*
X142062500Y-92959798D01*
X141800500Y-92959798D01*
X141800500Y-89887501D01*
X147325000Y-89887501D01*
X147325000Y-90090201D01*
X147327771Y-90119758D01*
X147327772Y-90119759D01*
X147371330Y-90244240D01*
X147449641Y-90350348D01*
X147449651Y-90350358D01*
X147555759Y-90428669D01*
X147680240Y-90472227D01*
X147680241Y-90472228D01*
X147709799Y-90475000D01*
X147899999Y-90475000D01*
X147900000Y-90474999D01*
X147900000Y-89887501D01*
X148100000Y-89887501D01*
X148100000Y-90474999D01*
X148100001Y-90475000D01*
X148290201Y-90475000D01*
X148319758Y-90472228D01*
X148319759Y-90472227D01*
X148444240Y-90428669D01*
X148550348Y-90350358D01*
X148550358Y-90350348D01*
X148628669Y-90244240D01*
X148672227Y-90119759D01*
X148672228Y-90119758D01*
X148675000Y-90090201D01*
X148675000Y-89887501D01*
X148674999Y-89887500D01*
X148100001Y-89887500D01*
X148100000Y-89887501D01*
X147900000Y-89887501D01*
X147899999Y-89887500D01*
X147325001Y-89887500D01*
X147325000Y-89887501D01*
X141800500Y-89887501D01*
X141800500Y-89100001D01*
X142850000Y-89100001D01*
X142850000Y-89619700D01*
X142861603Y-89678036D01*
X142905806Y-89744189D01*
X142905810Y-89744193D01*
X142971963Y-89788396D01*
X143030299Y-89799999D01*
X143030303Y-89800000D01*
X143399999Y-89800000D01*
X143400000Y-89799999D01*
X143400000Y-89100001D01*
X143600000Y-89100001D01*
X143600000Y-89799999D01*
X143600001Y-89800000D01*
X143969697Y-89800000D01*
X143969700Y-89799999D01*
X144028036Y-89788396D01*
X144064281Y-89764178D01*
X144094189Y-89744193D01*
X144094193Y-89744189D01*
X144138396Y-89678036D01*
X144149999Y-89619700D01*
X144150000Y-89619697D01*
X144150000Y-89484798D01*
X147325000Y-89484798D01*
X147325000Y-89687499D01*
X147325001Y-89687500D01*
X147899999Y-89687500D01*
X147900000Y-89687499D01*
X147900000Y-89100001D01*
X148100000Y-89100001D01*
X148100000Y-89687499D01*
X148100001Y-89687500D01*
X148674999Y-89687500D01*
X148675000Y-89687499D01*
X148675000Y-89484798D01*
X148672228Y-89455241D01*
X148672227Y-89455240D01*
X148628669Y-89330759D01*
X148550358Y-89224651D01*
X148550348Y-89224641D01*
X148444240Y-89146330D01*
X148319759Y-89102772D01*
X148319758Y-89102771D01*
X148290201Y-89100000D01*
X148100001Y-89100000D01*
X148100000Y-89100001D01*
X147900000Y-89100001D01*
X147899999Y-89100000D01*
X147709799Y-89100000D01*
X147680241Y-89102771D01*
X147680240Y-89102772D01*
X147555759Y-89146330D01*
X147449651Y-89224641D01*
X147449641Y-89224651D01*
X147371330Y-89330759D01*
X147327772Y-89455240D01*
X147327771Y-89455241D01*
X147325000Y-89484798D01*
X144150000Y-89484798D01*
X144150000Y-89100001D01*
X144149999Y-89100000D01*
X143600001Y-89100000D01*
X143600000Y-89100001D01*
X143400000Y-89100001D01*
X143399999Y-89100000D01*
X142850001Y-89100000D01*
X142850000Y-89100001D01*
X141800500Y-89100001D01*
X141800500Y-88380299D01*
X142850000Y-88380299D01*
X142850000Y-88899999D01*
X142850001Y-88900000D01*
X143399999Y-88900000D01*
X143400000Y-88899999D01*
X143400000Y-88200001D01*
X143600000Y-88200001D01*
X143600000Y-88899999D01*
X143600001Y-88900000D01*
X144149999Y-88900000D01*
X144150000Y-88899999D01*
X144150000Y-88380302D01*
X144149999Y-88380299D01*
X144138396Y-88321963D01*
X144094193Y-88255810D01*
X144094189Y-88255806D01*
X144028036Y-88211603D01*
X143969700Y-88200000D01*
X143600001Y-88200000D01*
X143600000Y-88200001D01*
X143400000Y-88200001D01*
X143399999Y-88200000D01*
X143030299Y-88200000D01*
X142971963Y-88211603D01*
X142905810Y-88255806D01*
X142905806Y-88255810D01*
X142861603Y-88321963D01*
X142850000Y-88380299D01*
X141800500Y-88380299D01*
X141800500Y-86100001D01*
X142675001Y-86100001D01*
X142675001Y-86529203D01*
X142677850Y-86559600D01*
X142677850Y-86559602D01*
X142722654Y-86687647D01*
X142803207Y-86796790D01*
X142803209Y-86796792D01*
X142912352Y-86877345D01*
X143040398Y-86922149D01*
X143070789Y-86924999D01*
X143362498Y-86924999D01*
X143362500Y-86924998D01*
X143362500Y-86100001D01*
X143362499Y-86100000D01*
X142675002Y-86100000D01*
X142675001Y-86100001D01*
X141800500Y-86100001D01*
X141800500Y-85470788D01*
X142675000Y-85470788D01*
X142675000Y-85899999D01*
X142675001Y-85900000D01*
X143362499Y-85900000D01*
X143362500Y-85899999D01*
X143362500Y-85075001D01*
X143362499Y-85075000D01*
X143070796Y-85075000D01*
X143040399Y-85077850D01*
X143040397Y-85077850D01*
X142912352Y-85122654D01*
X142803209Y-85203207D01*
X142803207Y-85203209D01*
X142722654Y-85312352D01*
X142677850Y-85440398D01*
X142675000Y-85470788D01*
X141800500Y-85470788D01*
X141800500Y-83009733D01*
X142099500Y-83009733D01*
X142099500Y-83590266D01*
X142102274Y-83619844D01*
X142102276Y-83619852D01*
X142145884Y-83744476D01*
X142193820Y-83809427D01*
X142224289Y-83850711D01*
X142224292Y-83850713D01*
X142224293Y-83850714D01*
X142330523Y-83929115D01*
X142330524Y-83929115D01*
X142330525Y-83929116D01*
X142455151Y-83972725D01*
X142482441Y-83975284D01*
X142484733Y-83975499D01*
X142484738Y-83975500D01*
X142484744Y-83975500D01*
X143090262Y-83975500D01*
X143090265Y-83975499D01*
X143119849Y-83972725D01*
X143244475Y-83929116D01*
X143350711Y-83850711D01*
X143429116Y-83744475D01*
X143472725Y-83619849D01*
X143475500Y-83590256D01*
X143475500Y-83009744D01*
X143475500Y-83009738D01*
X143475499Y-83009733D01*
X143474539Y-82999500D01*
X143472725Y-82980151D01*
X143429116Y-82855525D01*
X143391505Y-82804564D01*
X143350714Y-82749293D01*
X143350713Y-82749292D01*
X143350711Y-82749289D01*
X143350706Y-82749285D01*
X143244476Y-82670884D01*
X143239443Y-82669123D01*
X143190762Y-82632057D01*
X143173166Y-82573457D01*
X143193375Y-82515705D01*
X143199005Y-82509261D01*
X143200496Y-82507317D01*
X143200500Y-82507314D01*
X143227072Y-82461290D01*
X143266390Y-82393190D01*
X143266390Y-82393188D01*
X143266392Y-82393186D01*
X143300500Y-82265892D01*
X143300500Y-82134108D01*
X143266392Y-82006814D01*
X143266390Y-82006811D01*
X143266390Y-82006809D01*
X143200503Y-81892690D01*
X143200501Y-81892688D01*
X143200500Y-81892686D01*
X143107314Y-81799500D01*
X143107311Y-81799498D01*
X143107309Y-81799496D01*
X142993189Y-81733609D01*
X142993191Y-81733609D01*
X142943799Y-81720375D01*
X142865892Y-81699500D01*
X142734108Y-81699500D01*
X142656200Y-81720375D01*
X142606809Y-81733609D01*
X142492690Y-81799496D01*
X142399496Y-81892690D01*
X142333609Y-82006809D01*
X142333608Y-82006814D01*
X142299500Y-82134108D01*
X142299500Y-82265892D01*
X142316204Y-82328231D01*
X142333609Y-82393190D01*
X142399496Y-82507309D01*
X142400566Y-82508703D01*
X142400986Y-82509889D01*
X142402744Y-82512934D01*
X142402179Y-82513259D01*
X142420991Y-82566378D01*
X142403615Y-82625045D01*
X142355074Y-82662293D01*
X142354724Y-82662416D01*
X142330522Y-82670884D01*
X142224293Y-82749285D01*
X142224285Y-82749293D01*
X142145884Y-82855523D01*
X142102276Y-82980147D01*
X142102274Y-82980155D01*
X142099500Y-83009733D01*
X141800500Y-83009733D01*
X141800500Y-64540253D01*
X142349500Y-64540253D01*
X142349500Y-65479746D01*
X142349501Y-65479758D01*
X142361132Y-65538227D01*
X142361134Y-65538233D01*
X142395723Y-65589998D01*
X142412332Y-65648886D01*
X142395723Y-65700002D01*
X142361134Y-65751766D01*
X142361132Y-65751772D01*
X142349501Y-65810241D01*
X142349500Y-65810253D01*
X142349500Y-66749746D01*
X142349501Y-66749758D01*
X142361132Y-66808227D01*
X142361134Y-66808233D01*
X142395723Y-66859998D01*
X142412332Y-66918886D01*
X142395723Y-66970002D01*
X142361134Y-67021766D01*
X142361132Y-67021772D01*
X142349501Y-67080241D01*
X142349500Y-67080253D01*
X142349500Y-68019746D01*
X142349501Y-68019758D01*
X142361132Y-68078227D01*
X142361134Y-68078233D01*
X142395723Y-68129998D01*
X142412332Y-68188886D01*
X142395723Y-68240002D01*
X142361134Y-68291766D01*
X142361132Y-68291772D01*
X142349501Y-68350241D01*
X142349500Y-68350253D01*
X142349500Y-69289746D01*
X142349501Y-69289758D01*
X142361132Y-69348227D01*
X142361134Y-69348233D01*
X142395723Y-69399998D01*
X142412332Y-69458886D01*
X142395723Y-69510002D01*
X142361134Y-69561766D01*
X142361132Y-69561772D01*
X142349501Y-69620241D01*
X142349500Y-69620253D01*
X142349500Y-70559746D01*
X142349501Y-70559758D01*
X142361132Y-70618227D01*
X142361134Y-70618233D01*
X142395723Y-70669998D01*
X142412332Y-70728886D01*
X142395723Y-70780002D01*
X142361134Y-70831766D01*
X142361132Y-70831772D01*
X142349501Y-70890241D01*
X142349500Y-70890253D01*
X142349500Y-71829746D01*
X142349501Y-71829758D01*
X142361132Y-71888227D01*
X142361134Y-71888233D01*
X142395723Y-71939998D01*
X142412332Y-71998886D01*
X142395723Y-72050002D01*
X142361134Y-72101766D01*
X142361132Y-72101772D01*
X142349501Y-72160241D01*
X142349500Y-72160253D01*
X142349500Y-73099746D01*
X142349501Y-73099758D01*
X142361132Y-73158227D01*
X142361134Y-73158233D01*
X142395723Y-73209998D01*
X142412332Y-73268886D01*
X142395723Y-73320002D01*
X142361134Y-73371766D01*
X142361132Y-73371772D01*
X142349501Y-73430241D01*
X142349500Y-73430253D01*
X142349500Y-74369746D01*
X142349501Y-74369758D01*
X142361132Y-74428227D01*
X142361134Y-74428233D01*
X142395723Y-74479998D01*
X142412332Y-74538886D01*
X142395723Y-74590002D01*
X142361134Y-74641766D01*
X142361132Y-74641772D01*
X142349501Y-74700241D01*
X142349500Y-74700253D01*
X142349500Y-75639746D01*
X142349501Y-75639758D01*
X142361132Y-75698227D01*
X142361134Y-75698233D01*
X142395723Y-75749998D01*
X142412332Y-75808886D01*
X142395723Y-75860002D01*
X142361134Y-75911766D01*
X142361132Y-75911772D01*
X142349501Y-75970241D01*
X142349500Y-75970253D01*
X142349500Y-76909746D01*
X142349501Y-76909758D01*
X142361132Y-76968227D01*
X142361134Y-76968233D01*
X142395723Y-77019998D01*
X142412332Y-77078886D01*
X142395723Y-77130002D01*
X142361134Y-77181766D01*
X142361132Y-77181772D01*
X142349501Y-77240241D01*
X142349500Y-77240253D01*
X142349500Y-78179746D01*
X142349501Y-78179758D01*
X142361132Y-78238227D01*
X142361134Y-78238233D01*
X142395723Y-78289998D01*
X142412332Y-78348886D01*
X142395723Y-78400002D01*
X142361134Y-78451766D01*
X142361132Y-78451772D01*
X142349501Y-78510241D01*
X142349500Y-78510253D01*
X142349500Y-79449746D01*
X142349501Y-79449758D01*
X142361132Y-79508227D01*
X142361134Y-79508233D01*
X142395723Y-79559998D01*
X142412332Y-79618886D01*
X142395723Y-79670002D01*
X142361134Y-79721766D01*
X142361132Y-79721772D01*
X142349501Y-79780241D01*
X142349500Y-79780253D01*
X142349500Y-80719746D01*
X142349501Y-80719758D01*
X142361132Y-80778227D01*
X142361133Y-80778231D01*
X142405448Y-80844552D01*
X142471769Y-80888867D01*
X142516231Y-80897711D01*
X142530241Y-80900498D01*
X142530246Y-80900498D01*
X142530252Y-80900500D01*
X142530253Y-80900500D01*
X144069747Y-80900500D01*
X144069748Y-80900500D01*
X144128231Y-80888867D01*
X144157998Y-80868976D01*
X144216886Y-80852368D01*
X144274290Y-80873545D01*
X144308283Y-80924419D01*
X144312000Y-80951292D01*
X144312000Y-82545886D01*
X144293093Y-82604077D01*
X144245698Y-82639330D01*
X144155524Y-82670884D01*
X144155523Y-82670884D01*
X144049293Y-82749285D01*
X144049285Y-82749293D01*
X143970884Y-82855523D01*
X143927276Y-82980147D01*
X143927274Y-82980155D01*
X143924500Y-83009733D01*
X143924500Y-83590266D01*
X143927274Y-83619844D01*
X143927276Y-83619852D01*
X143970884Y-83744476D01*
X144018820Y-83809427D01*
X144049289Y-83850711D01*
X144049292Y-83850713D01*
X144049293Y-83850714D01*
X144155523Y-83929115D01*
X144155524Y-83929115D01*
X144155525Y-83929116D01*
X144280151Y-83972725D01*
X144307441Y-83975284D01*
X144309733Y-83975499D01*
X144309738Y-83975500D01*
X144309744Y-83975500D01*
X144822021Y-83975500D01*
X144880212Y-83994407D01*
X144892024Y-84004496D01*
X144927987Y-84040458D01*
X144927993Y-84040463D01*
X144996508Y-84080020D01*
X144996506Y-84080020D01*
X144996510Y-84080021D01*
X144996512Y-84080022D01*
X145070601Y-84099873D01*
X145121914Y-84133197D01*
X145143841Y-84190318D01*
X145128006Y-84249419D01*
X145080456Y-84287924D01*
X145044977Y-84294500D01*
X144099000Y-84294500D01*
X144066856Y-84297030D01*
X144036206Y-84301883D01*
X144031718Y-84302646D01*
X144031713Y-84302647D01*
X143947617Y-84338591D01*
X143898118Y-84374555D01*
X143870372Y-84398797D01*
X143823464Y-84477307D01*
X143823462Y-84477310D01*
X143804556Y-84535499D01*
X143794500Y-84598996D01*
X143794500Y-84976000D01*
X143775593Y-85034191D01*
X143726093Y-85070155D01*
X143695500Y-85075000D01*
X143562501Y-85075000D01*
X143562500Y-85075001D01*
X143562500Y-86924998D01*
X143562501Y-86924999D01*
X143695500Y-86924999D01*
X143753691Y-86943906D01*
X143789655Y-86993406D01*
X143794500Y-87023999D01*
X143794500Y-87501000D01*
X143797030Y-87533143D01*
X143801883Y-87563793D01*
X143802646Y-87568281D01*
X143802647Y-87568286D01*
X143838591Y-87652382D01*
X143838592Y-87652383D01*
X143874556Y-87701883D01*
X143898797Y-87729628D01*
X143977307Y-87776536D01*
X144035498Y-87795443D01*
X144047552Y-87797352D01*
X144098996Y-87805500D01*
X144099000Y-87805500D01*
X145138000Y-87805500D01*
X145152912Y-87810345D01*
X145168593Y-87810345D01*
X145181278Y-87819561D01*
X145196191Y-87824407D01*
X145205407Y-87837092D01*
X145218093Y-87846309D01*
X145222938Y-87861221D01*
X145232155Y-87873907D01*
X145237000Y-87904500D01*
X145237000Y-88100500D01*
X145218093Y-88158691D01*
X145168593Y-88194655D01*
X145138000Y-88199500D01*
X145030252Y-88199500D01*
X145030251Y-88199500D01*
X145030241Y-88199501D01*
X144971772Y-88211132D01*
X144971766Y-88211134D01*
X144905451Y-88255445D01*
X144905445Y-88255451D01*
X144861134Y-88321766D01*
X144861132Y-88321772D01*
X144849501Y-88380241D01*
X144849500Y-88380253D01*
X144849500Y-89219746D01*
X144849501Y-89219758D01*
X144861132Y-89278227D01*
X144861134Y-89278233D01*
X144905445Y-89344548D01*
X144905448Y-89344552D01*
X144971769Y-89388867D01*
X145016231Y-89397711D01*
X145030241Y-89400498D01*
X145030246Y-89400498D01*
X145030252Y-89400500D01*
X145030253Y-89400500D01*
X145969747Y-89400500D01*
X145969748Y-89400500D01*
X146028231Y-89388867D01*
X146094552Y-89344552D01*
X146138867Y-89278231D01*
X146150500Y-89219748D01*
X146150500Y-88380252D01*
X146138867Y-88321769D01*
X146094552Y-88255448D01*
X146094548Y-88255445D01*
X146040405Y-88219267D01*
X146040403Y-88219266D01*
X146028231Y-88211133D01*
X145969748Y-88199500D01*
X145928336Y-88199500D01*
X145919803Y-88197995D01*
X145900068Y-88187500D01*
X145878809Y-88180593D01*
X145873601Y-88173425D01*
X145865781Y-88169267D01*
X145855984Y-88149177D01*
X145842845Y-88131093D01*
X145842712Y-88130253D01*
X156999500Y-88130253D01*
X156999500Y-89269746D01*
X156999501Y-89269758D01*
X157011132Y-89328227D01*
X157011134Y-89328233D01*
X157022304Y-89344950D01*
X157055448Y-89394552D01*
X157121769Y-89438867D01*
X157166231Y-89447711D01*
X157180241Y-89450498D01*
X157180246Y-89450498D01*
X157180252Y-89450500D01*
X157180253Y-89450500D01*
X159219747Y-89450500D01*
X159219748Y-89450500D01*
X159278231Y-89438867D01*
X159344552Y-89394552D01*
X159388867Y-89328231D01*
X159400500Y-89269748D01*
X159400500Y-89099500D01*
X159419407Y-89041309D01*
X159468907Y-89005345D01*
X159499500Y-89000500D01*
X160139563Y-89000500D01*
X160139563Y-89000499D01*
X160215989Y-88980021D01*
X160284511Y-88940460D01*
X160340460Y-88884511D01*
X160424970Y-88800001D01*
X161800000Y-88800001D01*
X161800000Y-89269700D01*
X161811603Y-89328036D01*
X161855806Y-89394189D01*
X161855810Y-89394193D01*
X161921963Y-89438396D01*
X161980299Y-89449999D01*
X161980303Y-89450000D01*
X162899999Y-89450000D01*
X162900000Y-89449999D01*
X162900000Y-88800001D01*
X163100000Y-88800001D01*
X163100000Y-89449999D01*
X163100001Y-89450000D01*
X164019697Y-89450000D01*
X164019700Y-89449999D01*
X164078036Y-89438396D01*
X164144189Y-89394193D01*
X164144193Y-89394189D01*
X164188396Y-89328036D01*
X164199999Y-89269700D01*
X164200000Y-89269697D01*
X164200000Y-88800001D01*
X164199999Y-88800000D01*
X163100001Y-88800000D01*
X163100000Y-88800001D01*
X162900000Y-88800001D01*
X162899999Y-88800000D01*
X161800001Y-88800000D01*
X161800000Y-88800001D01*
X160424970Y-88800001D01*
X161040460Y-88184511D01*
X161071759Y-88130299D01*
X161800000Y-88130299D01*
X161800000Y-88599999D01*
X161800001Y-88600000D01*
X162899999Y-88600000D01*
X162900000Y-88599999D01*
X162900000Y-87950001D01*
X163100000Y-87950001D01*
X163100000Y-88599999D01*
X163100001Y-88600000D01*
X164199999Y-88600000D01*
X164200000Y-88599999D01*
X164200000Y-88130302D01*
X164199999Y-88130299D01*
X164188396Y-88071963D01*
X164144193Y-88005810D01*
X164144189Y-88005806D01*
X164078036Y-87961603D01*
X164019700Y-87950000D01*
X163100001Y-87950000D01*
X163100000Y-87950001D01*
X162900000Y-87950001D01*
X162899999Y-87950000D01*
X161980299Y-87950000D01*
X161921963Y-87961603D01*
X161855810Y-88005806D01*
X161855806Y-88005810D01*
X161811603Y-88071963D01*
X161800000Y-88130299D01*
X161071759Y-88130299D01*
X161071786Y-88130252D01*
X161080021Y-88115989D01*
X161100500Y-88039562D01*
X161100500Y-87100001D01*
X161800000Y-87100001D01*
X161800000Y-87569700D01*
X161811603Y-87628036D01*
X161855806Y-87694189D01*
X161855810Y-87694193D01*
X161921963Y-87738396D01*
X161980299Y-87749999D01*
X161980303Y-87750000D01*
X162899999Y-87750000D01*
X162900000Y-87749999D01*
X162900000Y-87100001D01*
X163100000Y-87100001D01*
X163100000Y-87749999D01*
X163100001Y-87750000D01*
X164019697Y-87750000D01*
X164019700Y-87749999D01*
X164078036Y-87738396D01*
X164144189Y-87694193D01*
X164144193Y-87694189D01*
X164188396Y-87628036D01*
X164199999Y-87569700D01*
X164200000Y-87569697D01*
X164200000Y-87100001D01*
X164199999Y-87100000D01*
X163100001Y-87100000D01*
X163100000Y-87100001D01*
X162900000Y-87100001D01*
X162899999Y-87100000D01*
X161800001Y-87100000D01*
X161800000Y-87100001D01*
X161100500Y-87100001D01*
X161100500Y-86430299D01*
X161800000Y-86430299D01*
X161800000Y-86899999D01*
X161800001Y-86900000D01*
X162899999Y-86900000D01*
X162900000Y-86899999D01*
X162900000Y-86250001D01*
X163100000Y-86250001D01*
X163100000Y-86899999D01*
X163100001Y-86900000D01*
X164199999Y-86900000D01*
X164200000Y-86899999D01*
X164200000Y-86430302D01*
X164199999Y-86430299D01*
X164188396Y-86371963D01*
X164144193Y-86305810D01*
X164144189Y-86305806D01*
X164078036Y-86261603D01*
X164019700Y-86250000D01*
X163100001Y-86250000D01*
X163100000Y-86250001D01*
X162900000Y-86250001D01*
X162899999Y-86250000D01*
X161980299Y-86250000D01*
X161921963Y-86261603D01*
X161855810Y-86305806D01*
X161855806Y-86305810D01*
X161811603Y-86371963D01*
X161800000Y-86430299D01*
X161100500Y-86430299D01*
X161100500Y-85400001D01*
X161800000Y-85400001D01*
X161800000Y-85869700D01*
X161811603Y-85928036D01*
X161855806Y-85994189D01*
X161855810Y-85994193D01*
X161921963Y-86038396D01*
X161980299Y-86049999D01*
X161980303Y-86050000D01*
X162899999Y-86050000D01*
X162900000Y-86049999D01*
X162900000Y-85400001D01*
X163100000Y-85400001D01*
X163100000Y-86049999D01*
X163100001Y-86050000D01*
X164019697Y-86050000D01*
X164019700Y-86049999D01*
X164078036Y-86038396D01*
X164144189Y-85994193D01*
X164144193Y-85994189D01*
X164188396Y-85928036D01*
X164199999Y-85869700D01*
X164200000Y-85869697D01*
X164200000Y-85400001D01*
X164199999Y-85400000D01*
X163100001Y-85400000D01*
X163100000Y-85400001D01*
X162900000Y-85400001D01*
X162899999Y-85400000D01*
X161800001Y-85400000D01*
X161800000Y-85400001D01*
X161100500Y-85400001D01*
X161100500Y-85065478D01*
X161119407Y-85007287D01*
X161129490Y-84995480D01*
X161394671Y-84730299D01*
X161800000Y-84730299D01*
X161800000Y-85199999D01*
X161800001Y-85200000D01*
X162899999Y-85200000D01*
X162900000Y-85199999D01*
X162900000Y-84550001D01*
X163100000Y-84550001D01*
X163100000Y-85199999D01*
X163100001Y-85200000D01*
X164199999Y-85200000D01*
X164200000Y-85199999D01*
X164200000Y-84730302D01*
X164199999Y-84730299D01*
X164188396Y-84671963D01*
X164144193Y-84605810D01*
X164144189Y-84605806D01*
X164078036Y-84561603D01*
X164019700Y-84550000D01*
X163100001Y-84550000D01*
X163100000Y-84550001D01*
X162900000Y-84550001D01*
X162899999Y-84550000D01*
X161980299Y-84550000D01*
X161921963Y-84561603D01*
X161855810Y-84605806D01*
X161855806Y-84605810D01*
X161811603Y-84671963D01*
X161800000Y-84730299D01*
X161394671Y-84730299D01*
X161752960Y-84372011D01*
X161791904Y-84304557D01*
X161792521Y-84303489D01*
X161813000Y-84227062D01*
X161813000Y-84054113D01*
X161831907Y-83995922D01*
X161879301Y-83960669D01*
X161969475Y-83929116D01*
X162075711Y-83850711D01*
X162154116Y-83744475D01*
X162197725Y-83619849D01*
X162200500Y-83590256D01*
X162200500Y-83009744D01*
X162200500Y-83009738D01*
X162200499Y-83009733D01*
X162199539Y-82999500D01*
X162197725Y-82980151D01*
X162154116Y-82855525D01*
X162116505Y-82804564D01*
X162075714Y-82749293D01*
X162075713Y-82749292D01*
X162075711Y-82749289D01*
X162075706Y-82749285D01*
X161969476Y-82670884D01*
X161844852Y-82627276D01*
X161844851Y-82627275D01*
X161844849Y-82627275D01*
X161844847Y-82627274D01*
X161844844Y-82627274D01*
X161815266Y-82624500D01*
X161815256Y-82624500D01*
X161209744Y-82624500D01*
X161209733Y-82624500D01*
X161180155Y-82627274D01*
X161180147Y-82627276D01*
X161055523Y-82670884D01*
X160949293Y-82749285D01*
X160949285Y-82749293D01*
X160870884Y-82855523D01*
X160827276Y-82980147D01*
X160827274Y-82980155D01*
X160824500Y-83009733D01*
X160824500Y-83590266D01*
X160827274Y-83619844D01*
X160827276Y-83619852D01*
X160870884Y-83744476D01*
X160918820Y-83809427D01*
X160949289Y-83850711D01*
X160949292Y-83850713D01*
X160949293Y-83850714D01*
X161055523Y-83929115D01*
X161055525Y-83929116D01*
X161121923Y-83952350D01*
X161170604Y-83989415D01*
X161188201Y-84048015D01*
X161167993Y-84105767D01*
X161159230Y-84115798D01*
X160615489Y-84659540D01*
X160615488Y-84659539D01*
X160559539Y-84715489D01*
X160519980Y-84784007D01*
X160519978Y-84784011D01*
X160499500Y-84860435D01*
X160499500Y-87834521D01*
X160480593Y-87892712D01*
X160470504Y-87904525D01*
X160004525Y-88370504D01*
X159950008Y-88398281D01*
X159934521Y-88399500D01*
X159499500Y-88399500D01*
X159441309Y-88380593D01*
X159405345Y-88331093D01*
X159400500Y-88300500D01*
X159400500Y-88130253D01*
X159400498Y-88130241D01*
X159397322Y-88114273D01*
X159388867Y-88071769D01*
X159344552Y-88005448D01*
X159344548Y-88005445D01*
X159278233Y-87961134D01*
X159278231Y-87961133D01*
X159278228Y-87961132D01*
X159278227Y-87961132D01*
X159219758Y-87949501D01*
X159219748Y-87949500D01*
X157180252Y-87949500D01*
X157180251Y-87949500D01*
X157180241Y-87949501D01*
X157121772Y-87961132D01*
X157121766Y-87961134D01*
X157055451Y-88005445D01*
X157055445Y-88005451D01*
X157011134Y-88071766D01*
X157011132Y-88071772D01*
X156999501Y-88130241D01*
X156999500Y-88130253D01*
X145842712Y-88130253D01*
X145840767Y-88117972D01*
X145838963Y-88114273D01*
X145839604Y-88110633D01*
X145838000Y-88100500D01*
X145838000Y-87904500D01*
X145856907Y-87846309D01*
X145906407Y-87810345D01*
X145937000Y-87805500D01*
X146800993Y-87805500D01*
X146801000Y-87805500D01*
X146833144Y-87802970D01*
X146863737Y-87798125D01*
X146863748Y-87798123D01*
X146863793Y-87798116D01*
X146868281Y-87797353D01*
X146868280Y-87797353D01*
X146868287Y-87797352D01*
X146952383Y-87761408D01*
X147001883Y-87725444D01*
X147029628Y-87701203D01*
X147076536Y-87622693D01*
X147095443Y-87564502D01*
X147105500Y-87501000D01*
X147105500Y-84599000D01*
X147102970Y-84566856D01*
X147098125Y-84536263D01*
X147098116Y-84536206D01*
X147097353Y-84531714D01*
X147097352Y-84531713D01*
X147061408Y-84447617D01*
X147036257Y-84413000D01*
X147025444Y-84398117D01*
X147001203Y-84370372D01*
X146922693Y-84323464D01*
X146922691Y-84323463D01*
X146922689Y-84323462D01*
X146864499Y-84304556D01*
X146864500Y-84304556D01*
X146818563Y-84297281D01*
X146764046Y-84269504D01*
X146736268Y-84214988D01*
X146745839Y-84154556D01*
X146789103Y-84111291D01*
X146834049Y-84100500D01*
X147034521Y-84100500D01*
X147092712Y-84119407D01*
X147104525Y-84129496D01*
X147972040Y-84997011D01*
X147972039Y-84997011D01*
X148027989Y-85052960D01*
X148096507Y-85092519D01*
X148096511Y-85092521D01*
X148172935Y-85112999D01*
X148172937Y-85113000D01*
X148172938Y-85113000D01*
X148252062Y-85113000D01*
X149065500Y-85113000D01*
X149123691Y-85131907D01*
X149159655Y-85181407D01*
X149164500Y-85212000D01*
X149164500Y-85508260D01*
X149171118Y-85553682D01*
X149174427Y-85576395D01*
X149218625Y-85666802D01*
X149225802Y-85681483D01*
X149308517Y-85764198D01*
X149362285Y-85790483D01*
X149413604Y-85815572D01*
X149413605Y-85815572D01*
X149413607Y-85815573D01*
X149481740Y-85825500D01*
X149481743Y-85825500D01*
X149848257Y-85825500D01*
X149848260Y-85825500D01*
X149916393Y-85815573D01*
X150021483Y-85764198D01*
X150104198Y-85681483D01*
X150155573Y-85576393D01*
X150165500Y-85508260D01*
X150165500Y-84912501D01*
X150435001Y-84912501D01*
X150435001Y-85508216D01*
X150444912Y-85576250D01*
X150496214Y-85681188D01*
X150578812Y-85763786D01*
X150683751Y-85815087D01*
X150751784Y-85824999D01*
X150835000Y-85824999D01*
X150835000Y-84912501D01*
X151035000Y-84912501D01*
X151035000Y-85824998D01*
X151035001Y-85824999D01*
X151118213Y-85824999D01*
X151118216Y-85824998D01*
X151186250Y-85815087D01*
X151291188Y-85763785D01*
X151373786Y-85681187D01*
X151425087Y-85576248D01*
X151435000Y-85508215D01*
X151435000Y-84912501D01*
X151434999Y-84912500D01*
X151035001Y-84912500D01*
X151035000Y-84912501D01*
X150835000Y-84912501D01*
X150834999Y-84912500D01*
X150435002Y-84912500D01*
X150435001Y-84912501D01*
X150165500Y-84912501D01*
X150165500Y-84116784D01*
X150435000Y-84116784D01*
X150435000Y-84712499D01*
X150435001Y-84712500D01*
X150834999Y-84712500D01*
X150835000Y-84712499D01*
X150835000Y-83800001D01*
X151035000Y-83800001D01*
X151035000Y-84712499D01*
X151035001Y-84712500D01*
X151434998Y-84712500D01*
X151434999Y-84712499D01*
X151434999Y-84116786D01*
X151434998Y-84116783D01*
X151425087Y-84048749D01*
X151373785Y-83943811D01*
X151291187Y-83861213D01*
X151186248Y-83809912D01*
X151118216Y-83800000D01*
X151035001Y-83800000D01*
X151035000Y-83800001D01*
X150835000Y-83800001D01*
X150835000Y-83800000D01*
X150751785Y-83800000D01*
X150751782Y-83800001D01*
X150683750Y-83809912D01*
X150578811Y-83861214D01*
X150496213Y-83943812D01*
X150444912Y-84048751D01*
X150435000Y-84116784D01*
X150165500Y-84116784D01*
X150165500Y-84116740D01*
X150155573Y-84048607D01*
X150151590Y-84040460D01*
X150104342Y-83943812D01*
X150104198Y-83943517D01*
X150021483Y-83860802D01*
X150000848Y-83850714D01*
X149916395Y-83809427D01*
X149889139Y-83805456D01*
X149848260Y-83799500D01*
X149481740Y-83799500D01*
X149447673Y-83804463D01*
X149413604Y-83809427D01*
X149308518Y-83860801D01*
X149225801Y-83943518D01*
X149174427Y-84048604D01*
X149169850Y-84080020D01*
X149164638Y-84115798D01*
X149164500Y-84116743D01*
X149164500Y-84413000D01*
X149145593Y-84471191D01*
X149096093Y-84507155D01*
X149065500Y-84512000D01*
X148377979Y-84512000D01*
X148319788Y-84493093D01*
X148307975Y-84483004D01*
X147865429Y-84040458D01*
X147384511Y-83559540D01*
X147384508Y-83559538D01*
X147351464Y-83540460D01*
X147351462Y-83540459D01*
X147315989Y-83519979D01*
X147315986Y-83519978D01*
X147239564Y-83499500D01*
X147239562Y-83499500D01*
X145399500Y-83499500D01*
X145341309Y-83480593D01*
X145305345Y-83431093D01*
X145300500Y-83400500D01*
X145300500Y-83009738D01*
X145300499Y-83009733D01*
X145299539Y-82999500D01*
X145297725Y-82980151D01*
X145254116Y-82855525D01*
X145216505Y-82804564D01*
X145175714Y-82749293D01*
X145175713Y-82749292D01*
X145175711Y-82749289D01*
X145175706Y-82749285D01*
X145069476Y-82670884D01*
X144979302Y-82639330D01*
X144930621Y-82602264D01*
X144913000Y-82545886D01*
X144913000Y-81600001D01*
X145685000Y-81600001D01*
X145685000Y-82269700D01*
X145696603Y-82328036D01*
X145740806Y-82394189D01*
X145740810Y-82394193D01*
X145806963Y-82438396D01*
X145865299Y-82449999D01*
X145865303Y-82450000D01*
X146234999Y-82450000D01*
X146235000Y-82449999D01*
X146235000Y-81600001D01*
X146234999Y-81600000D01*
X145685001Y-81600000D01*
X145685000Y-81600001D01*
X144913000Y-81600001D01*
X144913000Y-80730299D01*
X145685000Y-80730299D01*
X145685000Y-81399999D01*
X145685001Y-81400000D01*
X146234999Y-81400000D01*
X146235000Y-81399999D01*
X146235000Y-80550001D01*
X146435000Y-80550001D01*
X146435000Y-82449999D01*
X146435001Y-82450000D01*
X146804697Y-82450000D01*
X146804700Y-82449999D01*
X146863034Y-82438396D01*
X146914547Y-82403976D01*
X146973435Y-82387367D01*
X147024551Y-82403975D01*
X147076769Y-82438867D01*
X147121231Y-82447711D01*
X147135241Y-82450498D01*
X147135246Y-82450498D01*
X147135252Y-82450500D01*
X147230126Y-82450500D01*
X147288317Y-82469407D01*
X147317683Y-82503296D01*
X147322873Y-82513133D01*
X147324979Y-82520989D01*
X147347755Y-82560438D01*
X147364540Y-82589511D01*
X147615489Y-82840460D01*
X147615491Y-82840461D01*
X147615493Y-82840463D01*
X147684008Y-82880020D01*
X147684006Y-82880020D01*
X147684010Y-82880021D01*
X147684012Y-82880022D01*
X147760438Y-82900500D01*
X151834521Y-82900500D01*
X151892712Y-82919407D01*
X151904525Y-82929496D01*
X152170504Y-83195475D01*
X152198281Y-83249992D01*
X152199500Y-83265479D01*
X152199500Y-86739564D01*
X152219977Y-86815985D01*
X152219979Y-86815990D01*
X152259232Y-86883980D01*
X152259536Y-86884506D01*
X152259539Y-86884510D01*
X152559539Y-87184511D01*
X152615486Y-87240457D01*
X152615489Y-87240460D01*
X152657622Y-87264785D01*
X152698562Y-87310254D01*
X152701565Y-87317822D01*
X152745884Y-87444477D01*
X152811323Y-87533143D01*
X152824289Y-87550711D01*
X152824292Y-87550713D01*
X152824293Y-87550714D01*
X152930523Y-87629115D01*
X152930524Y-87629115D01*
X152930525Y-87629116D01*
X153055151Y-87672725D01*
X153082441Y-87675284D01*
X153084733Y-87675499D01*
X153084738Y-87675500D01*
X153084744Y-87675500D01*
X153690262Y-87675500D01*
X153690265Y-87675499D01*
X153719849Y-87672725D01*
X153844475Y-87629116D01*
X153950711Y-87550711D01*
X154029116Y-87444475D01*
X154072725Y-87319849D01*
X154075500Y-87290256D01*
X154075500Y-86709744D01*
X154075500Y-86709738D01*
X154075499Y-86709733D01*
X154524500Y-86709733D01*
X154524500Y-87290266D01*
X154527274Y-87319844D01*
X154527276Y-87319852D01*
X154570884Y-87444476D01*
X154612603Y-87501003D01*
X154649289Y-87550711D01*
X154649292Y-87550713D01*
X154649293Y-87550714D01*
X154755523Y-87629115D01*
X154755524Y-87629115D01*
X154755525Y-87629116D01*
X154880151Y-87672725D01*
X154907441Y-87675284D01*
X154909733Y-87675499D01*
X154909738Y-87675500D01*
X154909744Y-87675500D01*
X155515262Y-87675500D01*
X155515265Y-87675499D01*
X155544849Y-87672725D01*
X155669475Y-87629116D01*
X155775711Y-87550711D01*
X155854116Y-87444475D01*
X155881295Y-87366801D01*
X155918360Y-87318122D01*
X155974739Y-87300500D01*
X156900500Y-87300500D01*
X156958691Y-87319407D01*
X156994655Y-87368907D01*
X156999500Y-87399500D01*
X156999500Y-87569746D01*
X156999501Y-87569758D01*
X157011132Y-87628227D01*
X157011134Y-87628233D01*
X157055205Y-87694189D01*
X157055448Y-87694552D01*
X157121769Y-87738867D01*
X157166231Y-87747711D01*
X157180241Y-87750498D01*
X157180246Y-87750498D01*
X157180252Y-87750500D01*
X157180253Y-87750500D01*
X159219747Y-87750500D01*
X159219748Y-87750500D01*
X159278231Y-87738867D01*
X159344552Y-87694552D01*
X159388867Y-87628231D01*
X159400500Y-87569748D01*
X159400500Y-86430252D01*
X159388867Y-86371769D01*
X159344552Y-86305448D01*
X159344548Y-86305445D01*
X159278233Y-86261134D01*
X159278231Y-86261133D01*
X159278228Y-86261132D01*
X159278227Y-86261132D01*
X159219758Y-86249501D01*
X159219748Y-86249500D01*
X157180252Y-86249500D01*
X157180251Y-86249500D01*
X157180241Y-86249501D01*
X157121772Y-86261132D01*
X157121766Y-86261134D01*
X157055451Y-86305445D01*
X157055445Y-86305451D01*
X157011134Y-86371766D01*
X157011132Y-86371772D01*
X156999501Y-86430241D01*
X156999500Y-86430253D01*
X156999500Y-86600500D01*
X156980593Y-86658691D01*
X156931093Y-86694655D01*
X156900500Y-86699500D01*
X155974739Y-86699500D01*
X155916548Y-86680593D01*
X155881295Y-86633198D01*
X155854116Y-86555525D01*
X155825408Y-86516627D01*
X155775714Y-86449293D01*
X155775713Y-86449292D01*
X155775711Y-86449289D01*
X155775706Y-86449285D01*
X155669476Y-86370884D01*
X155544852Y-86327276D01*
X155544851Y-86327275D01*
X155544849Y-86327275D01*
X155544847Y-86327274D01*
X155544844Y-86327274D01*
X155515266Y-86324500D01*
X155515256Y-86324500D01*
X154909744Y-86324500D01*
X154909733Y-86324500D01*
X154880155Y-86327274D01*
X154880147Y-86327276D01*
X154755523Y-86370884D01*
X154649293Y-86449285D01*
X154649285Y-86449293D01*
X154570884Y-86555523D01*
X154527276Y-86680147D01*
X154527274Y-86680155D01*
X154524500Y-86709733D01*
X154075499Y-86709733D01*
X154072725Y-86680155D01*
X154072725Y-86680151D01*
X154029116Y-86555525D01*
X154000408Y-86516627D01*
X153950714Y-86449293D01*
X153950713Y-86449292D01*
X153950711Y-86449289D01*
X153950706Y-86449285D01*
X153844476Y-86370884D01*
X153719852Y-86327276D01*
X153719851Y-86327275D01*
X153719849Y-86327275D01*
X153719847Y-86327274D01*
X153719844Y-86327274D01*
X153690266Y-86324500D01*
X153690256Y-86324500D01*
X153084744Y-86324500D01*
X153084733Y-86324500D01*
X153055155Y-86327274D01*
X153055146Y-86327276D01*
X152932198Y-86370298D01*
X152871028Y-86371671D01*
X152820733Y-86336827D01*
X152800525Y-86279076D01*
X152800500Y-86276854D01*
X152800500Y-86027519D01*
X152819407Y-85969328D01*
X152868907Y-85933364D01*
X152930093Y-85933364D01*
X152932164Y-85934063D01*
X152987540Y-85953440D01*
X153042647Y-85972724D01*
X153042648Y-85972724D01*
X153042651Y-85972725D01*
X153069941Y-85975284D01*
X153072233Y-85975499D01*
X153072238Y-85975500D01*
X153072244Y-85975500D01*
X153677762Y-85975500D01*
X153677765Y-85975499D01*
X153707349Y-85972725D01*
X153831975Y-85929116D01*
X153938211Y-85850711D01*
X154016616Y-85744475D01*
X154060225Y-85619849D01*
X154063000Y-85590256D01*
X154063000Y-85009744D01*
X154063000Y-85009738D01*
X154062999Y-85009733D01*
X154512000Y-85009733D01*
X154512000Y-85590266D01*
X154514774Y-85619844D01*
X154514776Y-85619852D01*
X154558384Y-85744476D01*
X154625499Y-85835414D01*
X154636789Y-85850711D01*
X154636792Y-85850713D01*
X154636793Y-85850714D01*
X154743023Y-85929115D01*
X154743024Y-85929115D01*
X154743025Y-85929116D01*
X154867651Y-85972725D01*
X154894941Y-85975284D01*
X154897233Y-85975499D01*
X154897238Y-85975500D01*
X154897244Y-85975500D01*
X155502762Y-85975500D01*
X155502765Y-85975499D01*
X155532349Y-85972725D01*
X155656975Y-85929116D01*
X155763211Y-85850711D01*
X155841616Y-85744475D01*
X155868795Y-85666801D01*
X155905860Y-85618122D01*
X155962239Y-85600500D01*
X156900500Y-85600500D01*
X156958691Y-85619407D01*
X156994655Y-85668907D01*
X156999500Y-85699500D01*
X156999500Y-85869746D01*
X156999501Y-85869758D01*
X157011132Y-85928227D01*
X157011134Y-85928233D01*
X157055205Y-85994189D01*
X157055448Y-85994552D01*
X157121769Y-86038867D01*
X157166231Y-86047711D01*
X157180241Y-86050498D01*
X157180246Y-86050498D01*
X157180252Y-86050500D01*
X157180253Y-86050500D01*
X159219747Y-86050500D01*
X159219748Y-86050500D01*
X159278231Y-86038867D01*
X159344552Y-85994552D01*
X159388867Y-85928231D01*
X159400500Y-85869748D01*
X159400500Y-84730252D01*
X159388867Y-84671769D01*
X159344552Y-84605448D01*
X159344548Y-84605445D01*
X159278233Y-84561134D01*
X159278231Y-84561133D01*
X159278228Y-84561132D01*
X159278227Y-84561132D01*
X159219758Y-84549501D01*
X159219748Y-84549500D01*
X157180252Y-84549500D01*
X157180251Y-84549500D01*
X157180241Y-84549501D01*
X157121772Y-84561132D01*
X157121766Y-84561134D01*
X157055451Y-84605445D01*
X157055445Y-84605451D01*
X157011134Y-84671766D01*
X157011132Y-84671772D01*
X156999501Y-84730241D01*
X156999500Y-84730253D01*
X156999500Y-84900500D01*
X156980593Y-84958691D01*
X156931093Y-84994655D01*
X156900500Y-84999500D01*
X155962239Y-84999500D01*
X155904048Y-84980593D01*
X155868795Y-84933198D01*
X155861553Y-84912501D01*
X155841616Y-84855525D01*
X155763211Y-84749289D01*
X155763206Y-84749285D01*
X155656976Y-84670884D01*
X155532352Y-84627276D01*
X155532351Y-84627275D01*
X155532349Y-84627275D01*
X155532347Y-84627274D01*
X155532344Y-84627274D01*
X155502766Y-84624500D01*
X155502756Y-84624500D01*
X154897244Y-84624500D01*
X154897233Y-84624500D01*
X154867655Y-84627274D01*
X154867647Y-84627276D01*
X154743023Y-84670884D01*
X154636793Y-84749285D01*
X154636785Y-84749293D01*
X154558384Y-84855523D01*
X154514776Y-84980147D01*
X154514774Y-84980155D01*
X154512000Y-85009733D01*
X154062999Y-85009733D01*
X154060225Y-84980155D01*
X154060225Y-84980151D01*
X154016616Y-84855525D01*
X153938211Y-84749289D01*
X153938206Y-84749285D01*
X153831976Y-84670884D01*
X153741802Y-84639330D01*
X153693121Y-84602264D01*
X153675500Y-84545886D01*
X153675500Y-83190479D01*
X153694407Y-83132288D01*
X153704496Y-83120475D01*
X153895475Y-82929496D01*
X153949992Y-82901719D01*
X153965479Y-82900500D01*
X156339563Y-82900500D01*
X156339563Y-82900499D01*
X156415989Y-82880021D01*
X156484511Y-82840460D01*
X156520409Y-82804562D01*
X156540461Y-82784511D01*
X156685641Y-82639330D01*
X156735460Y-82589511D01*
X156775022Y-82520988D01*
X156775023Y-82520982D01*
X156777504Y-82514996D01*
X156779484Y-82515816D01*
X156807563Y-82472569D01*
X156864682Y-82450636D01*
X156869874Y-82450500D01*
X156964747Y-82450500D01*
X156964748Y-82450500D01*
X157023231Y-82438867D01*
X157075000Y-82404274D01*
X157133885Y-82387667D01*
X157184998Y-82404274D01*
X157236769Y-82438867D01*
X157281231Y-82447711D01*
X157295241Y-82450498D01*
X157295246Y-82450498D01*
X157295252Y-82450500D01*
X157365500Y-82450500D01*
X157423691Y-82469407D01*
X157459655Y-82518907D01*
X157464500Y-82549500D01*
X157464500Y-82804564D01*
X157484978Y-82880988D01*
X157484980Y-82880992D01*
X157524538Y-82949508D01*
X157524540Y-82949511D01*
X158059540Y-83484511D01*
X158059539Y-83484511D01*
X158115489Y-83540460D01*
X158184007Y-83580019D01*
X158184011Y-83580021D01*
X158260435Y-83600499D01*
X158260437Y-83600500D01*
X158260438Y-83600500D01*
X158925261Y-83600500D01*
X158983452Y-83619407D01*
X159018705Y-83666802D01*
X159045884Y-83744476D01*
X159093820Y-83809427D01*
X159124289Y-83850711D01*
X159124292Y-83850713D01*
X159124293Y-83850714D01*
X159230523Y-83929115D01*
X159230524Y-83929115D01*
X159230525Y-83929116D01*
X159355151Y-83972725D01*
X159382441Y-83975284D01*
X159384733Y-83975499D01*
X159384738Y-83975500D01*
X159384744Y-83975500D01*
X159990262Y-83975500D01*
X159990265Y-83975499D01*
X160019849Y-83972725D01*
X160144475Y-83929116D01*
X160250711Y-83850711D01*
X160329116Y-83744475D01*
X160372725Y-83619849D01*
X160375500Y-83590256D01*
X160375500Y-83009744D01*
X160375500Y-83009738D01*
X160375499Y-83009733D01*
X160374539Y-82999500D01*
X160372725Y-82980151D01*
X160329116Y-82855525D01*
X160291505Y-82804564D01*
X160250714Y-82749293D01*
X160250713Y-82749292D01*
X160250711Y-82749289D01*
X160250706Y-82749285D01*
X160144476Y-82670884D01*
X160019852Y-82627276D01*
X160019851Y-82627275D01*
X160019849Y-82627275D01*
X160019847Y-82627274D01*
X160019844Y-82627274D01*
X159990266Y-82624500D01*
X159990256Y-82624500D01*
X159384744Y-82624500D01*
X159384733Y-82624500D01*
X159355155Y-82627274D01*
X159355147Y-82627276D01*
X159230523Y-82670884D01*
X159124293Y-82749285D01*
X159124285Y-82749293D01*
X159045884Y-82855523D01*
X159030147Y-82900499D01*
X159023531Y-82919407D01*
X159018705Y-82933198D01*
X158981640Y-82981878D01*
X158925261Y-82999500D01*
X158465479Y-82999500D01*
X158407288Y-82980593D01*
X158395475Y-82970504D01*
X158094496Y-82669525D01*
X158090869Y-82662407D01*
X158084407Y-82657712D01*
X158077243Y-82635663D01*
X158066719Y-82615008D01*
X158065500Y-82599521D01*
X158065500Y-82549500D01*
X158084407Y-82491309D01*
X158133907Y-82455345D01*
X158164500Y-82450500D01*
X158234747Y-82450500D01*
X158234748Y-82450500D01*
X158293231Y-82438867D01*
X158359552Y-82394552D01*
X158403867Y-82328231D01*
X158415500Y-82269748D01*
X158415500Y-80730252D01*
X158403867Y-80671769D01*
X158359552Y-80605448D01*
X158352147Y-80600500D01*
X158293233Y-80561134D01*
X158293231Y-80561133D01*
X158293228Y-80561132D01*
X158293227Y-80561132D01*
X158234758Y-80549501D01*
X158234748Y-80549500D01*
X157295252Y-80549500D01*
X157295251Y-80549500D01*
X157295241Y-80549501D01*
X157236772Y-80561132D01*
X157236766Y-80561134D01*
X157185002Y-80595723D01*
X157126114Y-80612332D01*
X157074998Y-80595723D01*
X157023233Y-80561134D01*
X157023231Y-80561133D01*
X157023228Y-80561132D01*
X157023227Y-80561132D01*
X156964758Y-80549501D01*
X156964748Y-80549500D01*
X156025252Y-80549500D01*
X156025251Y-80549500D01*
X156025241Y-80549501D01*
X155966772Y-80561132D01*
X155966766Y-80561134D01*
X155915002Y-80595723D01*
X155856114Y-80612332D01*
X155804998Y-80595723D01*
X155753233Y-80561134D01*
X155753231Y-80561133D01*
X155753228Y-80561132D01*
X155753227Y-80561132D01*
X155694758Y-80549501D01*
X155694748Y-80549500D01*
X154755252Y-80549500D01*
X154755251Y-80549500D01*
X154755241Y-80549501D01*
X154696772Y-80561132D01*
X154696766Y-80561134D01*
X154645002Y-80595723D01*
X154586114Y-80612332D01*
X154534998Y-80595723D01*
X154483233Y-80561134D01*
X154483231Y-80561133D01*
X154483228Y-80561132D01*
X154483227Y-80561132D01*
X154424758Y-80549501D01*
X154424748Y-80549500D01*
X153485252Y-80549500D01*
X153485251Y-80549500D01*
X153485241Y-80549501D01*
X153426772Y-80561132D01*
X153426766Y-80561134D01*
X153375002Y-80595723D01*
X153316114Y-80612332D01*
X153264998Y-80595723D01*
X153213233Y-80561134D01*
X153213231Y-80561133D01*
X153213228Y-80561132D01*
X153213227Y-80561132D01*
X153154758Y-80549501D01*
X153154748Y-80549500D01*
X152215252Y-80549500D01*
X152215251Y-80549500D01*
X152215241Y-80549501D01*
X152156772Y-80561132D01*
X152156766Y-80561134D01*
X152105002Y-80595723D01*
X152046114Y-80612332D01*
X151994998Y-80595723D01*
X151943233Y-80561134D01*
X151943231Y-80561133D01*
X151943228Y-80561132D01*
X151943227Y-80561132D01*
X151884758Y-80549501D01*
X151884748Y-80549500D01*
X150945252Y-80549500D01*
X150945251Y-80549500D01*
X150945241Y-80549501D01*
X150886772Y-80561132D01*
X150886766Y-80561134D01*
X150835002Y-80595723D01*
X150776114Y-80612332D01*
X150724998Y-80595723D01*
X150673233Y-80561134D01*
X150673231Y-80561133D01*
X150673228Y-80561132D01*
X150673227Y-80561132D01*
X150614758Y-80549501D01*
X150614748Y-80549500D01*
X149675252Y-80549500D01*
X149675251Y-80549500D01*
X149675241Y-80549501D01*
X149616772Y-80561132D01*
X149616766Y-80561134D01*
X149565002Y-80595723D01*
X149506114Y-80612332D01*
X149454998Y-80595723D01*
X149403233Y-80561134D01*
X149403231Y-80561133D01*
X149403228Y-80561132D01*
X149403227Y-80561132D01*
X149344758Y-80549501D01*
X149344748Y-80549500D01*
X148405252Y-80549500D01*
X148405251Y-80549500D01*
X148405241Y-80549501D01*
X148346772Y-80561132D01*
X148346766Y-80561134D01*
X148295002Y-80595723D01*
X148236114Y-80612332D01*
X148184998Y-80595723D01*
X148133233Y-80561134D01*
X148133231Y-80561133D01*
X148133228Y-80561132D01*
X148133227Y-80561132D01*
X148074758Y-80549501D01*
X148074748Y-80549500D01*
X147135252Y-80549500D01*
X147135251Y-80549500D01*
X147135241Y-80549501D01*
X147076772Y-80561132D01*
X147076767Y-80561134D01*
X147024551Y-80596024D01*
X146965663Y-80612632D01*
X146914548Y-80596023D01*
X146863036Y-80561603D01*
X146804700Y-80550000D01*
X146435001Y-80550000D01*
X146435000Y-80550001D01*
X146235000Y-80550001D01*
X146234999Y-80550000D01*
X145865299Y-80550000D01*
X145806963Y-80561603D01*
X145740810Y-80605806D01*
X145740806Y-80605810D01*
X145696603Y-80671963D01*
X145685000Y-80730299D01*
X144913000Y-80730299D01*
X144913000Y-79472937D01*
X144909893Y-79461343D01*
X144906786Y-79449748D01*
X144892522Y-79396512D01*
X144852960Y-79327989D01*
X144279494Y-78754523D01*
X144251719Y-78700009D01*
X144250500Y-78684522D01*
X144250500Y-78510253D01*
X144250498Y-78510241D01*
X144247711Y-78496231D01*
X144238867Y-78451769D01*
X144204274Y-78399999D01*
X144187667Y-78341115D01*
X144204274Y-78290001D01*
X144238867Y-78238231D01*
X144250500Y-78179748D01*
X144250500Y-77240252D01*
X144238867Y-77181769D01*
X144204274Y-77129999D01*
X144187667Y-77071115D01*
X144204274Y-77020001D01*
X144238867Y-76968231D01*
X144250500Y-76909748D01*
X144250500Y-75970252D01*
X144238867Y-75911769D01*
X144204274Y-75859999D01*
X144187667Y-75801115D01*
X144204274Y-75750001D01*
X144238867Y-75698231D01*
X144250500Y-75639748D01*
X144250500Y-74700252D01*
X144250350Y-74699500D01*
X144243067Y-74662883D01*
X144238867Y-74641769D01*
X144204274Y-74589999D01*
X144187667Y-74531115D01*
X144204274Y-74480001D01*
X144238867Y-74428231D01*
X144250500Y-74369748D01*
X144250500Y-74299500D01*
X144269407Y-74241309D01*
X144318907Y-74205345D01*
X144349500Y-74200500D01*
X145800500Y-74200500D01*
X145858691Y-74219407D01*
X145894655Y-74268907D01*
X145899500Y-74299500D01*
X145899500Y-74504274D01*
X145902353Y-74534694D01*
X145902355Y-74534703D01*
X145947207Y-74662883D01*
X146027845Y-74772144D01*
X146027847Y-74772146D01*
X146027850Y-74772150D01*
X146027853Y-74772152D01*
X146027855Y-74772154D01*
X146137116Y-74852792D01*
X146143674Y-74856258D01*
X146142490Y-74858498D01*
X146181871Y-74888476D01*
X146199500Y-74944865D01*
X146199500Y-75868996D01*
X146226420Y-76004327D01*
X146226420Y-76004329D01*
X146279223Y-76131808D01*
X146279224Y-76131810D01*
X146279225Y-76131811D01*
X146355886Y-76246543D01*
X149253457Y-79144114D01*
X149368189Y-79220775D01*
X149368190Y-79220775D01*
X149368191Y-79220776D01*
X149397070Y-79232738D01*
X149495672Y-79273580D01*
X149631006Y-79300500D01*
X149631007Y-79300500D01*
X155568992Y-79300500D01*
X155568993Y-79300500D01*
X155704328Y-79273580D01*
X155831811Y-79220775D01*
X155946542Y-79144114D01*
X156044114Y-79046542D01*
X156120775Y-78931811D01*
X156173580Y-78804328D01*
X156200500Y-78668993D01*
X156200500Y-78531007D01*
X156173580Y-78395672D01*
X156120775Y-78268189D01*
X156120774Y-78268187D01*
X156120771Y-78268182D01*
X156044114Y-78153458D01*
X155946541Y-78055885D01*
X155831817Y-77979228D01*
X155831806Y-77979222D01*
X155704328Y-77926420D01*
X155568995Y-77899500D01*
X155568993Y-77899500D01*
X150031165Y-77899500D01*
X149972974Y-77880593D01*
X149961161Y-77870504D01*
X147629496Y-75538839D01*
X147601719Y-75484322D01*
X147600500Y-75468835D01*
X147600500Y-74944865D01*
X147619407Y-74886674D01*
X147657448Y-74858381D01*
X147656326Y-74856258D01*
X147662879Y-74852793D01*
X147662882Y-74852793D01*
X147772150Y-74772150D01*
X147852793Y-74662882D01*
X147897646Y-74534699D01*
X147900499Y-74504273D01*
X147900500Y-74504273D01*
X147900500Y-74034108D01*
X158299500Y-74034108D01*
X158299500Y-74165892D01*
X158313839Y-74219407D01*
X158333609Y-74293190D01*
X158399496Y-74407309D01*
X158399498Y-74407311D01*
X158399500Y-74407314D01*
X158492686Y-74500500D01*
X158492688Y-74500501D01*
X158516525Y-74514264D01*
X158557465Y-74559734D01*
X158563860Y-74620584D01*
X158533267Y-74673572D01*
X158516525Y-74685736D01*
X158492688Y-74699498D01*
X158399496Y-74792690D01*
X158333609Y-74906809D01*
X158333608Y-74906814D01*
X158299500Y-75034108D01*
X158299500Y-75165892D01*
X158329579Y-75278151D01*
X158333609Y-75293190D01*
X158399496Y-75407309D01*
X158399498Y-75407311D01*
X158399500Y-75407314D01*
X158492686Y-75500500D01*
X158492688Y-75500501D01*
X158492690Y-75500503D01*
X158606810Y-75566390D01*
X158606808Y-75566390D01*
X158606812Y-75566391D01*
X158606814Y-75566392D01*
X158734108Y-75600500D01*
X158734110Y-75600500D01*
X158865890Y-75600500D01*
X158865892Y-75600500D01*
X158993186Y-75566392D01*
X158993188Y-75566390D01*
X158993190Y-75566390D01*
X159107309Y-75500503D01*
X159107309Y-75500502D01*
X159107314Y-75500500D01*
X159200500Y-75407314D01*
X159266392Y-75293186D01*
X159300500Y-75165892D01*
X159300500Y-75034108D01*
X159266392Y-74906814D01*
X159266390Y-74906811D01*
X159266390Y-74906809D01*
X159200503Y-74792690D01*
X159200501Y-74792688D01*
X159200500Y-74792686D01*
X159107314Y-74699500D01*
X159083474Y-74685735D01*
X159042534Y-74640267D01*
X159036138Y-74579417D01*
X159066731Y-74526429D01*
X159083474Y-74514264D01*
X159107314Y-74500500D01*
X159200500Y-74407314D01*
X159266392Y-74293186D01*
X159300500Y-74165892D01*
X159300500Y-74034108D01*
X159266392Y-73906814D01*
X159266390Y-73906811D01*
X159266390Y-73906809D01*
X159200503Y-73792690D01*
X159200501Y-73792688D01*
X159200500Y-73792686D01*
X159107314Y-73699500D01*
X159107311Y-73699498D01*
X159107309Y-73699496D01*
X158993189Y-73633609D01*
X158993191Y-73633609D01*
X158943799Y-73620375D01*
X158865892Y-73599500D01*
X158734108Y-73599500D01*
X158656200Y-73620375D01*
X158606809Y-73633609D01*
X158492690Y-73699496D01*
X158399496Y-73792690D01*
X158333609Y-73906809D01*
X158333608Y-73906814D01*
X158299500Y-74034108D01*
X147900500Y-74034108D01*
X147900500Y-73295727D01*
X147900499Y-73295725D01*
X147897646Y-73265305D01*
X147897646Y-73265301D01*
X147852793Y-73137118D01*
X147847281Y-73129650D01*
X147772154Y-73027855D01*
X147772152Y-73027853D01*
X147772150Y-73027850D01*
X147772146Y-73027847D01*
X147772144Y-73027845D01*
X147662883Y-72947207D01*
X147534703Y-72902355D01*
X147534694Y-72902353D01*
X147504274Y-72899500D01*
X147504266Y-72899500D01*
X146295734Y-72899500D01*
X146295725Y-72899500D01*
X146265305Y-72902353D01*
X146265296Y-72902355D01*
X146137116Y-72947207D01*
X146027855Y-73027845D01*
X146027845Y-73027855D01*
X145947207Y-73137116D01*
X145902355Y-73265296D01*
X145902353Y-73265305D01*
X145899500Y-73295725D01*
X145899500Y-73500500D01*
X145880593Y-73558691D01*
X145831093Y-73594655D01*
X145800500Y-73599500D01*
X144349500Y-73599500D01*
X144291309Y-73580593D01*
X144255345Y-73531093D01*
X144250500Y-73500500D01*
X144250500Y-73430253D01*
X144250498Y-73430241D01*
X144247711Y-73416231D01*
X144238867Y-73371769D01*
X144204274Y-73319999D01*
X144187667Y-73261115D01*
X144204274Y-73210001D01*
X144238867Y-73158231D01*
X144250500Y-73099748D01*
X144250500Y-72160252D01*
X144238867Y-72101769D01*
X144204274Y-72049999D01*
X144187667Y-71991115D01*
X144204274Y-71940001D01*
X144238867Y-71888231D01*
X144250500Y-71829748D01*
X144250500Y-70890252D01*
X144238867Y-70831769D01*
X144204274Y-70779999D01*
X144187667Y-70721115D01*
X144204274Y-70670001D01*
X144238867Y-70618231D01*
X144250500Y-70559748D01*
X144250500Y-70301506D01*
X145900000Y-70301506D01*
X145900000Y-70498493D01*
X145938429Y-70691688D01*
X145938429Y-70691690D01*
X146013809Y-70873675D01*
X146013812Y-70873681D01*
X146122392Y-71036182D01*
X146555414Y-70603160D01*
X146579920Y-70645606D01*
X146654394Y-70720080D01*
X146696836Y-70744584D01*
X146263816Y-71177605D01*
X146426324Y-71286190D01*
X146608310Y-71361570D01*
X146801506Y-71399999D01*
X146801510Y-71400000D01*
X146998490Y-71400000D01*
X146998493Y-71399999D01*
X147191688Y-71361570D01*
X147191690Y-71361570D01*
X147373675Y-71286190D01*
X147536182Y-71177605D01*
X147103161Y-70744584D01*
X147145606Y-70720080D01*
X147220080Y-70645606D01*
X147244584Y-70603161D01*
X147677605Y-71036182D01*
X147786190Y-70873675D01*
X147861570Y-70691690D01*
X147861570Y-70691688D01*
X147899999Y-70498493D01*
X147900000Y-70498490D01*
X147900000Y-70301509D01*
X147899999Y-70301506D01*
X147861570Y-70108311D01*
X147861570Y-70108309D01*
X147786190Y-69926324D01*
X147677605Y-69763816D01*
X147244584Y-70196836D01*
X147220080Y-70154394D01*
X147145606Y-70079920D01*
X147103160Y-70055414D01*
X147536183Y-69622392D01*
X147373681Y-69513812D01*
X147373675Y-69513809D01*
X147191689Y-69438429D01*
X147122753Y-69424717D01*
X146998493Y-69400000D01*
X146801506Y-69400000D01*
X146608311Y-69438429D01*
X146608309Y-69438429D01*
X146426326Y-69513808D01*
X146426314Y-69513814D01*
X146263816Y-69622393D01*
X146696838Y-70055415D01*
X146654394Y-70079920D01*
X146579920Y-70154394D01*
X146555415Y-70196838D01*
X146122393Y-69763816D01*
X146013814Y-69926314D01*
X146013808Y-69926326D01*
X145938429Y-70108309D01*
X145938429Y-70108311D01*
X145900000Y-70301506D01*
X144250500Y-70301506D01*
X144250500Y-69620252D01*
X144238867Y-69561769D01*
X144204274Y-69509999D01*
X144187667Y-69451115D01*
X144204275Y-69400000D01*
X144238867Y-69348231D01*
X144241676Y-69334108D01*
X157299500Y-69334108D01*
X157299500Y-69465892D01*
X157312340Y-69513812D01*
X157333609Y-69593190D01*
X157399496Y-69707309D01*
X157399501Y-69707315D01*
X157422183Y-69729998D01*
X157449959Y-69784515D01*
X157440387Y-69844947D01*
X157422183Y-69870002D01*
X157399501Y-69892684D01*
X157399496Y-69892690D01*
X157333609Y-70006809D01*
X157333608Y-70006814D01*
X157299500Y-70134108D01*
X157299500Y-70265892D01*
X157329579Y-70378151D01*
X157333609Y-70393190D01*
X157399496Y-70507309D01*
X157399501Y-70507315D01*
X157422183Y-70529998D01*
X157449959Y-70584515D01*
X157440387Y-70644947D01*
X157422183Y-70670002D01*
X157399501Y-70692684D01*
X157399496Y-70692690D01*
X157333609Y-70806809D01*
X157315693Y-70873675D01*
X157299500Y-70934108D01*
X157299500Y-71065892D01*
X157300601Y-71070000D01*
X157333609Y-71193190D01*
X157399496Y-71307309D01*
X157399501Y-71307315D01*
X157422183Y-71329998D01*
X157449959Y-71384515D01*
X157440387Y-71444947D01*
X157422183Y-71470002D01*
X157399501Y-71492684D01*
X157399496Y-71492690D01*
X157333609Y-71606809D01*
X157314539Y-71677978D01*
X157299500Y-71734108D01*
X157299500Y-71865892D01*
X157323256Y-71954552D01*
X157333609Y-71993190D01*
X157399496Y-72107309D01*
X157399501Y-72107315D01*
X157422183Y-72129998D01*
X157449959Y-72184515D01*
X157440387Y-72244947D01*
X157422183Y-72270002D01*
X157399501Y-72292684D01*
X157399496Y-72292690D01*
X157333609Y-72406809D01*
X157333608Y-72406814D01*
X157299500Y-72534108D01*
X157299500Y-72665892D01*
X157329579Y-72778151D01*
X157333609Y-72793190D01*
X157399496Y-72907309D01*
X157399501Y-72907315D01*
X157422183Y-72929998D01*
X157449959Y-72984515D01*
X157440387Y-73044947D01*
X157422183Y-73070002D01*
X157399501Y-73092684D01*
X157399496Y-73092690D01*
X157333609Y-73206809D01*
X157316976Y-73268886D01*
X157299500Y-73334108D01*
X157299500Y-73465892D01*
X157324365Y-73558691D01*
X157333609Y-73593190D01*
X157399496Y-73707309D01*
X157399498Y-73707311D01*
X157399500Y-73707314D01*
X157492686Y-73800500D01*
X157492688Y-73800501D01*
X157492690Y-73800503D01*
X157606810Y-73866390D01*
X157606808Y-73866390D01*
X157606812Y-73866391D01*
X157606814Y-73866392D01*
X157734108Y-73900500D01*
X157734110Y-73900500D01*
X157865890Y-73900500D01*
X157865892Y-73900500D01*
X157993186Y-73866392D01*
X157993188Y-73866390D01*
X157993190Y-73866390D01*
X158107309Y-73800503D01*
X158107309Y-73800502D01*
X158107314Y-73800500D01*
X158200500Y-73707314D01*
X158200503Y-73707309D01*
X158266390Y-73593190D01*
X158266390Y-73593188D01*
X158266392Y-73593186D01*
X158300500Y-73465892D01*
X158300500Y-73334108D01*
X158266392Y-73206814D01*
X158266390Y-73206811D01*
X158266390Y-73206809D01*
X158200503Y-73092690D01*
X158200501Y-73092688D01*
X158200500Y-73092686D01*
X158177815Y-73070001D01*
X158150040Y-73015487D01*
X158159611Y-72955055D01*
X158177816Y-72929998D01*
X158200500Y-72907314D01*
X158203364Y-72902353D01*
X158266390Y-72793190D01*
X158266390Y-72793188D01*
X158266392Y-72793186D01*
X158300500Y-72665892D01*
X158300500Y-72534108D01*
X158266392Y-72406814D01*
X158266390Y-72406811D01*
X158266390Y-72406809D01*
X158200503Y-72292690D01*
X158200501Y-72292688D01*
X158200500Y-72292686D01*
X158177815Y-72270001D01*
X158150040Y-72215487D01*
X158159611Y-72155055D01*
X158177816Y-72129998D01*
X158200500Y-72107314D01*
X158203700Y-72101772D01*
X158266390Y-71993190D01*
X158266390Y-71993188D01*
X158266392Y-71993186D01*
X158300500Y-71865892D01*
X158300500Y-71734108D01*
X158266392Y-71606814D01*
X158266390Y-71606811D01*
X158266390Y-71606809D01*
X158200503Y-71492690D01*
X158200501Y-71492688D01*
X158200500Y-71492686D01*
X158177815Y-71470001D01*
X158170698Y-71456032D01*
X158159611Y-71444945D01*
X158157158Y-71429457D01*
X158150040Y-71415487D01*
X158152492Y-71400000D01*
X158150040Y-71384513D01*
X158157158Y-71370542D01*
X158159611Y-71355055D01*
X158177816Y-71329998D01*
X158179998Y-71327815D01*
X158234513Y-71300040D01*
X158294945Y-71309611D01*
X158320000Y-71327814D01*
X158392686Y-71400500D01*
X158392688Y-71400501D01*
X158392690Y-71400503D01*
X158506810Y-71466390D01*
X158506808Y-71466390D01*
X158506812Y-71466391D01*
X158506814Y-71466392D01*
X158634108Y-71500500D01*
X158634110Y-71500500D01*
X158765890Y-71500500D01*
X158765892Y-71500500D01*
X158893186Y-71466392D01*
X158893188Y-71466390D01*
X158893190Y-71466390D01*
X159007309Y-71400503D01*
X159007309Y-71400502D01*
X159007314Y-71400500D01*
X159100500Y-71307314D01*
X159112696Y-71286190D01*
X159166390Y-71193190D01*
X159166390Y-71193188D01*
X159166392Y-71193186D01*
X159200500Y-71065892D01*
X159200500Y-70934108D01*
X159166392Y-70806814D01*
X159166390Y-70806811D01*
X159166390Y-70806809D01*
X159100503Y-70692690D01*
X159100501Y-70692688D01*
X159100500Y-70692686D01*
X159077815Y-70670001D01*
X159050040Y-70615487D01*
X159059611Y-70555055D01*
X159077816Y-70529998D01*
X159100500Y-70507314D01*
X159132054Y-70452661D01*
X159166390Y-70393190D01*
X159166390Y-70393188D01*
X159166392Y-70393186D01*
X159200500Y-70265892D01*
X159200500Y-70134108D01*
X159166392Y-70006814D01*
X159166390Y-70006811D01*
X159166390Y-70006809D01*
X159100503Y-69892690D01*
X159100501Y-69892688D01*
X159100500Y-69892686D01*
X159077815Y-69870001D01*
X159050040Y-69815487D01*
X159059611Y-69755055D01*
X159077816Y-69729998D01*
X159100500Y-69707314D01*
X159114269Y-69683465D01*
X159166390Y-69593190D01*
X159166390Y-69593188D01*
X159166392Y-69593186D01*
X159200500Y-69465892D01*
X159200500Y-69334108D01*
X159166392Y-69206814D01*
X159166390Y-69206811D01*
X159166390Y-69206809D01*
X159100503Y-69092690D01*
X159100501Y-69092688D01*
X159100500Y-69092686D01*
X159007314Y-68999500D01*
X159007311Y-68999498D01*
X159007309Y-68999496D01*
X158893189Y-68933609D01*
X158893191Y-68933609D01*
X158843799Y-68920375D01*
X158765892Y-68899500D01*
X158634108Y-68899500D01*
X158556200Y-68920375D01*
X158506809Y-68933609D01*
X158392690Y-68999496D01*
X158392689Y-68999497D01*
X158392686Y-68999499D01*
X158392686Y-68999500D01*
X158320001Y-69072184D01*
X158265487Y-69099960D01*
X158205055Y-69090389D01*
X158179999Y-69072185D01*
X158107314Y-68999500D01*
X158107311Y-68999498D01*
X158107309Y-68999496D01*
X157993189Y-68933609D01*
X157993191Y-68933609D01*
X157943799Y-68920375D01*
X157865892Y-68899500D01*
X157734108Y-68899500D01*
X157656200Y-68920375D01*
X157606809Y-68933609D01*
X157492690Y-68999496D01*
X157399496Y-69092690D01*
X157333609Y-69206809D01*
X157325075Y-69238660D01*
X157299500Y-69334108D01*
X144241676Y-69334108D01*
X144250500Y-69289748D01*
X144250500Y-68434108D01*
X145299500Y-68434108D01*
X145299500Y-68565892D01*
X145300566Y-68569869D01*
X145333609Y-68693190D01*
X145399496Y-68807309D01*
X145399498Y-68807311D01*
X145399500Y-68807314D01*
X145492686Y-68900500D01*
X145492688Y-68900501D01*
X145492690Y-68900503D01*
X145606810Y-68966390D01*
X145606808Y-68966390D01*
X145606812Y-68966391D01*
X145606814Y-68966392D01*
X145734108Y-69000500D01*
X145734110Y-69000500D01*
X145865890Y-69000500D01*
X145865892Y-69000500D01*
X145993186Y-68966392D01*
X145993188Y-68966390D01*
X145993190Y-68966390D01*
X146107309Y-68900503D01*
X146107309Y-68900502D01*
X146107314Y-68900500D01*
X146200500Y-68807314D01*
X146266392Y-68693186D01*
X146300500Y-68565892D01*
X146300500Y-68434108D01*
X146599500Y-68434108D01*
X146599500Y-68565892D01*
X146600566Y-68569869D01*
X146633609Y-68693190D01*
X146699496Y-68807309D01*
X146699498Y-68807311D01*
X146699500Y-68807314D01*
X146792686Y-68900500D01*
X146792688Y-68900501D01*
X146792690Y-68900503D01*
X146906810Y-68966390D01*
X146906808Y-68966390D01*
X146906812Y-68966391D01*
X146906814Y-68966392D01*
X147034108Y-69000500D01*
X147034110Y-69000500D01*
X147165890Y-69000500D01*
X147165892Y-69000500D01*
X147293186Y-68966392D01*
X147293188Y-68966390D01*
X147293190Y-68966390D01*
X147407309Y-68900503D01*
X147407309Y-68900502D01*
X147407314Y-68900500D01*
X147500500Y-68807314D01*
X147566392Y-68693186D01*
X147600500Y-68565892D01*
X147600500Y-68434108D01*
X147899500Y-68434108D01*
X147899500Y-68565892D01*
X147900566Y-68569869D01*
X147933609Y-68693190D01*
X147999496Y-68807309D01*
X147999498Y-68807311D01*
X147999500Y-68807314D01*
X148092686Y-68900500D01*
X148092688Y-68900501D01*
X148092690Y-68900503D01*
X148206810Y-68966390D01*
X148206808Y-68966390D01*
X148206812Y-68966391D01*
X148206814Y-68966392D01*
X148334108Y-69000500D01*
X148334110Y-69000500D01*
X148465890Y-69000500D01*
X148465892Y-69000500D01*
X148593186Y-68966392D01*
X148593188Y-68966390D01*
X148593190Y-68966390D01*
X148707309Y-68900503D01*
X148707309Y-68900502D01*
X148707314Y-68900500D01*
X148800500Y-68807314D01*
X148866392Y-68693186D01*
X148900500Y-68565892D01*
X148900500Y-68434108D01*
X148866392Y-68306814D01*
X148866390Y-68306811D01*
X148866390Y-68306809D01*
X148800503Y-68192690D01*
X148800501Y-68192688D01*
X148800500Y-68192686D01*
X148707314Y-68099500D01*
X148707311Y-68099498D01*
X148707309Y-68099496D01*
X148593189Y-68033609D01*
X148593191Y-68033609D01*
X148541452Y-68019746D01*
X148465892Y-67999500D01*
X148334108Y-67999500D01*
X148258548Y-68019746D01*
X148206809Y-68033609D01*
X148092690Y-68099496D01*
X147999496Y-68192690D01*
X147933609Y-68306809D01*
X147933608Y-68306814D01*
X147899500Y-68434108D01*
X147600500Y-68434108D01*
X147566392Y-68306814D01*
X147566390Y-68306811D01*
X147566390Y-68306809D01*
X147500503Y-68192690D01*
X147500501Y-68192688D01*
X147500500Y-68192686D01*
X147407314Y-68099500D01*
X147407311Y-68099498D01*
X147407309Y-68099496D01*
X147293189Y-68033609D01*
X147293191Y-68033609D01*
X147241452Y-68019746D01*
X147165892Y-67999500D01*
X147034108Y-67999500D01*
X146958548Y-68019746D01*
X146906809Y-68033609D01*
X146792690Y-68099496D01*
X146699496Y-68192690D01*
X146633609Y-68306809D01*
X146633608Y-68306814D01*
X146599500Y-68434108D01*
X146300500Y-68434108D01*
X146266392Y-68306814D01*
X146266390Y-68306811D01*
X146266390Y-68306809D01*
X146200503Y-68192690D01*
X146200501Y-68192688D01*
X146200500Y-68192686D01*
X146107314Y-68099500D01*
X146107311Y-68099498D01*
X146107309Y-68099496D01*
X145993189Y-68033609D01*
X145993191Y-68033609D01*
X145941452Y-68019746D01*
X145865892Y-67999500D01*
X145734108Y-67999500D01*
X145658548Y-68019746D01*
X145606809Y-68033609D01*
X145492690Y-68099496D01*
X145399496Y-68192690D01*
X145333609Y-68306809D01*
X145333608Y-68306814D01*
X145299500Y-68434108D01*
X144250500Y-68434108D01*
X144250500Y-68350252D01*
X144238867Y-68291769D01*
X144204274Y-68239999D01*
X144187667Y-68181115D01*
X144204274Y-68130001D01*
X144238867Y-68078231D01*
X144250500Y-68019748D01*
X144250500Y-67080252D01*
X144241321Y-67034108D01*
X148699500Y-67034108D01*
X148699500Y-67165892D01*
X148729579Y-67278151D01*
X148733609Y-67293190D01*
X148799496Y-67407309D01*
X148799498Y-67407311D01*
X148799500Y-67407314D01*
X148892686Y-67500500D01*
X148892688Y-67500501D01*
X148892690Y-67500503D01*
X149006810Y-67566390D01*
X149006808Y-67566390D01*
X149006812Y-67566391D01*
X149006814Y-67566392D01*
X149134108Y-67600500D01*
X149134110Y-67600500D01*
X149265890Y-67600500D01*
X149265892Y-67600500D01*
X149393186Y-67566392D01*
X149393188Y-67566390D01*
X149393190Y-67566390D01*
X149507309Y-67500503D01*
X149507309Y-67500502D01*
X149507314Y-67500500D01*
X149600500Y-67407314D01*
X149635657Y-67346420D01*
X149666390Y-67293190D01*
X149666390Y-67293188D01*
X149666392Y-67293186D01*
X149700500Y-67165892D01*
X149700500Y-67034108D01*
X149666392Y-66906814D01*
X149666390Y-66906811D01*
X149666390Y-66906809D01*
X149600503Y-66792690D01*
X149600501Y-66792688D01*
X149600500Y-66792686D01*
X149507314Y-66699500D01*
X149507311Y-66699498D01*
X149507309Y-66699496D01*
X149393189Y-66633609D01*
X149393191Y-66633609D01*
X149343799Y-66620375D01*
X149265892Y-66599500D01*
X149134108Y-66599500D01*
X149056200Y-66620375D01*
X149006809Y-66633609D01*
X148892690Y-66699496D01*
X148892689Y-66699497D01*
X148892686Y-66699499D01*
X148892686Y-66699500D01*
X148799500Y-66792686D01*
X148799499Y-66792688D01*
X148799496Y-66792690D01*
X148733609Y-66906809D01*
X148730373Y-66918886D01*
X148699500Y-67034108D01*
X144241321Y-67034108D01*
X144238867Y-67021769D01*
X144200439Y-66964259D01*
X144197440Y-66958047D01*
X144194190Y-66934244D01*
X144187667Y-66911115D01*
X144190037Y-66903820D01*
X144189164Y-66897424D01*
X144196641Y-66883493D01*
X144204274Y-66860001D01*
X144238867Y-66808231D01*
X144250500Y-66749748D01*
X144250500Y-65810252D01*
X144238867Y-65751769D01*
X144204274Y-65699999D01*
X144202864Y-65695000D01*
X152125000Y-65695000D01*
X152125001Y-65695000D01*
X158474999Y-65695000D01*
X158475000Y-65695000D01*
X158475000Y-64540252D01*
X159849500Y-64540252D01*
X159849500Y-64554142D01*
X159849500Y-65479746D01*
X159849501Y-65479758D01*
X159861132Y-65538227D01*
X159861134Y-65538233D01*
X159895723Y-65589998D01*
X159912332Y-65648886D01*
X159895723Y-65700002D01*
X159861134Y-65751766D01*
X159861132Y-65751772D01*
X159849501Y-65810241D01*
X159849500Y-65810253D01*
X159849500Y-66749746D01*
X159849501Y-66749758D01*
X159861132Y-66808227D01*
X159861134Y-66808233D01*
X159895723Y-66859998D01*
X159912332Y-66918886D01*
X159895723Y-66970002D01*
X159861134Y-67021766D01*
X159861132Y-67021772D01*
X159849501Y-67080241D01*
X159849500Y-67080253D01*
X159849500Y-68019746D01*
X159849501Y-68019758D01*
X159861132Y-68078227D01*
X159861134Y-68078233D01*
X159895723Y-68129998D01*
X159912332Y-68188886D01*
X159895723Y-68240002D01*
X159861134Y-68291766D01*
X159861132Y-68291772D01*
X159849501Y-68350241D01*
X159849500Y-68350253D01*
X159849500Y-69289746D01*
X159849501Y-69289758D01*
X159861132Y-69348227D01*
X159861134Y-69348233D01*
X159895723Y-69399998D01*
X159912332Y-69458886D01*
X159895723Y-69510002D01*
X159861134Y-69561766D01*
X159861132Y-69561772D01*
X159849501Y-69620241D01*
X159849500Y-69620253D01*
X159849500Y-70559746D01*
X159849501Y-70559758D01*
X159861132Y-70618227D01*
X159861134Y-70618233D01*
X159895723Y-70669998D01*
X159912332Y-70728886D01*
X159895723Y-70780002D01*
X159861134Y-70831766D01*
X159861132Y-70831772D01*
X159849501Y-70890241D01*
X159849500Y-70890253D01*
X159849500Y-71829746D01*
X159849501Y-71829758D01*
X159861132Y-71888227D01*
X159861134Y-71888233D01*
X159895723Y-71939998D01*
X159912332Y-71998886D01*
X159895723Y-72050002D01*
X159861134Y-72101766D01*
X159861132Y-72101772D01*
X159849501Y-72160241D01*
X159849500Y-72160253D01*
X159849500Y-73099746D01*
X159849501Y-73099758D01*
X159861132Y-73158227D01*
X159861134Y-73158233D01*
X159895723Y-73209998D01*
X159912332Y-73268886D01*
X159895723Y-73320002D01*
X159861134Y-73371766D01*
X159861132Y-73371772D01*
X159849501Y-73430241D01*
X159849500Y-73430253D01*
X159849500Y-74369746D01*
X159849501Y-74369758D01*
X159861132Y-74428227D01*
X159861134Y-74428233D01*
X159895723Y-74479998D01*
X159912332Y-74538886D01*
X159895723Y-74590002D01*
X159861134Y-74641766D01*
X159861132Y-74641772D01*
X159849501Y-74700241D01*
X159849500Y-74700253D01*
X159849500Y-75639746D01*
X159849501Y-75639758D01*
X159861132Y-75698227D01*
X159861134Y-75698233D01*
X159895723Y-75749998D01*
X159912332Y-75808886D01*
X159895723Y-75860002D01*
X159861134Y-75911766D01*
X159861132Y-75911772D01*
X159849501Y-75970241D01*
X159849500Y-75970253D01*
X159849500Y-76909746D01*
X159849501Y-76909758D01*
X159861132Y-76968227D01*
X159861134Y-76968233D01*
X159895723Y-77019998D01*
X159912332Y-77078886D01*
X159895723Y-77130002D01*
X159861134Y-77181766D01*
X159861132Y-77181772D01*
X159849501Y-77240241D01*
X159849500Y-77240253D01*
X159849500Y-78179746D01*
X159849501Y-78179758D01*
X159861132Y-78238227D01*
X159861134Y-78238233D01*
X159895723Y-78289998D01*
X159912332Y-78348886D01*
X159895723Y-78400002D01*
X159861134Y-78451766D01*
X159861132Y-78451772D01*
X159849501Y-78510241D01*
X159849500Y-78510253D01*
X159849500Y-79449746D01*
X159849501Y-79449758D01*
X159861132Y-79508227D01*
X159861134Y-79508233D01*
X159895723Y-79559998D01*
X159912332Y-79618886D01*
X159895723Y-79670002D01*
X159861134Y-79721766D01*
X159861132Y-79721772D01*
X159849501Y-79780241D01*
X159849500Y-79780253D01*
X159849500Y-80719746D01*
X159849501Y-80719758D01*
X159861132Y-80778227D01*
X159861133Y-80778231D01*
X159905448Y-80844552D01*
X159971769Y-80888867D01*
X160016231Y-80897711D01*
X160030241Y-80900498D01*
X160030246Y-80900498D01*
X160030252Y-80900500D01*
X160030253Y-80900500D01*
X161569747Y-80900500D01*
X161569748Y-80900500D01*
X161628231Y-80888867D01*
X161694552Y-80844552D01*
X161738867Y-80778231D01*
X161750500Y-80719748D01*
X161750500Y-80699500D01*
X161769407Y-80641309D01*
X161818907Y-80605345D01*
X161849500Y-80600500D01*
X162650500Y-80600500D01*
X162708691Y-80619407D01*
X162744655Y-80668907D01*
X162749500Y-80699500D01*
X162749500Y-80719746D01*
X162749501Y-80719758D01*
X162761132Y-80778227D01*
X162761133Y-80778231D01*
X162805448Y-80844552D01*
X162871769Y-80888867D01*
X162916231Y-80897711D01*
X162930241Y-80900498D01*
X162930246Y-80900498D01*
X162930252Y-80900500D01*
X162930253Y-80900500D01*
X164669747Y-80900500D01*
X164669748Y-80900500D01*
X164728231Y-80888867D01*
X164794552Y-80844552D01*
X164838867Y-80778231D01*
X164850500Y-80719748D01*
X164850500Y-79880252D01*
X164838867Y-79821769D01*
X164794552Y-79755448D01*
X164794548Y-79755445D01*
X164728233Y-79711134D01*
X164728231Y-79711133D01*
X164728228Y-79711132D01*
X164728227Y-79711132D01*
X164669758Y-79699501D01*
X164669748Y-79699500D01*
X162930252Y-79699500D01*
X162930251Y-79699500D01*
X162930241Y-79699501D01*
X162871772Y-79711132D01*
X162871766Y-79711134D01*
X162805451Y-79755445D01*
X162805445Y-79755451D01*
X162761134Y-79821766D01*
X162761132Y-79821772D01*
X162749501Y-79880241D01*
X162749500Y-79880253D01*
X162749500Y-79900500D01*
X162730593Y-79958691D01*
X162681093Y-79994655D01*
X162650500Y-79999500D01*
X161849500Y-79999500D01*
X161791309Y-79980593D01*
X161755345Y-79931093D01*
X161750500Y-79900500D01*
X161750500Y-79780253D01*
X161750498Y-79780241D01*
X161745566Y-79755448D01*
X161738867Y-79721769D01*
X161704274Y-79669999D01*
X161687667Y-79611115D01*
X161704274Y-79560001D01*
X161738867Y-79508231D01*
X161750500Y-79449748D01*
X161750500Y-78510252D01*
X161738867Y-78451769D01*
X161704274Y-78399999D01*
X161687667Y-78341115D01*
X161704274Y-78290001D01*
X161738867Y-78238231D01*
X161750500Y-78179748D01*
X161750500Y-77240252D01*
X161738867Y-77181769D01*
X161704274Y-77129999D01*
X161687667Y-77071115D01*
X161697151Y-77032555D01*
X161700250Y-77026023D01*
X161717638Y-77000001D01*
X162750000Y-77000001D01*
X162750000Y-77319700D01*
X162761603Y-77378036D01*
X162805806Y-77444189D01*
X162805810Y-77444193D01*
X162871963Y-77488396D01*
X162930299Y-77499999D01*
X162930303Y-77500000D01*
X163699999Y-77500000D01*
X163700000Y-77499999D01*
X163700000Y-77000001D01*
X163900000Y-77000001D01*
X163900000Y-77499999D01*
X163900001Y-77500000D01*
X164669697Y-77500000D01*
X164669700Y-77499999D01*
X164728036Y-77488396D01*
X164794189Y-77444193D01*
X164794193Y-77444189D01*
X164838396Y-77378036D01*
X164849999Y-77319700D01*
X164850000Y-77319697D01*
X164850000Y-77000001D01*
X164849999Y-77000000D01*
X163900001Y-77000000D01*
X163900000Y-77000001D01*
X163700000Y-77000001D01*
X163699999Y-77000000D01*
X162750001Y-77000000D01*
X162750000Y-77000001D01*
X161717638Y-77000001D01*
X161738867Y-76968231D01*
X161750500Y-76909748D01*
X161750500Y-76480299D01*
X162750000Y-76480299D01*
X162750000Y-76799999D01*
X162750001Y-76800000D01*
X163699999Y-76800000D01*
X163700000Y-76799999D01*
X163700000Y-76300001D01*
X163900000Y-76300001D01*
X163900000Y-76799999D01*
X163900001Y-76800000D01*
X164849999Y-76800000D01*
X164850000Y-76799999D01*
X164850000Y-76480302D01*
X164849999Y-76480299D01*
X164838396Y-76421963D01*
X164794193Y-76355810D01*
X164794189Y-76355806D01*
X164728036Y-76311603D01*
X164669700Y-76300000D01*
X163900001Y-76300000D01*
X163900000Y-76300001D01*
X163700000Y-76300001D01*
X163699999Y-76300000D01*
X162930299Y-76300000D01*
X162871963Y-76311603D01*
X162805810Y-76355806D01*
X162805806Y-76355810D01*
X162761603Y-76421963D01*
X162750000Y-76480299D01*
X161750500Y-76480299D01*
X161750500Y-75970252D01*
X161738867Y-75911769D01*
X161704274Y-75859999D01*
X161687667Y-75801115D01*
X161704274Y-75750001D01*
X161738867Y-75698231D01*
X161750500Y-75639748D01*
X161750500Y-74700252D01*
X161750350Y-74699500D01*
X161743067Y-74662883D01*
X161738867Y-74641769D01*
X161704274Y-74589999D01*
X161687667Y-74531115D01*
X161704274Y-74480001D01*
X161738867Y-74428231D01*
X161750500Y-74369748D01*
X161750500Y-73430252D01*
X161738867Y-73371769D01*
X161704274Y-73319999D01*
X161687667Y-73261115D01*
X161704274Y-73210001D01*
X161738867Y-73158231D01*
X161750500Y-73099748D01*
X161750500Y-72160252D01*
X161738867Y-72101769D01*
X161704274Y-72049999D01*
X161694849Y-72016581D01*
X162750000Y-72016581D01*
X162750000Y-72223418D01*
X162790349Y-72426272D01*
X162869501Y-72617360D01*
X162869508Y-72617374D01*
X162984405Y-72789329D01*
X162986826Y-72791750D01*
X163382210Y-72396365D01*
X163399901Y-72427007D01*
X163492993Y-72520099D01*
X163523632Y-72537788D01*
X163128249Y-72933173D01*
X163130670Y-72935594D01*
X163302625Y-73050491D01*
X163302639Y-73050498D01*
X163493727Y-73129650D01*
X163696581Y-73169999D01*
X163696586Y-73170000D01*
X163903414Y-73170000D01*
X163903418Y-73169999D01*
X164106272Y-73129650D01*
X164297360Y-73050498D01*
X164297366Y-73050495D01*
X164469333Y-72935591D01*
X164471750Y-72933173D01*
X164076366Y-72537789D01*
X164107007Y-72520099D01*
X164200099Y-72427007D01*
X164217789Y-72396366D01*
X164613173Y-72791750D01*
X164615591Y-72789333D01*
X164730495Y-72617366D01*
X164730498Y-72617360D01*
X164809650Y-72426272D01*
X164849999Y-72223418D01*
X164850000Y-72223413D01*
X164850000Y-72016586D01*
X164849999Y-72016581D01*
X164809650Y-71813727D01*
X164730498Y-71622639D01*
X164730491Y-71622625D01*
X164615594Y-71450670D01*
X164613173Y-71448249D01*
X164217788Y-71843632D01*
X164200099Y-71812993D01*
X164107007Y-71719901D01*
X164076365Y-71702210D01*
X164471750Y-71306826D01*
X164469329Y-71304405D01*
X164297374Y-71189508D01*
X164297360Y-71189501D01*
X164106272Y-71110349D01*
X163903418Y-71070000D01*
X163696581Y-71070000D01*
X163493727Y-71110349D01*
X163302639Y-71189501D01*
X163302630Y-71189505D01*
X163130665Y-71304410D01*
X163128248Y-71306825D01*
X163523633Y-71702210D01*
X163492993Y-71719901D01*
X163399901Y-71812993D01*
X163382210Y-71843633D01*
X162986825Y-71448248D01*
X162984410Y-71450665D01*
X162869505Y-71622630D01*
X162869501Y-71622639D01*
X162790349Y-71813727D01*
X162750000Y-72016581D01*
X161694849Y-72016581D01*
X161687667Y-71991115D01*
X161704274Y-71940001D01*
X161738867Y-71888231D01*
X161750500Y-71829748D01*
X161750500Y-70890252D01*
X161738867Y-70831769D01*
X161704274Y-70779999D01*
X161687667Y-70721115D01*
X161704274Y-70670001D01*
X161738867Y-70618231D01*
X161750500Y-70559748D01*
X161750500Y-69620252D01*
X161738867Y-69561769D01*
X161704274Y-69509999D01*
X161697064Y-69484435D01*
X161687697Y-69459587D01*
X161688868Y-69455375D01*
X161687667Y-69451115D01*
X161703888Y-69400583D01*
X161704020Y-69400381D01*
X161738867Y-69348231D01*
X161739097Y-69347071D01*
X161744935Y-69338200D01*
X161761841Y-69324676D01*
X161775903Y-69308210D01*
X161785228Y-69305970D01*
X161792716Y-69299981D01*
X161814342Y-69298977D01*
X161835397Y-69293921D01*
X161844257Y-69297590D01*
X161853835Y-69297146D01*
X161871919Y-69309045D01*
X161891927Y-69317331D01*
X161897642Y-69322613D01*
X162339540Y-69764511D01*
X162339539Y-69764511D01*
X162395489Y-69820460D01*
X162464007Y-69860019D01*
X162464011Y-69860021D01*
X162540435Y-69880499D01*
X162540437Y-69880500D01*
X162540438Y-69880500D01*
X162619562Y-69880500D01*
X162721268Y-69880500D01*
X162779459Y-69899407D01*
X162812732Y-69941614D01*
X162869058Y-70077597D01*
X162984020Y-70249651D01*
X162984023Y-70249655D01*
X163130345Y-70395977D01*
X163302402Y-70510941D01*
X163493580Y-70590130D01*
X163696535Y-70630500D01*
X163696536Y-70630500D01*
X163903464Y-70630500D01*
X163903465Y-70630500D01*
X164106420Y-70590130D01*
X164297598Y-70510941D01*
X164469655Y-70395977D01*
X164615977Y-70249655D01*
X164730941Y-70077598D01*
X164810130Y-69886420D01*
X164850500Y-69683465D01*
X164850500Y-69476535D01*
X164810130Y-69273580D01*
X164730941Y-69082402D01*
X164615977Y-68910345D01*
X164469655Y-68764023D01*
X164469651Y-68764020D01*
X164297597Y-68649058D01*
X164106418Y-68569869D01*
X163903467Y-68529500D01*
X163903465Y-68529500D01*
X163696535Y-68529500D01*
X163696532Y-68529500D01*
X163493581Y-68569869D01*
X163302402Y-68649058D01*
X163130348Y-68764020D01*
X162984020Y-68910348D01*
X162869058Y-69082402D01*
X162819823Y-69201266D01*
X162780086Y-69247792D01*
X162720591Y-69262075D01*
X162664063Y-69238660D01*
X162658355Y-69233384D01*
X162335316Y-68910345D01*
X162004511Y-68579540D01*
X161958069Y-68552727D01*
X161935989Y-68539979D01*
X161859562Y-68519500D01*
X161835244Y-68519500D01*
X161821566Y-68515477D01*
X161807511Y-68505857D01*
X161791309Y-68500593D01*
X161782890Y-68489005D01*
X161771075Y-68480919D01*
X161765358Y-68464875D01*
X161755345Y-68451093D01*
X161751262Y-68425312D01*
X161750539Y-68423283D01*
X161750800Y-68422395D01*
X161750500Y-68420500D01*
X161750500Y-68350253D01*
X161750498Y-68350241D01*
X161747711Y-68336231D01*
X161738867Y-68291769D01*
X161704274Y-68239999D01*
X161687667Y-68181115D01*
X161704274Y-68130001D01*
X161738867Y-68078231D01*
X161750500Y-68019748D01*
X161750500Y-67896121D01*
X161769407Y-67837930D01*
X161799997Y-67810386D01*
X161834511Y-67790460D01*
X161890460Y-67734511D01*
X162255475Y-67369496D01*
X162309992Y-67341719D01*
X162325479Y-67340500D01*
X162721268Y-67340500D01*
X162779459Y-67359407D01*
X162812732Y-67401614D01*
X162869058Y-67537597D01*
X162869059Y-67537598D01*
X162984023Y-67709655D01*
X163130345Y-67855977D01*
X163302402Y-67970941D01*
X163493580Y-68050130D01*
X163696535Y-68090500D01*
X163696536Y-68090500D01*
X163903464Y-68090500D01*
X163903465Y-68090500D01*
X164106420Y-68050130D01*
X164297598Y-67970941D01*
X164469655Y-67855977D01*
X164615977Y-67709655D01*
X164730941Y-67537598D01*
X164810130Y-67346420D01*
X164850500Y-67143465D01*
X164850500Y-66936535D01*
X164810130Y-66733580D01*
X164730941Y-66542402D01*
X164615977Y-66370345D01*
X164469655Y-66224023D01*
X164297598Y-66109059D01*
X164297599Y-66109059D01*
X164297597Y-66109058D01*
X164106418Y-66029869D01*
X163903467Y-65989500D01*
X163903465Y-65989500D01*
X163696535Y-65989500D01*
X163696532Y-65989500D01*
X163493581Y-66029869D01*
X163302402Y-66109058D01*
X163130348Y-66224020D01*
X162984020Y-66370348D01*
X162869058Y-66542402D01*
X162812732Y-66678386D01*
X162772995Y-66724912D01*
X162721268Y-66739500D01*
X162120435Y-66739500D01*
X162044011Y-66759978D01*
X161996286Y-66787533D01*
X161987361Y-66792686D01*
X161975489Y-66799540D01*
X161911144Y-66863883D01*
X161909133Y-66865688D01*
X161883501Y-66877037D01*
X161858524Y-66889764D01*
X161855752Y-66889325D01*
X161853187Y-66890461D01*
X161825780Y-66884577D01*
X161798092Y-66880192D01*
X161796107Y-66878207D01*
X161793365Y-66877619D01*
X161774651Y-66856750D01*
X161754828Y-66836927D01*
X161754389Y-66834155D01*
X161752516Y-66832067D01*
X161749641Y-66804181D01*
X161745257Y-66776495D01*
X161745941Y-66772666D01*
X161750499Y-66749753D01*
X161750500Y-66749746D01*
X161750500Y-65810253D01*
X161750498Y-65810241D01*
X161747711Y-65796231D01*
X161738867Y-65751769D01*
X161704274Y-65699999D01*
X161687667Y-65641115D01*
X161704274Y-65590001D01*
X161738867Y-65538231D01*
X161750500Y-65479748D01*
X161750500Y-64540252D01*
X161749178Y-64533608D01*
X161742394Y-64499500D01*
X161738867Y-64481769D01*
X161703975Y-64429551D01*
X161687367Y-64370664D01*
X161703976Y-64319547D01*
X161738396Y-64268034D01*
X161749999Y-64209700D01*
X161750000Y-64209697D01*
X161750000Y-63840001D01*
X161749999Y-63840000D01*
X159850001Y-63840000D01*
X159850000Y-63840001D01*
X159850000Y-64209700D01*
X159861603Y-64268036D01*
X159896023Y-64319548D01*
X159900554Y-64335613D01*
X159909535Y-64349686D01*
X159908651Y-64364323D01*
X159912632Y-64378437D01*
X159906696Y-64396704D01*
X159905848Y-64410760D01*
X159901945Y-64420689D01*
X159861133Y-64481769D01*
X159849500Y-64540252D01*
X158475000Y-64540252D01*
X158475000Y-63270299D01*
X159850000Y-63270299D01*
X159850000Y-63639999D01*
X159850001Y-63640000D01*
X160699999Y-63640000D01*
X160700000Y-63639999D01*
X160700000Y-63090001D01*
X160900000Y-63090001D01*
X160900000Y-63639999D01*
X160900001Y-63640000D01*
X161749999Y-63640000D01*
X161750000Y-63639999D01*
X161750000Y-63630253D01*
X162749500Y-63630253D01*
X162749500Y-65369746D01*
X162749501Y-65369758D01*
X162761132Y-65428227D01*
X162761134Y-65428233D01*
X162797938Y-65483313D01*
X162805448Y-65494552D01*
X162871769Y-65538867D01*
X162916231Y-65547711D01*
X162930241Y-65550498D01*
X162930246Y-65550498D01*
X162930252Y-65550500D01*
X162930253Y-65550500D01*
X164669747Y-65550500D01*
X164669748Y-65550500D01*
X164728231Y-65538867D01*
X164794552Y-65494552D01*
X164838867Y-65428231D01*
X164850500Y-65369748D01*
X164850500Y-63630252D01*
X164838867Y-63571769D01*
X164794552Y-63505448D01*
X164794548Y-63505445D01*
X164728233Y-63461134D01*
X164728231Y-63461133D01*
X164728228Y-63461132D01*
X164728227Y-63461132D01*
X164669758Y-63449501D01*
X164669748Y-63449500D01*
X162930252Y-63449500D01*
X162930251Y-63449500D01*
X162930241Y-63449501D01*
X162871772Y-63461132D01*
X162871766Y-63461134D01*
X162805451Y-63505445D01*
X162805445Y-63505451D01*
X162761134Y-63571766D01*
X162761132Y-63571772D01*
X162749501Y-63630241D01*
X162749500Y-63630253D01*
X161750000Y-63630253D01*
X161750000Y-63270302D01*
X161749999Y-63270299D01*
X161738396Y-63211963D01*
X161694193Y-63145810D01*
X161694189Y-63145806D01*
X161628036Y-63101603D01*
X161569700Y-63090000D01*
X160900001Y-63090000D01*
X160900000Y-63090001D01*
X160700000Y-63090001D01*
X160699999Y-63090000D01*
X160030299Y-63090000D01*
X159971963Y-63101603D01*
X159905810Y-63145806D01*
X159905806Y-63145810D01*
X159861603Y-63211963D01*
X159850000Y-63270299D01*
X158475000Y-63270299D01*
X158475000Y-63155000D01*
X152125000Y-63155000D01*
X152125000Y-65695000D01*
X144202864Y-65695000D01*
X144197702Y-65676698D01*
X144188048Y-65654500D01*
X144189648Y-65648139D01*
X144187667Y-65641115D01*
X144201284Y-65594763D01*
X144202703Y-65592353D01*
X144238867Y-65538231D01*
X144241055Y-65527226D01*
X144249570Y-65512769D01*
X144260519Y-65503079D01*
X144267660Y-65490323D01*
X144282856Y-65483313D01*
X144295391Y-65472221D01*
X144309944Y-65470818D01*
X144323219Y-65464695D01*
X144351981Y-65466765D01*
X144356294Y-65466350D01*
X144357698Y-65467177D01*
X144360496Y-65467378D01*
X144484108Y-65500500D01*
X144484110Y-65500500D01*
X144615890Y-65500500D01*
X144615892Y-65500500D01*
X144743186Y-65466392D01*
X144743188Y-65466390D01*
X144743190Y-65466390D01*
X144857309Y-65400503D01*
X144857309Y-65400502D01*
X144857314Y-65400500D01*
X144950500Y-65307314D01*
X145016392Y-65193186D01*
X145050500Y-65065892D01*
X145050500Y-64934108D01*
X145299500Y-64934108D01*
X145299500Y-65065892D01*
X145329579Y-65178151D01*
X145333609Y-65193190D01*
X145399496Y-65307309D01*
X145399498Y-65307311D01*
X145399500Y-65307314D01*
X145492686Y-65400500D01*
X145492688Y-65400501D01*
X145492690Y-65400503D01*
X145606810Y-65466390D01*
X145606808Y-65466390D01*
X145606812Y-65466391D01*
X145606814Y-65466392D01*
X145734108Y-65500500D01*
X145734110Y-65500500D01*
X145865890Y-65500500D01*
X145865892Y-65500500D01*
X145993186Y-65466392D01*
X145993188Y-65466390D01*
X145993190Y-65466390D01*
X146107309Y-65400503D01*
X146107309Y-65400502D01*
X146107314Y-65400500D01*
X146200500Y-65307314D01*
X146266392Y-65193186D01*
X146300500Y-65065892D01*
X146300500Y-64934108D01*
X146599500Y-64934108D01*
X146599500Y-65065892D01*
X146629579Y-65178151D01*
X146633609Y-65193190D01*
X146699496Y-65307309D01*
X146699498Y-65307311D01*
X146699500Y-65307314D01*
X146792686Y-65400500D01*
X146792688Y-65400501D01*
X146792690Y-65400503D01*
X146906810Y-65466390D01*
X146906808Y-65466390D01*
X146906812Y-65466391D01*
X146906814Y-65466392D01*
X147034108Y-65500500D01*
X147034110Y-65500500D01*
X147165890Y-65500500D01*
X147165892Y-65500500D01*
X147293186Y-65466392D01*
X147293188Y-65466390D01*
X147293190Y-65466390D01*
X147407309Y-65400503D01*
X147407309Y-65400502D01*
X147407314Y-65400500D01*
X147500500Y-65307314D01*
X147566392Y-65193186D01*
X147600500Y-65065892D01*
X147600500Y-64934108D01*
X147566392Y-64806814D01*
X147566390Y-64806811D01*
X147566390Y-64806809D01*
X147500503Y-64692690D01*
X147500501Y-64692688D01*
X147500500Y-64692686D01*
X147407314Y-64599500D01*
X147407311Y-64599498D01*
X147407309Y-64599496D01*
X147293189Y-64533609D01*
X147293191Y-64533609D01*
X147243799Y-64520375D01*
X147165892Y-64499500D01*
X147034108Y-64499500D01*
X146956200Y-64520375D01*
X146906809Y-64533609D01*
X146792690Y-64599496D01*
X146699496Y-64692690D01*
X146633609Y-64806809D01*
X146633608Y-64806814D01*
X146599500Y-64934108D01*
X146300500Y-64934108D01*
X146266392Y-64806814D01*
X146266390Y-64806811D01*
X146266390Y-64806809D01*
X146200503Y-64692690D01*
X146200501Y-64692688D01*
X146200500Y-64692686D01*
X146107314Y-64599500D01*
X146107311Y-64599498D01*
X146107309Y-64599496D01*
X145993189Y-64533609D01*
X145993191Y-64533609D01*
X145943799Y-64520375D01*
X145865892Y-64499500D01*
X145734108Y-64499500D01*
X145656200Y-64520375D01*
X145606809Y-64533609D01*
X145492690Y-64599496D01*
X145399496Y-64692690D01*
X145333609Y-64806809D01*
X145333608Y-64806814D01*
X145299500Y-64934108D01*
X145050500Y-64934108D01*
X145016392Y-64806814D01*
X145016390Y-64806811D01*
X145016390Y-64806809D01*
X144950503Y-64692690D01*
X144950501Y-64692688D01*
X144950500Y-64692686D01*
X144857314Y-64599500D01*
X144857311Y-64599498D01*
X144857309Y-64599496D01*
X144743189Y-64533609D01*
X144743191Y-64533609D01*
X144693799Y-64520375D01*
X144615892Y-64499500D01*
X144484108Y-64499500D01*
X144432561Y-64513311D01*
X144353838Y-64534405D01*
X144292737Y-64531202D01*
X144245315Y-64492892D01*
X144239223Y-64483559D01*
X144238867Y-64481769D01*
X144203694Y-64429130D01*
X144203390Y-64428664D01*
X144195545Y-64399662D01*
X144187367Y-64370664D01*
X144187550Y-64370100D01*
X144187415Y-64369601D01*
X144189430Y-64364312D01*
X144203976Y-64319547D01*
X144238396Y-64268034D01*
X144249999Y-64209700D01*
X144250000Y-64209697D01*
X144250000Y-63840001D01*
X144249999Y-63840000D01*
X142350001Y-63840000D01*
X142350000Y-63840001D01*
X142350000Y-64209700D01*
X142361603Y-64268036D01*
X142396023Y-64319548D01*
X142412632Y-64378437D01*
X142396024Y-64429551D01*
X142361134Y-64481767D01*
X142361132Y-64481772D01*
X142349501Y-64540241D01*
X142349500Y-64540253D01*
X141800500Y-64540253D01*
X141800500Y-63270299D01*
X142350000Y-63270299D01*
X142350000Y-63639999D01*
X142350001Y-63640000D01*
X143199999Y-63640000D01*
X143200000Y-63639999D01*
X143200000Y-63090001D01*
X143400000Y-63090001D01*
X143400000Y-63639999D01*
X143400001Y-63640000D01*
X144249999Y-63640000D01*
X144250000Y-63639999D01*
X144250000Y-63270302D01*
X144249999Y-63270299D01*
X144238396Y-63211963D01*
X144209685Y-63168995D01*
X144209684Y-63168993D01*
X144194195Y-63145812D01*
X144194189Y-63145806D01*
X144128036Y-63101603D01*
X144069700Y-63090000D01*
X143400001Y-63090000D01*
X143400000Y-63090001D01*
X143200000Y-63090001D01*
X143199999Y-63090000D01*
X142530299Y-63090000D01*
X142471963Y-63101603D01*
X142405810Y-63145806D01*
X142405806Y-63145810D01*
X142361603Y-63211963D01*
X142350000Y-63270299D01*
X141800500Y-63270299D01*
X141800500Y-62799500D01*
X141819407Y-62741309D01*
X141868907Y-62705345D01*
X141899500Y-62700500D01*
X165700500Y-62700500D01*
X165758691Y-62719407D01*
G37*
%TD.AperFunction*%
%TD*%
%TA.AperFunction,Conductor*%
%TO.N,VDD*%
G36*
X146859191Y-84518907D02*
G01*
X146895155Y-84568407D01*
X146900000Y-84599000D01*
X146900000Y-87501000D01*
X146881093Y-87559191D01*
X146831593Y-87595155D01*
X146801000Y-87600000D01*
X144099000Y-87600000D01*
X144040809Y-87581093D01*
X144004845Y-87531593D01*
X144000000Y-87501000D01*
X144000000Y-86937277D01*
X144018907Y-86879086D01*
X144040209Y-86857624D01*
X144122150Y-86797150D01*
X144202793Y-86687882D01*
X144247646Y-86559699D01*
X144250499Y-86529273D01*
X144250500Y-86529273D01*
X144250500Y-86522824D01*
X144699999Y-86522824D01*
X144706401Y-86582370D01*
X144706403Y-86582381D01*
X144756646Y-86717088D01*
X144756647Y-86717090D01*
X144842807Y-86832184D01*
X144842815Y-86832192D01*
X144957909Y-86918352D01*
X144957911Y-86918353D01*
X145092618Y-86968596D01*
X145092629Y-86968598D01*
X145152176Y-86975000D01*
X145412499Y-86975000D01*
X145412500Y-86974999D01*
X145412500Y-86125001D01*
X145662500Y-86125001D01*
X145662500Y-86974999D01*
X145662501Y-86975000D01*
X145922824Y-86975000D01*
X145982370Y-86968598D01*
X145982381Y-86968596D01*
X146117088Y-86918353D01*
X146117090Y-86918352D01*
X146232184Y-86832192D01*
X146232192Y-86832184D01*
X146318352Y-86717090D01*
X146318353Y-86717088D01*
X146368596Y-86582381D01*
X146368598Y-86582370D01*
X146375000Y-86522824D01*
X146375000Y-86125001D01*
X146374999Y-86125000D01*
X145662501Y-86125000D01*
X145662500Y-86125001D01*
X145412500Y-86125001D01*
X145412499Y-86125000D01*
X144700001Y-86125000D01*
X144700000Y-86125001D01*
X144700000Y-86522824D01*
X144699999Y-86522824D01*
X144250500Y-86522824D01*
X144250500Y-85477175D01*
X144700000Y-85477175D01*
X144700000Y-85874999D01*
X144700001Y-85875000D01*
X145412499Y-85875000D01*
X145412500Y-85874999D01*
X145412500Y-85025001D01*
X145662500Y-85025001D01*
X145662500Y-85874999D01*
X145662501Y-85875000D01*
X146374999Y-85875000D01*
X146375000Y-85874999D01*
X146375000Y-85477175D01*
X146368598Y-85417629D01*
X146368596Y-85417618D01*
X146318353Y-85282911D01*
X146318352Y-85282909D01*
X146232192Y-85167815D01*
X146232184Y-85167807D01*
X146117090Y-85081647D01*
X146117088Y-85081646D01*
X145982381Y-85031403D01*
X145982370Y-85031401D01*
X145922824Y-85025000D01*
X145662501Y-85025000D01*
X145662500Y-85025001D01*
X145412500Y-85025001D01*
X145412499Y-85025000D01*
X145152176Y-85025000D01*
X145092629Y-85031401D01*
X145092618Y-85031403D01*
X144957911Y-85081646D01*
X144957909Y-85081647D01*
X144842815Y-85167807D01*
X144842807Y-85167815D01*
X144756647Y-85282909D01*
X144756646Y-85282911D01*
X144706403Y-85417618D01*
X144706401Y-85417629D01*
X144700000Y-85477175D01*
X144250500Y-85477175D01*
X144250500Y-85470727D01*
X144250499Y-85470725D01*
X144247646Y-85440305D01*
X144247646Y-85440301D01*
X144202793Y-85312118D01*
X144181237Y-85282911D01*
X144122154Y-85202855D01*
X144122152Y-85202853D01*
X144122150Y-85202850D01*
X144074679Y-85167815D01*
X144040212Y-85142377D01*
X144004619Y-85092610D01*
X144000000Y-85062722D01*
X144000000Y-84599000D01*
X144018907Y-84540809D01*
X144068407Y-84504845D01*
X144099000Y-84500000D01*
X146801000Y-84500000D01*
X146859191Y-84518907D01*
G37*
%TD.AperFunction*%
%TD*%
M02*
