M48
; DRILL file {KiCad 9.0.4-9.0.4-0~ubuntu24.04.1} date 2026-04-29T23:01:09+0200
; FORMAT={-:-/ absolute / metric / decimal}
; #@! TF.CreationDate,2026-04-29T23:01:09+02:00
; #@! TF.GenerationSoftware,Kicad,Pcbnew,9.0.4-9.0.4-0~ubuntu24.04.1
; #@! TF.FileFunction,Plated,1,4,PTH
FMAT,2
METRIC
; #@! TA.AperFunction,Plated,PTH,ViaDrill
T1C0.300
; #@! TA.AperFunction,Plated,PTH,ComponentDrill
T2C0.300
; #@! TA.AperFunction,Plated,PTH,ComponentDrill
T3C0.800
; #@! TA.AperFunction,Plated,PTH,ComponentDrill
T4C1.000
; #@! TA.AperFunction,Plated,PTH,ComponentDrill
T5C1.800
%
G90
G05
T1
X142.1Y-63.7
X142.2Y-94.2
X142.3Y-86.2
X142.8Y-82.2
X142.887Y-66.3
X144.5Y-91.15
X144.55Y-63.74
X144.55Y-65.0
X144.6Y-85.1
X144.6Y-87.2
X144.65Y-68.85
X145.213Y-80.1
X145.3Y-81.5
X145.8Y-65.0
X145.8Y-68.5
X146.3Y-80.0
X146.3Y-82.8
X146.5Y-85.1
X146.5Y-87.2
X147.1Y-65.0
X147.1Y-68.5
X148.0Y-63.8
X148.4Y-68.5
X148.8Y-93.3
X149.1Y-88.4
X149.2Y-67.1
X149.7Y-78.6
X150.3Y-83.5
X150.5Y-63.8
X150.86Y-78.6
X152.02Y-78.6
X153.18Y-78.6
X154.34Y-78.6
X154.7Y-71.8
X154.7Y-72.6
X154.7Y-73.4
X155.3Y-73.9
X155.5Y-78.6
X156.2Y-73.9
X156.2Y-74.7
X156.9Y-71.8
X156.9Y-72.6
X156.9Y-73.4
X157.15Y-77.0
X157.8Y-69.4
X157.8Y-70.2
X157.8Y-71.0
X157.8Y-71.8
X157.8Y-72.6
X157.8Y-73.4
X158.3Y-79.2
X158.6Y-80.2
X158.7Y-69.4
X158.7Y-70.2
X158.7Y-71.0
X158.8Y-74.1
X158.8Y-75.1
X159.6Y-63.74
X162.0Y-63.8
X162.3Y-84.1
X162.9Y-78.1
X163.0Y-86.1
X163.0Y-87.8
X163.1Y-82.3
X163.8Y-75.9
T2
X149.15Y-70.76
X149.15Y-72.16
X149.85Y-70.06
X149.85Y-71.46
X149.85Y-72.86
X150.55Y-70.76
X150.55Y-72.16
X151.25Y-70.06
X151.25Y-71.46
X151.25Y-72.86
X151.95Y-70.76
X151.95Y-72.16
T3
X146.9Y-70.4
X146.9Y-73.9
T4
X163.8Y-64.5
X163.8Y-67.04
X163.8Y-69.58
X163.8Y-72.12
T5
X144.5Y-96.0
X149.58Y-96.0
X154.66Y-96.0
M30
