%TF.GenerationSoftware,KiCad,Pcbnew,9.0.4-9.0.4-0~ubuntu24.04.1*%
%TF.CreationDate,2026-01-09T17:59:39+01:00*%
%TF.ProjectId,LinKey,4c696e4b-6579-42e6-9b69-6361645f7063,rev?*%
%TF.SameCoordinates,Original*%
%TF.FileFunction,Soldermask,Top*%
%TF.FilePolarity,Negative*%
%FSLAX46Y46*%
G04 Gerber Fmt 4.6, Leading zero omitted, Abs format (unit mm)*
G04 Created by KiCad (PCBNEW 9.0.4-9.0.4-0~ubuntu24.04.1) date 2026-01-09 17:59:39*
%MOMM*%
%LPD*%
G01*
G04 APERTURE LIST*
G04 Aperture macros list*
%AMRoundRect*
0 Rectangle with rounded corners*
0 $1 Rounding radius*
0 $2 $3 $4 $5 $6 $7 $8 $9 X,Y pos of 4 corners*
0 Add a 4 corners polygon primitive as box body*
4,1,4,$2,$3,$4,$5,$6,$7,$8,$9,$2,$3,0*
0 Add four circle primitives for the rounded corners*
1,1,$1+$1,$2,$3*
1,1,$1+$1,$4,$5*
1,1,$1+$1,$6,$7*
1,1,$1+$1,$8,$9*
0 Add four rect primitives between the rounded corners*
20,1,$1+$1,$2,$3,$4,$5,0*
20,1,$1+$1,$4,$5,$6,$7,0*
20,1,$1+$1,$6,$7,$8,$9,0*
20,1,$1+$1,$8,$9,$2,$3,0*%
G04 Aperture macros list end*
%ADD10RoundRect,0.237500X0.250000X0.237500X-0.250000X0.237500X-0.250000X-0.237500X0.250000X-0.237500X0*%
%ADD11R,1.500000X0.900000*%
%ADD12R,0.900000X1.500000*%
%ADD13R,0.900000X0.900000*%
%ADD14C,0.600000*%
%ADD15R,0.900000X1.200000*%
%ADD16R,0.900000X0.800000*%
%ADD17RoundRect,0.237500X0.237500X-0.250000X0.237500X0.250000X-0.237500X0.250000X-0.237500X-0.250000X0*%
%ADD18R,1.700000X0.800000*%
%ADD19R,1.700000X1.700000*%
%ADD20C,1.700000*%
%ADD21RoundRect,0.150000X0.150000X-0.662500X0.150000X0.662500X-0.150000X0.662500X-0.150000X-0.662500X0*%
%ADD22C,2.200000*%
%ADD23R,2.000000X1.100000*%
%ADD24RoundRect,0.250000X0.337500X0.475000X-0.337500X0.475000X-0.337500X-0.475000X0.337500X-0.475000X0*%
%ADD25R,3.400000X3.400000*%
%ADD26C,3.400000*%
%ADD27RoundRect,0.250000X0.550000X-0.550000X0.550000X0.550000X-0.550000X0.550000X-0.550000X-0.550000X0*%
%ADD28C,1.600000*%
G04 APERTURE END LIST*
D10*
%TO.C,R4*%
X151425000Y-93300000D03*
X149600000Y-93300000D03*
%TD*%
%TO.C,R8*%
X155212500Y-87000000D03*
X153387500Y-87000000D03*
%TD*%
%TO.C,R1*%
X147974167Y-93250000D03*
X146149167Y-93250000D03*
%TD*%
%TO.C,R3*%
X144575000Y-93250000D03*
X142750000Y-93250000D03*
%TD*%
D11*
%TO.C,U2*%
X143300000Y-63740000D03*
X143300000Y-65010000D03*
X143300000Y-66280000D03*
X143300000Y-67550000D03*
X143300000Y-68820000D03*
X143300000Y-70090000D03*
X143300000Y-71360000D03*
X143300000Y-72630000D03*
X143300000Y-73900000D03*
X143300000Y-75170000D03*
X143300000Y-76440000D03*
X143300000Y-77710000D03*
X143300000Y-78980000D03*
X143300000Y-80250000D03*
D12*
X146335000Y-81500000D03*
X147605000Y-81500000D03*
X148875000Y-81500000D03*
X150145000Y-81500000D03*
X151415000Y-81500000D03*
X152685000Y-81500000D03*
X153955000Y-81500000D03*
X155225000Y-81500000D03*
X156495000Y-81500000D03*
X157765000Y-81500000D03*
D11*
X160800000Y-80250000D03*
X160800000Y-78980000D03*
X160800000Y-77710000D03*
X160800000Y-76440000D03*
X160800000Y-75170000D03*
X160800000Y-73900000D03*
X160800000Y-72630000D03*
X160800000Y-71360000D03*
X160800000Y-70090000D03*
X160800000Y-68820000D03*
X160800000Y-67550000D03*
X160800000Y-66280000D03*
X160800000Y-65010000D03*
X160800000Y-63740000D03*
D13*
X149150000Y-70060000D03*
D14*
X149150000Y-70760000D03*
D13*
X149150000Y-71460000D03*
D14*
X149150000Y-72160000D03*
D13*
X149150000Y-72860000D03*
D14*
X149850000Y-70060000D03*
X149850000Y-71460000D03*
X149850000Y-72860000D03*
D13*
X150550000Y-70060000D03*
D14*
X150550000Y-70760000D03*
D13*
X150550000Y-71460000D03*
D14*
X150550000Y-72160000D03*
D13*
X150550000Y-72860000D03*
D14*
X151250000Y-70060000D03*
X151250000Y-71460000D03*
X151250000Y-72860000D03*
D13*
X151950000Y-70060000D03*
D14*
X151950000Y-70760000D03*
D13*
X151950000Y-71460000D03*
D14*
X151950000Y-72160000D03*
D13*
X151950000Y-72860000D03*
%TD*%
D15*
%TO.C,D1*%
X143500000Y-89000000D03*
D16*
X143500000Y-90800000D03*
X145500000Y-90800000D03*
X145500000Y-88800000D03*
%TD*%
D17*
%TO.C,R2*%
X148000000Y-91612500D03*
X148000000Y-89787500D03*
%TD*%
D18*
%TO.C,SW2*%
X163800000Y-80300000D03*
X163800000Y-76900000D03*
%TD*%
D19*
%TO.C,J2*%
X163800000Y-64500000D03*
D20*
X163800000Y-67040000D03*
X163800000Y-69580000D03*
X163800000Y-72120000D03*
%TD*%
D21*
%TO.C,U1*%
X149665000Y-91187500D03*
X150935000Y-91187500D03*
X150935000Y-84812500D03*
X149665000Y-84812500D03*
%TD*%
D10*
%TO.C,R6*%
X161512500Y-83300000D03*
X159687500Y-83300000D03*
%TD*%
D22*
%TO.C,REF\u002A\u002A*%
X154300000Y-90500000D03*
%TD*%
D10*
%TO.C,R9*%
X155200000Y-85300000D03*
X153375000Y-85300000D03*
%TD*%
D23*
%TO.C,D8*%
X163000000Y-88700000D03*
X163000000Y-87000000D03*
X163000000Y-85300000D03*
X158200000Y-85300000D03*
X158200000Y-87000000D03*
X158200000Y-88700000D03*
%TD*%
D10*
%TO.C,R5*%
X144612500Y-83300000D03*
X142787500Y-83300000D03*
%TD*%
D24*
%TO.C,C1*%
X145537500Y-86200000D03*
X143462500Y-86200000D03*
%TD*%
D25*
%TO.C,J1*%
X144500000Y-96000000D03*
D26*
X149580000Y-96000000D03*
X154660000Y-96000000D03*
%TD*%
D27*
%TO.C,C2*%
X146900000Y-73900000D03*
D28*
X146900000Y-70400000D03*
%TD*%
M02*
